# Blender v2.78 (sub 0) OBJ File: 'Asset_Master_Hangar_Kit.blend'
# www.blender.org
mtllib WallC.mtl
o struc_wall_C_low_Cube.024
v 0.000000 0.000000 0.000000
v -0.000000 2.184921 -0.465604
v -0.000000 2.184921 -0.333441
v -0.000000 1.745536 -0.303411
v 0.000000 0.333312 -0.303411
v -0.000000 1.884590 -0.095357
v -0.000000 2.014695 -0.093540
v -0.000000 2.115853 -0.465604
v 0.000000 0.047683 0.000000
v 0.000000 0.333312 -0.285629
v -0.000000 1.427539 -0.303411
v 0.000000 0.471654 -0.303411
v 1.000000 2.122015 -0.244787
v -0.000000 2.115853 -0.541751
v 1.000000 2.000000 -0.541751
v 1.000000 2.000000 -1.000000
v 1.000000 2.115853 -0.541751
v 0.000000 2.000000 -1.000000
v 1.000000 0.471654 -0.303411
v 1.000000 1.427539 -0.303411
v 1.000000 0.333312 -0.285629
v -0.000000 2.000000 -0.541751
v 1.000000 0.047683 0.000000
v 1.000000 2.115853 -0.465604
v 1.000000 2.014695 -0.093540
v -0.000000 2.122015 -0.244787
v 1.000000 1.884590 -0.095357
v 1.000000 0.333312 -0.303411
v 1.000000 1.745536 -0.303411
v 1.000000 2.184921 -0.333441
v 1.000000 2.184921 -0.465604
v 1.000000 0.000000 0.000000
v -0.000000 1.745536 -0.303411
v 1.000000 1.745536 -0.303411
v 1.000000 2.184921 -0.333441
v -0.000000 2.184921 -0.333441
v 1.000000 0.047683 0.000000
v 0.000000 0.047683 0.000000
v 1.000000 1.884590 -0.095357
v -0.000000 1.884590 -0.095357
v 1.000000 2.115853 -0.465604
v -0.000000 2.115853 -0.465604
v -0.000000 2.014695 -0.093540
v 1.000000 2.014695 -0.093540
v -0.000000 2.000000 -0.541751
v 1.000000 2.000000 -0.541751
v 1.000000 0.333312 -0.303411
v 0.000000 0.333312 -0.303411
v 0.000000 0.333312 -0.285629
v 1.000000 0.333312 -0.285629
v 1.000000 2.115853 -0.541751
v -0.000000 2.115853 -0.541751
v -0.000000 2.184921 -0.465604
v 1.000000 2.184921 -0.465604
vt 0.0002 0.7300
vt 0.0002 0.7061
vt 0.4998 0.7061
vt 0.4998 0.7300
vt 0.5002 0.1902
vt 0.5002 0.1252
vt 0.9998 0.1252
vt 0.9998 0.1902
vt 0.0002 0.9318
vt 0.0002 0.7300
vt 0.4998 0.7300
vt 0.4998 0.9318
vt 0.0002 0.7058
vt 0.0002 0.5469
vt 0.4998 0.5469
vt 0.4998 0.7058
vt 0.0002 0.0693
vt 0.4998 0.0693
vt 0.5002 0.1252
vt 0.5002 0.0002
vt 0.9998 0.0002
vt 0.9998 0.1252
vt 0.5002 0.4032
vt 0.5002 0.3372
vt 0.9998 0.3372
vt 0.9998 0.4032
vt 0.5002 0.7630
vt 0.5002 0.5340
vt 0.9998 0.5340
vt 0.9998 0.7630
vt 0.0002 0.9407
vt 0.0002 0.9318
vt 0.4998 0.9318
vt 0.4998 0.9407
vt 0.5002 0.4377
vt 0.5002 0.4032
vt 0.9998 0.4032
vt 0.9998 0.4377
vt 0.5002 0.4758
vt 0.5002 0.4377
vt 0.9998 0.4377
vt 0.9998 0.4758
vt 0.5002 0.3372
vt 0.5002 0.2829
vt 0.9998 0.2829
vt 0.9998 0.3372
vt 0.5002 0.1902
vt 0.9998 0.1902
vt 0.5002 0.4758
vt 0.9998 0.4758
vt 0.9998 0.5337
vt 0.5002 0.5337
vt 0.0002 0.0002
vt 0.4998 0.0002
vn 0.0000 0.0000 1.0000
vn 0.0000 -0.0140 0.9999
vn 0.0000 0.7071 0.7071
vn 0.0000 -0.8314 0.5557
vn 0.0000 1.0000 0.0000
vn 0.0000 0.0000 -1.0000
vn 0.0000 0.8156 0.5787
usemtl Material
s off
f 9/1/1 1/2/1 32/3/1 37/4/1
f 43/5/2 40/6/2 39/7/2 44/8/2
f 49/9/3 38/10/3 23/11/3 50/12/3
f 4/13/1 11/14/1 20/15/1 34/16/1
f 11/14/1 12/17/1 19/18/1 20/15/1
f 6/19/4 33/20/4 29/21/4 27/22/4
f 2/23/5 36/24/5 35/25/5 54/26/5
f 18/27/5 45/28/5 46/29/5 16/30/5
f 5/31/5 10/32/5 21/33/5 47/34/5
f 42/35/6 53/36/6 31/37/6 41/38/6
f 52/39/5 8/40/5 24/41/5 17/42/5
f 3/43/7 26/44/7 13/45/7 30/46/7
f 26/44/7 7/47/7 25/48/7 13/45/7
f 14/49/6 51/50/6 15/51/6 22/52/6
f 12/17/1 48/53/1 28/54/1 19/18/1
