# Blender v2.78 (sub 0) OBJ File: 'CafeKit_Master.blend'
# www.blender.org
mtllib floor_divot.mtl
o Circle_Circle.004
v -3.991959 0.091460 0.794050
v -3.760343 0.091460 1.557585
v -3.384220 0.091460 2.261263
v -2.878042 0.091460 2.878042
v -2.261263 0.091460 3.384220
v -1.557584 0.091460 3.760344
v -0.794049 0.091460 3.991959
v -3.582855 -0.256391 0.712674
v -3.374976 -0.256391 1.397960
v -3.037398 -0.256391 2.029525
v -2.583095 -0.256391 2.583095
v -2.029524 -0.256391 3.037398
v -1.397960 -0.256391 3.374976
v -0.712674 -0.256391 3.582855
v -4.985313 0.000000 0.972586
v -4.985313 0.000000 1.907797
v -4.985313 0.000000 2.769692
v -4.985314 0.000000 4.985313
v -2.769691 0.000000 4.985313
v -1.907796 0.000000 4.985313
v -0.972585 0.000000 4.985314
v 3.991959 0.091460 0.794050
v 3.760343 0.091460 1.557585
v 3.384220 0.091460 2.261263
v 2.878042 0.091460 2.878042
v 2.261263 0.091460 3.384220
v 1.557584 0.091460 3.760344
v 0.794049 0.091460 3.991959
v 0.000000 0.091460 4.070166
v 3.582855 -0.256391 0.712674
v 3.374976 -0.256391 1.397960
v 3.037398 -0.256391 2.029525
v 2.583095 -0.256391 2.583095
v 2.029524 -0.256391 3.037398
v 1.397960 -0.256391 3.374976
v 0.712674 -0.256391 3.582855
v 0.000000 -0.256391 3.653048
v 4.985313 0.000000 0.972586
v 4.985313 0.000000 1.907797
v 4.985313 0.000000 2.769692
v 4.985314 0.000000 4.985313
v 2.769691 0.000000 4.985313
v 1.907796 0.000000 4.985313
v 0.972585 0.000000 4.985314
v 0.000000 0.000000 4.985314
v -4.070166 0.091460 0.000000
v -3.991959 0.091460 -0.794050
v -3.760343 0.091460 -1.557585
v -3.384220 0.091460 -2.261263
v -2.878042 0.091460 -2.878042
v -2.261263 0.091460 -3.384220
v -1.557584 0.091460 -3.760344
v -0.794049 0.091460 -3.991959
v -3.653048 -0.256391 0.000000
v -3.582855 -0.256391 -0.712674
v -3.374976 -0.256391 -1.397960
v -3.037398 -0.256391 -2.029525
v -2.583095 -0.256391 -2.583095
v -2.029524 -0.256391 -3.037398
v -1.397960 -0.256391 -3.374976
v -0.712674 -0.256391 -3.582855
v -4.985313 0.000000 0.000000
v -4.985313 0.000000 -0.972586
v -4.985313 0.000000 -1.907797
v -4.985313 0.000000 -2.769692
v -4.985314 0.000000 -4.985313
v -2.769691 0.000000 -4.985313
v -1.907796 0.000000 -4.985313
v -0.972585 0.000000 -4.985314
v 4.070166 0.091460 0.000000
v 3.991959 0.091460 -0.794050
v 3.760343 0.091460 -1.557585
v 3.384220 0.091460 -2.261263
v 2.878042 0.091460 -2.878042
v 2.261263 0.091460 -3.384220
v 1.557584 0.091460 -3.760344
v 0.794049 0.091460 -3.991959
v 0.000000 0.091460 -4.070166
v 3.653048 -0.256391 0.000000
v 3.582855 -0.256391 -0.712674
v 3.374976 -0.256391 -1.397960
v 3.037398 -0.256391 -2.029525
v 2.583095 -0.256391 -2.583095
v 2.029524 -0.256391 -3.037398
v 1.397960 -0.256391 -3.374976
v 0.712674 -0.256391 -3.582855
v 0.000000 -0.256391 -3.653048
v 4.985313 0.000000 0.000000
v 4.985313 0.000000 -0.972586
v 4.985313 0.000000 -1.907797
v 4.985313 0.000000 -2.769692
v 4.985314 0.000000 -4.985313
v 2.769691 0.000000 -4.985313
v 1.907796 0.000000 -4.985313
v 0.972585 0.000000 -4.985314
v 0.000000 0.000000 -4.985314
v 0.000000 -0.256391 0.000000
vt 0.7887 0.7887
vt 0.7591 0.7591
vt 0.8046 0.7036
vt 0.8394 0.7268
vt 0.7268 0.8394
vt 0.7036 0.8046
vt 0.6562 0.8771
vt 0.6402 0.8385
vt 0.5796 0.9004
vt 0.5715 0.8593
vt 0.5000 0.9082
vt 0.5000 0.8664
vt 0.9004 0.5796
vt 0.8593 0.5715
vt 0.8664 0.5000
vt 0.9082 0.5000
vt 0.8771 0.6562
vt 0.8385 0.6402
vt 1.0000 0.7778
vt 1.0000 1.0000
vt 0.7778 1.0000
vt 0.6913 1.0000
vt 0.5975 1.0000
vt 0.5000 1.0000
vt 1.0000 0.5000
vt 1.0000 0.5975
vt 1.0000 0.6913
vt 0.5000 0.5000
vt 0.2113 0.7887
vt 0.1606 0.7268
vt 0.1954 0.7036
vt 0.2409 0.7591
vt 0.2732 0.8394
vt 0.2964 0.8046
vt 0.3438 0.8771
vt 0.3598 0.8385
vt 0.4204 0.9004
vt 0.4285 0.8593
vt 0.0996 0.5796
vt 0.0918 0.5000
vt 0.1336 0.5000
vt 0.1407 0.5715
vt 0.1229 0.6562
vt 0.1615 0.6402
vt 0.0000 1.0000
vt 0.0000 0.7778
vt 0.2222 1.0000
vt 0.3087 1.0000
vt 0.4025 1.0000
vt 0.0000 0.5975
vt 0.0000 0.5000
vt 0.0000 0.6913
vt 0.7887 0.2113
vt 0.8394 0.2732
vt 0.8046 0.2964
vt 0.7591 0.2409
vt 0.7268 0.1606
vt 0.7036 0.1954
vt 0.6562 0.1229
vt 0.6402 0.1615
vt 0.5796 0.0996
vt 0.5715 0.1407
vt 0.5000 0.0918
vt 0.5000 0.1336
vt 0.9004 0.4204
vt 0.8593 0.4285
vt 0.8771 0.3438
vt 0.8385 0.3598
vt 1.0000 0.0000
vt 1.0000 0.2222
vt 0.7778 0.0000
vt 0.6913 0.0000
vt 0.5975 0.0000
vt 0.5000 0.0000
vt 1.0000 0.4025
vt 1.0000 0.3087
vt 0.2113 0.2113
vt 0.2409 0.2409
vt 0.1954 0.2964
vt 0.1606 0.2732
vt 0.2732 0.1606
vt 0.2964 0.1954
vt 0.3438 0.1229
vt 0.3598 0.1615
vt 0.4204 0.0996
vt 0.4285 0.1407
vt 0.0996 0.4204
vt 0.1407 0.4285
vt 0.1229 0.3438
vt 0.1615 0.3598
vt 0.0000 0.2222
vt 0.0000 0.0000
vt 0.2222 0.0000
vt 0.3087 0.0000
vt 0.4025 0.0000
vt 0.0000 0.4025
vt 0.0000 0.3087
vn 0.4965 0.7665 -0.4075
vn 0.4075 0.7665 -0.4965
vn 0.3028 0.7665 -0.5664
vn 0.1864 0.7665 -0.6146
vn 0.0630 0.7665 -0.6392
vn 0.6392 0.7665 -0.0630
vn 0.6146 0.7665 -0.1864
vn 0.5664 0.7665 -0.3028
vn -0.0438 0.9990 0.0078
vn -0.0078 0.9990 0.0438
vn -0.0145 0.9981 0.0602
vn -0.0109 0.9968 0.0796
vn -0.0042 0.9955 0.0950
vn -0.0950 0.9955 0.0042
vn -0.0796 0.9968 0.0109
vn -0.0602 0.9981 0.0145
vn 0.0000 1.0000 -0.0000
vn -0.4965 0.7665 -0.4075
vn -0.4075 0.7665 -0.4965
vn -0.3028 0.7665 -0.5664
vn -0.1864 0.7665 -0.6146
vn -0.0630 0.7665 -0.6392
vn -0.6392 0.7665 -0.0630
vn -0.6146 0.7665 -0.1864
vn -0.5664 0.7665 -0.3028
vn 0.0438 0.9990 0.0078
vn 0.0078 0.9990 0.0438
vn 0.0145 0.9981 0.0602
vn 0.0109 0.9968 0.0796
vn 0.0042 0.9955 0.0950
vn 0.0950 0.9955 0.0042
vn 0.0796 0.9968 0.0109
vn 0.0602 0.9981 0.0145
vn 0.4965 0.7665 0.4075
vn 0.4075 0.7665 0.4965
vn 0.3028 0.7665 0.5664
vn 0.1864 0.7665 0.6146
vn 0.0630 0.7665 0.6392
vn 0.6392 0.7665 0.0630
vn 0.6146 0.7665 0.1864
vn 0.5664 0.7665 0.3028
vn -0.0438 0.9990 -0.0078
vn -0.0078 0.9990 -0.0438
vn -0.0145 0.9981 -0.0602
vn -0.0109 0.9968 -0.0796
vn -0.0042 0.9955 -0.0950
vn -0.0950 0.9955 -0.0042
vn -0.0796 0.9968 -0.0109
vn -0.0602 0.9981 -0.0145
vn -0.4965 0.7665 0.4075
vn -0.4075 0.7665 0.4965
vn -0.3028 0.7665 0.5664
vn -0.1864 0.7665 0.6146
vn -0.0630 0.7665 0.6392
vn -0.6392 0.7665 0.0630
vn -0.6146 0.7665 0.1864
vn -0.5664 0.7665 0.3028
vn 0.0438 0.9990 -0.0078
vn 0.0078 0.9990 -0.0438
vn 0.0145 0.9981 -0.0602
vn 0.0109 0.9968 -0.0796
vn 0.0042 0.9955 -0.0950
vn 0.0950 0.9955 -0.0042
vn 0.0796 0.9968 -0.0109
vn 0.0602 0.9981 -0.0145
usemtl None
s off
f 4/1/1 11/2/1 10/3/1 3/4/1
f 5/5/2 12/6/2 11/2/2 4/1/2
f 6/7/3 13/8/3 12/6/3 5/5/3
f 7/9/4 14/10/4 13/8/4 6/7/4
f 29/11/5 37/12/5 14/10/5 7/9/5
f 1/13/6 8/14/6 54/15/6 46/16/6
f 2/17/7 9/18/7 8/14/7 1/13/7
f 3/4/8 10/3/8 9/18/8 2/17/8
f 3/4/9 17/19/9 18/20/9 4/1/9
f 4/1/10 18/20/10 19/21/10 5/5/10
f 5/5/11 19/21/11 20/22/11 6/7/11
f 6/7/12 20/22/12 21/23/12 7/9/12
f 7/9/13 21/23/13 45/24/13 29/11/13
f 46/16/14 62/25/14 15/26/14 1/13/14
f 1/13/15 15/26/15 16/27/15 2/17/15
f 2/17/16 16/27/16 17/19/16 3/4/16
f 54/15/17 8/14/17 9/18/17 10/3/17 11/2/17 12/6/17 13/8/17 14/10/17 37/12/17 97/28/17
f 25/29/18 24/30/18 32/31/18 33/32/18
f 26/33/19 25/29/19 33/32/19 34/34/19
f 27/35/20 26/33/20 34/34/20 35/36/20
f 28/37/21 27/35/21 35/36/21 36/38/21
f 29/11/22 28/37/22 36/38/22 37/12/22
f 22/39/23 70/40/23 79/41/23 30/42/23
f 23/43/24 22/39/24 30/42/24 31/44/24
f 24/30/25 23/43/25 31/44/25 32/31/25
f 24/30/26 25/29/26 41/45/26 40/46/26
f 25/29/27 26/33/27 42/47/27 41/45/27
f 26/33/28 27/35/28 43/48/28 42/47/28
f 27/35/29 28/37/29 44/49/29 43/48/29
f 28/37/30 29/11/30 45/24/30 44/49/30
f 70/40/31 22/39/31 38/50/31 88/51/31
f 22/39/32 23/43/32 39/52/32 38/50/32
f 23/43/33 24/30/33 40/46/33 39/52/33
f 79/41/17 97/28/17 37/12/17 36/38/17 35/36/17 34/34/17 33/32/17 32/31/17 31/44/17 30/42/17
f 50/53/34 49/54/34 57/55/34 58/56/34
f 51/57/35 50/53/35 58/56/35 59/58/35
f 52/59/36 51/57/36 59/58/36 60/60/36
f 53/61/37 52/59/37 60/60/37 61/62/37
f 78/63/38 53/61/38 61/62/38 87/64/38
f 47/65/39 46/16/39 54/15/39 55/66/39
f 48/67/40 47/65/40 55/66/40 56/68/40
f 49/54/41 48/67/41 56/68/41 57/55/41
f 49/54/42 50/53/42 66/69/42 65/70/42
f 50/53/43 51/57/43 67/71/43 66/69/43
f 51/57/44 52/59/44 68/72/44 67/71/44
f 52/59/45 53/61/45 69/73/45 68/72/45
f 53/61/46 78/63/46 96/74/46 69/73/46
f 46/16/47 47/65/47 63/75/47 62/25/47
f 47/65/48 48/67/48 64/76/48 63/75/48
f 48/67/49 49/54/49 65/70/49 64/76/49
f 54/15/17 97/28/17 87/64/17 61/62/17 60/60/17 59/58/17 58/56/17 57/55/17 56/68/17 55/66/17
f 74/77/50 83/78/50 82/79/50 73/80/50
f 75/81/51 84/82/51 83/78/51 74/77/51
f 76/83/52 85/84/52 84/82/52 75/81/52
f 77/85/53 86/86/53 85/84/53 76/83/53
f 78/63/54 87/64/54 86/86/54 77/85/54
f 71/87/55 80/88/55 79/41/55 70/40/55
f 72/89/56 81/90/56 80/88/56 71/87/56
f 73/80/57 82/79/57 81/90/57 72/89/57
f 73/80/58 91/91/58 92/92/58 74/77/58
f 74/77/59 92/92/59 93/93/59 75/81/59
f 75/81/60 93/93/60 94/94/60 76/83/60
f 76/83/61 94/94/61 95/95/61 77/85/61
f 77/85/62 95/95/62 96/74/62 78/63/62
f 70/40/63 88/51/63 89/96/63 71/87/63
f 71/87/64 89/96/64 90/97/64 72/89/64
f 72/89/65 90/97/65 91/91/65 73/80/65
f 79/41/17 80/88/17 81/90/17 82/79/17 83/78/17 84/82/17 85/84/17 86/86/17 87/64/17 97/28/17
