# Blender v2.75 (sub 0) OBJ File: 'Asset_Master_Hangar_Kit.blend'
# www.blender.org
mtllib struc_asset_wall_pillar_B_low.mtl
o struc_asset_pillar_B_Plane.141
v 0.496121 0.000000 5.156921
v 0.496121 0.000000 4.449295
v 0.496121 2.320683 4.384920
v 0.496121 2.320683 4.800751
v 0.496121 0.791824 4.449295
v 0.496121 0.784529 5.156921
v 0.496121 0.000000 4.384920
v 0.538896 0.000000 5.221296
v 0.538896 0.805469 5.221296
v 0.496121 0.856866 4.384920
v 0.317256 0.000000 4.449295
v 0.317256 0.000000 5.156921
v 0.449714 0.784529 5.156921
v 0.317256 0.652064 5.156921
v 0.317256 0.659359 4.449295
v 0.449714 0.791824 4.449295
v 0.496121 0.000000 5.221296
v 0.496121 0.848244 5.221296
v 0.496121 2.194063 4.384920
v 0.538896 0.000000 5.437488
v 0.525646 2.164928 4.845237
v 0.538896 0.715523 5.356782
v 0.538896 0.805469 5.256121
v 0.538896 0.760496 5.339582
v 0.538896 0.793419 5.302738
v 0.496121 1.182907 4.384920
v 0.525646 1.204594 5.119519
v 0.496121 1.176205 5.127627
v 0.496121 2.193317 4.837128
v 0.555432 1.234381 5.132571
v 0.555432 2.135141 5.132571
v 0.525646 1.204594 5.132571
v 0.525646 2.164928 5.132571
v 0.555432 1.234381 5.074891
v 0.555432 2.135141 5.074891
v 0.896121 0.000000 5.156921
v 0.896121 0.000000 4.449295
v 0.896121 2.320683 4.384920
v 0.896121 2.320683 4.800751
v 0.896121 0.791824 4.449295
v 0.696121 0.848244 5.221296
v 0.696121 0.856866 4.384920
v 0.896121 0.784529 5.156921
v 0.696121 2.320683 4.800751
v 0.696121 2.320683 4.384920
v 0.696121 0.000000 4.384920
v 0.696121 0.000000 5.221296
v 0.896121 0.000000 4.384920
v 0.853346 0.000000 5.221296
v 0.853346 0.805469 5.221296
v 0.896121 0.856866 4.384920
v 0.696121 0.000000 5.156921
v 0.696121 0.000000 4.449295
v 1.074986 0.000000 4.449295
v 1.074986 0.000000 5.156921
v 0.942528 0.784529 5.156921
v 1.074986 0.652064 5.156921
v 1.074986 0.659359 4.449295
v 0.942528 0.791824 4.449295
v 0.896121 0.000000 5.221296
v 0.696121 0.000000 5.221296
v 0.896121 0.848244 5.221296
v 0.696121 0.805469 5.221296
v 0.696121 0.000000 5.437488
v 0.896121 2.194063 4.384920
v 0.853346 0.000000 5.437488
v 0.866596 2.164928 4.845237
v 0.696121 0.805469 5.256121
v 0.696121 0.715523 5.356782
v 0.696121 0.793419 5.302738
v 0.696121 0.760496 5.339582
v 0.853346 0.715523 5.356782
v 0.853346 0.805469 5.256121
v 0.853346 0.760496 5.339582
v 0.853346 0.793419 5.302738
v 0.696121 2.194063 4.384920
v 0.696121 2.193317 4.837128
v 0.896121 1.182907 4.384920
v 0.696121 1.182907 4.384920
v 0.866596 1.204594 5.119519
v 0.696121 1.176205 5.127627
v 0.896121 1.176205 5.127627
v 0.896121 2.193317 4.837128
v 0.696121 1.204594 5.119519
v 0.696121 1.204594 5.132571
v 0.696121 2.164928 4.845237
v 0.696121 2.164928 5.132571
v 0.836810 1.234381 5.132571
v 0.836810 2.135141 5.132571
v 0.696121 1.234381 5.132571
v 0.696121 2.135141 5.132571
v 0.866596 1.204594 5.132571
v 0.866596 2.164928 5.132571
v 0.696121 1.234381 5.074891
v 0.696121 2.135141 5.074891
v 0.836810 1.234381 5.074891
v 0.836810 2.135141 5.074891
vt 0.368111 0.699014
vt 0.368091 0.756275
vt 0.289354 0.756248
vt 0.289373 0.698987
vt 0.920244 0.442159
vt 0.847403 0.442159
vt 0.847403 0.130087
vt 0.920244 0.130087
vt 0.649280 0.683532
vt 0.672725 0.683540
vt 0.672700 0.756380
vt 0.649255 0.756372
vt 0.773912 0.515325
vt 0.846751 0.515325
vt 0.846751 0.563566
vt 0.773912 0.563566
vt 0.537235 0.073164
vt 0.537235 0.000324
vt 0.688681 0.000324
vt 0.688681 0.073164
vt 0.700424 0.544467
vt 0.773264 0.544467
vt 0.773264 0.663211
vt 0.700424 0.663211
vt 0.122208 0.304933
vt 0.003464 0.304933
vt 0.000324 0.000324
vt 0.119767 0.034438
vt 0.391562 0.683443
vt 0.391536 0.756283
vt 0.000821 0.694231
vt 0.258553 0.694231
vt 0.258553 0.711133
vt 0.000821 0.711133
vt 0.570515 0.591308
vt 0.570516 0.305580
vt 0.593962 0.305580
vt 0.593961 0.614513
vt 0.312799 0.593965
vt 0.289354 0.617653
vt 0.312799 0.305581
vt 0.289354 0.305581
vt 0.240463 0.628441
vt 0.000324 0.628441
vt 0.000324 0.370723
vt 0.237806 0.370723
vt 0.288707 0.693584
vt 0.000324 0.693584
vt 0.288707 0.676682
vt 0.391584 0.618301
vt 0.649302 0.618390
vt 0.258055 0.779356
vt 0.000324 0.779356
vt 0.000324 0.305580
vt 0.286050 0.305580
vt 0.286050 0.322482
vt 0.868874 0.564213
vt 0.868874 0.857564
vt 0.853296 0.873143
vt 0.853295 0.564213
vt 0.926136 0.857564
vt 0.926136 0.873143
vt 0.368116 0.683435
vt 0.820077 0.066094
vt 0.762815 0.066074
vt 0.762820 0.053391
vt 0.820081 0.053411
vt 0.536588 0.304933
vt 0.490473 0.304933
vt 0.490201 0.140238
vt 0.536587 0.153486
vt 0.773911 0.857565
vt 0.773911 0.564213
vt 0.852648 0.564213
vt 0.823255 0.824807
vt 0.816991 0.841186
vt 0.803572 0.853177
vt 0.786594 0.857565
vt 0.762826 0.035855
vt 0.820087 0.035875
vt 0.762832 0.017860
vt 0.820094 0.017879
vt 0.762838 0.000324
vt 0.820100 0.000343
vt 0.700424 0.663858
vt 0.757685 0.663858
vt 0.757685 0.926105
vt 0.700424 0.926105
vt 0.700424 0.130087
vt 0.773264 0.130087
vt 0.773264 0.176202
vt 0.700424 0.176202
vt 0.594609 0.617653
vt 0.594609 0.556072
vt 0.698403 0.556072
vt 0.698403 0.617653
vt 0.689328 0.000324
vt 0.762168 0.000324
vt 0.762168 0.124544
vt 0.689328 0.124544
vt 0.784665 0.140841
vt 0.784664 0.504572
vt 0.773911 0.130087
vt 0.978669 0.615451
vt 0.978669 0.564213
vt 0.999676 0.564213
vt 0.999676 0.615451
vt 0.846751 0.504572
vt 0.846756 0.140841
vt 0.846756 0.130087
vt 0.693688 0.209169
vt 0.699743 0.209171
vt 0.693722 0.130087
vt 0.699777 0.130090
vt 0.926783 0.564213
vt 0.978022 0.564213
vt 0.978022 0.892271
vt 0.926783 0.892271
vt 0.931739 0.140936
vt 0.931740 0.468990
vt 0.920891 0.479838
vt 0.920891 0.130087
vt 0.982979 0.468990
vt 0.982979 0.479838
vt 0.982979 0.140936
vt 0.982979 0.130087
vt 0.978669 0.943506
vt 0.999676 0.943506
vt 0.978669 0.994746
vt 0.999676 0.994746
vn 0.000000 -1.000000 0.000000
vn 0.000000 0.000000 -1.000000
vn 0.000000 0.274600 0.961600
vn 0.000000 1.000000 0.000000
vn -1.000000 -0.000000 0.000000
vn 0.000000 0.999900 0.010300
vn -0.707100 0.707100 0.007300
vn 0.000000 0.000000 1.000000
vn 0.000000 0.968200 0.250300
vn 0.000000 0.745700 0.666300
vn 0.000000 0.357200 0.934000
vn 0.000000 0.112100 0.993700
vn 0.000000 0.274600 0.961500
vn 1.000000 0.000000 0.000000
vn 0.707100 0.707100 0.007300
usemtl None
s off
f 8/1/1 61/2/1 64/3/1 20/4/1
f 10/5/2 42/6/2 46/7/2 7/8/2
f 2/9/1 7/10/1 46/11/1 53/12/1
f 29/13/3 77/14/3 44/15/3 4/16/3
f 4/17/4 44/18/4 45/19/4 3/20/4
f 26/21/2 79/22/2 42/23/2 10/24/2
f 26/25/5 10/26/5 18/27/5 28/28/5
f 1/29/1 2/9/1 53/12/1 52/30/1
f 6/31/6 5/32/6 16/33/6 13/34/6
f 6/35/5 1/36/5 17/37/5 18/38/5
f 5/39/5 6/35/5 18/38/5 10/40/5
f 2/41/5 5/39/5 10/40/5 7/42/5
f 15/43/5 11/44/5 12/45/5 14/46/5
f 5/47/2 2/48/2 11/44/2 15/43/2 16/49/2
f 2/9/1 1/29/1 12/50/1 11/51/1
f 15/52/7 14/53/7 13/34/7 16/33/7
f 1/54/8 6/55/8 13/56/8 14/46/8 12/45/8
f 8/57/8 9/58/8 18/59/8 17/60/8
f 9/58/8 63/61/8 41/62/8 18/59/8
f 17/63/1 1/29/1 8/1/1
f 1/29/1 52/30/1 61/2/1 8/1/1
f 63/64/4 9/65/4 23/66/4 68/67/4
f 3/68/5 19/69/5 29/70/5 4/71/5
f 9/72/5 8/73/5 20/74/5 22/75/5 24/76/5 25/77/5 23/78/5
f 68/67/9 23/66/9 25/79/9 70/80/9
f 70/80/10 25/79/10 24/81/10 71/82/10
f 71/82/11 24/81/11 22/83/11 69/84/11
f 20/85/12 64/86/12 69/87/12 22/88/12
f 3/89/2 45/90/2 76/91/2 19/92/2
f 86/93/4 21/94/4 33/95/4 87/96/4
f 18/97/3 41/98/3 81/99/3 28/100/3
f 19/69/5 26/25/5 28/28/5 29/70/5
f 19/92/2 76/91/2 79/22/2 26/21/2
f 27/101/3 21/102/3 29/13/3 28/103/3
f 30/104/4 90/105/4 94/106/4 34/107/4
f 21/102/13 86/108/13 77/14/13 29/13/13
f 84/109/3 27/101/3 28/103/3 81/110/3
f 21/94/5 27/111/5 32/112/5 33/95/5
f 27/111/1 84/113/1 85/114/1 32/112/1
f 34/115/8 94/116/8 95/117/8 35/118/8
f 30/119/8 31/120/8 33/121/8 32/122/8
f 31/120/8 91/123/8 87/124/8 33/121/8
f 90/125/8 30/119/8 32/122/8 85/126/8
f 31/127/14 30/104/14 34/107/14 35/128/14
f 91/129/1 31/127/1 35/128/1 95/130/1
f 49/1/1 66/4/1 64/3/1 61/2/1
f 51/5/2 48/8/2 46/7/2 42/6/2
f 37/9/1 53/12/1 46/11/1 48/10/1
f 83/13/3 39/16/3 44/15/3 77/14/3
f 39/17/4 38/20/4 45/19/4 44/18/4
f 78/21/2 51/24/2 42/23/2 79/22/2
f 78/25/14 82/28/14 62/27/14 51/26/14
f 36/29/1 52/30/1 53/12/1 37/9/1
f 43/31/6 56/34/6 59/33/6 40/32/6
f 43/35/14 62/38/14 60/37/14 36/36/14
f 40/39/14 51/40/14 62/38/14 43/35/14
f 37/41/14 48/42/14 51/40/14 40/39/14
f 58/43/14 57/46/14 55/45/14 54/44/14
f 40/47/2 59/49/2 58/43/2 54/44/2 37/48/2
f 37/9/1 54/51/1 55/50/1 36/29/1
f 58/52/15 59/33/15 56/34/15 57/53/15
f 36/54/8 55/45/8 57/46/8 56/56/8 43/55/8
f 49/57/8 60/60/8 62/59/8 50/58/8
f 50/58/8 62/59/8 41/62/8 63/61/8
f 60/63/1 49/1/1 36/29/1
f 36/29/1 49/1/1 61/2/1 52/30/1
f 63/64/4 68/67/4 73/66/4 50/65/4
f 38/68/14 39/71/14 83/70/14 65/69/14
f 50/72/14 73/78/14 75/77/14 74/76/14 72/75/14 66/74/14 49/73/14
f 68/67/9 70/80/9 75/79/9 73/66/9
f 70/80/10 71/82/10 74/81/10 75/79/10
f 71/82/11 69/84/11 72/83/11 74/81/11
f 66/85/12 72/88/12 69/87/12 64/86/12
f 38/89/2 65/92/2 76/91/2 45/90/2
f 86/93/4 87/96/4 93/95/4 67/94/4
f 62/97/3 82/100/3 81/99/3 41/98/3
f 65/69/14 83/70/14 82/28/14 78/25/14
f 65/92/2 78/21/2 79/22/2 76/91/2
f 80/101/3 82/103/3 83/13/3 67/102/3
f 88/104/4 96/107/4 94/106/4 90/105/4
f 67/102/13 83/13/13 77/14/13 86/108/13
f 84/109/3 81/110/3 82/103/3 80/101/3
f 67/94/14 93/95/14 92/112/14 80/111/14
f 80/111/1 92/112/1 85/114/1 84/113/1
f 96/115/8 97/118/8 95/117/8 94/116/8
f 88/119/8 92/122/8 93/121/8 89/120/8
f 89/120/8 93/121/8 87/124/8 91/123/8
f 90/125/8 85/126/8 92/122/8 88/119/8
f 89/127/5 97/128/5 96/107/5 88/104/5
f 91/129/1 95/130/1 97/128/1 89/127/1
l 52 47
