# Blender v2.75 (sub 0) OBJ File: 'Asset_Master_Hangar_Kit.blend'
# www.blender.org
mtllib struc_asset_wall_pipe_A_low.mtl
o Circle
v -2.000000 0.000000 4.800000
v -2.100000 0.000000 4.826795
v -2.173205 0.000000 4.900000
v -2.200000 0.000000 5.000000
v -2.173205 0.000000 5.100000
v -2.100000 0.000000 5.173205
v -2.000000 0.000000 5.200000
v -1.900000 0.000000 5.173205
v -1.826795 0.000000 5.100000
v -1.800000 0.000000 5.000000
v -1.826795 0.000000 4.900000
v -1.900000 0.000000 4.826795
v -2.000000 0.038525 4.800000
v -2.100000 0.038525 4.826795
v -2.173205 0.038525 4.900000
v -2.200000 0.038525 5.000000
v -2.173205 0.038525 5.100000
v -2.100000 0.038525 5.173205
v -2.000000 0.038525 5.200000
v -1.900000 0.038525 5.173205
v -1.826795 0.038525 5.100000
v -1.800000 0.038525 5.000000
v -1.826795 0.038525 4.900000
v -1.900000 0.038525 4.826795
v -1.826795 0.017611 5.100000
v -2.100000 0.017611 4.826795
v -2.000000 0.017611 4.800000
v -1.900000 0.017611 4.826795
v -2.173205 0.017611 5.100000
v -1.900000 0.017611 5.173205
v -1.826795 0.017611 4.900000
v -1.800000 0.017611 5.000000
v -2.200000 0.017611 5.000000
v -2.173205 0.017611 4.900000
v -2.000000 0.017611 5.200000
v -2.100000 0.017611 5.173205
v -2.000000 0.078218 4.881824
v -2.059088 0.078218 4.897657
v -2.102343 0.078218 4.940912
v -2.118175 0.078218 5.000000
v -2.102343 0.078218 5.059088
v -2.059088 0.078218 5.102343
v -2.000000 0.078218 5.118176
v -1.940912 0.078218 5.102343
v -1.897657 0.078218 5.059088
v -1.881825 0.078218 5.000000
v -1.897657 0.078218 4.940912
v -1.940912 0.078218 4.897657
v -2.085087 0.078218 5.049125
v -2.098250 0.078218 5.000000
v -1.950875 0.078218 4.914913
v -1.914913 0.078218 4.950875
v -2.049125 0.078218 4.914913
v -2.000000 0.078218 4.901750
v -1.914913 0.078218 5.049125
v -1.950875 0.078218 5.085087
v -2.049125 0.078218 5.085087
v -2.085087 0.078218 4.950875
v -1.901750 0.078218 5.000000
v -2.000000 0.078218 5.098250
v -2.006403 0.065781 4.988909
v -2.000000 0.065781 4.987194
v -2.011091 0.065781 4.993597
v -2.012806 0.065781 5.000000
v -2.011091 0.065781 5.006403
v -2.006403 0.065781 5.011091
v -2.000000 0.065781 5.012806
v -1.993597 0.065781 5.011091
v -1.988909 0.065781 5.006403
v -1.987193 0.065781 5.000000
v -1.988909 0.065781 4.993597
v -1.993597 0.065781 4.988909
v -2.085087 0.065781 5.049125
v -1.950875 0.065781 4.914913
v -2.049125 0.065781 4.914913
v -1.914913 0.065781 5.049125
v -2.049125 0.065781 5.085087
v -2.085087 0.065781 4.950875
v -1.901750 0.065781 5.000000
v -2.000000 0.065781 5.098250
v -2.098250 0.065781 5.000000
v -1.914913 0.065781 4.950875
v -2.000000 0.065781 4.901750
v -1.950875 0.065781 5.085087
v -2.000000 0.055055 4.881824
v -2.000000 0.038525 4.864711
v -2.067644 0.038525 4.882837
v -2.059088 0.055055 4.897657
v -2.117163 0.038525 4.932356
v -2.102343 0.055055 4.940912
v -2.135288 0.038525 5.000000
v -2.118175 0.055055 5.000000
v -2.117163 0.038525 5.067644
v -2.102343 0.055055 5.059088
v -2.067644 0.038525 5.117163
v -2.059088 0.055055 5.102343
v -2.000000 0.038525 5.135289
v -2.000000 0.055055 5.118176
v -1.932356 0.038525 5.117163
v -1.940912 0.055055 5.102343
v -1.882837 0.038525 5.067644
v -1.897657 0.055055 5.059088
v -1.864712 0.038525 5.000000
v -1.881825 0.055055 5.000000
v -1.882837 0.038525 4.932356
v -1.897657 0.055055 4.940912
v -1.932356 0.038525 4.882837
v -1.940912 0.055055 4.897657
v -2.126855 0.000000 4.780281
v -2.000000 0.000000 4.746290
v -2.219719 0.000000 4.873145
v -2.253710 0.000000 5.000000
v -2.219719 0.000000 5.126855
v -2.126855 0.000000 5.219719
v -2.000000 0.000000 5.253710
v -1.873145 0.000000 5.219719
v -1.780281 0.000000 5.126855
v -1.746290 0.000000 5.000000
v -1.780281 0.000000 4.873145
v -1.873145 0.000000 4.780281
v -2.000000 0.017611 5.253710
v -2.253710 0.017611 5.000000
v -1.780281 0.017611 4.873145
v -1.873145 0.017611 5.219719
v -2.219719 0.017611 5.126855
v -1.873145 0.017611 4.780281
v -2.126855 0.017611 4.780281
v -1.780281 0.017611 5.126855
v -2.219719 0.017611 4.873145
v -1.746290 0.017611 5.000000
v -2.000000 0.017611 4.746290
v -2.126855 0.017611 5.219719
vt 1.000000 0.887513
vt 0.974305 0.887513
vt 0.974305 0.757625
vt 1.000000 0.757625
vt 0.995943 0.580049
vt 0.970247 0.580049
vt 0.970247 0.450160
vt 0.995943 0.450160
vt 0.974305 1.000000
vt 0.948609 1.000000
vt 0.948609 0.887513
vt 1.000000 1.000000
vt 0.995943 0.692535
vt 0.970247 0.692535
vt 0.607163 0.916703
vt 0.581468 0.916703
vt 0.581468 0.804216
vt 0.607163 0.804216
vt 0.961290 0.000000
vt 0.986985 0.000000
vt 0.986985 0.112487
vt 0.961290 0.112487
vt 0.555772 0.916703
vt 0.555772 0.804216
vt 0.530077 0.916703
vt 0.530077 0.804216
vt 0.986985 0.242375
vt 0.961290 0.242375
vt 0.504381 0.916703
vt 0.504381 0.804216
vt 0.948609 0.757625
vt 0.191083 0.610296
vt 0.191083 0.740184
vt 0.127341 0.757625
vt 0.127341 0.592855
vt 0.417828 0.804216
vt 0.417828 0.880964
vt 0.389370 0.880964
vt 0.389370 0.804216
vt 0.813077 0.788664
vt 0.813077 0.865412
vt 0.784618 0.865412
vt 0.784618 0.788664
vt 0.902464 0.926321
vt 0.902464 0.849573
vt 0.930922 0.849573
vt 0.930922 0.926321
vt 0.254682 0.692535
vt 0.254682 0.562647
vt 0.331481 0.583660
vt 0.331481 0.671522
vt 0.861845 0.788664
vt 0.861845 0.865412
vt 0.833386 0.865412
vt 0.833386 0.788664
vt 0.813077 0.931878
vt 0.784618 0.931878
vt 0.902464 0.783107
vt 0.930922 0.783107
vt 0.861845 0.931878
vt 0.833386 0.931878
vt 0.792505 0.369801
vt 0.792505 0.436267
vt 0.764047 0.436267
vt 0.764047 0.369801
vt 0.635622 0.804216
vt 0.635622 0.870682
vt 0.607163 0.870682
vt 0.820964 0.369801
vt 0.820964 0.436267
vt 0.397938 0.696360
vt 0.389370 0.566766
vt 0.467380 0.582449
vt 0.473176 0.670111
vt 0.652869 0.566766
vt 0.708903 0.450160
vt 0.768783 0.503571
vt 0.730879 0.582449
vt 0.318282 0.805022
vt 0.374502 0.747613
vt 0.521119 0.566766
vt 0.577153 0.450160
vt 0.637033 0.503571
vt 0.599129 0.582449
vt 0.445404 0.450160
vt 0.505284 0.503571
vt 0.849422 0.369801
vt 0.849422 0.436267
vt 0.318282 0.450160
vt 0.374502 0.507569
vt 0.732313 0.804216
vt 0.661437 0.696360
vt 0.736675 0.670111
vt 0.784618 0.743070
vt 0.600563 0.804216
vt 0.529688 0.696360
vt 0.604925 0.670111
vt 0.652869 0.743070
vt 0.468814 0.804216
vt 0.521119 0.743070
vt 0.269963 0.805022
vt 0.269963 0.860281
vt 0.254682 0.860281
vt 0.254682 0.805022
vt 0.683430 0.868023
vt 0.683430 0.923283
vt 0.668149 0.923283
vt 0.668149 0.868023
vt 0.774950 0.804216
vt 0.774950 0.859475
vt 0.759669 0.859475
vt 0.759669 0.804216
vt 0.683430 0.804216
vt 0.668149 0.804216
vt 0.650902 0.804216
vt 0.650902 0.868024
vt 0.635622 0.868024
vt 0.650902 0.923283
vt 0.635622 0.923283
vt 0.683430 0.859475
vt 0.698711 0.859475
vt 0.698711 0.923283
vt 0.744388 0.859475
vt 0.744388 0.804216
vt 0.729108 0.859475
vt 0.729108 0.804216
vt 0.652869 0.859475
vt 0.652869 0.804216
vt 0.668149 0.859475
vt 0.698711 0.804216
vt 0.652869 0.923283
vt 0.939652 0.276146
vt 0.939652 0.352894
vt 0.916004 0.346423
vt 0.916004 0.282616
vt 0.839509 0.716641
vt 0.839509 0.639893
vt 0.863156 0.646363
vt 0.863156 0.710171
vt 0.902072 0.000000
vt 0.939652 0.066466
vt 0.916004 0.072936
vt 0.884761 0.017677
vt 0.902072 0.209680
vt 0.884761 0.227357
vt 0.877088 0.783107
vt 0.894399 0.765430
vt 0.784618 0.639893
vt 0.822198 0.573427
vt 0.839509 0.591104
vt 0.808265 0.646363
vt 0.822198 0.783107
vt 0.784618 0.716641
vt 0.808265 0.710171
vt 0.839509 0.765430
vt 0.939652 0.143214
vt 0.884761 0.192003
vt 0.916004 0.136744
vt 0.902072 0.419360
vt 0.884761 0.401682
vt 0.877088 0.573427
vt 0.894399 0.591104
vt 0.780220 0.308167
vt 0.824404 0.263049
vt 0.876894 0.355886
vt 0.871135 0.361767
vt 0.824404 0.139782
vt 0.884761 0.123267
vt 0.884761 0.230467
vt 0.876894 0.232619
vt 0.824404 0.106752
vt 0.780219 0.061633
vt 0.871135 0.008034
vt 0.876894 0.013915
vt 0.800791 0.511793
vt 0.784618 0.450160
vt 0.889598 0.450160
vt 0.891706 0.458194
vt 0.884761 0.246534
vt 0.884761 0.353733
vt 0.884761 0.016067
vt 0.764047 0.000000
vt 0.869026 0.000000
vt 0.764047 0.246534
vt 0.780220 0.184900
vt 0.871135 0.238500
vt 0.869026 0.246534
vt 0.905333 0.573427
vt 0.844975 0.556912
vt 0.897465 0.464075
vt 0.905333 0.466227
vt 0.869026 0.369801
vt 0.725035 0.831097
vt 0.717982 0.835256
vt 0.709837 0.835256
vt 0.702783 0.831097
vt 0.698711 0.823894
vt 0.698711 0.815577
vt 0.702783 0.808374
vt 0.709837 0.804216
vt 0.717982 0.804216
vt 0.725035 0.808374
vt 0.729108 0.815577
vt 0.729108 0.823894
vt 0.351790 0.589217
vt 0.351790 0.665965
vt 0.389370 0.522751
vt 0.882154 0.783107
vt 0.882154 0.870969
vt 0.488010 0.586596
vt 0.493073 0.663170
vt 0.521119 0.517696
vt 0.882154 0.931878
vt 0.882154 0.844016
vt 0.619759 0.586596
vt 0.624822 0.663170
vt 0.652869 0.517696
vt 0.833386 0.783107
vt 0.833386 0.870969
vt 0.751509 0.586596
vt 0.756572 0.663170
vt 0.784618 0.517696
vt 0.389370 0.732431
vt 0.417828 0.947430
vt 0.389370 0.947430
vt 0.254682 0.047649
vt 0.191083 0.160136
vt 0.127341 0.142695
vt 0.208020 0.000000
vt 0.191083 0.290024
vt 0.127341 0.307465
vt 0.063742 0.610296
vt 0.063742 0.740184
vt 0.000000 0.757625
vt 0.000000 0.592855
vt 0.254682 0.497809
vt 0.208020 0.450160
vt 0.127341 0.497809
vt 0.080679 0.450160
vt 0.445765 0.290024
vt 0.509365 0.402511
vt 0.462703 0.450160
vt 0.382024 0.307465
vt 0.700305 0.290024
vt 0.700305 0.160136
vt 0.764047 0.142695
vt 0.764047 0.307465
vt 0.127341 0.047649
vt 0.063742 0.160136
vt 0.000000 0.142695
vt 0.080679 0.000000
vt 0.573106 0.160136
vt 0.573106 0.290024
vt 0.509365 0.307465
vt 0.509365 0.142695
vt 0.636706 0.047649
vt 0.683368 0.000000
vt 0.445765 0.160136
vt 0.382024 0.142695
vt 0.948609 0.592855
vt 0.970247 0.592855
vt 0.970247 0.757625
vt 0.439467 0.946911
vt 0.417828 0.946911
vt 0.439466 0.804216
vt 0.905333 0.592855
vt 0.926971 0.592855
vt 0.926971 0.757625
vt 0.905333 0.757625
vt 0.461105 0.804216
vt 0.461105 0.946911
vt 0.504381 0.946911
vt 0.482743 0.946911
vt 0.482743 0.804216
vt 0.905333 0.450160
vt 0.926971 0.450160
vt 0.926971 0.614930
vt 0.948609 0.614930
vt 0.961290 0.307465
vt 0.939652 0.307465
vt 0.939652 0.164770
vt 0.961290 0.164770
vt 0.948609 0.450160
vt 0.939652 0.000000
vt 0.636706 0.402511
vt 0.683368 0.450160
vt 0.127341 0.852671
vt 0.080679 0.900320
vt 0.254682 0.852671
vt 0.208020 0.900320
vt 0.063742 0.290024
vt 0.000000 0.307465
vt 0.382024 0.047649
vt 0.318424 0.160136
vt 0.254682 0.142695
vt 0.335361 0.000000
vt 0.127341 0.402511
vt 0.590044 0.450160
vt 0.254682 0.402511
vt 0.318424 0.290024
vt 0.254682 0.307465
vt 0.509365 0.047649
vt 0.462703 0.000000
vt 0.590044 0.000000
vt 0.382024 0.402511
vt 0.335361 0.450160
vn -0.258800 0.000000 0.965900
vn -0.965900 0.000000 -0.258800
vn 0.965900 0.000000 -0.258800
vn 0.258800 0.000000 0.965900
vn -0.965900 0.000000 0.258800
vn 0.707100 0.000000 -0.707100
vn -0.258800 0.000000 -0.965900
vn 0.707100 0.000000 0.707100
vn -0.707100 0.000000 0.707100
vn 0.258800 0.000000 -0.965900
vn -0.707100 0.000000 -0.707100
vn 0.965900 0.000000 0.258800
vn 0.000000 -1.000000 0.000000
vn 0.000000 1.000000 0.000000
vn -0.183000 0.707100 -0.683000
vn -0.500000 0.707100 -0.500000
vn -0.683000 0.707100 -0.183000
vn -0.683000 0.707100 0.183000
vn -0.500000 0.707100 0.500000
vn -0.183000 0.707100 0.683000
vn 0.183000 0.707100 0.683000
vn 0.500000 0.707100 0.500000
vn 0.683000 0.707100 0.183000
vn 0.683000 0.707100 -0.183000
vn 0.500000 0.707100 -0.500000
vn 0.183000 0.707100 -0.683000
usemtl None
s off
f 35/1/1 19/2/1 18/3/1 36/4/1
f 33/5/2 16/6/2 15/7/2 34/8/2
f 31/9/3 23/10/3 22/11/3 32/2/3
f 30/12/4 20/9/4 19/2/4 35/1/4
f 29/13/5 17/14/5 16/6/5 33/5/5
f 28/15/6 24/16/6 23/17/6 31/18/6
f 26/19/7 14/20/7 13/21/7 27/22/7
f 25/16/8 21/23/8 20/24/8 30/17/8
f 36/23/9 18/25/9 17/26/9 29/24/9
f 27/22/10 13/21/10 24/27/10 28/28/10
f 34/25/11 15/29/11 14/30/11 26/26/11
f 32/2/12 22/11/12 21/31/12 25/3/12
f 7/32/13 8/33/13 116/34/13 115/35/13
f 108/36/10 85/37/10 37/38/10 48/39/10
f 102/40/12 104/41/12 46/42/12 45/43/12
f 96/44/1 98/45/1 43/46/1 42/47/1
f 13/48/14 14/49/14 87/50/14 86/51/14
f 90/52/2 92/53/2 40/54/2 39/55/2
f 104/41/3 106/56/3 47/57/3 46/42/3
f 98/45/4 100/58/4 44/59/4 43/46/4
f 92/53/5 94/60/5 41/61/5 40/54/5
f 106/62/6 108/63/6 48/64/6 47/65/6
f 100/66/8 102/67/8 45/68/8 44/18/8
f 94/63/9 96/62/9 42/69/9 41/70/9
f 16/71/14 17/72/14 93/73/14 91/74/14
f 23/75/14 24/76/14 107/77/14 105/78/14
f 24/79/14 13/48/14 86/51/14 107/80/14
f 20/81/14 21/82/14 101/83/14 99/84/14
f 17/72/14 18/85/14 95/86/14 93/73/14
f 88/70/11 90/69/11 39/87/11 38/88/11
f 14/49/14 15/89/14 89/90/14 87/50/14
f 21/91/14 22/92/14 103/93/14 101/94/14
f 18/95/14 19/96/14 97/97/14 95/98/14
f 15/99/14 16/71/14 91/74/14 89/100/14
f 22/92/14 23/75/14 105/78/14 103/93/14
f 19/96/14 20/81/14 99/84/14 97/97/14
f 49/101/6 57/102/6 77/103/6 73/104/6
f 60/105/7 56/106/7 84/107/7 80/108/7
f 52/109/9 51/110/9 74/111/9 82/112/9
f 57/113/10 60/105/10 80/108/10 77/114/10
f 51/115/1 54/116/1 83/117/1 74/66/1
f 54/116/4 53/118/4 75/119/4 83/117/4
f 58/106/12 50/120/12 81/121/12 78/122/12
f 53/123/8 58/124/8 78/112/8 75/111/8
f 56/124/11 55/123/11 76/125/11 84/126/11
f 59/127/5 52/128/5 82/114/5 79/129/5
f 50/120/3 49/113/3 73/130/3 81/121/3
f 55/131/2 59/127/2 79/129/2 76/107/2
f 43/132/14 44/133/14 56/134/14 60/135/14
f 46/136/14 47/137/14 52/138/14 59/139/14
f 39/140/14 40/141/14 50/142/14 58/143/14
f 42/144/14 43/132/14 60/135/14 57/145/14
f 45/146/14 46/136/14 59/139/14 55/147/14
f 38/148/14 39/149/14 58/150/14 53/151/14
f 48/152/14 37/153/14 54/154/14 51/155/14
f 41/156/14 42/144/14 57/157/14 49/158/14
f 44/133/14 45/159/14 55/160/14 56/134/14
f 37/153/14 38/148/14 53/151/14 54/154/14
f 47/137/14 48/161/14 51/162/14 52/138/14
f 40/141/14 41/156/14 49/158/14 50/142/14
f 81/163/14 73/164/14 65/165/14 64/166/14
f 82/167/14 74/168/14 72/169/14 71/170/14
f 83/171/14 75/172/14 61/173/14 62/174/14
f 84/175/14 76/176/14 69/177/14 68/178/14
f 73/164/14 77/179/14 66/180/14 65/165/14
f 74/168/14 83/171/14 62/174/14 72/181/14
f 75/172/14 78/182/14 63/183/14 61/173/14
f 76/184/14 79/185/14 70/186/14 69/187/14
f 77/188/14 80/189/14 67/190/14 66/191/14
f 78/65/14 81/163/14 64/166/14 63/192/14
f 79/185/14 82/167/14 71/170/14 70/186/14
f 80/189/14 84/175/14 68/178/14 67/190/14
f 61/193/14 63/194/14 64/195/14 65/196/14 66/197/14 67/198/14 68/199/14 69/200/14 70/201/14 71/202/14 72/203/14 62/204/14
f 88/205/15 85/206/15 86/51/15 87/50/15
f 90/207/16 88/205/16 87/50/16 89/90/16
f 92/53/17 90/52/17 89/208/17 91/209/17
f 94/210/18 92/211/18 91/74/18 93/73/18
f 96/212/19 94/210/19 93/73/19 95/86/19
f 98/45/20 96/44/20 95/213/20 97/214/20
f 100/215/21 98/216/21 97/97/21 99/84/21
f 102/217/22 100/215/22 99/84/22 101/83/22
f 104/41/23 102/40/23 101/218/23 103/219/23
f 106/220/24 104/221/24 103/93/24 105/78/24
f 108/222/25 106/220/25 105/78/25 107/77/25
f 85/206/26 108/223/26 107/80/26 86/51/26
f 85/37/7 88/224/7 38/225/7 37/38/7
f 34/226/14 26/227/14 127/228/14 129/229/14
f 26/227/14 27/230/14 131/231/14 127/228/14
f 30/232/14 35/233/14 121/234/14 124/235/14
f 6/236/13 7/32/13 115/35/13 114/237/13
f 25/238/14 30/232/14 124/235/14 128/239/14
f 5/240/13 6/241/13 114/242/13 113/243/13
f 29/244/14 33/245/14 122/246/14 125/247/14
f 12/248/13 1/249/13 110/250/13 120/251/13
f 31/252/14 32/253/14 130/254/14 123/255/14
f 33/245/14 34/256/14 129/257/14 122/246/14
f 4/258/13 5/240/13 113/243/13 112/259/13
f 118/260/12 130/261/12 128/262/12 117/31/12
f 111/263/11 129/264/11 127/36/11 109/265/11
f 110/266/10 131/267/10 126/268/10 120/269/10
f 114/265/9 132/270/9 125/271/9 113/263/9
f 117/272/8 128/273/8 124/274/8 116/30/8
f 109/275/7 127/276/7 131/267/7 110/266/7
f 120/273/6 126/271/6 123/270/6 119/274/6
f 113/31/5 125/268/5 122/277/5 112/278/5
f 116/279/4 124/280/4 121/281/4 115/282/4
f 119/283/3 123/7/3 130/261/3 118/260/3
f 112/278/2 122/277/2 129/276/2 111/283/2
f 115/282/1 121/281/1 132/284/1 114/19/1
f 36/285/14 29/244/14 125/247/14 132/286/14
f 35/233/14 36/287/14 132/288/14 121/234/14
f 8/33/13 9/289/13 117/290/13 116/34/13
f 1/249/13 2/291/13 109/292/13 110/250/13
f 9/293/13 10/294/13 118/295/13 117/296/13
f 2/291/13 3/297/13 111/239/13 109/292/13
f 32/253/14 25/285/14 128/298/14 130/254/14
f 27/230/14 28/299/14 126/237/14 131/231/14
f 10/294/13 11/300/13 119/301/13 118/295/13
f 3/302/13 4/258/13 112/259/13 111/303/13
f 28/256/14 31/252/14 123/255/14 126/304/14
f 11/300/13 12/305/13 120/306/13 119/301/13
