# Blender v2.78 (sub 0) OBJ File: 'Asset_Master_Hangar_Kit.blend'
# www.blender.org
mtllib wall_pipe_A.mtl
o Circle
v 0.000000 0.000000 -0.200000
v -0.100000 0.000000 -0.173205
v -0.173205 0.000000 -0.100000
v -0.200000 0.000000 0.000000
v -0.173205 0.000000 0.100000
v -0.100000 0.000000 0.173205
v -0.000000 0.000000 0.200000
v 0.100000 0.000000 0.173205
v 0.173205 0.000000 0.100000
v 0.200000 0.000000 0.000000
v 0.173205 0.000000 -0.100000
v 0.100000 0.000000 -0.173205
v 0.000000 0.038525 -0.200000
v -0.100000 0.038525 -0.173205
v -0.173205 0.038525 -0.100000
v -0.200000 0.038525 0.000000
v -0.173205 0.038525 0.100000
v -0.100000 0.038525 0.173205
v -0.000000 0.038525 0.200000
v 0.100000 0.038525 0.173205
v 0.173205 0.038525 0.100000
v 0.200000 0.038525 0.000000
v 0.173205 0.038525 -0.100000
v 0.100000 0.038525 -0.173205
v 0.173205 0.017611 0.100000
v -0.100000 0.017611 -0.173205
v 0.000000 0.017611 -0.200000
v 0.100000 0.017611 -0.173205
v -0.173205 0.017611 0.100000
v 0.100000 0.017611 0.173205
v 0.173205 0.017611 -0.100000
v 0.200000 0.017611 0.000000
v -0.200000 0.017611 0.000000
v -0.173205 0.017611 -0.100000
v -0.000000 0.017611 0.200000
v -0.100000 0.017611 0.173205
v 0.000000 0.078218 -0.118175
v -0.059088 0.078218 -0.102343
v -0.102343 0.078218 -0.059088
v -0.118175 0.078218 0.000000
v -0.102343 0.078218 0.059088
v -0.059088 0.078218 0.102343
v -0.000000 0.078218 0.118175
v 0.059088 0.078218 0.102343
v 0.102343 0.078218 0.059088
v 0.118175 0.078218 0.000000
v 0.102343 0.078218 -0.059088
v 0.059088 0.078218 -0.102343
v -0.085087 0.078218 0.049125
v -0.098250 0.078218 0.000000
v 0.049125 0.078218 -0.085087
v 0.085087 0.078218 -0.049125
v -0.049125 0.078218 -0.085087
v 0.000000 0.078218 -0.098250
v 0.085087 0.078218 0.049125
v 0.049125 0.078218 0.085087
v -0.049125 0.078218 0.085087
v -0.085087 0.078218 -0.049125
v 0.098250 0.078218 0.000000
v -0.000000 0.078218 0.098250
v -0.006403 0.065781 -0.011091
v -0.000000 0.065781 -0.012806
v -0.011091 0.065781 -0.006403
v -0.012807 0.065781 0.000000
v -0.011091 0.065781 0.006403
v -0.006403 0.065781 0.011091
v -0.000000 0.065781 0.012807
v 0.006403 0.065781 0.011091
v 0.011091 0.065781 0.006403
v 0.012807 0.065781 0.000000
v 0.011091 0.065781 -0.006403
v 0.006403 0.065781 -0.011091
v -0.085087 0.065781 0.049125
v 0.049125 0.065781 -0.085087
v -0.049125 0.065781 -0.085087
v 0.085087 0.065781 0.049125
v -0.049125 0.065781 0.085087
v -0.085087 0.065781 -0.049125
v 0.098250 0.065781 0.000000
v -0.000000 0.065781 0.098250
v -0.098250 0.065781 0.000000
v 0.085087 0.065781 -0.049125
v 0.000000 0.065781 -0.098250
v 0.049125 0.065781 0.085087
v 0.000000 0.055055 -0.118175
v 0.000000 0.038525 -0.135289
v -0.067644 0.038525 -0.117163
v -0.059088 0.055055 -0.102343
v -0.117163 0.038525 -0.067644
v -0.102343 0.055055 -0.059088
v -0.135289 0.038525 0.000000
v -0.118175 0.055055 0.000000
v -0.117163 0.038525 0.067644
v -0.102343 0.055055 0.059088
v -0.067644 0.038525 0.117163
v -0.059088 0.055055 0.102343
v -0.000000 0.038525 0.135289
v -0.000000 0.055055 0.118175
v 0.067644 0.038525 0.117163
v 0.059088 0.055055 0.102343
v 0.117163 0.038525 0.067644
v 0.102343 0.055055 0.059088
v 0.135289 0.038525 0.000000
v 0.118175 0.055055 0.000000
v 0.117163 0.038525 -0.067644
v 0.102343 0.055055 -0.059088
v 0.067644 0.038525 -0.117163
v 0.059088 0.055055 -0.102343
v -0.126855 0.000000 -0.219719
v 0.000000 0.000000 -0.253710
v -0.219719 0.000000 -0.126855
v -0.253710 0.000000 0.000000
v -0.219719 0.000000 0.126855
v -0.126855 0.000000 0.219719
v -0.000000 0.000000 0.253710
v 0.126855 0.000000 0.219719
v 0.219719 0.000000 0.126855
v 0.253710 0.000000 0.000000
v 0.219719 0.000000 -0.126855
v 0.126855 0.000000 -0.219719
v -0.000000 0.017611 0.253710
v -0.253710 0.017611 0.000000
v 0.219719 0.017611 -0.126855
v 0.126855 0.017611 0.219719
v -0.219719 0.017611 0.126855
v 0.126855 0.017611 -0.219719
v -0.126855 0.017611 -0.219719
v 0.219719 0.017611 0.126855
v -0.219719 0.017611 -0.126855
v 0.253710 0.017611 0.000000
v 0.000000 0.017611 -0.253710
v -0.126855 0.017611 0.219719
vt 1.0000 0.8875
vt 0.9743 0.8875
vt 0.9743 0.7576
vt 1.0000 0.7576
vt 0.9959 0.5800
vt 0.9702 0.5800
vt 0.9702 0.4502
vt 0.9959 0.4502
vt 0.9743 1.0000
vt 0.9486 1.0000
vt 0.9486 0.8875
vt 0.9743 0.8875
vt 1.0000 1.0000
vt 0.9743 1.0000
vt 0.9959 0.6925
vt 0.9702 0.6925
vt 0.6072 0.9167
vt 0.5815 0.9167
vt 0.5815 0.8042
vt 0.6072 0.8042
vt 0.9613 0.0000
vt 0.9870 0.0000
vt 0.9870 0.1125
vt 0.9613 0.1125
vt 0.5815 0.9167
vt 0.5558 0.9167
vt 0.5558 0.8042
vt 0.5815 0.8042
vt 0.5558 0.9167
vt 0.5301 0.9167
vt 0.5301 0.8042
vt 0.5558 0.8042
vt 0.9870 0.2424
vt 0.9613 0.2424
vt 0.5301 0.9167
vt 0.5044 0.9167
vt 0.5044 0.8042
vt 0.5301 0.8042
vt 0.9486 0.7576
vt 0.9743 0.7576
vt 0.1911 0.6103
vt 0.1911 0.7402
vt 0.1273 0.7576
vt 0.1273 0.5929
vt 0.4178 0.8042
vt 0.4178 0.8810
vt 0.3894 0.8810
vt 0.3894 0.8042
vt 0.8131 0.7887
vt 0.8131 0.8654
vt 0.7846 0.8654
vt 0.7846 0.7887
vt 0.9025 0.9263
vt 0.9025 0.8496
vt 0.9309 0.8496
vt 0.9309 0.9263
vt 0.2547 0.6925
vt 0.2547 0.5626
vt 0.3315 0.5837
vt 0.3315 0.6715
vt 0.8618 0.7887
vt 0.8618 0.8654
vt 0.8334 0.8654
vt 0.8334 0.7887
vt 0.8131 0.9319
vt 0.7846 0.9319
vt 0.9025 0.7831
vt 0.9309 0.7831
vt 0.8618 0.9319
vt 0.8334 0.9319
vt 0.7925 0.3698
vt 0.7925 0.4363
vt 0.7640 0.4363
vt 0.7640 0.3698
vt 0.6356 0.8042
vt 0.6356 0.8707
vt 0.6072 0.8707
vt 0.6072 0.8042
vt 0.7925 0.4363
vt 0.7925 0.3698
vt 0.8210 0.3698
vt 0.8210 0.4363
vt 0.3979 0.6964
vt 0.3894 0.5668
vt 0.4674 0.5824
vt 0.4732 0.6701
vt 0.6529 0.5668
vt 0.7089 0.4502
vt 0.7688 0.5036
vt 0.7309 0.5824
vt 0.3183 0.8050
vt 0.3745 0.7476
vt 0.5211 0.5668
vt 0.5772 0.4502
vt 0.6370 0.5036
vt 0.5991 0.5824
vt 0.4454 0.4502
vt 0.5053 0.5036
vt 0.8210 0.4363
vt 0.8210 0.3698
vt 0.8494 0.3698
vt 0.8494 0.4363
vt 0.3183 0.4502
vt 0.3745 0.5076
vt 0.7323 0.8042
vt 0.6614 0.6964
vt 0.7367 0.6701
vt 0.7846 0.7431
vt 0.6006 0.8042
vt 0.5297 0.6964
vt 0.6049 0.6701
vt 0.6529 0.7431
vt 0.4688 0.8042
vt 0.5211 0.7431
vt 0.2700 0.8050
vt 0.2700 0.8603
vt 0.2547 0.8603
vt 0.2547 0.8050
vt 0.6834 0.8680
vt 0.6834 0.9233
vt 0.6681 0.9233
vt 0.6681 0.8680
vt 0.7749 0.8042
vt 0.7749 0.8595
vt 0.7597 0.8595
vt 0.7597 0.8042
vt 0.6834 0.8042
vt 0.6681 0.8042
vt 0.6509 0.8042
vt 0.6509 0.8680
vt 0.6356 0.8680
vt 0.6356 0.8042
vt 0.6509 0.9233
vt 0.6356 0.9233
vt 0.6834 0.9233
vt 0.6834 0.8595
vt 0.6987 0.8595
vt 0.6987 0.9233
vt 0.7444 0.8595
vt 0.7444 0.8042
vt 0.7597 0.8042
vt 0.7597 0.8595
vt 0.7444 0.8042
vt 0.7444 0.8595
vt 0.7291 0.8595
vt 0.7291 0.8042
vt 0.6529 0.8595
vt 0.6529 0.8042
vt 0.6681 0.8042
vt 0.6681 0.8595
vt 0.6834 0.8042
vt 0.6987 0.8042
vt 0.6529 0.9233
vt 0.6681 0.9233
vt 0.9397 0.2761
vt 0.9397 0.3529
vt 0.9160 0.3464
vt 0.9160 0.2826
vt 0.8395 0.7166
vt 0.8395 0.6399
vt 0.8632 0.6464
vt 0.8632 0.7102
vt 0.9021 0.0000
vt 0.9397 0.0665
vt 0.9160 0.0729
vt 0.8848 0.0177
vt 0.9021 0.2097
vt 0.8848 0.2274
vt 0.8771 0.7831
vt 0.8944 0.7654
vt 0.7846 0.6399
vt 0.8222 0.5734
vt 0.8395 0.5911
vt 0.8083 0.6464
vt 0.8222 0.7831
vt 0.7846 0.7166
vt 0.8083 0.7102
vt 0.8395 0.7654
vt 0.9397 0.1432
vt 0.8848 0.1920
vt 0.9160 0.1367
vt 0.9021 0.4194
vt 0.8848 0.4017
vt 0.8771 0.5734
vt 0.8944 0.5911
vt 0.7802 0.3082
vt 0.8244 0.2630
vt 0.8769 0.3559
vt 0.8711 0.3618
vt 0.8244 0.1398
vt 0.8848 0.1233
vt 0.8848 0.2305
vt 0.8769 0.2326
vt 0.8244 0.1068
vt 0.7802 0.0616
vt 0.8711 0.0080
vt 0.8769 0.0139
vt 0.8008 0.5118
vt 0.7846 0.4502
vt 0.8896 0.4502
vt 0.8917 0.4582
vt 0.8848 0.2465
vt 0.8848 0.3537
vt 0.8848 0.0161
vt 0.7640 0.0000
vt 0.8690 0.0000
vt 0.7640 0.2465
vt 0.7802 0.1849
vt 0.8711 0.2385
vt 0.8690 0.2465
vt 0.9053 0.5734
vt 0.8450 0.5569
vt 0.8975 0.4641
vt 0.9053 0.4662
vt 0.7640 0.3698
vt 0.8690 0.3698
vt 0.7250 0.8311
vt 0.7180 0.8353
vt 0.7098 0.8353
vt 0.7028 0.8311
vt 0.6987 0.8239
vt 0.6987 0.8156
vt 0.7028 0.8084
vt 0.7098 0.8042
vt 0.7180 0.8042
vt 0.7250 0.8084
vt 0.7291 0.8156
vt 0.7291 0.8239
vt 0.3518 0.5892
vt 0.3518 0.6660
vt 0.3894 0.5228
vt 0.8822 0.7831
vt 0.8822 0.8710
vt 0.4880 0.5866
vt 0.4931 0.6632
vt 0.5211 0.5177
vt 0.8822 0.9319
vt 0.8822 0.8440
vt 0.6198 0.5866
vt 0.6248 0.6632
vt 0.6529 0.5177
vt 0.8334 0.7831
vt 0.8334 0.8710
vt 0.7515 0.5866
vt 0.7566 0.6632
vt 0.7846 0.5177
vt 0.3894 0.7324
vt 0.4178 0.9474
vt 0.3894 0.9474
vt 0.2547 0.0476
vt 0.1911 0.1601
vt 0.1273 0.1427
vt 0.2080 0.0000
vt 0.1911 0.2900
vt 0.1273 0.3075
vt 0.0637 0.6103
vt 0.0637 0.7402
vt 0.0000 0.7576
vt 0.0000 0.5929
vt 0.2547 0.4978
vt 0.2080 0.4502
vt 0.1273 0.4978
vt 0.0807 0.4502
vt 0.4458 0.2900
vt 0.5094 0.4025
vt 0.4627 0.4502
vt 0.3820 0.3075
vt 0.7003 0.2900
vt 0.7003 0.1601
vt 0.7640 0.1427
vt 0.7640 0.3075
vt 0.1273 0.0476
vt 0.0637 0.1601
vt 0.0000 0.1427
vt 0.0807 0.0000
vt 0.5731 0.1601
vt 0.5731 0.2900
vt 0.5094 0.3075
vt 0.5094 0.1427
vt 0.6367 0.0476
vt 0.6834 0.0000
vt 0.4458 0.1601
vt 0.3820 0.1427
vt 0.9486 0.5929
vt 0.9702 0.5929
vt 0.9702 0.7576
vt 0.9486 0.7576
vt 0.4395 0.9469
vt 0.4178 0.9469
vt 0.4178 0.8042
vt 0.4395 0.8042
vt 0.9053 0.5929
vt 0.9270 0.5929
vt 0.9270 0.7576
vt 0.9053 0.7576
vt 0.4395 0.8042
vt 0.4611 0.8042
vt 0.4611 0.9469
vt 0.4395 0.9469
vt 0.5044 0.9469
vt 0.4827 0.9469
vt 0.4827 0.8042
vt 0.5044 0.8042
vt 0.9053 0.4502
vt 0.9270 0.4502
vt 0.4827 0.9469
vt 0.4611 0.9469
vt 0.4611 0.8042
vt 0.4827 0.8042
vt 0.9486 0.7576
vt 0.9270 0.7576
vt 0.9270 0.6149
vt 0.9486 0.6149
vt 0.9613 0.3075
vt 0.9397 0.3075
vt 0.9397 0.1648
vt 0.9613 0.1648
vt 0.9486 0.4502
vt 0.9702 0.4502
vt 0.9270 0.4502
vt 0.9486 0.4502
vt 0.9397 0.0000
vt 0.9613 0.0000
vt 0.6367 0.4025
vt 0.6834 0.4502
vt 0.1273 0.8527
vt 0.0807 0.9003
vt 0.2547 0.8527
vt 0.2080 0.9003
vt 0.0637 0.2900
vt 0.0000 0.3075
vt 0.3820 0.0476
vt 0.3184 0.1601
vt 0.2547 0.1427
vt 0.3354 0.0000
vt 0.1273 0.4025
vt 0.0807 0.4502
vt 0.6367 0.4025
vt 0.5900 0.4502
vt 0.2547 0.4025
vt 0.2080 0.4502
vt 0.3184 0.2900
vt 0.2547 0.3075
vt 0.5094 0.0476
vt 0.4627 0.0000
vt 0.6367 0.0476
vt 0.5900 0.0000
vt 0.3820 0.4025
vt 0.3354 0.4502
vn -0.2588 0.0000 0.9659
vn -0.9659 0.0000 -0.2588
vn 0.9659 0.0000 -0.2588
vn 0.2588 0.0000 0.9659
vn -0.9659 0.0000 0.2588
vn 0.7071 0.0000 -0.7071
vn -0.2588 0.0000 -0.9659
vn 0.7071 0.0000 0.7071
vn -0.7071 0.0000 0.7071
vn 0.2588 0.0000 -0.9659
vn -0.7071 0.0000 -0.7071
vn 0.9659 0.0000 0.2588
vn 0.0000 -1.0000 0.0000
vn 0.0000 1.0000 0.0000
vn -0.1830 0.7071 -0.6830
vn -0.5000 0.7071 -0.5000
vn -0.6830 0.7071 -0.1830
vn -0.6830 0.7071 0.1830
vn -0.5000 0.7071 0.5000
vn -0.1830 0.7071 0.6830
vn 0.1830 0.7071 0.6830
vn 0.5000 0.7071 0.5000
vn 0.6830 0.7071 0.1830
vn 0.6830 0.7071 -0.1830
vn 0.5000 0.7071 -0.5000
vn 0.1830 0.7071 -0.6830
usemtl None
s off
f 35/1/1 19/2/1 18/3/1 36/4/1
f 33/5/2 16/6/2 15/7/2 34/8/2
f 31/9/3 23/10/3 22/11/3 32/12/3
f 30/13/4 20/14/4 19/2/4 35/1/4
f 29/15/5 17/16/5 16/6/5 33/5/5
f 28/17/6 24/18/6 23/19/6 31/20/6
f 26/21/7 14/22/7 13/23/7 27/24/7
f 25/25/8 21/26/8 20/27/8 30/28/8
f 36/29/9 18/30/9 17/31/9 29/32/9
f 27/24/10 13/23/10 24/33/10 28/34/10
f 34/35/11 15/36/11 14/37/11 26/38/11
f 32/12/12 22/11/12 21/39/12 25/40/12
f 7/41/13 8/42/13 116/43/13 115/44/13
f 108/45/10 85/46/10 37/47/10 48/48/10
f 102/49/12 104/50/12 46/51/12 45/52/12
f 96/53/1 98/54/1 43/55/1 42/56/1
f 13/57/14 14/58/14 87/59/14 86/60/14
f 90/61/2 92/62/2 40/63/2 39/64/2
f 104/50/3 106/65/3 47/66/3 46/51/3
f 98/54/4 100/67/4 44/68/4 43/55/4
f 92/62/5 94/69/5 41/70/5 40/63/5
f 106/71/6 108/72/6 48/73/6 47/74/6
f 100/75/8 102/76/8 45/77/8 44/78/8
f 94/79/9 96/80/9 42/81/9 41/82/9
f 16/83/14 17/84/14 93/85/14 91/86/14
f 23/87/14 24/88/14 107/89/14 105/90/14
f 24/91/14 13/57/14 86/60/14 107/92/14
f 20/93/14 21/94/14 101/95/14 99/96/14
f 17/84/14 18/97/14 95/98/14 93/85/14
f 88/99/11 90/100/11 39/101/11 38/102/11
f 14/58/14 15/103/14 89/104/14 87/59/14
f 21/105/14 22/106/14 103/107/14 101/108/14
f 18/109/14 19/110/14 97/111/14 95/112/14
f 15/113/14 16/83/14 91/86/14 89/114/14
f 22/106/14 23/87/14 105/90/14 103/107/14
f 19/110/14 20/93/14 99/96/14 97/111/14
f 49/115/6 57/116/6 77/117/6 73/118/6
f 60/119/7 56/120/7 84/121/7 80/122/7
f 52/123/9 51/124/9 74/125/9 82/126/9
f 57/127/10 60/119/10 80/122/10 77/128/10
f 51/129/1 54/130/1 83/131/1 74/132/1
f 54/130/4 53/133/4 75/134/4 83/131/4
f 58/135/12 50/136/12 81/137/12 78/138/12
f 53/139/8 58/140/8 78/141/8 75/142/8
f 56/143/11 55/144/11 76/145/11 84/146/11
f 59/147/5 52/148/5 82/149/5 79/150/5
f 50/136/3 49/151/3 73/152/3 81/137/3
f 55/153/2 59/147/2 79/150/2 76/154/2
f 43/155/14 44/156/14 56/157/14 60/158/14
f 46/159/14 47/160/14 52/161/14 59/162/14
f 39/163/14 40/164/14 50/165/14 58/166/14
f 42/167/14 43/155/14 60/158/14 57/168/14
f 45/169/14 46/159/14 59/162/14 55/170/14
f 38/171/14 39/172/14 58/173/14 53/174/14
f 48/175/14 37/176/14 54/177/14 51/178/14
f 41/179/14 42/167/14 57/180/14 49/181/14
f 44/156/14 45/182/14 55/183/14 56/157/14
f 37/176/14 38/171/14 53/174/14 54/177/14
f 47/160/14 48/184/14 51/185/14 52/161/14
f 40/164/14 41/179/14 49/181/14 50/165/14
f 81/186/14 73/187/14 65/188/14 64/189/14
f 82/190/14 74/191/14 72/192/14 71/193/14
f 83/194/14 75/195/14 61/196/14 62/197/14
f 84/198/14 76/199/14 69/200/14 68/201/14
f 73/187/14 77/202/14 66/203/14 65/188/14
f 74/191/14 83/194/14 62/197/14 72/204/14
f 75/195/14 78/205/14 63/206/14 61/196/14
f 76/207/14 79/208/14 70/209/14 69/210/14
f 77/211/14 80/212/14 67/213/14 66/214/14
f 78/215/14 81/186/14 64/189/14 63/216/14
f 79/208/14 82/190/14 71/193/14 70/209/14
f 80/212/14 84/198/14 68/201/14 67/213/14
f 61/217/14 63/218/14 64/219/14 65/220/14 66/221/14 67/222/14 68/223/14 69/224/14 70/225/14 71/226/14 72/227/14 62/228/14
f 88/229/15 85/230/15 86/60/15 87/59/15
f 90/231/16 88/229/16 87/59/16 89/104/16
f 92/62/17 90/61/17 89/232/17 91/233/17
f 94/234/18 92/235/18 91/86/18 93/85/18
f 96/236/19 94/234/19 93/85/19 95/98/19
f 98/54/20 96/53/20 95/237/20 97/238/20
f 100/239/21 98/240/21 97/111/21 99/96/21
f 102/241/22 100/239/22 99/96/22 101/95/22
f 104/50/23 102/49/23 101/242/23 103/243/23
f 106/244/24 104/245/24 103/107/24 105/90/24
f 108/246/25 106/244/25 105/90/25 107/89/25
f 85/230/26 108/247/26 107/92/26 86/60/26
f 85/46/7 88/248/7 38/249/7 37/47/7
f 34/250/14 26/251/14 127/252/14 129/253/14
f 26/251/14 27/254/14 131/255/14 127/252/14
f 30/256/14 35/257/14 121/258/14 124/259/14
f 6/260/13 7/41/13 115/44/13 114/261/13
f 25/262/14 30/256/14 124/259/14 128/263/14
f 5/264/13 6/265/13 114/266/13 113/267/13
f 29/268/14 33/269/14 122/270/14 125/271/14
f 12/272/13 1/273/13 110/274/13 120/275/13
f 31/276/14 32/277/14 130/278/14 123/279/14
f 33/269/14 34/280/14 129/281/14 122/270/14
f 4/282/13 5/264/13 113/267/13 112/283/13
f 118/284/12 130/285/12 128/286/12 117/287/12
f 111/288/11 129/289/11 127/290/11 109/291/11
f 110/292/10 131/293/10 126/294/10 120/295/10
f 114/296/9 132/297/9 125/298/9 113/299/9
f 117/300/8 128/301/8 124/302/8 116/303/8
f 109/304/7 127/305/7 131/293/7 110/292/7
f 120/306/6 126/307/6 123/308/6 119/309/6
f 113/310/5 125/311/5 122/312/5 112/313/5
f 116/314/4 124/315/4 121/316/4 115/317/4
f 119/318/3 123/319/3 130/285/3 118/284/3
f 112/313/2 122/312/2 129/320/2 111/321/2
f 115/317/1 121/316/1 132/322/1 114/323/1
f 36/324/14 29/268/14 125/271/14 132/325/14
f 35/257/14 36/326/14 132/327/14 121/258/14
f 8/42/13 9/328/13 117/329/13 116/43/13
f 1/273/13 2/330/13 109/331/13 110/274/13
f 9/332/13 10/333/13 118/334/13 117/335/13
f 2/330/13 3/336/13 111/337/13 109/331/13
f 32/277/14 25/338/14 128/339/14 130/278/14
f 27/254/14 28/340/14 126/341/14 131/255/14
f 10/333/13 11/342/13 119/343/13 118/334/13
f 3/344/13 4/282/13 112/283/13 111/345/13
f 28/346/14 31/276/14 123/279/14 126/347/14
f 11/342/13 12/348/13 120/349/13 119/343/13
