# Blender v2.75 (sub 0) OBJ File: 'Asset_Master_Hangar_Kit.blend'
# www.blender.org
mtllib struc_asset_warning_light_A_low.mtl
o Cylinder.011
v 3.606486 0.000000 -0.063507
v 3.602324 0.122590 -0.046505
v 3.651393 0.000000 -0.044906
v 3.639990 0.127014 -0.033504
v 3.669993 0.000000 0.000000
v 3.652991 0.122590 0.004162
v 3.651393 0.000000 0.044906
v 3.640504 0.122570 0.034018
v 3.606486 0.000000 0.063507
v 3.610648 0.122590 0.046505
v 3.561580 0.000000 0.044906
v 3.572982 0.127014 0.033504
v 3.542979 0.000000 -0.000000
v 3.559981 0.122590 -0.004162
v 3.561580 0.000000 -0.044906
v 3.572469 0.122570 -0.034018
v 3.602324 0.047217 -0.060936
v 3.651393 0.042792 -0.044906
v 3.667423 0.047217 0.004162
v 3.651393 0.042792 0.044906
v 3.610648 0.047217 0.060936
v 3.561580 0.042792 0.044906
v 3.545550 0.047217 -0.004162
v 3.562093 0.047236 -0.044393
v 3.606486 0.000000 -0.063507
v 3.651393 0.000000 -0.044906
v 3.651393 0.042792 -0.044906
v 3.669993 0.000000 0.000000
v 3.669993 0.042792 0.000000
v 3.651393 0.000000 0.044906
v 3.651393 0.042792 0.044906
v 3.606486 0.000000 0.063507
v 3.606486 0.042792 0.063507
v 3.561580 0.000000 0.044906
v 3.561580 0.042792 0.044906
v 3.542979 0.000000 -0.000000
v 3.542979 0.042792 -0.000000
v 3.561580 0.000000 -0.044906
v 3.561580 0.042792 -0.044906
v 3.606486 0.042792 -0.063507
v 3.606486 0.000000 -0.074913
v 3.659458 0.000000 -0.052972
v 3.659458 0.042792 -0.052972
v 3.681399 0.000000 0.000000
v 3.681399 0.042792 0.000000
v 3.659458 0.000000 0.052972
v 3.659458 0.042792 0.052972
v 3.606486 0.000000 0.074913
v 3.606486 0.042792 0.074913
v 3.553515 0.000000 0.052972
v 3.553515 0.042792 0.052972
v 3.531573 0.000000 -0.000000
v 3.531573 0.042792 -0.000000
v 3.553515 0.000000 -0.052972
v 3.553515 0.042792 -0.052972
v 3.606486 0.042792 -0.074913
v 3.606486 0.042792 -0.063507
v 3.606486 0.127014 -0.047382
v 3.639990 0.127014 0.033504
v 3.653868 0.127014 0.000000
v 3.606486 0.127014 0.047382
v 3.572982 0.127014 -0.033504
v 3.559104 0.127014 -0.000000
v 3.669993 0.042792 0.000000
v 3.606486 0.042792 0.063507
v 3.542979 0.042792 -0.000000
v 3.561580 0.042792 -0.044906
v 3.650879 0.047236 0.044393
v 3.635979 0.121334 0.029492
v 3.646354 0.046001 0.039868
v 3.576994 0.121334 -0.029492
v 3.566619 0.046001 -0.039868
v 3.604780 0.046072 -0.055008
v 3.604780 0.121445 -0.040577
v 3.647063 0.121445 0.001706
v 3.608193 0.121445 0.040577
v 3.565909 0.121445 -0.001706
v 3.661494 0.046072 0.001706
v 3.608193 0.046072 0.055008
v 3.551478 0.046072 -0.001706
vt 0.441011 0.322833
vt 0.591634 0.211288
vt 0.641172 0.265797
vt 0.521043 0.391908
vt 0.299213 0.402338
vt 0.127983 0.415865
vt 0.115321 0.342131
vt 0.296269 0.296205
vt 0.895780 0.190638
vt 0.947527 0.269442
vt 0.933664 0.272154
vt 0.883952 0.198359
vt 0.872433 0.690015
vt 0.883357 0.759296
vt 0.869589 0.756141
vt 0.858487 0.692263
vt 0.200457 0.093327
vt 0.049837 0.204877
vt 0.000297 0.150370
vt 0.120421 0.024257
vt 0.342259 0.013823
vt 0.513491 0.000297
vt 0.526152 0.074032
vt 0.345204 0.119955
vt 0.831512 0.134468
vt 0.775937 0.190043
vt 0.697342 0.190043
vt 0.641767 0.134468
vt 0.641767 0.055873
vt 0.697342 0.000297
vt 0.775937 0.000297
vt 0.831512 0.055873
vt 0.959046 0.354802
vt 0.985757 0.190638
vt 0.999703 0.192886
vt 0.972992 0.357050
vt 0.838010 0.361939
vt 0.819782 0.269443
vt 0.833645 0.272155
vt 0.851877 0.359245
vt 0.241186 0.459064
vt 0.296463 0.547304
vt 0.259178 0.639002
vt 0.170233 0.677812
vt 0.071316 0.644757
vt 0.002124 0.552462
vt 0.055861 0.448842
vt 0.150638 0.418460
vt 0.121476 0.023010
vt 0.201825 0.092116
vt 0.343287 0.120320
vt 0.340375 0.013893
vt 0.054488 0.447345
vt 0.150671 0.416459
vt 0.298080 0.547945
vt 0.260522 0.640280
vt 0.380743 0.227249
vt 0.439642 0.324044
vt 0.379038 0.228092
vt 0.170369 0.679832
vt 0.070088 0.646520
vt 0.519988 0.393155
vt 0.421107 0.338988
vt 0.357895 0.236809
vt 0.585289 0.777751
vt 0.625602 0.680426
vt 0.650322 0.680426
vt 0.602768 0.795230
vt 0.321034 0.122983
vt 0.512842 0.415868
vt 0.350327 0.680426
vt 0.390640 0.777751
vt 0.373160 0.795230
vt 0.325607 0.680426
vt 0.300292 0.842783
vt 0.259980 0.745459
vt 0.277459 0.727980
vt 0.325012 0.842783
vt 0.301097 0.402268
vt 0.298186 0.295839
vt 0.320439 0.293175
vt 0.320439 0.410016
vt 0.162655 0.705146
vt 0.162655 0.680426
vt 0.000297 0.553858
vt 0.260726 0.188911
vt 0.262432 0.188068
vt 0.242453 0.457530
vt 0.298211 0.546187
vt 0.000297 0.551532
vt 0.423069 0.679832
vt 0.423069 0.587089
vt 0.547332 0.587089
vt 0.547332 0.679832
vt 0.671595 0.587089
vt 0.671595 0.679832
vt 0.298806 0.679832
vt 0.298806 0.587089
vt 0.423069 0.493751
vt 0.423069 0.586494
vt 0.298806 0.586494
vt 0.298806 0.493751
vt 0.547332 0.493751
vt 0.547332 0.586494
vt 0.671595 0.493751
vt 0.671595 0.586494
vt 0.795858 0.493751
vt 0.795858 0.586494
vt 0.795858 0.587089
vt 0.795858 0.679832
vt 0.065331 0.745459
vt 0.025017 0.842784
vt 0.000297 0.842784
vt 0.047851 0.727980
vt 0.321034 0.006145
vt 0.487964 0.818064
vt 0.487964 0.842784
vt 0.128620 0.000297
vt 0.220360 0.077171
vt 0.283575 0.179350
vt 0.443950 0.308116
vt 0.578925 0.208671
vt 0.097414 0.266521
vt 0.121285 0.330677
vt 0.088843 0.270608
vt 0.062546 0.207493
vt 0.544058 0.149642
vt 0.520188 0.085485
vt 0.552628 0.145555
vt 0.283067 0.289182
vt 0.197518 0.108044
vt 0.358406 0.126978
vt 0.390338 0.222716
vt 0.251132 0.193444
vt 0.819188 0.197534
vt 0.795110 0.362104
vt 0.730477 0.356975
vt 0.730477 0.190638
vt 0.665845 0.362104
vt 0.641767 0.197534
vt 0.650916 0.769137
vt 0.817254 0.769137
vt 0.822383 0.833769
vt 0.657813 0.857847
vt 0.657813 0.680426
vt 0.822383 0.704504
vt 0.869491 0.525256
vt 0.883357 0.522561
vt 0.845722 0.525850
vt 0.831776 0.528098
vt 0.843351 0.816905
vt 0.831776 0.808808
vt 0.929299 0.361939
vt 0.915433 0.359245
vt 0.988128 0.481692
vt 0.948122 0.424084
vt 0.961890 0.420928
vt 0.999703 0.473595
vt 0.871529 0.190638
vt 0.883357 0.198359
vt 0.897819 0.525256
vt 0.883952 0.522562
vn 0.376800 0.174200 -0.909800
vn 0.909800 0.174200 -0.376800
vn -0.070700 0.981800 -0.176400
vn -0.176800 -0.981800 -0.070100
vn -0.376800 0.174200 0.909800
vn -0.909800 0.174200 0.376800
vn 0.000000 1.000000 -0.000000
vn 0.926300 -0.070800 -0.370000
vn 0.070700 0.981800 0.176400
vn 0.000000 -1.000000 0.000000
vn 0.000000 0.000000 1.000000
vn -0.923900 0.000000 -0.382700
vn -0.382700 0.000000 -0.923900
vn -0.923900 0.000000 0.382700
vn -0.382700 0.000000 0.923900
vn 0.382700 0.000000 0.923900
vn 0.923900 0.000000 0.382700
vn 0.923900 0.000000 -0.382700
vn 0.382700 0.000000 -0.923900
vn -0.376800 0.174200 -0.909800
vn 0.911000 0.162600 0.379100
vn 0.379100 0.162600 0.911000
vn -0.911000 0.162600 -0.379100
vn -0.379100 0.162600 -0.911000
vn 0.909800 0.174200 0.376800
vn 0.376800 0.174200 0.909800
vn -0.909800 0.174200 -0.376800
vn -0.912100 0.162400 -0.376500
vn -0.376500 0.162400 -0.912100
vn 0.376500 0.162400 0.912100
vn 0.912100 0.162400 0.376500
vn 0.914600 0.175600 0.364200
vn 0.364200 0.175600 0.914600
vn -0.364200 0.175600 -0.914600
vn -0.914600 0.175600 -0.364200
vn -0.926300 -0.070800 0.370000
vn 0.370000 -0.070800 -0.926300
vn -0.070100 -0.981800 -0.176800
vn -0.176400 0.981800 -0.070700
vn 0.176800 -0.981800 0.070100
vn 0.176400 0.981800 0.070700
vn -0.370000 -0.070800 0.926300
vn 0.070100 -0.981800 0.176800
usemtl None
s off
f 57/1/1 58/2/1 4/3/1 18/4/1
f 18/5/2 4/6/2 60/7/2 64/8/2
f 21/9/3 68/10/3 70/11/3 79/12/3
f 14/13/4 16/14/4 71/15/4 77/16/4
f 65/17/5 61/18/5 12/19/5 22/20/5
f 22/21/6 12/22/6 63/23/6 66/24/6
f 4/25/7 58/26/7 62/27/7 63/28/7 12/29/7 61/30/7 59/31/7 60/32/7
f 10/33/8 21/34/8 79/35/8 76/36/8
f 17/37/9 24/38/9 72/39/9 73/40/9
f 1/41/10 3/42/10 5/43/10 7/44/10 9/45/10 11/46/10 13/47/10 15/48/10
f 65/17/11 22/20/11 35/49/11 33/50/11
f 22/21/11 66/24/11 37/51/11 35/52/11
f 15/48/11 13/47/11 36/53/11 38/54/11
f 5/43/11 3/42/11 26/55/11 28/56/11
f 67/57/11 57/1/11 40/58/11 39/59/11
f 9/45/11 7/44/11 30/60/11 32/61/11
f 66/24/11 67/57/11 39/59/11 37/51/11
f 57/1/11 18/4/11 27/62/11 40/58/11
f 39/59/7 40/58/7 56/63/7 55/64/7
f 28/65/10 26/66/10 42/67/10 44/68/10
f 37/51/7 39/59/7 55/64/7 53/69/7
f 40/58/7 27/62/7 43/70/7 56/63/7
f 34/71/10 32/72/10 48/73/10 50/74/10
f 26/75/10 25/76/10 41/77/10 42/78/10
f 27/79/7 29/80/7 45/81/7 43/82/7
f 25/76/10 38/83/10 54/84/10 41/77/10
f 11/46/11 9/45/11 32/61/11 34/85/11
f 20/86/11 65/17/11 33/50/11 31/87/11
f 7/44/11 5/43/11 28/56/11 30/60/11
f 1/41/11 15/48/11 38/54/11 25/88/11
f 64/8/11 20/86/11 31/87/11 29/80/11
f 3/42/11 1/41/11 25/88/11 26/89/11
f 18/5/11 64/8/11 29/80/11 27/79/11
f 13/47/11 11/46/11 34/90/11 36/53/11
f 52/91/12 53/92/12 55/93/12 54/94/12
f 54/94/13 55/93/13 56/95/13 41/96/13
f 50/97/14 51/98/14 53/92/14 52/91/14
f 48/99/15 49/100/15 51/101/15 50/102/15
f 46/103/16 47/104/16 49/100/16 48/99/16
f 44/105/17 45/106/17 47/104/17 46/103/17
f 42/107/18 43/108/18 45/106/18 44/105/18
f 41/96/19 56/95/19 43/109/19 42/110/19
f 36/111/10 34/112/10 50/113/10 52/114/10
f 35/52/7 37/51/7 53/69/7 51/115/7
f 30/116/10 28/65/10 44/68/10 46/117/10
f 33/50/7 35/49/7 51/118/7 49/119/7
f 38/83/10 36/111/10 52/114/10 54/84/10
f 31/87/7 33/50/7 49/119/7 47/120/7
f 32/72/10 30/116/10 46/117/10 48/73/10
f 29/80/7 31/87/7 47/120/7 45/81/7
f 17/121/20 2/122/20 58/2/20 57/1/20
f 8/123/21 6/124/21 60/7/21 59/125/21
f 10/126/22 8/123/22 59/125/22 61/18/22
f 16/127/23 14/128/23 63/23/23 62/129/23
f 2/122/24 16/127/24 62/129/24 58/2/24
f 6/124/25 19/130/25 64/8/25 60/7/25
f 21/131/26 10/126/26 61/18/26 65/17/26
f 14/128/27 23/132/27 66/24/27 63/23/27
f 23/132/28 24/133/28 67/57/28 66/24/28
f 24/133/29 17/121/29 57/1/29 67/57/29
f 68/134/30 21/131/30 65/17/30 20/86/30
f 19/130/31 68/134/31 20/86/31 64/8/31
f 78/135/32 75/136/32 69/137/32 70/138/32
f 70/138/33 69/137/33 76/139/33 79/140/33
f 72/141/34 71/142/34 74/143/34 73/144/34
f 80/145/35 77/146/35 71/142/35 72/141/35
f 2/147/36 17/37/36 73/40/36 74/148/36
f 23/149/37 14/13/37 77/16/37 80/150/37
f 16/14/38 2/151/38 74/152/38 71/15/38
f 68/10/39 19/153/39 78/154/39 70/11/39
f 6/155/40 8/156/40 69/157/40 75/158/40
f 24/38/41 23/159/41 80/160/41 72/39/41
f 19/153/42 6/161/42 75/162/42 78/154/42
f 8/156/43 10/33/43 76/36/43 69/157/43
