# Blender v2.78 (sub 0) OBJ File: 'Asset_Master_Hangar_Kit.blend'
# www.blender.org
mtllib wall_light_warning.mtl
o Cylinder.011
v 0.000000 -0.063507 -0.063507
v -0.004162 0.059083 -0.046505
v 0.044906 -0.063507 -0.044906
v 0.033504 0.063507 -0.033504
v 0.063507 -0.063507 0.000000
v 0.046505 0.059083 0.004162
v 0.044906 -0.063507 0.044906
v 0.034018 0.059063 0.034018
v -0.000000 -0.063507 0.063507
v 0.004162 0.059083 0.046505
v -0.044906 -0.063507 0.044906
v -0.033504 0.063507 0.033504
v -0.063507 -0.063507 -0.000000
v -0.046505 0.059083 -0.004162
v -0.044906 -0.063507 -0.044906
v -0.034018 0.059063 -0.034018
v -0.004162 -0.016291 -0.060936
v 0.044906 -0.020715 -0.044906
v 0.060936 -0.016291 0.004162
v 0.044906 -0.020715 0.044906
v 0.004162 -0.016291 0.060936
v -0.044906 -0.020715 0.044906
v -0.060936 -0.016291 -0.004162
v -0.044393 -0.016271 -0.044393
v 0.000000 -0.063507 -0.063507
v 0.044906 -0.063507 -0.044906
v 0.044906 -0.020715 -0.044906
v 0.063507 -0.063507 0.000000
v 0.063507 -0.020715 0.000000
v 0.044906 -0.063507 0.044906
v 0.044906 -0.020715 0.044906
v -0.000000 -0.063507 0.063507
v -0.000000 -0.020715 0.063507
v -0.044906 -0.063507 0.044906
v -0.044906 -0.020715 0.044906
v -0.063507 -0.063507 -0.000000
v -0.063507 -0.020715 -0.000000
v -0.044906 -0.063507 -0.044906
v -0.044906 -0.020715 -0.044906
v 0.000000 -0.020715 -0.063507
v 0.000000 -0.063507 -0.074913
v 0.052972 -0.063507 -0.052972
v 0.052972 -0.020715 -0.052972
v 0.074913 -0.063507 0.000000
v 0.074913 -0.020715 0.000000
v 0.052972 -0.063507 0.052972
v 0.052972 -0.020715 0.052972
v -0.000000 -0.063507 0.074913
v -0.000000 -0.020715 0.074913
v -0.052972 -0.063507 0.052972
v -0.052972 -0.020715 0.052972
v -0.074913 -0.063507 -0.000000
v -0.074913 -0.020715 -0.000000
v -0.052972 -0.063507 -0.052972
v -0.052972 -0.020715 -0.052972
v 0.000000 -0.020715 -0.074913
v 0.000000 -0.020715 -0.063507
v -0.000000 0.063507 -0.047382
v 0.033504 0.063507 0.033504
v 0.047382 0.063507 0.000000
v -0.000000 0.063507 0.047382
v -0.033504 0.063507 -0.033504
v -0.047382 0.063507 -0.000000
v 0.063507 -0.020715 0.000000
v -0.000000 -0.020715 0.063507
v -0.063507 -0.020715 -0.000000
v -0.044906 -0.020715 -0.044906
v 0.044393 -0.016271 0.044393
v 0.029492 0.057827 0.029492
v 0.039868 -0.017507 0.039868
v -0.029492 0.057827 -0.029492
v -0.039868 -0.017507 -0.039868
v -0.001706 -0.017435 -0.055008
v -0.001706 0.057938 -0.040577
v 0.040577 0.057938 0.001706
v 0.001706 0.057938 0.040577
v -0.040577 0.057938 -0.001706
v 0.055008 -0.017435 0.001706
v 0.001706 -0.017435 0.055008
v -0.055008 -0.017435 -0.001706
vt 0.4410 0.3228
vt 0.5916 0.2113
vt 0.6412 0.2658
vt 0.5210 0.3919
vt 0.2992 0.4023
vt 0.1280 0.4159
vt 0.1153 0.3421
vt 0.2963 0.2962
vt 0.8958 0.1906
vt 0.9475 0.2694
vt 0.9337 0.2722
vt 0.8840 0.1984
vt 0.8724 0.6900
vt 0.8834 0.7593
vt 0.8696 0.7561
vt 0.8585 0.6923
vt 0.2005 0.0933
vt 0.0498 0.2049
vt 0.0003 0.1504
vt 0.1204 0.0243
vt 0.3423 0.0138
vt 0.5135 0.0003
vt 0.5262 0.0740
vt 0.3452 0.1200
vt 0.8315 0.1345
vt 0.7759 0.1900
vt 0.6973 0.1900
vt 0.6418 0.1345
vt 0.6418 0.0559
vt 0.6973 0.0003
vt 0.7759 0.0003
vt 0.8315 0.0559
vt 0.9590 0.3548
vt 0.9858 0.1906
vt 0.9997 0.1929
vt 0.9730 0.3571
vt 0.8380 0.3619
vt 0.8198 0.2694
vt 0.8336 0.2722
vt 0.8519 0.3592
vt 0.2412 0.4591
vt 0.2965 0.5473
vt 0.2592 0.6390
vt 0.1702 0.6778
vt 0.0713 0.6448
vt 0.0021 0.5525
vt 0.0559 0.4488
vt 0.1506 0.4185
vt 0.1215 0.0230
vt 0.2018 0.0921
vt 0.3433 0.1203
vt 0.3404 0.0139
vt 0.0545 0.4473
vt 0.1507 0.4165
vt 0.2981 0.5479
vt 0.2605 0.6403
vt 0.3807 0.2272
vt 0.4396 0.3240
vt 0.3790 0.2281
vt 0.1704 0.6798
vt 0.0701 0.6465
vt 0.5200 0.3932
vt 0.4211 0.3390
vt 0.3579 0.2368
vt 0.5853 0.7778
vt 0.6256 0.6804
vt 0.6503 0.6804
vt 0.6028 0.7952
vt 0.3210 0.1230
vt 0.5128 0.4159
vt 0.3503 0.6804
vt 0.3906 0.7778
vt 0.3732 0.7952
vt 0.3256 0.6804
vt 0.3003 0.8428
vt 0.2600 0.7455
vt 0.2775 0.7280
vt 0.3250 0.8428
vt 0.3011 0.4023
vt 0.2982 0.2958
vt 0.3204 0.2932
vt 0.3204 0.4100
vt 0.1627 0.7051
vt 0.1627 0.6804
vt 0.0003 0.5539
vt 0.2607 0.1889
vt 0.2624 0.1881
vt 0.2425 0.4575
vt 0.2982 0.5462
vt 0.0003 0.5515
vt 0.4231 0.6798
vt 0.4231 0.5871
vt 0.5473 0.5871
vt 0.5473 0.6798
vt 0.6716 0.5871
vt 0.6716 0.6798
vt 0.2988 0.6798
vt 0.2988 0.5871
vt 0.4231 0.4938
vt 0.4231 0.5865
vt 0.2988 0.5865
vt 0.2988 0.4938
vt 0.5473 0.4938
vt 0.5473 0.5865
vt 0.6716 0.4938
vt 0.6716 0.5865
vt 0.7959 0.4938
vt 0.7959 0.5865
vt 0.7959 0.5871
vt 0.7959 0.6798
vt 0.0653 0.7455
vt 0.0250 0.8428
vt 0.0003 0.8428
vt 0.0479 0.7280
vt 0.3210 0.0061
vt 0.4880 0.8181
vt 0.4880 0.8428
vt 0.1286 0.0003
vt 0.2204 0.0772
vt 0.2836 0.1793
vt 0.4439 0.3081
vt 0.5789 0.2087
vt 0.0974 0.2665
vt 0.1213 0.3307
vt 0.0888 0.2706
vt 0.0625 0.2075
vt 0.5441 0.1496
vt 0.5202 0.0855
vt 0.5526 0.1456
vt 0.2831 0.2892
vt 0.1975 0.1080
vt 0.3584 0.1270
vt 0.3903 0.2227
vt 0.2511 0.1934
vt 0.8192 0.1975
vt 0.7951 0.3621
vt 0.7305 0.3570
vt 0.7305 0.1906
vt 0.6658 0.3621
vt 0.6418 0.1975
vt 0.6509 0.7691
vt 0.8173 0.7691
vt 0.8224 0.8338
vt 0.6578 0.8578
vt 0.6578 0.6804
vt 0.8224 0.7045
vt 0.8695 0.5253
vt 0.8834 0.5226
vt 0.8457 0.5259
vt 0.8318 0.5281
vt 0.8434 0.8169
vt 0.8318 0.8088
vt 0.9293 0.3619
vt 0.9154 0.3592
vt 0.9881 0.4817
vt 0.9481 0.4241
vt 0.9619 0.4209
vt 0.9997 0.4736
vt 0.8715 0.1906
vt 0.8834 0.1984
vt 0.8978 0.5253
vt 0.8840 0.5226
vn 0.3768 0.1742 -0.9098
vn 0.9098 0.1742 -0.3768
vn -0.0707 0.9818 -0.1764
vn -0.1768 -0.9818 -0.0701
vn -0.3768 0.1742 0.9098
vn -0.9098 0.1742 0.3768
vn 0.0000 1.0000 -0.0000
vn 0.9263 -0.0708 -0.3700
vn 0.0707 0.9818 0.1764
vn 0.0000 -1.0000 0.0000
vn 0.0000 0.0000 1.0000
vn -0.9239 0.0000 -0.3827
vn -0.3827 0.0000 -0.9239
vn -0.9239 0.0000 0.3827
vn -0.3827 0.0000 0.9239
vn 0.3827 0.0000 0.9239
vn 0.9239 0.0000 0.3827
vn 0.9239 0.0000 -0.3827
vn 0.3827 0.0000 -0.9239
vn -0.3768 0.1742 -0.9098
vn 0.9110 0.1626 0.3791
vn 0.3791 0.1626 0.9110
vn -0.9110 0.1626 -0.3791
vn -0.3791 0.1626 -0.9110
vn 0.9098 0.1742 0.3768
vn 0.3768 0.1742 0.9098
vn -0.9098 0.1742 -0.3768
vn -0.9121 0.1624 -0.3765
vn -0.3765 0.1624 -0.9121
vn 0.3765 0.1624 0.9121
vn 0.9121 0.1624 0.3765
vn 0.9146 0.1756 0.3642
vn 0.3642 0.1756 0.9146
vn -0.3642 0.1756 -0.9146
vn -0.9146 0.1756 -0.3642
vn -0.9263 -0.0708 0.3700
vn 0.3700 -0.0708 -0.9263
vn -0.0701 -0.9818 -0.1768
vn -0.1764 0.9818 -0.0707
vn 0.1768 -0.9818 0.0701
vn 0.1764 0.9818 0.0707
vn -0.3700 -0.0708 0.9263
vn 0.0701 -0.9818 0.1768
usemtl None
s off
f 57/1/1 58/2/1 4/3/1 18/4/1
f 18/5/2 4/6/2 60/7/2 64/8/2
f 21/9/3 68/10/3 70/11/3 79/12/3
f 14/13/4 16/14/4 71/15/4 77/16/4
f 65/17/5 61/18/5 12/19/5 22/20/5
f 22/21/6 12/22/6 63/23/6 66/24/6
f 4/25/7 58/26/7 62/27/7 63/28/7 12/29/7 61/30/7 59/31/7 60/32/7
f 10/33/8 21/34/8 79/35/8 76/36/8
f 17/37/9 24/38/9 72/39/9 73/40/9
f 1/41/10 3/42/10 5/43/10 7/44/10 9/45/10 11/46/10 13/47/10 15/48/10
f 65/17/11 22/20/11 35/49/11 33/50/11
f 22/21/11 66/24/11 37/51/11 35/52/11
f 15/48/11 13/47/11 36/53/11 38/54/11
f 5/43/11 3/42/11 26/55/11 28/56/11
f 67/57/11 57/1/11 40/58/11 39/59/11
f 9/45/11 7/44/11 30/60/11 32/61/11
f 66/24/11 67/57/11 39/59/11 37/51/11
f 57/1/11 18/4/11 27/62/11 40/58/11
f 39/59/7 40/58/7 56/63/7 55/64/7
f 28/65/10 26/66/10 42/67/10 44/68/10
f 37/51/7 39/59/7 55/64/7 53/69/7
f 40/58/7 27/62/7 43/70/7 56/63/7
f 34/71/10 32/72/10 48/73/10 50/74/10
f 26/75/10 25/76/10 41/77/10 42/78/10
f 27/79/7 29/80/7 45/81/7 43/82/7
f 25/76/10 38/83/10 54/84/10 41/77/10
f 11/46/11 9/45/11 32/61/11 34/85/11
f 20/86/11 65/17/11 33/50/11 31/87/11
f 7/44/11 5/43/11 28/56/11 30/60/11
f 1/41/11 15/48/11 38/54/11 25/88/11
f 64/8/11 20/86/11 31/87/11 29/80/11
f 3/42/11 1/41/11 25/88/11 26/89/11
f 18/5/11 64/8/11 29/80/11 27/79/11
f 13/47/11 11/46/11 34/90/11 36/53/11
f 52/91/12 53/92/12 55/93/12 54/94/12
f 54/94/13 55/93/13 56/95/13 41/96/13
f 50/97/14 51/98/14 53/92/14 52/91/14
f 48/99/15 49/100/15 51/101/15 50/102/15
f 46/103/16 47/104/16 49/100/16 48/99/16
f 44/105/17 45/106/17 47/104/17 46/103/17
f 42/107/18 43/108/18 45/106/18 44/105/18
f 41/96/19 56/95/19 43/109/19 42/110/19
f 36/111/10 34/112/10 50/113/10 52/114/10
f 35/52/7 37/51/7 53/69/7 51/115/7
f 30/116/10 28/65/10 44/68/10 46/117/10
f 33/50/7 35/49/7 51/118/7 49/119/7
f 38/83/10 36/111/10 52/114/10 54/84/10
f 31/87/7 33/50/7 49/119/7 47/120/7
f 32/72/10 30/116/10 46/117/10 48/73/10
f 29/80/7 31/87/7 47/120/7 45/81/7
f 17/121/20 2/122/20 58/2/20 57/1/20
f 8/123/21 6/124/21 60/7/21 59/125/21
f 10/126/22 8/123/22 59/125/22 61/18/22
f 16/127/23 14/128/23 63/23/23 62/129/23
f 2/122/24 16/127/24 62/129/24 58/2/24
f 6/124/25 19/130/25 64/8/25 60/7/25
f 21/131/26 10/126/26 61/18/26 65/17/26
f 14/128/27 23/132/27 66/24/27 63/23/27
f 23/132/28 24/133/28 67/57/28 66/24/28
f 24/133/29 17/121/29 57/1/29 67/57/29
f 68/134/30 21/131/30 65/17/30 20/86/30
f 19/130/31 68/134/31 20/86/31 64/8/31
f 78/135/32 75/136/32 69/137/32 70/138/32
f 70/138/33 69/137/33 76/139/33 79/140/33
f 72/141/34 71/142/34 74/143/34 73/144/34
f 80/145/35 77/146/35 71/142/35 72/141/35
f 2/147/36 17/37/36 73/40/36 74/148/36
f 23/149/37 14/13/37 77/16/37 80/150/37
f 16/14/38 2/151/38 74/152/38 71/15/38
f 68/10/39 19/153/39 78/154/39 70/11/39
f 6/155/40 8/156/40 69/157/40 75/158/40
f 24/38/41 23/159/41 80/160/41 72/39/41
f 19/153/42 6/161/42 75/162/42 78/154/42
f 8/156/43 10/33/43 76/36/43 69/157/43
