# Blender v2.78 (sub 0) OBJ File: 'CafeKit_Master.blend'
# www.blender.org
mtllib small_wall_corner_in.mtl
o struc_Wall_Corner_In_Plane.092
v -0.000001 3.000000 -2.000000
v -0.107263 -1.000000 -2.000000
v -0.107264 -0.677105 -2.000000
v -0.997787 1.706868 -2.000000
v -0.997787 2.642695 -2.000000
v -0.698451 3.001149 -2.000000
v -0.022955 -0.622260 -2.000000
v -0.589518 3.000970 -2.000000
v -0.551890 2.909471 -2.000000
v -0.217532 2.908921 -2.000000
v -0.060383 3.165494 -2.000000
v -0.120941 3.165594 -2.000000
v -0.615872 -1.000000 -0.055253
v -0.522980 3.000000 -0.001621
v -0.232690 3.000000 -0.633758
v -0.333484 -1.000000 -0.670444
v -0.333484 -0.677105 -0.670444
v -1.170303 1.706868 -0.975021
v -1.170303 2.642695 -0.975021
v -0.889019 3.001149 -0.872643
v -0.254260 -0.622260 -0.641609
v -0.786656 3.000970 -0.835385
v -0.751296 2.909471 -0.822516
v -0.437103 2.908921 -0.708159
v -0.289431 3.165494 -0.654410
v -0.346337 3.165594 -0.675122
v -0.175683 3.165594 -1.327701
v -0.116045 3.165494 -1.317186
v -0.270807 2.908921 -1.344474
v -0.600085 2.909471 -1.402535
v -0.637142 3.000970 -1.409069
v -0.079186 -0.622260 -1.310686
v -0.744419 3.001149 -1.427985
v -1.039208 2.642695 -1.479964
v -1.039208 1.706868 -1.479964
v -0.162213 -0.677105 -1.325326
v -0.162213 -1.000000 -1.325326
v -0.056580 3.000000 -1.306700
v -0.615872 -0.677105 -0.055253
v -1.387088 1.706868 -0.500514
v -1.387088 2.642695 -0.500514
v -1.127856 3.001149 -0.350846
v -0.542859 -0.622260 -0.013098
v -1.033517 3.000970 -0.296380
v -1.000930 2.909471 -0.277566
v -0.711368 2.908921 -0.110387
v -0.575273 3.165494 -0.031812
v -0.627717 3.165594 -0.062091
v -1.000797 -1.000000 0.501557
v -0.918629 3.000000 0.570504
v -1.000797 -0.677105 0.501557
v -1.682978 1.706868 -0.070861
v -1.682978 2.642695 -0.070861
v -1.453673 3.001149 0.121549
v -0.936213 -0.622260 0.555749
v -1.370226 3.000970 0.191570
v -1.341401 2.909471 0.215757
v -1.085268 2.908921 0.430677
v -0.964885 3.165494 0.531691
v -1.011275 3.165594 0.492765
v -1.476563 -1.000000 0.983066
v -1.407616 3.000000 1.065234
v -1.476563 -0.677105 0.983066
v -2.048980 1.706868 0.300885
v -2.048980 2.642695 0.300885
v -1.856571 3.001149 0.530190
v -1.422370 -0.622260 1.047650
v -1.786550 3.000970 0.613637
v -1.762363 2.909471 0.642462
v -1.547442 2.908921 0.898595
v -1.446429 3.165494 1.018978
v -1.485355 3.165594 0.972588
v -2.028714 -1.000000 1.374644
v -1.975083 3.000000 1.467536
v -2.028714 -0.677105 1.374644
v -2.473976 1.706868 0.603428
v -2.473976 2.642695 0.603428
v -2.324308 3.001149 0.862660
v -1.986560 -0.622260 1.447657
v -2.269841 3.000970 0.956999
v -2.251027 2.909471 0.989586
v -2.083848 2.908921 1.279148
v -2.005274 3.165494 1.415243
v -2.035553 3.165594 1.362798
v -2.640474 -1.000000 1.664392
v -2.603787 3.000000 1.765186
v -2.640474 -0.677105 1.664392
v -2.945050 1.706868 0.827574
v -2.945050 2.642695 0.827574
v -2.842672 3.001149 1.108858
v -2.611638 -0.622260 1.743616
v -2.805414 3.000970 1.211221
v -2.792544 2.909471 1.246580
v -2.678188 2.908921 1.560773
v -2.624439 3.165494 1.708445
v -2.645152 3.165594 1.651540
v -3.293253 -1.000000 1.843508
v -3.274627 3.000000 1.949142
v -3.293253 -0.677105 1.843508
v -3.447891 1.706868 0.966514
v -3.447891 2.642695 0.966514
v -3.395912 3.001149 1.261302
v -3.278613 -0.622260 1.926536
v -3.376996 3.000970 1.368580
v -3.370461 2.909471 1.405637
v -3.312401 2.908921 1.734915
v -3.285113 3.165494 1.889676
v -3.295628 3.165594 1.830038
v -4.000161 -1.000000 1.906549
v -4.000161 3.000000 2.013812
v -4.000161 -0.677105 1.906549
v -4.000161 1.706868 1.016025
v -4.000161 2.642695 1.016025
v -4.000161 3.001149 1.315361
v -4.000161 -0.622260 1.990857
v -4.000161 3.000970 1.424294
v -4.000161 2.909471 1.461923
v -4.000161 2.908921 1.796280
v -4.000161 3.165494 1.953429
v -4.000161 3.165594 1.892871
v -0.000001 3.000000 2.013812
v -4.000161 -1.000000 -2.000000
vt 0.3200 0.6394
vt 0.2960 0.6365
vt 0.2942 0.5723
vt 0.3181 0.5735
vt 0.2452 0.6896
vt 0.1523 0.6916
vt 0.1494 0.6408
vt 0.2423 0.6387
vt 0.2846 0.4396
vt 0.2942 0.4418
vt 0.2791 0.4735
vt 0.2695 0.4717
vt 0.8093 0.7996
vt 0.7926 0.5543
vt 0.8606 0.5551
vt 0.8606 0.8002
vt 0.1309 0.4396
vt 0.1479 0.4429
vt 0.1306 0.4796
vt 0.1133 0.4769
vt 0.8286 0.0000
vt 0.8675 0.0233
vt 0.8407 0.0659
vt 0.7991 0.0468
vt 0.9588 0.0000
vt 0.9622 0.0038
vt 0.9276 0.0589
vt 0.9236 0.0560
vt 0.7439 0.0000
vt 0.7520 0.0060
vt 0.7173 0.0613
vt 0.7084 0.0565
vt 0.5812 0.9997
vt 0.5492 1.0000
vt 0.5464 0.9339
vt 0.5784 0.9336
vt 0.6330 0.0000
vt 0.6518 0.0208
vt 0.6210 0.0697
vt 0.5993 0.0537
vt 0.0791 0.4396
vt 0.0852 0.4464
vt 0.0557 0.4932
vt 0.0487 0.4880
vt 0.6902 0.1223
vt 0.6808 0.1188
vt 0.0328 0.5449
vt 0.0249 0.5414
vt 0.2942 0.5067
vt 0.3181 0.5062
vt 0.1171 0.5257
vt 0.0996 0.5237
vt 0.8198 0.1129
vt 0.7762 0.0985
vt 0.2674 0.5134
vt 0.2576 0.5120
vt 0.5971 0.1237
vt 0.5730 0.1130
vt 0.5454 0.8664
vt 0.5775 0.8661
vt 0.9006 0.1196
vt 0.8963 0.1177
vt 0.1479 0.5888
vt 0.2408 0.5867
vt 0.7827 0.5543
vt 0.7926 0.7992
vt 0.7231 0.7992
vt 0.7303 0.5543
vt 0.8821 0.1843
vt 0.8774 0.1833
vt 0.2594 0.5601
vt 0.2495 0.5592
vt 0.6717 0.1871
vt 0.6618 0.1851
vt 0.1479 0.5372
vt 0.2408 0.5351
vt 0.0170 0.5999
vt 0.0086 0.5982
vt 0.8055 0.1628
vt 0.7604 0.1535
vt 0.5464 0.7996
vt 0.5784 0.7993
vt 0.2960 0.4417
vt 0.3200 0.4396
vt 0.4588 0.5575
vt 0.4588 0.8025
vt 0.3900 0.8026
vt 0.4069 0.5576
vt 0.1078 0.5797
vt 0.0902 0.5786
vt 0.5806 0.1812
vt 0.5549 0.1760
vt 0.7980 0.2143
vt 0.7523 0.2101
vt 0.1030 0.6400
vt 0.0853 0.6398
vt 0.9053 0.1891
vt 0.8960 0.2540
vt 0.8726 0.2508
vt 0.9267 0.5543
vt 0.9267 0.7998
vt 0.8606 0.8025
vt 0.8769 0.5563
vt 0.1494 0.4877
vt 0.2423 0.4856
vt 0.5721 0.2403
vt 0.5457 0.2409
vt 0.8678 0.2509
vt 0.2552 0.6123
vt 0.2453 0.6120
vt 0.6621 0.2539
vt 0.6520 0.2533
vt 0.5492 0.7354
vt 0.5812 0.7351
vt 0.0088 0.6565
vt 0.0002 0.6567
vt 0.8958 0.3187
vt 0.8723 0.3172
vt 0.9881 0.5543
vt 0.9881 0.8010
vt 0.9267 0.8055
vt 0.9418 0.5577
vt 0.1523 0.4417
vt 0.2452 0.4396
vt 0.5718 0.2993
vt 0.5454 0.3056
vt 0.8675 0.3183
vt 0.2551 0.6683
vt 0.2452 0.6687
vt 0.6619 0.3205
vt 0.6518 0.3214
vt 1.0000 0.3281
vt 0.9680 0.3274
vt 0.9642 0.2678
vt 0.9962 0.2685
vt 0.0086 0.7130
vt 0.0000 0.7150
vt 0.7978 0.2656
vt 0.7520 0.2666
vt 0.1029 0.7048
vt 0.0852 0.7056
vt 0.5799 0.3564
vt 0.5543 0.3682
vt 0.8814 0.3814
vt 0.8768 0.3836
vt 0.2590 0.7266
vt 0.2491 0.7276
vt 0.6710 0.3850
vt 0.6611 0.3872
vt 0.9622 0.2035
vt 0.9943 0.2042
vt 0.0163 0.7676
vt 0.0080 0.7715
vt 0.8048 0.3153
vt 0.7597 0.3213
vt 0.1074 0.7721
vt 0.0898 0.7740
vt 0.2418 0.9585
vt 0.2178 0.9546
vt 0.2150 0.8922
vt 0.2390 0.8945
vt 0.1642 0.9377
vt 0.1479 0.6916
vt 0.2141 0.6940
vt 0.2141 0.9395
vt 0.6413 0.7351
vt 0.5484 0.7343
vt 0.5462 0.6849
vt 0.6391 0.6856
vt 0.6891 0.4453
vt 0.6797 0.4489
vt 0.9622 0.1366
vt 0.9942 0.1373
vt 0.0317 0.8188
vt 0.0238 0.8244
vt 0.8187 0.3619
vt 0.7751 0.3725
vt 0.1165 0.8399
vt 0.0991 0.8428
vt 0.2141 0.8272
vt 0.2380 0.8279
vt 0.5116 0.5575
vt 0.5277 0.8025
vt 0.4588 0.8025
vt 0.4596 0.5575
vt 0.5454 0.6334
vt 0.6383 0.6341
vt 0.5960 0.4098
vt 0.5719 0.4269
vt 0.8995 0.4416
vt 0.8952 0.4447
vt 0.2669 0.7852
vt 0.2571 0.7869
vt 0.0542 0.8650
vt 0.0472 0.8721
vt 0.8392 0.4039
vt 0.7977 0.4186
vt 0.1299 0.9061
vt 0.1126 0.9099
vt 0.2149 0.7616
vt 0.2389 0.7606
vt 0.3839 0.5575
vt 0.3900 0.8024
vt 0.3205 0.8024
vt 0.3315 0.5575
vt 0.5461 0.5813
vt 0.6390 0.5821
vt 0.6195 0.4580
vt 0.5979 0.4797
vt 0.9261 0.4958
vt 0.9222 0.4997
vt 0.2784 0.8425
vt 0.2687 0.8447
vt 0.7158 0.4997
vt 0.7070 0.5045
vt 0.9640 0.0692
vt 0.9961 0.0699
vt 0.2178 0.6943
vt 0.2418 0.6916
vt 0.7231 0.5543
vt 0.7231 0.7994
vt 0.6518 0.8005
vt 0.6685 0.5552
vt 0.5484 0.5273
vt 0.6413 0.5280
vt 0.6518 0.5015
vt 0.6331 0.5273
vt 0.9622 0.5445
vt 0.9588 0.5491
vt 0.2942 0.8995
vt 0.2847 0.9024
vt 0.7520 0.5486
vt 0.7439 0.5543
vt 0.9680 0.0000
vt 1.0000 0.0007
vt 0.0852 0.9067
vt 0.0791 0.9151
vt 0.8675 0.4420
vt 0.8287 0.4604
vt 0.1479 0.9715
vt 0.1310 0.9763
vt 0.5454 0.0000
vt 0.5098 0.0568
vt 0.3205 0.3086
vt 0.4820 0.1195
vt 0.4629 0.1862
vt 0.4530 0.2548
vt 0.4528 0.3232
vt 0.4622 0.3895
vt 0.4808 0.4515
vt 0.5083 0.5074
vt 0.5454 0.5575
vt 0.0045 0.0650
vt 0.0000 0.0000
vt 0.3205 0.0689
vt 0.0186 0.1302
vt 0.0419 0.1935
vt 0.0736 0.2532
vt 0.1127 0.3073
vt 0.1582 0.3542
vt 0.2085 0.3926
vt 0.2623 0.4211
vt 0.3205 0.4396
vn -0.9333 0.3510 -0.0759
vn -0.9968 0.0000 -0.0794
vn 0.9224 0.3791 0.0744
vn -0.9200 -0.3848 -0.0743
vn 0.9367 0.3416 0.0764
vn -0.7663 0.6395 -0.0613
vn 0.0016 1.0000 0.0001
vn -0.5450 0.8373 -0.0444
vn -0.9967 -0.0000 -0.0812
vn -0.5290 0.8373 -0.1384
vn 0.0016 1.0000 0.0004
vn -0.9059 0.3510 -0.2368
vn 0.9092 0.3416 0.2379
vn -0.7440 0.6395 -0.1935
vn 0.8954 0.3791 0.2334
vn -0.9675 -0.0000 -0.2530
vn -0.9679 0.0000 -0.2513
vn -0.8931 -0.3848 -0.2329
vn 0.0015 1.0000 0.0007
vn 0.8413 0.3791 0.3854
vn -0.4969 0.8373 -0.2281
vn -0.9096 0.0000 -0.4156
vn -0.6991 0.6395 -0.3197
vn -0.9088 -0.0000 -0.4172
vn -0.8510 0.3510 -0.3905
vn -0.8391 -0.3848 -0.3845
vn 0.8541 0.3416 0.3922
vn -0.6330 0.6395 -0.4363
vn 0.7730 0.3416 0.5345
vn -0.7703 0.3510 -0.5324
vn -0.7596 -0.3848 -0.5243
vn -0.8236 0.0000 -0.5672
vn 0.0014 1.0000 0.0009
vn 0.7616 0.3791 0.5256
vn -0.4497 0.8373 -0.3109
vn -0.8226 -0.0000 -0.5687
vn -0.6661 0.3510 -0.6581
vn -0.6570 -0.3848 -0.6483
vn -0.7126 0.0000 -0.7016
vn 0.0012 1.0000 0.0012
vn 0.6588 0.3791 0.6499
vn -0.3889 0.8373 -0.3843
vn -0.7113 0.0000 -0.7029
vn -0.5476 0.6395 -0.5396
vn 0.6685 0.3416 0.6606
vn 0.0010 1.0000 0.0013
vn 0.5359 0.3791 0.7544
vn -0.3163 0.8373 -0.4460
vn -0.5785 0.0000 -0.8157
vn -0.4456 0.6395 -0.6265
vn 0.5436 0.3416 0.7667
vn -0.5417 0.3510 -0.7637
vn -0.5345 -0.3848 -0.7525
vn -0.5799 0.0000 -0.8147
vn -0.2340 0.8373 -0.4942
vn -0.4280 0.0000 -0.9038
vn 0.0007 1.0000 0.0015
vn -0.3301 0.6395 -0.6943
vn 0.4022 0.3416 0.8494
vn -0.4009 0.3510 -0.8462
vn -0.3957 -0.3848 -0.8339
vn -0.4297 0.0000 -0.9030
vn 0.3968 0.3791 0.8360
vn 0.0004 1.0000 0.0016
vn -0.2045 0.6395 -0.7411
vn 0.2486 0.3416 0.9064
vn -0.2479 0.3510 -0.9030
vn -0.2448 -0.3848 -0.8899
vn -0.2663 0.0000 -0.9639
vn 0.2456 0.3791 0.8922
vn -0.1446 0.8373 -0.5273
vn -0.2646 0.0000 -0.9644
vn -0.0832 0.3510 -0.9327
vn -0.0822 -0.3848 -0.9193
vn -0.0893 0.0000 -0.9960
vn 0.0001 1.0000 0.0016
vn 0.0824 0.3791 0.9217
vn -0.0486 0.8373 -0.5446
vn -0.0888 0.0000 -0.9960
vn -0.0686 0.6395 -0.7657
vn 0.0835 0.3416 0.9361
vn 0.0000 1.0000 0.0000
usemtl None
s off
f 12/1/1 10/2/1 29/3/1 27/4/1
f 5/5/2 4/6/2 35/7/2 34/8/2
f 9/9/3 8/10/3 31/11/3 30/12/3
f 4/13/4 7/14/4 32/15/4 35/16/4
f 1/17/5 11/18/5 28/19/5 38/20/5
f 6/21/6 5/22/6 34/23/6 33/24/6
f 11/25/7 12/26/7 27/27/7 28/28/7
f 7/29/8 3/30/8 36/31/8 32/32/8
f 3/33/9 2/34/9 37/35/9 36/36/9
f 10/37/7 9/38/7 30/39/7 29/40/7
f 8/41/7 6/42/7 33/43/7 31/44/7
f 32/32/10 36/31/10 17/45/10 21/46/10
f 31/44/11 33/43/11 20/47/11 22/48/11
f 27/4/12 29/3/12 24/49/12 26/50/12
f 38/20/13 28/19/13 25/51/13 15/52/13
f 33/24/14 34/23/14 19/53/14 20/54/14
f 30/12/15 31/11/15 22/55/15 23/56/15
f 29/40/11 30/39/11 23/57/11 24/58/11
f 36/36/16 37/35/16 16/59/16 17/60/16
f 28/28/11 27/27/11 26/61/11 25/62/11
f 34/8/17 35/7/17 18/63/17 19/64/17
f 35/65/18 32/66/18 21/67/18 18/68/18
f 25/62/19 26/61/19 48/69/19 47/70/19
f 23/56/20 22/55/20 44/71/20 45/72/20
f 21/46/21 17/45/21 39/73/21 43/74/21
f 19/64/22 18/63/22 40/75/22 41/76/22
f 22/48/19 20/47/19 42/77/19 44/78/19
f 20/54/23 19/53/23 41/79/23 42/80/23
f 17/60/24 16/59/24 13/81/24 39/82/24
f 26/50/25 24/49/25 46/83/25 48/84/25
f 18/85/26 21/86/26 43/87/26 40/88/26
f 15/52/27 25/51/27 47/89/27 14/90/27
f 24/58/19 23/57/19 45/91/19 46/92/19
f 42/80/28 41/79/28 53/93/28 54/94/28
f 14/90/29 47/89/29 59/95/29 50/96/29
f 48/69/30 46/97/30 58/98/30 60/99/30
f 40/100/31 43/101/31 55/102/31 52/103/31
f 41/76/32 40/75/32 52/104/32 53/105/32
f 46/92/33 45/91/33 57/106/33 58/107/33
f 47/70/33 48/69/33 60/99/33 59/108/33
f 45/72/34 44/71/34 56/109/34 57/110/34
f 43/74/35 39/73/35 51/111/35 55/112/35
f 39/82/36 13/81/36 49/113/36 51/114/36
f 44/78/33 42/77/33 54/115/33 56/116/33
f 60/99/37 58/98/37 70/117/37 72/118/37
f 52/119/38 55/120/38 67/121/38 64/122/38
f 53/105/39 52/104/39 64/123/39 65/124/39
f 58/107/40 57/106/40 69/125/40 70/126/40
f 59/108/40 60/99/40 72/118/40 71/127/40
f 57/110/41 56/109/41 68/128/41 69/129/41
f 55/112/42 51/111/42 63/130/42 67/131/42
f 51/132/43 49/133/43 61/134/43 63/135/43
f 56/116/40 54/115/40 66/136/40 68/137/40
f 54/94/44 53/93/44 65/138/44 66/139/44
f 50/96/45 59/95/45 71/140/45 62/141/45
f 70/126/46 69/125/46 81/142/46 82/143/46
f 71/127/46 72/118/46 84/144/46 83/145/46
f 69/129/47 68/128/47 80/146/47 81/147/47
f 67/131/48 63/130/48 75/148/48 79/149/48
f 63/135/49 61/134/49 73/150/49 75/151/49
f 68/137/46 66/136/46 78/152/46 80/153/46
f 66/139/50 65/138/50 77/154/50 78/155/50
f 62/141/51 71/140/51 83/156/51 74/157/51
f 72/158/52 70/159/52 82/160/52 84/161/52
f 64/162/53 67/163/53 79/164/53 76/165/53
f 65/166/54 64/167/54 76/168/54 77/169/54
f 79/149/55 75/148/55 87/170/55 91/171/55
f 75/151/56 73/150/56 85/172/56 87/173/56
f 80/153/57 78/152/57 90/174/57 92/175/57
f 78/155/58 77/154/58 89/176/58 90/177/58
f 74/157/59 83/156/59 95/178/59 86/179/59
f 84/161/60 82/160/60 94/180/60 96/181/60
f 76/182/61 79/183/61 91/184/61 88/185/61
f 77/169/62 76/168/62 88/186/62 89/187/62
f 82/143/57 81/142/57 93/188/57 94/189/57
f 83/145/57 84/144/57 96/190/57 95/191/57
f 81/147/63 80/146/63 92/192/63 93/193/63
f 92/175/64 90/174/64 102/194/64 104/195/64
f 90/177/65 89/176/65 101/196/65 102/197/65
f 86/179/66 95/178/66 107/198/66 98/199/66
f 96/181/67 94/180/67 106/200/67 108/201/67
f 88/202/68 91/203/68 103/204/68 100/205/68
f 89/187/69 88/186/69 100/206/69 101/207/69
f 94/189/64 93/188/64 105/208/64 106/209/64
f 95/191/64 96/190/64 108/210/64 107/211/64
f 93/193/70 92/192/70 104/212/70 105/213/70
f 91/171/71 87/170/71 99/214/71 103/215/71
f 87/173/72 85/172/72 97/216/72 99/217/72
f 108/201/73 106/200/73 118/218/73 120/219/73
f 100/220/74 103/221/74 115/222/74 112/223/74
f 101/207/75 100/206/75 112/224/75 113/225/75
f 106/209/76 105/208/76 117/226/76 118/227/76
f 107/211/76 108/210/76 120/228/76 119/229/76
f 105/213/77 104/212/77 116/230/77 117/231/77
f 103/215/78 99/214/78 111/232/78 115/233/78
f 99/217/79 97/216/79 109/234/79 111/235/79
f 104/195/76 102/194/76 114/236/76 116/237/76
f 102/197/80 101/196/80 113/238/80 114/239/80
f 98/199/81 107/198/81 119/240/81 110/241/81
f 1/242/82 38/243/82 121/244/82
f 38/243/82 15/245/82 121/244/82
f 15/245/82 14/246/82 121/244/82
f 14/246/82 50/247/82 121/244/82
f 50/247/82 62/248/82 121/244/82
f 62/248/82 74/249/82 121/244/82
f 74/249/82 86/250/82 121/244/82
f 86/250/82 98/251/82 121/244/82
f 98/251/82 110/252/82 121/244/82
f 37/253/82 2/254/82 122/255/82
f 16/256/82 37/253/82 122/255/82
f 13/257/82 16/256/82 122/255/82
f 49/258/82 13/257/82 122/255/82
f 61/259/82 49/258/82 122/255/82
f 73/260/82 61/259/82 122/255/82
f 85/261/82 73/260/82 122/255/82
f 97/262/82 85/261/82 122/255/82
f 109/263/82 97/262/82 122/255/82
