# Blender v2.75 (sub 0) OBJ File: 'Asset_Master_Hangar_Kit.blend'
# www.blender.org
mtllib struc_asset_big_pillar_middle_A_low.mtl
o Cube.011_Cube.155
v -4.500000 2.000000 -0.500000
v -4.499850 2.498215 -0.500150
v -4.244502 2.560420 -0.568532
v -4.431468 2.560420 -0.755499
v -4.499816 2.498231 -0.500184
v -4.259214 3.969032 -0.927752
v -4.072248 3.969032 -0.740785
v -4.279716 2.529452 -0.564745
v -4.085498 4.000000 -0.779313
v -4.220686 4.000000 -0.914502
v -4.435256 2.529452 -0.720284
v -4.244502 2.553746 -0.623105
v -4.072248 3.962359 -0.795359
v -4.204641 3.962359 -0.927752
v -4.376895 2.553746 -0.755499
v -4.097859 4.472660 -0.851026
v -4.099888 4.000000 -0.744572
v -4.255427 4.000000 -0.900112
v -4.097859 4.263764 -0.851026
v -4.148974 4.263764 -0.902141
v -4.148974 4.492907 -0.902141
v -4.097859 4.243518 -0.851026
v -4.148974 4.243518 -0.902141
v -4.020247 4.472660 -0.851026
v -4.020247 4.263764 -0.851026
v -4.097859 4.492907 -0.851026
v -4.148974 4.263764 -0.979753
v -4.148974 4.472660 -0.902141
v -4.004168 4.263764 -0.867105
v -4.148974 4.472660 -0.979753
v -4.004168 4.472660 -0.867105
v -4.132895 4.263764 -0.918220
v -4.132895 4.472660 -0.918220
v -4.081780 4.472660 -0.867105
v -4.081780 4.263764 -0.867105
v -4.132895 4.472660 -0.995833
v -4.132895 4.263764 -0.995833
v -4.499884 2.384250 -0.500116
v -4.499942 2.192125 -0.500058
v -4.234540 2.192067 -0.595985
v -4.404015 2.192067 -0.765460
v -4.499907 2.192125 -0.500093
v -4.319277 2.192067 -0.618691
v -4.381310 2.192067 -0.680723
v -4.403957 2.384192 -0.765518
v -4.234482 2.384192 -0.596043
v -4.499849 2.384250 -0.500151
v -4.381251 2.384192 -0.680781
v -4.319219 2.384192 -0.618749
v -3.500000 2.000000 -0.500000
v -4.000000 2.000000 -0.500000
v -4.000000 4.000000 -0.744572
v -4.000000 2.529452 -0.564745
v -4.000000 2.498215 -0.500150
v -3.500150 2.498215 -0.500150
v -3.755498 2.560420 -0.568532
v -3.568532 2.560420 -0.755499
v -3.500184 2.498231 -0.500184
v -3.740786 3.969032 -0.927752
v -3.927752 3.969032 -0.740785
v -4.000000 3.969032 -0.740785
v -4.000000 2.560420 -0.568532
v -3.720284 2.529452 -0.564745
v -3.914502 4.000000 -0.779313
v -3.779313 4.000000 -0.914502
v -3.564745 2.529452 -0.720284
v -4.000000 3.962359 -0.795359
v -4.000000 2.553746 -0.623105
v -3.755498 2.553746 -0.623105
v -3.927752 3.962359 -0.795359
v -3.795359 3.962359 -0.927752
v -3.623105 2.553746 -0.755499
v -3.902141 4.472660 -0.851026
v -4.000000 4.000000 -0.779313
v -3.900112 4.000000 -0.744572
v -3.744572 4.000000 -0.900112
v -4.000000 4.243518 -0.851026
v -3.902141 4.263764 -0.851026
v -3.851026 4.263764 -0.902141
v -3.851025 4.492907 -0.902141
v -4.000000 4.492907 -0.851026
v -3.902141 4.243518 -0.851026
v -3.851026 4.243518 -0.902141
v -3.979753 4.472660 -0.851026
v -3.979753 4.263764 -0.851026
v -3.902141 4.492907 -0.851026
v -3.851026 4.263764 -0.979753
v -3.851026 4.472660 -0.902141
v -3.995832 4.263764 -0.867105
v -3.851026 4.472660 -0.979753
v -3.995832 4.472660 -0.867105
v -3.867105 4.263764 -0.918220
v -3.867105 4.472660 -0.918220
v -3.918220 4.472660 -0.867105
v -3.918220 4.263764 -0.867105
v -3.867105 4.472660 -0.995833
v -3.867105 4.263764 -0.995833
v -4.000000 2.384250 -0.500116
v -3.500116 2.384250 -0.500116
v -4.000000 2.192125 -0.500058
v -3.500058 2.192125 -0.500058
v -4.000000 2.384192 -0.596043
v -4.000000 2.192067 -0.595985
v -3.765460 2.192067 -0.595985
v -3.595985 2.192067 -0.765460
v -3.500093 2.192125 -0.500093
v -3.680723 2.192067 -0.618691
v -3.618690 2.192067 -0.680723
v -3.596043 2.384192 -0.765518
v -3.765518 2.384192 -0.596043
v -3.500151 2.384250 -0.500151
v -3.618748 2.384192 -0.680781
v -3.680781 2.384192 -0.618749
v -4.500000 2.000000 -1.500000
v -4.500000 2.000000 -1.000000
v -4.255427 4.000000 -1.000000
v -4.435255 2.529452 -1.000000
v -4.148974 4.243518 -1.000000
v -4.499850 2.498215 -1.499850
v -4.499850 2.498215 -1.000000
v -4.244502 2.560420 -1.431468
v -4.431468 2.560420 -1.244501
v -4.499816 2.498231 -1.499816
v -4.259214 3.969032 -1.072248
v -4.072248 3.969032 -1.259215
v -4.259214 3.969032 -1.000000
v -4.431468 2.560420 -1.000000
v -4.279716 2.529452 -1.435255
v -4.085498 4.000000 -1.220687
v -4.220686 4.000000 -1.085498
v -4.435256 2.529452 -1.279716
v -4.376895 2.553746 -1.000000
v -4.204641 3.962359 -1.000000
v -4.244502 2.553746 -1.376895
v -4.072248 3.962359 -1.204641
v -4.204641 3.962359 -1.072248
v -4.376895 2.553746 -1.244501
v -4.220686 4.000000 -1.000000
v -4.097859 4.472660 -1.148974
v -4.099888 4.000000 -1.255428
v -4.255427 4.000000 -1.099888
v -4.097859 4.263764 -1.148974
v -4.148974 4.263764 -1.097859
v -4.148974 4.492907 -1.097859
v -4.148974 4.492907 -1.000000
v -4.097859 4.243518 -1.148974
v -4.148974 4.243518 -1.097859
v -4.020247 4.472660 -1.148974
v -4.020247 4.263764 -1.148974
v -4.097859 4.492907 -1.148974
v -4.148974 4.263764 -1.020247
v -4.148974 4.472660 -1.097859
v -4.004168 4.263764 -1.132895
v -4.148974 4.472660 -1.020247
v -4.004168 4.472660 -1.132895
v -4.132895 4.263764 -1.081780
v -4.132895 4.472660 -1.081780
v -4.081780 4.472660 -1.132895
v -4.081780 4.263764 -1.132895
v -4.132895 4.472660 -1.004168
v -4.132895 4.263764 -1.004168
v -4.499884 2.384250 -1.000000
v -4.499884 2.384250 -1.499884
v -4.499942 2.192125 -1.000000
v -4.499942 2.192125 -1.499942
v -4.404015 2.192067 -1.000000
v -4.403957 2.384192 -1.000000
v -4.234540 2.192067 -1.404015
v -4.404015 2.192067 -1.234540
v -4.499907 2.192125 -1.499907
v -4.319277 2.192067 -1.381309
v -4.381310 2.192067 -1.319277
v -4.403957 2.384192 -1.234482
v -4.234482 2.384192 -1.403957
v -4.499849 2.384250 -1.499849
v -4.381251 2.384192 -1.319219
v -4.319219 2.384192 -1.381251
v -3.500000 2.000000 -1.500000
v -4.000000 2.000000 -1.500000
v -3.500000 2.000000 -1.000000
v -4.000000 2.000000 -1.000000
v -4.000000 4.000000 -1.255428
v -3.744572 4.000000 -1.000000
v -3.564745 2.529452 -1.000000
v -4.000000 2.529452 -1.435255
v -3.851026 4.243518 -1.000000
v -4.000000 2.498215 -1.499850
v -3.500150 2.498215 -1.499850
v -3.500150 2.498215 -1.000000
v -3.755498 2.560420 -1.431468
v -3.568532 2.560420 -1.244501
v -3.500184 2.498231 -1.499816
v -3.740786 3.969032 -1.072248
v -3.927752 3.969032 -1.259215
v -4.000000 3.969032 -1.259215
v -4.000000 2.560420 -1.431468
v -3.740786 3.969032 -1.000000
v -3.568532 2.560420 -1.000000
v -3.720284 2.529452 -1.435255
v -3.914502 4.000000 -1.220687
v -3.779313 4.000000 -1.085498
v -3.564745 2.529452 -1.279716
v -4.000000 3.962359 -1.204641
v -4.000000 2.553746 -1.376895
v -3.623105 2.553746 -1.000000
v -3.795359 3.962359 -1.000000
v -3.755498 2.553746 -1.376895
v -3.927752 3.962359 -1.204641
v -3.795359 3.962359 -1.072248
v -3.623105 2.553746 -1.244501
v -3.779313 4.000000 -1.000000
v -3.902141 4.472660 -1.148974
v -4.000000 4.000000 -1.220687
v -3.900112 4.000000 -1.255428
v -3.744572 4.000000 -1.099888
v -4.000000 4.243518 -1.148974
v -3.902141 4.263764 -1.148974
v -3.851026 4.263764 -1.097859
v -3.851025 4.492907 -1.097859
v -4.000000 4.492907 -1.000000
v -4.000000 4.492907 -1.148974
v -3.851025 4.492907 -1.000000
v -3.902141 4.243518 -1.148974
v -3.851026 4.243518 -1.097859
v -3.979753 4.472660 -1.148974
v -3.979753 4.263764 -1.148974
v -3.902141 4.492907 -1.148974
v -3.851026 4.263764 -1.020247
v -3.851026 4.472660 -1.097859
v -3.995832 4.263764 -1.132895
v -3.851026 4.472660 -1.020247
v -3.995832 4.472660 -1.132895
v -3.867105 4.263764 -1.081780
v -3.867105 4.472660 -1.081780
v -3.918220 4.472660 -1.132895
v -3.918220 4.263764 -1.132895
v -3.867105 4.472660 -1.004168
v -3.867105 4.263764 -1.004168
v -3.500116 2.384250 -1.000000
v -4.000000 2.384250 -1.499884
v -3.500116 2.384250 -1.499884
v -4.000000 2.192125 -1.499942
v -3.500058 2.192125 -1.000000
v -3.500058 2.192125 -1.499942
v -3.595985 2.192067 -1.000000
v -3.596043 2.384192 -1.000000
v -4.000000 2.384192 -1.403957
v -4.000000 2.192067 -1.404015
v -3.765460 2.192067 -1.404015
v -3.595985 2.192067 -1.234540
v -3.500093 2.192125 -1.499907
v -3.680723 2.192067 -1.381309
v -3.618690 2.192067 -1.319277
v -3.596043 2.384192 -1.234482
v -3.765518 2.384192 -1.403957
v -3.500151 2.384250 -1.499849
v -3.618748 2.384192 -1.319219
v -3.680781 2.384192 -1.381251
vt 0.159352 0.072744
vt 0.302949 0.000343
vt 0.321443 0.041810
vt 0.187779 0.091943
vt 0.057020 0.683984
vt 0.014317 0.700091
vt 0.000343 0.671866
vt 0.031362 0.662213
vt 0.905716 0.947738
vt 0.905699 0.999657
vt 0.677983 0.999579
vt 0.677985 0.947660
vt 0.869477 0.470066
vt 0.907745 0.477324
vt 0.886195 0.590948
vt 0.842394 0.582640
vt 0.450307 0.946974
vt 0.450254 0.859448
vt 0.678038 0.859311
vt 0.678065 0.946837
vt 0.387135 0.680283
vt 0.387135 0.908067
vt 0.159351 0.908067
vt 0.159351 0.680283
vt 0.776119 0.835028
vt 0.754560 0.858625
vt 0.662567 0.774578
vt 0.613186 0.686206
vt 0.613186 0.680908
vt 0.563805 0.774578
vt 0.550463 0.000343
vt 0.550464 0.680222
vt 0.450254 0.680222
vt 0.450254 0.000343
vt 0.471813 0.858625
vt 0.450254 0.835028
vt 0.338173 0.014557
vt 0.416637 0.660932
vt 0.404042 0.675148
vt 0.322129 0.000343
vt 0.141618 0.049936
vt 0.158665 0.037320
vt 0.069612 0.696843
vt 0.007657 0.013469
vt 0.011153 0.000343
vt 0.449568 0.014557
vt 0.449568 0.000343
vt 0.449557 0.660932
vt 0.449557 0.675148
vt 0.019115 0.713225
vt 0.000343 0.036034
vt 0.117189 0.071426
vt 0.207973 0.659205
vt 0.181458 0.637750
vt 0.186148 0.679597
vt 0.159351 0.650917
vt 0.744111 0.477324
vt 0.782379 0.470066
vt 0.809462 0.582640
vt 0.765661 0.590948
vt 0.744111 0.359130
vt 0.749225 0.323203
vt 0.757728 0.316820
vt 0.752613 0.352746
vt 0.589883 0.660803
vt 0.676981 0.660803
vt 0.683536 0.676630
vt 0.583327 0.676630
vt 0.562341 0.633261
vt 0.551149 0.644452
vt 0.704523 0.633261
vt 0.715714 0.644452
vt 0.792101 0.671147
vt 0.744111 0.623157
vt 0.775635 0.591633
vt 0.808567 0.591633
vt 0.840091 0.623157
vt 0.892199 0.316820
vt 0.938467 0.372449
vt 0.928071 0.370894
vt 0.886144 0.321856
vt 0.937149 0.424080
vt 0.912680 0.451573
vt 0.902823 0.446179
vt 0.927656 0.415256
vt 0.848520 0.077856
vt 0.848520 0.044924
vt 0.857744 0.044924
vt 0.857744 0.077856
vt 0.753354 0.113214
vt 0.848520 0.113214
vt 0.857744 0.122438
vt 0.744130 0.122438
vt 0.848520 0.009566
vt 0.857744 0.000343
vt 0.009593 0.758495
vt 0.009582 0.791427
vt 0.000358 0.791424
vt 0.000369 0.758492
vt 0.009570 0.826785
vt 0.000343 0.836006
vt 0.009605 0.723138
vt 0.000385 0.713911
vt 0.104771 0.723170
vt 0.113998 0.713949
vt 0.861959 0.343314
vt 0.808833 0.384889
vt 0.837853 0.363101
vt 0.867475 0.462997
vt 0.764404 0.386159
vt 0.772907 0.379775
vt 0.800331 0.391272
vt 0.858973 0.469380
vt 0.876850 0.466392
vt 0.450267 0.999637
vt 0.450254 0.947719
vt 0.551149 0.474696
vt 0.713014 0.316820
vt 0.743425 0.346938
vt 0.669805 0.421275
vt 0.556701 0.474696
vt 0.905822 0.859311
vt 0.905822 0.946837
vt 0.713013 0.632575
vt 0.669805 0.528118
vt 0.743425 0.602457
vt 0.713030 0.316134
vt 0.551149 0.158236
vt 0.556701 0.158236
vt 0.669805 0.211659
vt 0.743443 0.286016
vt 0.387135 0.908793
vt 0.387109 0.996319
vt 0.280286 0.996287
vt 0.280286 0.908761
vt 0.713033 0.000343
vt 0.743445 0.030461
vt 0.669806 0.104816
vt 0.650377 0.138665
vt 0.650377 0.177809
vt 0.650377 0.455125
vt 0.650377 0.494268
vt 0.240321 0.996278
vt 0.240321 0.908752
vt 0.200355 0.996278
vt 0.200355 0.908752
vt 0.160390 0.996287
vt 0.160390 0.908761
vt 0.053567 0.996319
vt 0.053541 0.908793
vn -0.000000 0.992600 -0.121400
vn -0.121400 -0.992600 0.000000
vn 0.000000 0.000300 1.000000
vn 0.000000 0.282500 0.959300
vn -1.000000 0.000300 0.000000
vn 0.000000 -1.000000 0.000000
vn 0.000000 0.900300 0.435400
vn -0.108400 0.988200 0.108400
vn -0.696800 0.170400 0.696800
vn -0.435400 0.900300 0.000000
vn 0.000000 0.121400 0.992600
vn -0.992600 0.121400 0.000000
vn -0.014600 -0.119600 -0.992700
vn 0.000000 -0.992600 0.121400
vn 0.121400 0.992600 0.000000
vn 0.992700 -0.119600 0.014600
vn -0.959300 0.282500 0.000000
vn 0.000000 1.000000 0.000000
vn -0.696800 0.169800 0.696800
vn -0.707100 0.000000 -0.707100
vn -0.707100 -0.000000 0.707100
vn 0.000000 0.000000 1.000000
vn -1.000000 -0.000000 0.000000
vn 0.707100 0.000000 0.707100
vn -0.000600 -1.000000 0.000000
vn -0.000000 -1.000000 0.000600
vn 0.000600 1.000000 -0.000000
vn 0.000000 1.000000 -0.000600
vn 0.000100 1.000000 -0.000300
vn 0.000200 1.000000 -0.000200
vn 0.000300 1.000000 -0.000100
vn -0.000300 -1.000000 0.000100
vn -0.000200 -1.000000 0.000200
vn -0.000100 -1.000000 0.000300
vn -0.258800 0.000400 0.965900
vn -0.707100 0.000400 0.707100
vn -0.965900 0.000400 0.258800
vn 0.121400 -0.992600 0.000000
vn 1.000000 0.000300 0.000000
vn 0.108400 0.988200 0.108400
vn 0.696800 0.170400 0.696800
vn 0.435400 0.900300 -0.000000
vn 0.992600 0.121400 -0.000000
vn 0.014600 -0.119600 -0.992700
vn -0.121400 0.992600 0.000000
vn -0.992700 -0.119600 0.014600
vn 0.959300 0.282500 0.000000
vn 0.696800 0.169800 0.696800
vn 0.707100 0.000000 -0.707100
vn 1.000000 0.000000 0.000000
vn 0.000600 -1.000000 0.000000
vn -0.000600 1.000000 -0.000000
vn -0.000100 1.000000 -0.000300
vn -0.000200 1.000000 -0.000200
vn -0.000300 1.000000 -0.000100
vn 0.000300 -1.000000 0.000100
vn 0.000200 -1.000000 0.000200
vn 0.000100 -1.000000 0.000300
vn 0.258800 0.000400 0.965900
vn 0.707100 0.000400 0.707100
vn 0.965900 0.000400 0.258800
vn 0.000000 0.992600 0.121400
vn 0.000000 0.000300 -1.000000
vn 0.000000 0.282500 -0.959300
vn 0.000000 0.900300 -0.435400
vn -0.108400 0.988200 -0.108400
vn -0.696800 0.170400 -0.696800
vn 0.000000 0.121400 -0.992600
vn -0.014600 -0.119600 0.992700
vn 0.000000 -0.992600 -0.121400
vn 0.992700 -0.119600 -0.014600
vn -0.696800 0.169800 -0.696800
vn 0.000000 0.000000 -1.000000
vn -0.000000 -1.000000 -0.000600
vn 0.000000 1.000000 0.000600
vn 0.000100 1.000000 0.000300
vn 0.000200 1.000000 0.000200
vn 0.000300 1.000000 0.000100
vn -0.000300 -1.000000 -0.000100
vn -0.000200 -1.000000 -0.000200
vn -0.000100 -1.000000 -0.000300
vn -0.258800 0.000400 -0.965900
vn -0.707100 0.000400 -0.707100
vn -0.965900 0.000400 -0.258800
vn 0.108400 0.988200 -0.108400
vn 0.696800 0.170400 -0.696800
vn 0.014600 -0.119600 0.992700
vn -0.992700 -0.119600 -0.014600
vn 0.696800 0.169800 -0.696800
vn -0.000100 1.000000 0.000300
vn -0.000200 1.000000 0.000200
vn -0.000300 1.000000 0.000100
vn 0.000300 -1.000000 -0.000100
vn 0.000200 -1.000000 -0.000200
vn 0.000100 -1.000000 -0.000300
vn 0.258800 0.000400 -0.965900
vn 0.707100 0.000400 -0.707100
vn 0.965900 0.000400 -0.258800
usemtl None
s off
f 3/1/1 62/2/1 68/3/1 12/4/1
f 6/5/2 126/6/2 133/7/2 14/8/2
f 98/9/3 54/10/3 2/11/3 38/12/3
f 9/13/4 74/14/4 77/15/4 22/16/4
f 164/17/5 115/18/5 1/19/5 39/20/5
f 181/21/6 51/22/6 1/23/6 115/24/6
f 54/25/7 53/26/7 8/27/7 5/28/7 2/29/7
f 8/27/8 11/30/8 5/28/8
f 8/31/9 17/32/9 18/33/9 11/34/9
f 117/35/10 120/36/10 2/29/10 5/28/10 11/30/10
f 3/37/11 7/38/11 17/39/11 8/40/11
f 6/5/12 4/41/12 11/42/12 18/43/12
f 4/41/12 127/44/12 117/45/12 11/42/12
f 62/46/11 3/37/11 8/40/11 53/47/11
f 7/38/11 61/48/11 52/49/11 17/39/11
f 126/6/12 6/5/12 18/43/12 116/50/12
f 133/7/12 132/51/12 15/52/12 14/8/12
f 68/3/11 67/53/11 13/54/11 12/4/11
f 4/41/13 6/5/13 14/8/13 15/52/13
f 61/55/14 7/56/14 13/54/14 67/53/14
f 127/44/15 4/41/15 15/52/15 132/51/15
f 7/56/16 3/1/16 12/4/16 13/54/16
f 138/57/17 10/58/17 23/59/17 118/60/17
f 19/61/18 25/62/18 29/63/18 35/64/18
f 9/65/18 10/66/18 18/67/18 17/68/18
f 74/69/18 9/65/18 17/68/18 52/70/18
f 10/66/18 138/71/18 116/72/18 18/67/18
f 10/58/19 9/13/19 22/16/19 23/59/19
f 220/73/18 145/74/18 21/75/18 26/76/18 81/77/18
f 25/78/20 24/79/20 31/80/20 29/81/20
f 16/82/6 28/83/6 33/84/6 34/85/6
f 19/86/21 20/87/21 23/88/21 22/89/21
f 24/90/22 25/91/22 77/92/22 81/93/22
f 25/91/22 19/86/22 22/89/22 77/92/22
f 20/87/23 27/94/23 118/95/23 23/88/23
f 28/96/21 16/97/21 26/98/21 21/99/21
f 16/97/22 24/100/22 81/101/22 26/98/22
f 30/102/23 28/96/23 21/99/23 145/103/23
f 27/104/23 30/102/23 145/103/23 118/105/23
f 35/106/22 29/81/22 31/80/22 34/85/22
f 37/107/23 32/108/23 33/84/23 36/109/23
f 32/108/21 35/106/21 34/85/21 33/84/21
f 20/110/18 19/61/18 35/64/18 32/111/18
f 24/79/6 16/82/6 34/85/6 31/80/6
f 27/112/18 20/110/18 32/111/18 37/107/18
f 30/113/24 27/112/24 37/107/24 36/109/24
f 28/83/6 30/114/6 36/109/6 33/84/6
f 120/115/5 162/116/5 38/12/5 2/11/5
f 38/117/25 162/118/25 167/119/25 45/120/25 47/121/25
f 51/122/3 100/123/3 39/20/3 1/19/3
f 98/124/26 38/117/26 47/121/26 46/125/26 102/126/26
f 164/127/27 39/128/27 42/129/27 41/130/27 166/131/27
f 103/132/3 102/133/3 46/134/3 40/135/3
f 39/128/28 100/136/28 103/137/28 40/138/28 42/129/28
f 40/138/29 43/139/29 42/129/29
f 43/139/30 44/140/30 42/129/30
f 44/140/31 41/130/31 42/129/31
f 45/120/32 48/141/32 47/121/32
f 48/141/33 49/142/33 47/121/33
f 49/142/34 46/125/34 47/121/34
f 40/135/35 46/134/35 49/143/35 43/144/35
f 43/144/36 49/143/36 48/145/36 44/146/36
f 44/146/37 48/145/37 45/147/37 41/148/37
f 167/149/5 166/150/5 41/148/5 45/147/5
f 56/1/1 69/4/1 68/3/1 62/2/1
f 59/5/38 71/8/38 206/7/38 197/6/38
f 98/9/3 99/12/3 55/11/3 54/10/3
f 64/13/4 82/16/4 77/15/4 74/14/4
f 243/17/39 101/20/39 50/19/39 180/18/39
f 181/21/6 180/24/6 50/23/6 51/22/6
f 54/25/7 55/29/7 58/28/7 63/27/7 53/26/7
f 63/27/40 58/28/40 66/30/40
f 63/31/41 66/34/41 76/33/41 75/32/41
f 184/35/42 66/30/42 58/28/42 55/29/42 189/36/42
f 56/37/11 63/40/11 75/39/11 60/38/11
f 59/5/43 76/43/43 66/42/43 57/41/43
f 57/41/43 66/42/43 184/45/43 198/44/43
f 62/46/11 53/47/11 63/40/11 56/37/11
f 60/38/11 75/39/11 52/49/11 61/48/11
f 197/6/43 183/50/43 76/43/43 59/5/43
f 206/7/43 71/8/43 72/52/43 205/51/43
f 68/3/11 69/4/11 70/54/11 67/53/11
f 57/41/44 72/52/44 71/8/44 59/5/44
f 61/55/14 67/53/14 70/54/14 60/56/14
f 198/44/45 205/51/45 72/52/45 57/41/45
f 60/56/46 70/54/46 69/4/46 56/1/46
f 211/57/47 186/60/47 83/59/47 65/58/47
f 78/61/18 95/64/18 89/63/18 85/62/18
f 64/65/18 75/68/18 76/67/18 65/66/18
f 74/69/18 52/70/18 75/68/18 64/65/18
f 65/66/18 76/67/18 183/72/18 211/71/18
f 65/58/48 83/59/48 82/16/48 64/13/48
f 220/73/18 81/77/18 86/76/18 80/75/18 222/74/18
f 85/78/49 89/81/49 91/80/49 84/79/49
f 73/82/6 94/85/6 93/84/6 88/83/6
f 78/86/24 82/89/24 83/88/24 79/87/24
f 84/90/22 81/93/22 77/92/22 85/91/22
f 85/91/22 77/92/22 82/89/22 78/86/22
f 79/87/50 83/88/50 186/95/50 87/94/50
f 88/96/24 80/99/24 86/98/24 73/97/24
f 73/97/22 86/98/22 81/101/22 84/100/22
f 90/102/50 222/103/50 80/99/50 88/96/50
f 87/104/50 186/105/50 222/103/50 90/102/50
f 95/106/22 94/85/22 91/80/22 89/81/22
f 97/107/50 96/109/50 93/84/50 92/108/50
f 92/108/24 93/84/24 94/85/24 95/106/24
f 79/110/18 92/111/18 95/64/18 78/61/18
f 84/79/6 91/80/6 94/85/6 73/82/6
f 87/112/18 97/107/18 92/111/18 79/110/18
f 90/113/21 96/109/21 97/107/21 87/112/21
f 88/83/6 93/84/6 96/109/6 90/114/6
f 189/115/39 55/11/39 99/12/39 239/116/39
f 99/117/51 111/121/51 109/120/51 246/119/51 239/118/51
f 51/122/3 50/19/3 101/20/3 100/123/3
f 98/124/26 102/126/26 110/125/26 111/121/26 99/117/26
f 243/127/52 245/131/52 105/130/52 106/129/52 101/128/52
f 103/132/3 104/135/3 110/134/3 102/133/3
f 101/128/28 106/129/28 104/138/28 103/137/28 100/136/28
f 104/138/53 106/129/53 107/139/53
f 107/139/54 106/129/54 108/140/54
f 108/140/55 106/129/55 105/130/55
f 109/120/56 111/121/56 112/141/56
f 112/141/57 111/121/57 113/142/57
f 113/142/58 111/121/58 110/125/58
f 104/135/59 107/144/59 113/143/59 110/134/59
f 107/144/60 108/146/60 112/145/60 113/143/60
f 108/146/61 105/148/61 109/147/61 112/145/61
f 246/149/39 109/147/39 105/148/39 245/150/39
f 121/1/62 134/4/62 204/3/62 196/2/62
f 124/5/2 136/8/2 133/7/2 126/6/2
f 240/9/63 163/12/63 119/11/63 187/10/63
f 129/13/64 146/16/64 216/15/64 213/14/64
f 164/17/5 165/20/5 114/19/5 115/18/5
f 181/21/6 115/24/6 114/23/6 179/22/6
f 187/25/65 119/29/65 123/28/65 128/27/65 185/26/65
f 128/27/66 123/28/66 131/30/66
f 128/31/67 131/34/67 141/33/67 140/32/67
f 117/35/10 131/30/10 123/28/10 119/29/10 120/36/10
f 121/37/68 128/40/68 140/39/68 125/38/68
f 124/5/12 141/43/12 131/42/12 122/41/12
f 122/41/12 131/42/12 117/45/12 127/44/12
f 196/46/68 185/47/68 128/40/68 121/37/68
f 125/38/68 140/39/68 182/49/68 195/48/68
f 126/6/12 116/50/12 141/43/12 124/5/12
f 133/7/12 136/8/12 137/52/12 132/51/12
f 204/3/68 134/4/68 135/54/68 203/53/68
f 122/41/69 137/52/69 136/8/69 124/5/69
f 195/55/70 203/53/70 135/54/70 125/56/70
f 127/44/15 132/51/15 137/52/15 122/41/15
f 125/56/71 135/54/71 134/4/71 121/1/71
f 138/57/17 118/60/17 147/59/17 130/58/17
f 142/61/18 159/64/18 153/63/18 149/62/18
f 129/65/18 140/68/18 141/67/18 130/66/18
f 213/69/18 182/70/18 140/68/18 129/65/18
f 130/66/18 141/67/18 116/72/18 138/71/18
f 130/58/72 147/59/72 146/16/72 129/13/72
f 220/73/18 221/77/18 150/76/18 144/75/18 145/74/18
f 149/78/21 153/81/21 155/80/21 148/79/21
f 139/82/6 158/85/6 157/84/6 152/83/6
f 142/86/20 146/89/20 147/88/20 143/87/20
f 148/90/73 221/93/73 216/92/73 149/91/73
f 149/91/73 216/92/73 146/89/73 142/86/73
f 143/87/23 147/88/23 118/95/23 151/94/23
f 152/96/20 144/99/20 150/98/20 139/97/20
f 139/97/73 150/98/73 221/101/73 148/100/73
f 154/102/23 145/103/23 144/99/23 152/96/23
f 151/104/23 118/105/23 145/103/23 154/102/23
f 159/106/73 158/85/73 155/80/73 153/81/73
f 161/107/23 160/109/23 157/84/23 156/108/23
f 156/108/20 157/84/20 158/85/20 159/106/20
f 143/110/18 156/111/18 159/64/18 142/61/18
f 148/79/6 155/80/6 158/85/6 139/82/6
f 151/112/18 161/107/18 156/111/18 143/110/18
f 154/113/49 160/109/49 161/107/49 151/112/49
f 152/83/6 157/84/6 160/109/6 154/114/6
f 120/115/5 119/11/5 163/12/5 162/116/5
f 163/117/25 175/121/25 173/120/25 167/119/25 162/118/25
f 179/122/63 114/19/63 165/20/63 242/123/63
f 240/124/74 247/126/74 174/125/74 175/121/74 163/117/74
f 164/127/27 166/131/27 169/130/27 170/129/27 165/128/27
f 248/132/63 168/135/63 174/134/63 247/133/63
f 165/128/75 170/129/75 168/138/75 248/137/75 242/136/75
f 168/138/76 170/129/76 171/139/76
f 171/139/77 170/129/77 172/140/77
f 172/140/78 170/129/78 169/130/78
f 173/120/79 175/121/79 176/141/79
f 176/141/80 175/121/80 177/142/80
f 177/142/81 175/121/81 174/125/81
f 168/135/82 171/144/82 177/143/82 174/134/82
f 171/144/83 172/146/83 176/145/83 177/143/83
f 172/146/84 169/148/84 173/147/84 176/145/84
f 167/149/5 173/147/5 169/148/5 166/150/5
f 190/1/62 196/2/62 204/3/62 207/4/62
f 193/5/38 197/6/38 206/7/38 209/8/38
f 240/9/63 187/10/63 188/11/63 241/12/63
f 200/13/64 213/14/64 216/15/64 223/16/64
f 243/17/39 180/18/39 178/19/39 244/20/39
f 181/21/6 179/22/6 178/23/6 180/24/6
f 187/25/65 185/26/65 199/27/65 192/28/65 188/29/65
f 199/27/85 202/30/85 192/28/85
f 199/31/86 214/32/86 215/33/86 202/34/86
f 184/35/42 189/36/42 188/29/42 192/28/42 202/30/42
f 190/37/68 194/38/68 214/39/68 199/40/68
f 193/5/43 191/41/43 202/42/43 215/43/43
f 191/41/43 198/44/43 184/45/43 202/42/43
f 196/46/68 190/37/68 199/40/68 185/47/68
f 194/38/68 195/48/68 182/49/68 214/39/68
f 197/6/43 193/5/43 215/43/43 183/50/43
f 206/7/43 205/51/43 210/52/43 209/8/43
f 204/3/68 203/53/68 208/54/68 207/4/68
f 191/41/87 193/5/87 209/8/87 210/52/87
f 195/55/70 194/56/70 208/54/70 203/53/70
f 198/44/45 191/41/45 210/52/45 205/51/45
f 194/56/88 190/1/88 207/4/88 208/54/88
f 211/57/47 201/58/47 224/59/47 186/60/47
f 217/61/18 226/62/18 230/63/18 236/64/18
f 200/65/18 201/66/18 215/67/18 214/68/18
f 213/69/18 200/65/18 214/68/18 182/70/18
f 201/66/18 211/71/18 183/72/18 215/67/18
f 201/58/89 200/13/89 223/16/89 224/59/89
f 220/73/18 222/74/18 219/75/18 227/76/18 221/77/18
f 226/78/24 225/79/24 232/80/24 230/81/24
f 212/82/6 229/83/6 234/84/6 235/85/6
f 217/86/49 218/87/49 224/88/49 223/89/49
f 225/90/73 226/91/73 216/92/73 221/93/73
f 226/91/73 217/86/73 223/89/73 216/92/73
f 218/87/50 228/94/50 186/95/50 224/88/50
f 229/96/49 212/97/49 227/98/49 219/99/49
f 212/97/73 225/100/73 221/101/73 227/98/73
f 231/102/50 229/96/50 219/99/50 222/103/50
f 228/104/50 231/102/50 222/103/50 186/105/50
f 236/106/73 230/81/73 232/80/73 235/85/73
f 238/107/50 233/108/50 234/84/50 237/109/50
f 233/108/49 236/106/49 235/85/49 234/84/49
f 218/110/18 217/61/18 236/64/18 233/111/18
f 225/79/6 212/82/6 235/85/6 232/80/6
f 228/112/18 218/110/18 233/111/18 238/107/18
f 231/113/20 228/112/20 238/107/20 237/109/20
f 229/83/6 231/114/6 237/109/6 234/84/6
f 189/115/39 239/116/39 241/12/39 188/11/39
f 241/117/51 239/118/51 246/119/51 254/120/51 256/121/51
f 179/122/63 242/123/63 244/20/63 178/19/63
f 240/124/74 241/117/74 256/121/74 255/125/74 247/126/74
f 243/127/52 244/128/52 251/129/52 250/130/52 245/131/52
f 248/132/63 247/133/63 255/134/63 249/135/63
f 244/128/75 242/136/75 248/137/75 249/138/75 251/129/75
f 249/138/90 252/139/90 251/129/90
f 252/139/91 253/140/91 251/129/91
f 253/140/92 250/130/92 251/129/92
f 254/120/93 257/141/93 256/121/93
f 257/141/94 258/142/94 256/121/94
f 258/142/95 255/125/95 256/121/95
f 249/135/96 255/134/96 258/143/96 252/144/96
f 252/144/97 258/143/97 257/145/97 253/146/97
f 253/146/98 257/145/98 254/147/98 250/148/98
f 246/149/39 245/150/39 250/148/39 254/147/39
