# Blender v2.75 (sub 0) OBJ File: 'Asset_Master_Hangar_Kit.blend'
# www.blender.org
mtllib asset_garbage_can_A_low.mtl
o Circle.004
v 2.600000 0.000000 0.755512
v 2.557756 0.000000 0.766831
v 2.526831 0.000000 0.797756
v 2.515512 0.000000 0.840000
v 2.526831 0.000000 0.882244
v 2.557756 0.000000 0.913169
v 2.600000 0.000000 0.924488
v 2.642244 0.000000 0.913169
v 2.673168 0.000000 0.882244
v 2.684488 0.000000 0.840000
v 2.673169 0.000000 0.797756
v 2.642244 0.000000 0.766831
v 2.600000 0.250000 0.726997
v 2.543498 0.250000 0.742136
v 2.502136 0.250000 0.783498
v 2.486997 0.250000 0.840000
v 2.502136 0.250000 0.896501
v 2.543498 0.250000 0.937863
v 2.600000 0.250000 0.953003
v 2.656501 0.250000 0.937863
v 2.697863 0.250000 0.896502
v 2.713003 0.250000 0.840000
v 2.697863 0.250000 0.783498
v 2.656502 0.250000 0.742136
v 2.611611 0.048118 0.939224
v 2.549503 0.036173 0.927464
v 2.500775 0.048118 0.851611
v 2.512536 0.036173 0.789503
v 2.691736 0.048118 0.800443
v 2.699224 0.048118 0.828389
v 2.639557 0.048118 0.931736
v 2.508264 0.048118 0.879557
v 2.650497 0.036173 0.752536
v 2.560443 0.048118 0.748264
v 2.588389 0.048118 0.740776
v 2.687464 0.036173 0.890497
v 2.555092 0.032879 0.917783
v 2.522217 0.032879 0.795092
v 2.689816 0.032879 0.840000
v 2.600000 0.032879 0.750184
v 2.600000 0.032879 0.929816
v 2.510184 0.032879 0.840000
v 2.677783 0.032879 0.795092
v 2.644908 0.032879 0.917783
v 2.522217 0.032879 0.884908
v 2.644908 0.032879 0.762217
v 2.555092 0.032879 0.762217
v 2.677783 0.032879 0.884908
v 2.537500 0.255256 0.731747
v 2.600000 0.255256 0.715000
v 2.491747 0.255256 0.777500
v 2.475000 0.255256 0.840000
v 2.491747 0.255256 0.902500
v 2.537500 0.255256 0.948253
v 2.600000 0.255256 0.965000
v 2.662500 0.255256 0.948253
v 2.708253 0.255256 0.902500
v 2.725000 0.255256 0.840000
v 2.708253 0.255256 0.777500
v 2.662500 0.255256 0.731747
v 2.554571 0.057189 0.761316
v 2.600000 0.057189 0.749143
v 2.521316 0.057189 0.794572
v 2.509143 0.057189 0.840000
v 2.521316 0.057189 0.885428
v 2.554571 0.057189 0.918684
v 2.600000 0.057189 0.930857
v 2.645428 0.057189 0.918684
v 2.678684 0.057189 0.885428
v 2.690857 0.057189 0.840000
v 2.678684 0.057189 0.794572
v 2.645428 0.057189 0.761316
v 2.611611 0.218578 0.958361
v 2.481639 0.218578 0.851611
v 2.708309 0.218578 0.790875
v 2.649125 0.218578 0.948309
v 2.491691 0.218578 0.889125
v 2.661407 0.230523 0.733640
v 2.550875 0.218578 0.731691
v 2.706359 0.230523 0.901407
v 2.538593 0.230523 0.946360
v 2.493640 0.230523 0.778593
v 2.718361 0.218578 0.828389
v 2.588389 0.218578 0.721639
v 2.532859 0.248958 0.723708
v 2.600000 0.248958 0.705718
v 2.483708 0.248958 0.772859
v 2.465718 0.248958 0.840000
v 2.483708 0.248958 0.907141
v 2.532859 0.248958 0.956292
v 2.600000 0.248958 0.974282
v 2.667141 0.248958 0.956292
v 2.716291 0.248958 0.907141
v 2.734282 0.248958 0.840000
v 2.716292 0.248958 0.772859
v 2.667141 0.248958 0.723708
v 2.600000 0.229481 0.972095
v 2.467904 0.229481 0.840000
v 2.714398 0.229481 0.773952
v 2.666048 0.229481 0.954398
v 2.485602 0.229481 0.906048
v 2.666048 0.229481 0.725602
v 2.533952 0.229481 0.725602
v 2.714398 0.229481 0.906048
v 2.533952 0.229481 0.954398
v 2.485602 0.229481 0.773952
v 2.732095 0.229481 0.840000
v 2.600000 0.229481 0.707904
v 2.722813 0.230523 0.840000
v 2.700994 0.036173 0.840000
v 2.600000 0.230523 0.717187
v 2.600000 0.036173 0.739005
v 2.549503 0.036173 0.752536
v 2.512536 0.036173 0.890497
v 2.499005 0.036173 0.840000
v 2.650497 0.036173 0.927464
v 2.600000 0.036173 0.940995
v 2.687464 0.036173 0.789503
v 2.600000 0.230523 0.962813
v 2.477186 0.230523 0.840000
v 2.706359 0.230523 0.778593
v 2.661407 0.230523 0.946360
v 2.493640 0.230523 0.901407
v 2.538593 0.230523 0.733640
v 2.719072 0.217309 0.826557
v 2.714743 0.046849 0.824802
v 2.586556 0.217309 0.720928
v 2.584802 0.046849 0.725257
v 2.555790 0.046849 0.733031
v 2.493031 0.046849 0.884210
v 2.485257 0.046849 0.855198
v 2.644210 0.046849 0.946969
v 2.615198 0.046849 0.954743
v 2.706969 0.046849 0.795790
v 2.613443 0.217309 0.959072
v 2.480928 0.217309 0.853443
v 2.709841 0.217309 0.792106
v 2.647893 0.217309 0.949841
v 2.490159 0.217309 0.887894
v 2.552106 0.217309 0.730159
vt 0.676246 0.137189
vt 0.676246 0.079206
vt 0.705403 0.028991
vt 0.755903 0.000000
vt 0.814216 0.000000
vt 0.864716 0.028992
vt 0.893873 0.079206
vt 0.893873 0.137189
vt 0.864716 0.187404
vt 0.814216 0.216395
vt 0.755903 0.216395
vt 0.705403 0.187404
vt 0.463163 0.000000
vt 0.530708 0.002708
vt 0.538351 0.255733
vt 0.484043 0.253556
vt 0.731338 0.521892
vt 0.688201 0.596185
vt 0.676246 0.593000
vt 0.722586 0.513190
vt 0.917725 0.517792
vt 0.875342 0.590785
vt 0.863388 0.587600
vt 0.908974 0.509090
vt 0.754603 0.430195
vt 0.797740 0.504488
vt 0.788989 0.513190
vt 0.742649 0.433380
vt 0.851433 0.594885
vt 0.809051 0.521892
vt 0.817802 0.513190
vt 0.863388 0.591700
vt 0.688201 0.681971
vt 0.676246 0.685156
vt 0.809051 0.752164
vt 0.851433 0.679170
vt 0.863388 0.682356
vt 0.817802 0.760865
vt 0.687557 0.504488
vt 0.730694 0.430195
vt 0.696308 0.513190
vt 0.809051 0.500389
vt 0.851433 0.427395
vt 0.863388 0.430580
vt 0.817802 0.509090
vt 0.731338 0.756263
vt 0.722586 0.764965
vt 0.875342 0.343110
vt 0.875342 0.427395
vt 0.863388 0.339925
vt 0.730694 0.344409
vt 0.742649 0.341224
vt 0.851433 0.343110
vt 0.809051 0.270116
vt 0.817802 0.261415
vt 0.394652 0.766017
vt 0.363657 0.819399
vt 0.349260 0.815563
vt 0.384112 0.755538
vt 0.227480 0.881039
vt 0.258475 0.934420
vt 0.247936 0.944900
vt 0.213083 0.884874
vt 0.258475 0.766017
vt 0.227480 0.819399
vt 0.213083 0.815563
vt 0.247936 0.755538
vt 0.289470 0.819399
vt 0.269015 0.755538
vt 0.303867 0.815563
vt 0.334862 0.819399
vt 0.303867 0.766017
vt 0.314407 0.755538
vt 0.363657 0.881038
vt 0.394652 0.934420
vt 0.384112 0.944900
vt 0.349260 0.884874
vt 0.289470 0.881038
vt 0.303867 0.884874
vt 0.334862 0.881038
vt 0.269015 0.944900
vt 0.303867 0.934420
vt 0.314407 0.944900
vt 0.855299 0.765860
vt 0.853263 0.816075
vt 0.809051 0.814247
vt 0.811216 0.760865
vt 0.676246 0.928373
vt 0.678283 0.878158
vt 0.722494 0.879986
vt 0.720329 0.933367
vt 0.907599 0.811975
vt 0.907599 0.869958
vt 0.863388 0.871787
vt 0.863388 0.810147
vt 0.853263 0.874058
vt 0.809051 0.875886
vt 0.678283 0.820175
vt 0.722494 0.818347
vt 0.909636 0.920173
vt 0.865553 0.925168
vt 0.438863 0.810747
vt 0.438863 0.868730
vt 0.394652 0.870559
vt 0.394652 0.808919
vt 0.855299 0.924273
vt 0.811216 0.929268
vt 0.676246 0.769960
vt 0.720329 0.764965
vt 0.440900 0.760533
vt 0.396817 0.755538
vt 0.440900 0.918945
vt 0.396817 0.923940
vt 0.909636 0.761761
vt 0.865553 0.756766
vt 0.715243 0.426079
vt 0.715243 0.348526
vt 0.676246 0.493241
vt 0.770054 0.426079
vt 0.809051 0.493241
vt 0.770054 0.348526
vt 0.754603 0.344409
vt 0.809051 0.281363
vt 0.797740 0.270116
vt 0.770054 0.677854
vt 0.809051 0.745016
vt 0.797740 0.756263
vt 0.754603 0.681971
vt 0.770054 0.600301
vt 0.754603 0.596185
vt 0.809051 0.533139
vt 0.797740 0.521892
vt 0.703652 0.677854
vt 0.742649 0.745016
vt 0.703652 0.600301
vt 0.742649 0.533139
vt 0.676246 0.281363
vt 0.687557 0.270116
vt 0.213083 0.670360
vt 0.213083 0.608006
vt 0.244437 0.554006
vt 0.298745 0.522829
vt 0.361453 0.522829
vt 0.415760 0.554006
vt 0.447115 0.608006
vt 0.447115 0.670361
vt 0.415760 0.724361
vt 0.361453 0.755538
vt 0.298745 0.755538
vt 0.244437 0.724361
vt 0.608702 0.002708
vt 0.676246 0.000000
vt 0.655367 0.253556
vt 0.601059 0.255733
vt 0.463163 0.517148
vt 0.530708 0.519856
vt 0.538351 0.772881
vt 0.484043 0.770703
vt 0.213083 0.778563
vt 0.145538 0.775854
vt 0.137896 0.522829
vt 0.192203 0.525007
vt 0.676246 0.517148
vt 0.608702 0.514439
vt 0.601059 0.261415
vt 0.655366 0.263592
vt 0.608702 0.519856
vt 0.601059 0.772881
vt 0.067545 0.775854
vt 0.075187 0.522829
vt 0.530708 0.514439
vt 0.538350 0.261415
vt 0.655367 0.770703
vt 0.000000 0.778562
vt 0.020880 0.525007
vt 0.484043 0.263592
vt 0.252153 0.000000
vt 0.312520 0.002421
vt 0.304990 0.261415
vt 0.231582 0.258471
vt 0.080938 0.258994
vt 0.020571 0.261415
vt 0.000000 0.002944
vt 0.073408 0.000000
vt 0.211011 0.261415
vt 0.150644 0.258994
vt 0.158173 0.000000
vt 0.231582 0.002944
vt 0.382225 0.263835
vt 0.442592 0.261415
vt 0.463163 0.519886
vt 0.389755 0.522829
vt 0.080938 0.520409
vt 0.020571 0.522829
vt 0.000000 0.264358
vt 0.073408 0.261415
vt 0.765048 0.764965
vt 0.765049 0.992194
vt 0.763312 0.990546
vt 0.743771 0.765624
vt 0.382225 0.002421
vt 0.442592 0.000000
vt 0.463163 0.258471
vt 0.389755 0.261415
vt 0.779224 0.764965
vt 0.786336 0.992084
vt 0.765049 0.992084
vt 0.777540 0.766666
vt 0.793447 0.764965
vt 0.795131 0.766666
vt 0.807623 0.992084
vt 0.450274 0.522829
vt 0.450274 0.574321
vt 0.448694 0.572218
vt 0.448694 0.524932
vt 0.252153 0.261415
vt 0.312520 0.263835
vt 0.304990 0.522829
vt 0.231582 0.519886
vt 0.211010 0.522829
vt 0.150644 0.520409
vt 0.158173 0.261415
vt 0.231582 0.264358
vt 0.994566 0.263465
vt 0.991382 0.341974
vt 0.965279 0.341224
vt 0.968516 0.261415
vt 1.000000 0.002050
vt 0.996816 0.080560
vt 0.970714 0.079810
vt 0.973950 0.000000
vt 0.967529 0.080560
vt 0.967529 0.171215
vt 0.941427 0.171966
vt 0.941427 0.079810
vt 0.991382 0.432630
vt 0.965279 0.433380
vt 0.996816 0.171215
vt 0.970714 0.171966
vt 0.970713 0.249725
vt 0.944664 0.251775
vt 0.968463 0.684405
vt 0.968463 0.593750
vt 0.994566 0.592999
vt 0.994566 0.685156
vt 0.994566 0.511140
vt 0.968516 0.513190
vt 1.000000 0.249725
vt 0.973950 0.251775
vt 0.965279 0.762915
vt 0.991329 0.764965
vt 0.965279 0.515240
vt 0.991329 0.513190
vt 0.970713 0.002050
vt 0.944664 0.000000
vt 0.875342 0.675071
vt 0.917725 0.748064
vt 0.908973 0.756766
vt 0.863388 0.678256
vt 0.696309 0.261415
vt 0.788989 0.261415
vt 0.917725 0.500388
vt 0.788989 0.764965
vt 0.742649 0.685156
vt 0.742649 0.593000
vt 0.917725 0.270116
vt 0.908973 0.261415
vt 0.328085 0.018339
vt 0.321481 0.245496
vt 0.135079 0.243075
vt 0.141683 0.015919
vt 0.096503 0.243075
vt 0.366661 0.279754
vt 0.328085 0.279754
vt 0.096503 0.504490
vt 0.135079 0.504490
vt 0.366661 0.018339
vt 0.141683 0.277333
vt 0.321481 0.506911
vt 0.373265 0.245496
vt 0.089899 0.277333
vt 0.373265 0.506911
vt 0.089899 0.015919
vt 0.937674 0.225790
vt 0.897626 0.225790
vt 0.893873 0.000000
vt 0.941427 0.000000
vt 0.921478 0.261415
vt 0.961526 0.261415
vt 0.965279 0.487205
vt 0.917725 0.487205
vt 0.961526 0.938785
vt 0.921478 0.938785
vt 0.917725 0.712995
vt 0.965279 0.712995
vt 0.921478 0.487205
vt 0.961526 0.487205
vt 0.697471 0.217127
vt 0.697471 0.255485
vt 0.676246 0.256217
vt 0.676246 0.216395
vt 0.965279 0.992084
vt 0.972391 0.764965
vt 0.974075 0.766666
vt 0.986566 0.992084
vt 0.739920 0.255485
vt 0.739920 0.217127
vt 0.761144 0.216395
vt 0.761144 0.256217
vt 0.462177 0.755538
vt 0.462177 0.982767
vt 0.460440 0.981118
vt 0.440900 0.756196
vt 0.718695 0.216395
vt 0.718695 0.256217
vt 0.451853 0.574321
vt 0.451853 0.522829
vt 0.453433 0.524932
vt 0.453433 0.572218
vt 0.718695 0.255485
vt 0.718695 0.217127
vt 0.739920 0.216395
vt 0.739920 0.256217
vt 0.448694 0.522829
vt 0.448694 0.574321
vt 0.447115 0.572218
vt 0.447115 0.524932
vt 0.477339 0.772881
vt 0.484451 1.000000
vt 0.463163 1.000000
vt 0.475655 0.774582
vt 0.450274 0.572218
vt 0.450274 0.524932
vt 0.498627 0.772881
vt 0.505738 1.000000
vt 0.496943 0.774582
vt 0.743771 0.764965
vt 0.743771 0.992194
vt 0.722494 0.991535
vt 0.742035 0.766614
vn 0.000000 -1.000000 0.000000
vn -0.257200 0.110300 0.960000
vn 0.406500 0.818300 -0.406500
vn 0.029900 -0.993300 -0.111500
vn -0.555200 0.818300 -0.148800
vn 0.081600 -0.993300 -0.081600
vn 0.555200 0.818300 -0.148800
vn 0.111500 -0.993300 0.029900
vn -0.406500 0.818300 -0.406500
vn -0.029900 -0.993300 0.111500
vn 0.555200 0.818300 0.148800
vn -0.111500 -0.993300 0.029900
vn -0.148800 0.818300 -0.555200
vn 0.081600 -0.993300 0.081600
vn 0.281800 -0.956500 0.075500
vn -0.206300 -0.956500 -0.206300
vn 0.075500 -0.956500 -0.281800
vn -0.206300 -0.956500 0.206300
vn 0.206300 -0.956500 0.206300
vn -0.075500 -0.956500 -0.281800
vn 0.206300 -0.956500 -0.206300
vn -0.281800 -0.956500 0.075500
vn 0.075500 -0.956500 0.281800
vn 0.281800 -0.956500 -0.075500
vn -0.281800 -0.956500 -0.075500
vn -0.075500 -0.956500 0.281800
vn -0.255700 -0.154600 0.954300
vn -0.954300 -0.154600 -0.255700
vn 0.954300 -0.154600 -0.255700
vn 0.255700 -0.154600 0.954300
vn -0.954300 -0.154600 0.255700
vn 0.698600 -0.154600 -0.698600
vn -0.255700 -0.154600 -0.954300
vn 0.698600 -0.154600 0.698600
vn -0.698600 -0.154600 0.698600
vn 0.255700 -0.154600 -0.954300
vn -0.698600 -0.154600 -0.698600
vn 0.954300 -0.154600 0.255700
vn 0.106900 0.910700 0.399000
vn 0.292100 0.910700 0.292100
vn 0.399000 0.910700 0.106900
vn 0.399000 0.910700 -0.106900
vn 0.292100 0.910700 -0.292100
vn 0.106900 0.910700 -0.399000
vn -0.106900 0.910700 -0.399000
vn -0.292100 0.910700 -0.292100
vn -0.399000 0.910700 -0.106900
vn -0.399000 0.910700 0.106900
vn -0.292100 0.910700 0.292100
vn -0.106900 0.910700 0.399000
vn 0.000000 1.000000 0.000000
vn 0.702800 0.110300 0.702800
vn -0.960000 0.110300 -0.257200
vn 0.257200 0.110300 -0.960000
vn 0.960000 0.110300 0.257200
vn -0.960000 0.110300 0.257200
vn -0.257200 0.110300 -0.960000
vn 0.960000 0.110300 -0.257200
vn -0.702800 0.110300 0.702800
vn 0.257200 0.110300 0.960000
vn -0.702800 0.110300 -0.702800
vn 0.702800 0.110300 -0.702800
vn 0.960300 -0.107800 0.257300
vn -0.703000 -0.107800 -0.703000
vn 0.257300 -0.107800 -0.960300
vn -0.703000 -0.107800 0.703000
vn 0.703000 -0.107800 0.703000
vn 0.978700 -0.026400 -0.203700
vn 0.703000 -0.107800 -0.703000
vn 0.949400 -0.026400 -0.312900
vn -0.203700 -0.026400 -0.978700
vn 0.712700 0.675000 -0.191000
vn -0.960300 -0.107800 -0.257300
vn -0.257300 -0.107800 0.960300
vn 0.960300 -0.107800 -0.257300
vn 0.257300 -0.107800 0.960300
vn -0.960300 -0.107800 0.257300
vn -0.257300 -0.107800 -0.960300
vn -0.081600 -0.993300 -0.081600
vn -0.555200 0.818300 0.148800
vn 0.148800 0.818300 -0.555200
vn 0.029900 -0.993300 0.111500
vn -0.406500 0.818300 0.406500
vn -0.081600 -0.993300 0.081600
vn -0.148800 0.818300 0.555200
vn 0.111500 -0.993300 -0.029900
vn 0.148800 0.818300 0.555200
vn -0.111500 -0.993300 -0.029900
vn -0.029900 -0.993300 -0.111500
vn 0.406500 0.818300 0.406500
vn -0.258800 -0.021900 -0.965700
vn -0.965700 -0.021900 0.258800
vn 0.258800 -0.021900 0.965700
vn 0.965700 -0.021900 -0.258800
vn 0.020600 -0.996800 0.076700
vn 0.203700 -0.026400 0.978700
vn 0.076700 -0.996800 -0.020600
vn -0.978700 -0.026400 0.203700
vn -0.020600 -0.996800 -0.076700
vn -0.191000 0.675000 -0.712700
vn -0.076700 -0.996800 0.020600
vn -0.712700 0.675000 0.191000
vn -0.949400 -0.026400 0.312900
vn 0.191000 0.675000 0.712700
vn -0.312900 -0.026400 -0.949400
vn 0.312900 -0.026400 0.949400
usemtl None
s off
f 2/1/1 1/2/1 12/3/1 11/4/1 10/5/1 9/6/1 8/7/1 7/8/1 6/9/1 5/10/1 4/11/1 3/12/1
f 24/13/2 13/14/2 62/15/2 72/16/2
f 60/17/3 59/18/3 95/19/3 96/20/3
f 81/21/4 119/22/4 97/23/4 105/24/4
f 52/25/5 51/26/5 87/27/5 88/28/5
f 123/29/6 81/30/6 105/31/6 101/32/6
f 59/18/7 58/33/7 94/34/7 95/19/7
f 82/35/8 120/36/8 98/37/8 106/38/8
f 51/39/9 49/40/9 85/28/9 87/41/9
f 78/42/10 111/43/10 108/44/10 102/45/10
f 58/33/11 57/46/11 93/47/11 94/34/11
f 109/48/12 121/49/12 99/44/12 107/50/12
f 49/40/13 50/51/13 86/52/13 85/28/13
f 124/53/14 82/54/14 106/55/14 103/50/14
f 48/56/15 39/57/15 110/58/15 36/59/15
f 47/60/16 38/61/16 28/62/16 113/63/16
f 46/64/17 40/65/17 112/66/17 33/67/17
f 45/68/18 37/64/18 26/69/18 114/70/18
f 44/71/19 48/72/19 36/73/19 116/58/19
f 40/65/20 47/60/20 113/63/20 112/66/20
f 43/74/21 46/75/21 33/76/21 118/77/21
f 42/78/22 45/68/22 114/70/22 115/79/22
f 41/80/23 44/71/23 116/58/23 117/77/23
f 39/57/24 43/74/24 118/77/24 110/58/24
f 38/61/25 42/78/25 115/79/25 28/81/25
f 37/82/26 41/80/26 117/77/26 26/83/26
f 6/84/27 7/85/27 41/86/27 37/87/27
f 3/88/28 4/89/28 42/90/28 38/91/28
f 10/92/29 11/93/29 43/94/29 39/95/29
f 7/85/30 8/96/30 44/97/30 41/86/30
f 4/89/31 5/98/31 45/99/31 42/90/31
f 11/93/32 12/100/32 46/101/32 43/94/32
f 1/102/33 2/103/33 47/104/33 40/105/33
f 8/96/34 9/106/34 48/107/34 44/97/34
f 5/98/35 6/108/35 37/109/35 45/99/35
f 12/110/36 1/102/36 40/105/36 46/111/36
f 2/103/37 3/112/37 38/113/37 47/104/37
f 9/114/38 10/92/38 39/95/38 48/115/38
f 14/116/39 13/117/39 50/51/39 49/40/39
f 15/118/40 14/116/40 49/40/40 51/39/40
f 16/119/41 15/120/41 51/26/41 52/25/41
f 17/121/42 16/119/42 52/25/42 53/122/42
f 18/123/43 17/121/43 53/122/43 54/124/43
f 19/125/44 18/126/44 54/127/44 55/128/44
f 20/129/45 19/125/45 55/128/45 56/130/45
f 21/131/46 20/129/46 56/130/46 57/132/46
f 22/133/47 21/134/47 57/46/47 58/33/47
f 23/135/48 22/133/48 58/33/48 59/18/48
f 24/136/49 23/135/49 59/18/49 60/17/49
f 13/117/50 24/137/50 60/138/50 50/51/50
f 61/139/51 63/140/51 64/141/51 65/142/51 66/143/51 67/144/51 68/145/51 69/146/51 70/147/51 71/148/51 72/149/51 62/150/51
f 14/151/52 15/152/52 63/153/52 61/154/52
f 21/155/53 22/156/53 70/157/53 69/158/53
f 18/159/54 19/160/54 67/161/54 66/162/54
f 15/163/55 16/164/55 64/165/55 63/166/55
f 22/156/56 23/167/56 71/168/56 70/157/56
f 19/160/57 20/169/57 68/170/57 67/161/57
f 16/164/58 17/171/58 65/172/58 64/165/58
f 23/167/59 24/163/59 72/173/59 71/168/59
f 13/14/60 14/151/60 61/154/60 62/15/60
f 20/169/61 21/174/61 69/175/61 68/170/61
f 17/171/62 18/155/62 66/176/62 65/172/62
f 36/177/63 110/178/63 109/179/63 80/180/63
f 113/181/64 28/182/64 82/183/64 124/184/64
f 33/185/65 112/186/65 111/187/65 78/188/65
f 114/189/66 26/190/66 81/191/66 123/192/66
f 116/193/67 36/194/67 80/195/67 122/196/67
f 31/197/68 76/198/68 138/199/68 132/200/68
f 118/201/69 33/202/69 78/203/69 121/204/69
f 84/205/70 35/206/70 128/207/70 127/208/70
f 29/206/71 75/209/71 137/210/71 134/211/71
f 75/212/72 83/213/72 125/214/72 137/215/72
f 28/216/73 115/217/73 120/218/73 82/219/73
f 26/220/74 117/221/74 119/222/74 81/223/74
f 105/224/74 97/225/74 91/226/74 90/227/74
f 106/228/73 98/229/73 88/230/73 87/231/73
f 107/232/75 99/233/75 95/234/75 94/235/75
f 97/225/76 100/236/76 92/237/76 91/226/76
f 98/229/77 101/238/77 89/239/77 88/230/77
f 99/233/69 102/240/69 96/241/69 95/234/69
f 108/242/78 103/243/78 85/244/78 86/245/78
f 100/236/67 104/246/67 93/247/67 92/237/67
f 101/238/66 105/248/66 90/249/66 89/239/66
f 102/250/65 108/242/65 86/245/65 96/251/65
f 103/243/64 106/252/64 87/253/64 85/244/64
f 104/254/63 107/232/63 94/235/63 93/255/63
f 122/256/79 80/257/79 104/258/79 100/259/79
f 53/122/80 52/25/80 88/28/80 89/52/80
f 50/51/81 60/138/81 96/260/81 86/52/81
f 111/43/82 124/53/82 103/50/82 108/44/82
f 54/124/83 53/122/83 89/52/83 90/261/83
f 121/49/84 78/262/84 102/24/84 99/44/84
f 55/128/85 54/127/85 90/263/85 91/264/85
f 120/36/86 123/29/86 101/32/86 98/37/86
f 56/130/87 55/128/87 91/264/87 92/265/87
f 80/266/88 109/48/88 107/50/88 104/267/88
f 119/22/89 122/256/89 100/259/89 97/23/89
f 57/132/90 56/130/90 92/265/90 93/27/90
f 30/268/75 83/269/75 109/179/75 110/178/75
f 35/270/78 84/271/78 111/187/78 112/186/78
f 34/272/78 35/270/78 112/186/78 113/181/78
f 32/273/77 27/274/77 115/217/77 114/189/77
f 31/275/76 25/276/76 117/221/76 116/193/76
f 29/277/75 30/268/75 110/178/75 118/201/75
f 25/276/76 73/278/76 119/222/76 117/221/76
f 27/274/77 74/279/77 120/218/77 115/217/77
f 75/280/75 29/277/75 118/201/75 121/204/75
f 76/281/76 31/275/76 116/193/76 122/196/76
f 77/282/77 32/273/77 114/189/77 123/192/77
f 79/283/78 34/272/78 113/181/78 124/184/78
f 84/271/78 79/283/78 124/184/78 111/187/78
f 74/279/77 77/282/77 123/192/77 120/218/77
f 73/278/76 76/281/76 122/196/76 119/222/76
f 83/269/75 75/280/75 121/204/75 109/179/75
f 128/284/91 129/285/91 140/286/91 127/287/91
f 131/288/92 130/289/92 139/290/92 136/291/92
f 133/292/93 132/293/93 138/294/93 135/295/93
f 126/296/94 134/297/94 137/295/94 125/294/94
f 35/298/95 34/299/95 129/300/95 128/301/95
f 32/302/96 77/303/96 139/304/96 130/305/96
f 27/306/97 32/307/97 130/308/97 131/309/97
f 34/310/98 79/311/98 140/312/98 129/313/98
f 25/299/99 31/298/99 132/314/99 133/315/99
f 79/316/100 84/317/100 127/318/100 140/319/100
f 30/320/101 29/321/101 134/322/101 126/323/101
f 77/324/102 74/325/102 136/326/102 139/327/102
f 73/328/103 25/329/103 133/330/103 135/331/103
f 76/317/104 73/316/104 135/332/104 138/333/104
f 74/334/105 27/335/105 131/329/105 136/336/105
f 83/337/106 30/338/106 126/339/106 125/340/106
