# Blender v2.75 (sub 0) OBJ File: 'Asset_Master_Hangar_Kit.blend'
# www.blender.org
mtllib struc_asset_wall_pillar_big_B_low.mtl
o Cube.015_Cube.161
v -9.647984 0.000000 -1.000000
v -9.532154 4.552269 -1.000000
v -9.647984 0.000000 -3.000000
v -9.647984 4.668098 -1.445057
v -9.647984 1.954766 -3.000000
v -9.532154 1.954766 -1.000000
v -9.532154 3.772068 -1.000000
v -9.647984 3.772068 -1.445057
v -9.647984 0.723758 -3.000000
v -9.532154 0.839588 -1.000000
v -9.881176 0.641270 -2.917511
v -9.881176 0.000000 -2.917511
v -9.796255 0.084921 -0.766809
v -9.796255 0.638837 -0.766809
v -9.951662 0.070486 -0.849298
v -9.951662 0.570783 -0.849298
v -9.796255 0.084921 -0.851528
v -9.796255 0.638837 -0.851528
v -9.881176 0.723758 -3.000000
v -9.881176 0.000000 -3.000000
v -9.881176 0.000000 -0.766809
v -9.881176 0.723758 -0.766809
v -10.252459 0.000000 -2.917511
v -10.181973 0.070486 -0.849298
v -10.252459 0.390032 -2.917511
v -10.001222 0.641270 -2.917511
v -10.178873 0.567684 -2.917511
v -9.987201 0.570783 -0.849298
v -10.181973 0.376012 -0.849298
v -10.124926 0.513736 -0.849298
v -9.881176 0.000000 -0.849298
v -9.881176 0.641270 -0.849298
v -10.252459 0.000000 -0.849298
v -10.252459 0.390032 -0.849298
v -10.178873 0.567684 -0.849298
v -10.001222 0.641270 -0.849298
v -9.951662 0.070486 -0.929856
v -9.951662 0.570783 -0.929856
v -10.181973 0.070486 -0.929856
v -10.181973 0.376012 -0.929856
v -10.124926 0.513736 -0.929856
v -9.987201 0.570783 -0.929856
v -9.647984 3.772068 -1.000000
v -9.647984 4.668098 -1.000000
v -9.647984 0.723758 -1.000000
v -9.647984 1.954766 -1.000000
v -9.487947 2.091822 -0.724205
v -9.487947 3.607185 -0.724205
v -9.406736 4.176548 -0.724205
v -9.406736 1.243136 -0.724205
v -9.406736 3.607185 -0.724205
v -9.487947 4.257759 -0.724205
v -9.487947 1.161926 -0.724205
v -9.406736 2.091822 -0.724205
v -9.406736 3.607185 -0.932637
v -9.406736 2.091822 -0.932637
v -9.406736 4.176548 -0.932637
v -9.406736 1.243136 -0.932637
v -8.352016 0.000000 -1.000000
v -8.467846 4.552269 -1.000000
v -8.352016 0.000000 -3.000000
v -8.352016 4.668098 -1.445057
v -9.000000 1.954766 -3.000000
v -9.000000 1.243136 -0.932637
v -8.352016 1.954766 -3.000000
v -8.467846 1.954766 -1.000000
v -9.000000 4.668098 -1.445057
v -9.000000 0.000000 -3.000000
v -9.000000 4.668098 -1.000000
v -9.000000 0.000000 -1.000000
v -8.467846 3.772068 -1.000000
v -9.000000 2.091822 -0.932637
v -8.352016 3.772068 -1.445057
v -9.000000 3.772068 -1.445057
v -8.352016 0.723758 -3.000000
v -8.467846 0.839588 -1.000000
v -9.000000 0.723758 -1.000000
v -9.000000 0.723758 -3.000000
v -8.118824 0.641270 -2.917511
v -8.118824 0.000000 -2.917511
v -8.203745 0.084921 -0.766809
v -9.000000 0.000000 -0.766809
v -9.000000 0.723758 -0.766809
v -8.203745 0.638837 -0.766809
v -8.048338 0.070486 -0.849298
v -9.000000 0.638837 -0.766809
v -9.000000 0.084921 -0.766809
v -8.048338 0.570783 -0.849298
v -9.000000 0.638837 -0.851528
v -9.000000 0.084921 -0.851528
v -8.203745 0.084921 -0.851528
v -8.203745 0.638837 -0.851528
v -8.118824 0.723758 -3.000000
v -8.118824 0.000000 -3.000000
v -8.118824 0.000000 -0.766809
v -8.118824 0.723758 -0.766809
v -7.747541 0.000000 -2.917511
v -7.818027 0.070486 -0.849298
v -7.747541 0.390032 -2.917511
v -7.998778 0.641270 -2.917511
v -7.821127 0.567684 -2.917511
v -8.012799 0.570783 -0.849298
v -7.818027 0.376012 -0.849298
v -7.875075 0.513736 -0.849298
v -8.118824 0.000000 -0.849298
v -8.118824 0.641270 -0.849298
v -7.747541 0.000000 -0.849298
v -7.747541 0.390032 -0.849298
v -7.821127 0.567684 -0.849298
v -7.998778 0.641270 -0.849298
v -8.048338 0.070486 -0.929856
v -8.048338 0.570783 -0.929856
v -7.818027 0.070486 -0.929856
v -7.818027 0.376012 -0.929856
v -7.875075 0.513736 -0.929856
v -8.012799 0.570783 -0.929856
v -8.352016 3.772068 -1.000000
v -8.352016 4.668098 -1.000000
v -8.352016 0.723758 -1.000000
v -8.352016 1.954766 -1.000000
v -9.000000 0.839588 -1.000000
v -9.000000 4.552269 -1.000000
v -8.512053 2.091822 -0.724205
v -9.000000 4.257759 -0.724205
v -8.512053 3.607185 -0.724205
v -9.000000 1.161926 -0.724205
v -8.593264 4.176548 -0.724205
v -8.593264 1.243136 -0.724205
v -9.000000 1.243136 -0.724205
v -9.000000 4.176548 -0.724205
v -8.593264 3.607185 -0.724205
v -8.512053 4.257759 -0.724205
v -8.512053 1.161926 -0.724205
v -8.593264 2.091822 -0.724205
v -8.593264 3.607185 -0.932637
v -9.000000 3.607185 -0.932637
v -9.000000 4.176548 -0.932637
v -8.593264 2.091822 -0.932637
v -8.593264 4.176548 -0.932637
v -8.593264 1.243136 -0.932637
vt 0.288584 0.910191
vt 0.381913 0.910191
vt 0.381913 0.940261
vt 0.288584 0.940261
vt 0.471658 0.730892
vt 0.388100 0.730892
vt 0.388100 0.422475
vt 0.471658 0.422475
vt 0.704480 0.402610
vt 0.720848 0.259743
vt 0.751901 0.305138
vt 0.738252 0.424269
vt 0.030684 0.337690
vt 0.030684 0.421248
vt 0.000614 0.421248
vt 0.000614 0.307620
vt 0.000614 0.258515
vt 0.000614 0.201124
vt 0.234956 0.000614
vt 0.234956 0.258515
vt 0.817278 0.833112
vt 0.817278 0.775722
vt 0.900836 0.775722
vt 0.900836 0.833112
vt 0.677806 0.635429
vt 0.716010 0.618405
vt 0.288585 0.337690
vt 0.288585 0.421248
vt 0.471658 0.847663
vt 0.414268 0.847663
vt 0.414268 0.732120
vt 0.471658 0.732120
vt 0.738836 0.093943
vt 0.655279 0.093943
vt 0.655279 0.000614
vt 0.738836 0.000614
vt 0.817278 0.660178
vt 0.900836 0.660178
vt 0.738837 0.252682
vt 0.655279 0.252682
vt 0.901198 0.834340
vt 0.969819 0.834340
vt 0.969819 0.889043
vt 0.906898 0.889043
vt 0.495312 0.258515
vt 0.495312 0.000614
vt 0.654051 0.000614
vt 0.654051 0.258515
vt 0.277948 0.307620
vt 0.011251 0.307620
vt 0.011251 0.259743
vt 0.277948 0.259743
vt 0.579011 0.789815
vt 0.650439 0.789815
vt 0.650439 0.800740
vt 0.579011 0.800740
vt 0.690419 0.958029
vt 0.606861 0.958029
vt 0.576791 0.927958
vt 0.690419 0.927958
vt 0.030684 0.910191
vt 0.000614 0.940261
vt 0.938478 0.011565
vt 0.835801 0.011565
vt 0.824850 0.000614
vt 0.938478 0.000614
vt 0.958090 0.967956
vt 0.855413 0.967956
vt 0.855413 0.896529
vt 0.958090 0.896529
vt 0.835801 0.082992
vt 0.824850 0.093943
vt 0.938478 0.082992
vt 0.938478 0.093943
vt 0.753116 0.789815
vt 0.753116 0.800740
vt 0.783373 0.970181
vt 0.680696 0.970181
vt 0.680696 0.959257
vt 0.783373 0.959257
vt 0.277943 0.908963
vt 0.277942 0.826268
vt 0.288579 0.815630
vt 0.288581 0.908963
vt 0.288585 0.307620
vt 0.011251 0.826272
vt 0.011252 0.908963
vt 0.000616 0.908963
vt 0.000614 0.815636
vt 0.000614 0.699036
vt 0.267311 0.699036
vt 0.267311 0.714516
vt 0.000614 0.714516
vt 0.270131 0.452174
vt 0.270131 0.516688
vt 0.259743 0.516688
vt 0.259743 0.452174
vt 0.907542 0.237605
vt 0.824850 0.237605
vt 0.824850 0.189728
vt 0.875145 0.189728
vt 0.898053 0.199216
vt 0.907542 0.222125
vt 0.267311 0.764107
vt 0.000614 0.764108
vt 0.000614 0.739312
vt 0.267311 0.739312
vt 0.267311 0.814402
vt 0.000614 0.814402
vt 0.435094 0.931734
vt 0.459782 0.872132
vt 0.471658 0.867213
vt 0.440013 0.943610
vt 0.432344 0.860766
vt 0.427425 0.848891
vt 0.417268 0.897165
vt 0.417268 0.916388
vt 0.408178 0.920153
vt 0.408178 0.895357
vt 0.430860 0.929981
vt 0.425712 0.937686
vt 0.969395 0.189728
vt 0.969395 0.254241
vt 0.964812 0.254241
vt 0.947053 0.246885
vt 0.939696 0.229125
vt 0.939696 0.189728
vt 0.291699 0.884394
vt 0.291699 0.879811
vt 0.302087 0.879811
vt 0.302087 0.884394
vt 0.291699 0.860588
vt 0.302087 0.860588
vt 0.270131 0.422475
vt 0.259743 0.422475
vt 0.291699 0.841366
vt 0.291699 0.801968
vt 0.302087 0.801968
vt 0.302087 0.841366
vt 0.940633 0.652823
vt 0.940633 0.753429
vt 0.925697 0.768365
vt 0.925697 0.652823
vt 0.940633 0.274679
vt 0.940633 0.418484
vt 0.925697 0.418484
vt 0.925697 0.259743
vt 0.881427 0.638007
vt 0.881427 0.564587
vt 0.908304 0.564587
vt 0.908304 0.638007
vt 0.176580 0.957653
vt 0.245202 0.957653
vt 0.245202 0.972590
vt 0.161644 0.972590
vt 0.881427 0.369181
vt 0.908304 0.369181
vt 0.000614 0.941489
vt 0.053063 0.941489
vt 0.053063 0.968367
vt 0.000614 0.968367
vt 0.329987 0.956425
vt 0.261366 0.956425
vt 0.246429 0.941489
vt 0.329987 0.941489
vt 0.715911 0.782849
vt 0.666355 0.735382
vt 0.706461 0.701752
vt 0.751901 0.745275
vt 0.525334 0.800740
vt 0.472886 0.800740
vt 0.472886 0.727320
vt 0.525334 0.727320
vt 0.472886 0.531914
vt 0.525334 0.531914
vt 0.472886 0.422475
vt 0.525334 0.422475
vt 0.763601 0.575059
vt 0.763601 0.648478
vt 0.753129 0.658950
vt 0.753129 0.575059
vt 0.763601 0.270215
vt 0.763601 0.379653
vt 0.753129 0.379653
vt 0.753129 0.259743
vt 0.816050 0.648478
vt 0.816050 0.658950
vt 0.474437 0.258356
vt 0.421988 0.258356
vt 0.411516 0.247883
vt 0.474437 0.247883
vt 0.160416 0.968367
vt 0.107967 0.968367
vt 0.107967 0.941489
vt 0.160416 0.941489
vt 0.881427 0.259743
vt 0.908304 0.259743
vt 0.760846 0.926698
vt 0.760856 0.896628
vt 0.854185 0.896660
vt 0.854175 0.926731
vt 0.303315 0.730892
vt 0.303315 0.422475
vt 0.386872 0.422475
vt 0.386872 0.730892
vt 0.665127 0.403545
vt 0.629109 0.421219
vt 0.629109 0.301308
vt 0.665127 0.259743
vt 0.319883 0.343300
vt 0.289813 0.373371
vt 0.289813 0.259743
vt 0.319883 0.259743
vt 0.236183 0.234956
vt 0.236183 0.000614
vt 0.494084 0.000614
vt 0.293574 0.234956
vt 0.386872 0.905053
vt 0.303315 0.905053
vt 0.303315 0.847663
vt 0.386872 0.847663
vt 0.665127 0.637887
vt 0.629109 0.616625
vt 0.577783 0.259743
vt 0.577783 0.343300
vt 0.753129 0.775722
vt 0.753129 0.660178
vt 0.810519 0.660178
vt 0.810519 0.775722
vt 0.740064 0.093943
vt 0.740064 0.000614
vt 0.823622 0.000614
vt 0.823622 0.093943
vt 0.303315 0.732120
vt 0.386872 0.732120
vt 0.740064 0.252682
vt 0.823622 0.252682
vt 0.970685 0.778408
vt 0.964984 0.833112
vt 0.902064 0.833112
vt 0.902064 0.778408
vt 0.000614 0.581214
vt 0.000614 0.422475
vt 0.258515 0.422475
vt 0.258515 0.581214
vt 0.567146 0.373371
vt 0.567146 0.421248
vt 0.300450 0.421248
vt 0.300450 0.373371
vt 0.410288 0.236184
vt 0.410288 0.247108
vt 0.338861 0.247108
vt 0.338861 0.236183
vt 0.691647 0.958029
vt 0.691647 0.927958
vt 0.805275 0.927958
vt 0.775204 0.958029
vt 0.502945 0.926609
vt 0.472886 0.896529
vt 0.824850 0.106121
vt 0.824850 0.095171
vt 0.938478 0.095171
vt 0.927527 0.106121
vt 0.472886 0.999386
vt 0.472886 0.927958
vt 0.575563 0.927958
vt 0.575563 0.999386
vt 0.938478 0.188500
vt 0.927527 0.177549
vt 0.824850 0.188500
vt 0.824850 0.177549
vt 0.236183 0.247108
vt 0.236183 0.236183
vt 0.576791 0.970181
vt 0.576791 0.959257
vt 0.679468 0.959257
vt 0.679468 0.970181
vt 0.750214 0.801968
vt 0.760851 0.801968
vt 0.760853 0.895295
vt 0.750216 0.884658
vt 0.577783 0.373371
vt 0.483525 0.884663
vt 0.472887 0.895301
vt 0.472886 0.801968
vt 0.483523 0.801968
vt 0.000614 0.697808
vt 0.000614 0.682329
vt 0.267311 0.682329
vt 0.267311 0.697808
vt 0.402652 0.761818
vt 0.413040 0.761818
vt 0.413040 0.826332
vt 0.402652 0.826332
vt 0.817278 0.882217
vt 0.817278 0.866737
vt 0.826767 0.843829
vt 0.849675 0.834340
vt 0.899970 0.834340
vt 0.899970 0.882217
vt 0.267311 0.632737
vt 0.267311 0.657533
vt 0.000614 0.657533
vt 0.000614 0.632737
vt 0.000614 0.582443
vt 0.267311 0.582442
vt 0.771731 0.850552
vt 0.762642 0.859641
vt 0.762642 0.776950
vt 0.771731 0.786039
vt 0.810519 0.776950
vt 0.801430 0.786039
vt 0.801430 0.825436
vt 0.810519 0.827244
vt 0.801030 0.850153
vt 0.794073 0.843196
vt 0.778122 0.859641
vt 0.776314 0.850552
vt 0.908770 0.189728
vt 0.938468 0.189728
vt 0.938468 0.229125
vt 0.931112 0.246885
vt 0.913353 0.254241
vt 0.908770 0.254241
vt 0.401424 0.814546
vt 0.391036 0.814546
vt 0.391036 0.809963
vt 0.401424 0.809963
vt 0.391036 0.790740
vt 0.401424 0.790740
vt 0.402652 0.732120
vt 0.413040 0.732120
vt 0.401424 0.771517
vt 0.391036 0.771517
vt 0.391036 0.732120
vt 0.401424 0.732120
vt 0.909532 0.652820
vt 0.924469 0.652820
vt 0.924469 0.768365
vt 0.909532 0.753429
vt 0.909533 0.274679
vt 0.924469 0.259743
vt 0.924469 0.418480
vt 0.909532 0.418480
vt 0.302087 0.800740
vt 0.275209 0.800740
vt 0.275209 0.727320
vt 0.302087 0.727320
vt 0.230265 0.941489
vt 0.245201 0.956425
vt 0.161644 0.956425
vt 0.161644 0.941489
vt 0.275209 0.531914
vt 0.302087 0.531914
vt 0.106739 0.941489
vt 0.106739 0.968367
vt 0.054291 0.968367
vt 0.054291 0.941489
vt 0.388100 0.959774
vt 0.388100 0.944838
vt 0.471658 0.944838
vt 0.456722 0.959774
vt 0.610490 0.780011
vt 0.579011 0.738585
vt 0.629109 0.700517
vt 0.665127 0.738494
vt 0.577783 0.727320
vt 0.577783 0.800740
vt 0.577783 0.531914
vt 0.577783 0.422475
vt 0.869727 0.575058
vt 0.880199 0.575058
vt 0.880199 0.658950
vt 0.869727 0.648478
vt 0.869727 0.270215
vt 0.880199 0.259743
vt 0.880199 0.379652
vt 0.869727 0.379652
vt 0.817278 0.658950
vt 0.817278 0.648478
vt 0.411516 0.246656
vt 0.411516 0.236183
vt 0.474437 0.236183
vt 0.463965 0.246656
vt 0.762642 0.887747
vt 0.762651 0.860869
vt 0.815100 0.860888
vt 0.815091 0.887765
vt 0.275209 0.422476
vt 0.302086 0.422475
vn 0.000000 0.000000 -1.000000
vn 0.000000 0.650100 -0.759800
vn -0.987400 0.000000 0.158300
vn 0.000000 -1.000000 0.000000
vn -1.000000 0.000000 0.000000
vn 0.000000 1.000000 0.000000
vn 0.000000 -0.650100 0.759800
vn 1.000000 0.000000 0.000000
vn 0.000000 0.000000 1.000000
vn -0.923900 0.382700 0.000000
vn -0.382700 0.923900 0.000000
vn 0.382700 -0.923900 0.000000
vn 0.923900 -0.382700 0.000000
vn 0.000000 0.683500 0.729900
vn 0.987400 0.000000 0.158300
vn 0.923900 0.382700 0.000000
vn 0.382700 0.923900 0.000000
vn -0.382700 -0.923900 0.000000
vn -0.923900 -0.382700 0.000000
usemtl None
s off
f 9/1/1 3/2/1 20/3/1 19/4/1
f 8/5/2 74/6/2 63/7/2 5/8/2
f 6/9/3 10/10/3 53/11/3 47/12/3
f 1/13/4 70/14/4 82/15/4 21/16/4
f 43/17/5 8/18/5 5/19/5 46/20/5
f 69/21/6 67/22/6 4/23/6 44/24/6
f 7/25/3 6/9/3 47/12/3 48/26/3
f 1/13/4 3/27/4 68/28/4 70/14/4
f 44/29/5 4/30/5 8/31/5 43/32/5
f 9/33/1 78/34/1 68/35/1 3/36/1
f 4/23/1 67/22/1 74/37/1 8/38/1
f 5/39/1 63/40/1 78/34/1 9/33/1
f 10/41/7 121/42/7 126/43/7 53/44/7
f 46/45/5 5/46/5 9/47/5 45/48/5
f 12/49/4 31/50/4 33/51/4 23/52/4
f 14/53/8 13/54/8 17/55/8 18/56/8
f 77/57/6 45/58/6 22/59/6 83/60/6
f 1/13/4 31/50/4 12/49/4 3/27/4
f 45/61/6 9/1/6 19/4/6 22/62/6
f 87/63/9 13/64/9 21/65/9 82/66/9
f 89/67/9 18/68/9 17/69/9 90/70/9
f 13/64/9 14/71/9 22/72/9 21/65/9
f 14/71/9 86/73/9 83/74/9 22/72/9
f 13/54/6 87/75/6 90/76/6 17/55/6
f 86/77/4 14/78/4 18/79/4 89/80/4
f 12/81/5 11/82/5 19/83/5 20/84/5
f 12/49/4 20/85/4 3/27/4
f 32/86/5 31/87/5 21/88/5 22/89/5
f 11/82/5 32/86/5 22/89/5 19/83/5
f 1/13/4 21/16/4 31/50/4
f 32/90/6 11/91/6 26/92/6 36/93/6
f 15/94/5 16/95/5 38/96/5 37/97/5
f 11/98/1 12/99/1 23/100/1 25/101/1 27/102/1 26/103/1
f 25/104/10 34/105/10 35/106/10 27/107/10
f 27/107/11 35/106/11 36/93/11 26/92/11
f 34/105/5 25/104/5 23/108/5 33/109/5
f 16/110/9 15/111/9 31/112/9 32/113/9
f 15/111/9 24/114/9 33/115/9 31/112/9
f 29/116/9 30/117/9 35/118/9 34/119/9
f 30/117/9 28/120/9 36/121/9 35/118/9
f 24/114/9 29/116/9 34/119/9 33/115/9
f 28/120/9 16/110/9 32/113/9 36/121/9
f 37/122/9 38/123/9 42/124/9 41/125/9 40/126/9 39/127/9
f 16/128/4 28/129/4 42/130/4 38/131/4
f 28/129/12 30/132/12 41/133/12 42/130/12
f 24/134/6 15/94/6 37/97/6 39/135/6
f 29/136/8 24/137/8 39/138/8 40/139/8
f 30/132/13 29/136/13 40/139/13 41/133/13
f 7/140/9 2/141/9 44/142/9 43/143/9
f 10/144/9 6/145/9 46/146/9 45/147/9
f 49/148/8 51/149/8 55/150/8 57/151/8
f 6/145/9 7/140/9 43/143/9 46/146/9
f 2/152/9 122/153/9 69/154/9 44/155/9
f 51/149/8 54/156/8 56/157/8 55/150/8
f 50/158/6 129/159/6 64/160/6 58/161/6
f 121/162/9 10/163/9 45/164/9 77/165/9
f 122/166/14 2/167/14 52/168/14 124/169/14
f 2/167/3 7/25/3 48/26/3 52/168/3
f 137/170/9 57/171/9 55/172/9 136/173/9
f 136/173/9 55/172/9 56/174/9 72/175/9
f 72/175/9 56/174/9 58/176/9 64/177/9
f 51/178/9 49/179/9 52/180/9 48/181/9
f 50/182/9 54/183/9 47/184/9 53/185/9
f 54/183/9 51/178/9 48/181/9 47/184/9
f 49/179/9 130/186/9 124/187/9 52/180/9
f 129/188/9 50/189/9 53/190/9 126/191/9
f 130/192/4 49/193/4 57/194/4 137/195/4
f 54/156/8 50/196/8 58/197/8 56/157/8
f 75/198/1 93/199/1 94/200/1 61/201/1
f 73/202/2 65/203/2 63/204/2 74/205/2
f 66/206/15 123/207/15 133/208/15 76/209/15
f 59/210/4 95/211/4 82/212/4 70/213/4
f 117/214/8 120/215/8 65/216/8 73/217/8
f 69/218/6 118/219/6 62/220/6 67/221/6
f 71/222/15 125/223/15 123/207/15 66/206/15
f 59/210/4 70/213/4 68/224/4 61/225/4
f 118/226/8 117/227/8 73/228/8 62/229/8
f 75/230/1 61/231/1 68/232/1 78/233/1
f 62/220/1 73/234/1 74/235/1 67/221/1
f 65/236/1 75/230/1 78/233/1 63/237/1
f 76/238/7 133/239/7 126/240/7 121/241/7
f 120/242/8 119/243/8 75/244/8 65/245/8
f 80/246/4 97/247/4 107/248/4 105/249/4
f 84/250/5 92/251/5 91/252/5 81/253/5
f 77/254/6 83/255/6 96/256/6 119/257/6
f 59/210/4 61/225/4 80/246/4 105/249/4
f 119/258/6 96/259/6 93/199/6 75/198/6
f 87/260/9 82/261/9 95/262/9 81/263/9
f 89/264/9 90/265/9 91/266/9 92/267/9
f 81/263/9 95/262/9 96/268/9 84/269/9
f 84/269/9 96/268/9 83/270/9 86/271/9
f 81/253/6 91/252/6 90/272/6 87/273/6
f 86/274/4 89/275/4 92/276/4 84/277/4
f 80/278/8 94/279/8 93/280/8 79/281/8
f 80/246/4 61/225/4 94/282/4
f 106/283/8 96/284/8 95/285/8 105/286/8
f 79/281/8 93/280/8 96/284/8 106/283/8
f 59/210/4 105/249/4 95/211/4
f 106/287/6 110/288/6 100/289/6 79/290/6
f 85/291/8 111/292/8 112/293/8 88/294/8
f 79/295/1 100/296/1 101/297/1 99/298/1 97/299/1 80/300/1
f 99/301/16 101/302/16 109/303/16 108/304/16
f 101/302/17 100/289/17 110/288/17 109/303/17
f 108/304/8 107/305/8 97/306/8 99/301/8
f 88/307/9 106/308/9 105/309/9 85/310/9
f 85/310/9 105/309/9 107/311/9 98/312/9
f 103/313/9 108/314/9 109/315/9 104/316/9
f 104/316/9 109/315/9 110/317/9 102/318/9
f 98/312/9 107/311/9 108/314/9 103/313/9
f 102/318/9 110/317/9 106/308/9 88/307/9
f 111/319/9 113/320/9 114/321/9 115/322/9 116/323/9 112/324/9
f 88/325/4 112/326/4 116/327/4 102/328/4
f 102/328/18 116/327/18 115/329/18 104/330/18
f 98/331/6 113/332/6 111/292/6 85/291/6
f 103/333/5 114/334/5 113/335/5 98/336/5
f 104/330/19 115/329/19 114/334/19 103/333/19
f 71/337/9 117/338/9 118/339/9 60/340/9
f 76/341/9 119/342/9 120/343/9 66/344/9
f 127/345/5 139/346/5 135/347/5 131/348/5
f 66/344/9 120/343/9 117/338/9 71/337/9
f 60/349/9 118/350/9 69/351/9 122/352/9
f 131/348/5 135/347/5 138/353/5 134/354/5
f 128/355/6 140/356/6 64/357/6 129/358/6
f 121/359/9 77/360/9 119/361/9 76/362/9
f 122/363/14 124/364/14 132/365/14 60/366/14
f 60/366/15 132/365/15 125/223/15 71/222/15
f 137/170/9 136/173/9 135/367/9 139/368/9
f 136/173/9 72/175/9 138/369/9 135/367/9
f 72/175/9 64/177/9 140/370/9 138/369/9
f 131/371/9 125/372/9 132/373/9 127/374/9
f 128/375/9 133/376/9 123/377/9 134/378/9
f 134/378/9 123/377/9 125/372/9 131/371/9
f 127/374/9 132/373/9 124/379/9 130/380/9
f 129/381/9 126/382/9 133/383/9 128/384/9
f 130/385/4 137/386/4 139/387/4 127/388/4
f 134/354/5 138/353/5 140/389/5 128/390/5
