# Blender v2.78 (sub 0) OBJ File: 'Asset_Master_Hangar_Kit.blend'
# www.blender.org
mtllib HighWallInA.mtl
o struc_wall_slope_high_in_A_low_Cube.082
v 3.000000 0.000000 3.000000
v 3.303411 1.745536 3.000000
v 3.303411 0.333312 3.000000
v 3.095357 1.884590 3.000000
v 3.093540 2.014695 3.000000
v 3.000000 0.047683 3.000000
v 3.285629 0.333312 3.000000
v 3.303411 1.427539 3.000000
v 3.303411 0.471654 3.000000
v 3.244787 2.122015 3.000000
v 2.000000 4.000000 3.000000
v 2.000000 5.000000 3.000000
v 0.000001 0.000000 -0.000000
v 0.000001 1.745536 -0.303411
v 0.000001 0.333312 -0.303411
v 0.000001 1.884590 -0.095358
v 0.000001 2.014695 -0.093540
v 0.000001 0.047683 -0.000000
v 0.000001 0.333312 -0.285629
v 0.000001 1.427539 -0.303411
v 0.000001 0.471654 -0.303411
v 0.000001 2.122015 -0.244787
v 0.000001 4.000000 1.000000
v 0.000001 5.000000 1.000000
v 2.979579 2.297514 2.851117
v 1.967444 3.824501 2.851118
v 0.148884 3.824501 1.032556
v 0.148884 2.297514 0.020421
v 2.714303 2.286844 2.773111
v 1.824911 3.628651 2.773112
v 0.226890 3.628651 1.175089
v 0.226890 2.286844 0.285698
v 3.203119 1.285706 2.899708
v 3.203120 0.613488 2.899708
v 0.100293 1.285706 -0.203120
v 0.100292 0.613488 -0.203120
v 3.086815 1.285706 3.016013
v 3.086815 0.992947 3.016013
v -0.016011 1.285706 -0.086815
v -0.016012 0.992947 -0.086815
vt 0.3506 0.4789
vt 0.7218 0.4789
vt 0.7219 0.4854
vt 0.3506 0.4854
vt 0.5098 0.9998
vt 0.5098 0.4932
vt 0.5480 0.5152
vt 0.5480 0.9778
vt 0.3506 0.4857
vt 0.5524 0.4857
vt 0.5519 0.4892
vt 0.3541 0.4892
vt 0.0002 0.6321
vt 0.5095 0.6321
vt 0.5095 0.6472
vt 0.0002 0.6472
vt 0.3957 0.0002
vt 0.3957 0.4786
vt 0.3506 0.4786
vt 0.3506 0.0002
vt 0.0002 0.4932
vt 0.5095 0.4932
vt 0.5095 0.5279
vt 0.0002 0.5279
vt 0.0162 0.6782
vt 0.4935 0.6782
vt 0.5095 0.7003
vt 0.0002 0.7003
vt 0.0163 0.6640
vt 0.4934 0.6640
vt 0.0047 0.6475
vt 0.5050 0.6475
vt 0.3290 0.0314
vt 0.3299 0.4626
vt 0.3150 0.4302
vt 0.3156 0.0628
vt 0.1345 0.3915
vt 0.3503 0.4929
vt 0.1133 0.4061
vt 0.1331 0.1039
vt 0.1121 0.0895
vt 0.3503 0.0002
vt 0.1562 0.3705
vt 0.1560 0.1250
vt 0.0014 0.4065
vt 0.0002 0.0899
vt 0.0156 0.5433
vt 0.0156 0.6166
vt 0.4941 0.6166
vt 0.4941 0.5433
vt 0.0002 0.7006
vt 0.4786 0.7006
vt 0.4786 0.7325
vt 0.0002 0.7325
vt 0.3960 0.1470
vt 0.3960 0.0737
vt 0.4139 0.1151
vt 0.4139 0.1470
vt 0.0002 0.7328
vt 0.4786 0.7328
vt 0.4786 0.7507
vt 0.0002 0.7507
vt 0.4139 0.0002
vt 0.4139 0.0734
vt 0.3960 0.0734
vt 0.3960 0.0415
vn -0.7071 0.0000 0.7071
vn -0.5774 0.5774 0.5774
vn 0.0000 1.0000 0.0000
vn -0.6488 -0.3977 0.6488
vn -0.4857 -0.7267 0.4857
vn -0.7071 -0.0099 0.7071
vn -0.5009 0.7059 0.5009
vn 0.0568 -0.9968 -0.0568
vn -0.6403 -0.4244 0.6403
vn -0.2709 -0.1795 0.9457
vn -0.6887 0.2269 0.6887
vn -0.7071 0.0000 -0.7071
vn 0.7071 0.0000 0.7071
vn -0.9457 -0.1795 0.2709
usemtl Material.005
s off
f 6/1/1 18/2/1 13/3/1 1/4/1
f 7/5/2 19/6/2 18/7/2 6/8/2
f 3/9/3 15/10/3 19/11/3 7/12/3
f 9/13/1 21/14/1 15/15/1 3/16/1
f 36/17/4 34/18/4 38/19/4 40/20/4
f 2/21/1 14/22/1 20/23/1 8/24/1
f 4/25/5 16/26/5 14/27/5 2/28/5
f 5/29/6 17/30/6 16/26/6 4/25/6
f 10/31/7 22/32/7 17/30/7 5/29/7
f 28/33/8 25/34/8 29/35/8 32/36/8
f 26/37/9 25/34/9 10/38/9 11/39/9
f 28/33/9 27/40/9 23/41/9 22/42/9
f 30/43/9 31/44/9 32/36/9 29/35/9
f 25/34/9 28/33/9 22/42/9 10/38/9
f 27/40/9 26/37/9 11/39/9 23/41/9
f 25/34/10 26/37/10 30/43/10 29/35/10
f 12/45/1 24/46/1 23/41/1 11/39/1
f 26/37/11 27/40/11 31/44/11 30/43/11
f 33/47/1 34/48/1 9/13/1 8/24/1
f 36/49/1 35/50/1 20/23/1 21/14/1
f 34/48/1 36/49/1 21/14/1 9/13/1
f 35/50/1 33/47/1 8/24/1 20/23/1
f 37/51/1 39/52/1 40/53/1 38/54/1
f 35/55/12 36/56/12 40/57/12 39/58/12
f 33/59/3 35/60/3 39/61/3 37/62/3
f 34/63/13 33/64/13 37/65/13 38/66/13
f 27/40/14 28/33/14 32/36/14 31/44/14
