# Blender v2.75 (sub 0) OBJ File: 'CafeKit_Master.blend'
# www.blender.org
mtllib asset_chair_low.mtl
o Cube.018
v -0.350000 -1.000000 -3.600000
v -0.350000 -1.000000 -4.000000
v -0.700000 -1.000000 -4.000000
v -0.700000 -0.400000 -4.000000
v -0.700000 -1.000000 -3.600000
v -0.700000 -0.400000 -3.600000
v -0.700000 0.000000 -3.600000
v -0.700000 0.000000 -4.000000
v -0.604461 -1.000000 -3.000000
v -0.700000 -1.000000 -3.095539
v -0.700000 -0.400000 -3.095539
v -0.604461 -0.400000 -3.000000
v -0.350000 -0.400000 -3.600000
v -0.350000 -0.400000 -4.000000
v -0.350000 0.000000 -3.600000
v -0.350000 0.000000 -4.000000
v -0.350000 -1.000000 -4.210904
v -0.350000 -0.400000 -4.057779
v 0.350000 -1.000000 -3.600000
v 0.350000 -1.000000 -4.000000
v 0.700000 -1.000000 -4.000000
v 0.700000 -0.400000 -4.000000
v 0.000000 -1.000000 -3.600000
v 0.000000 -0.400000 -3.600000
v 0.700000 -1.000000 -3.600000
v 0.700000 -0.400000 -3.600000
v 0.000000 -0.400000 -4.000000
v 0.000000 -1.000000 -4.000000
v 0.000000 -0.400000 -3.000000
v 0.000000 -1.000000 -3.000000
v 0.700000 0.000000 -3.600000
v 0.700000 0.000000 -4.000000
v 0.000000 0.000000 -4.000000
v 0.000000 0.000000 -3.600000
v 0.604461 -1.000000 -3.000000
v 0.700000 -1.000000 -3.095539
v 0.700000 -0.400000 -3.095539
v 0.604461 -0.400000 -3.000000
v 0.350000 -0.400000 -3.600000
v 0.350000 -0.400000 -4.000000
v 0.350000 0.000000 -3.600000
v 0.350000 0.000000 -4.000000
v 0.000000 -1.000000 -4.210904
v 0.350000 -1.000000 -4.210904
v 0.350000 -0.400000 -4.057779
v 0.000000 -0.400000 -4.057779
vt 0.205528 0.165340
vt 0.368497 0.165340
vt 0.368497 0.413349
vt 0.205528 0.413349
vt 0.857403 0.500526
vt 0.857403 0.750379
vt 0.612950 0.750379
vt 0.612950 0.500526
vt 0.816660 0.144672
vt 0.979629 0.144672
vt 0.979629 0.289344
vt 0.816660 0.289344
vt 0.612950 0.789870
vt 0.368497 0.789870
vt 0.368497 0.645198
vt 0.368497 0.500526
vt 0.574025 0.500526
vt 0.612950 0.540017
vt 0.407421 0.500526
vt 0.368497 0.461035
vt 0.368497 0.252516
vt 0.511094 0.252516
vt 0.653692 0.252516
vt 0.653692 0.500526
vt 0.653692 0.144672
vt 0.653692 0.000000
vt 0.816660 0.000000
vt 0.000000 0.660878
vt 0.142597 0.660878
vt 0.142598 0.825898
vt 0.000000 0.825898
vt 0.511094 0.087177
vt 0.653692 0.087177
vt 0.205528 0.000000
vt 0.368497 0.000000
vt 0.857403 1.000000
vt 0.857403 0.751991
vt 0.880943 0.751991
vt 0.943329 1.000000
vt 0.285195 0.660878
vt 0.285195 0.825898
vt 0.857403 0.789870
vt 0.000000 0.165340
vt 0.000000 0.413349
vt 0.142597 0.413349
vt 0.285195 0.413349
vt 0.368497 0.087177
vt 0.653692 0.289344
vt 0.979629 0.000000
vt 1.000000 0.500526
vt 1.000000 0.751991
vt 0.308736 0.413349
vt 0.308736 0.558021
vt 0.285195 0.558021
vt 0.511094 0.000000
vn -1.000000 0.000000 0.000000
vn 0.000000 0.000000 1.000000
vn 0.000000 1.000000 0.000000
vn 0.000000 -1.000000 0.000000
vn 0.000000 0.000000 -1.000000
vn -0.707100 0.000000 0.707100
vn 0.000000 0.247300 -0.968900
vn 1.000000 0.000000 0.000000
vn 0.707100 0.000000 0.707100
usemtl None
s off
f 6/1/1 4/2/1 3/3/1 5/4/1
f 29/5/2 12/6/2 9/7/2 30/8/2
f 15/9/3 16/10/3 8/11/3 7/12/3
f 29/13/3 24/14/3 13/15/3 6/16/3 11/17/3 12/18/3
f 9/19/4 10/20/4 5/21/4 1/22/4 23/23/4 30/24/4
f 13/25/2 24/26/2 34/27/2 15/9/2
f 27/28/5 14/29/5 16/30/5 33/31/5
f 1/22/4 2/32/4 28/33/4 23/23/4
f 4/2/1 6/1/1 7/34/1 8/35/1
f 2/36/1 14/37/1 18/38/1 17/39/1
f 14/29/5 4/40/5 8/41/5 16/30/5
f 9/7/6 12/6/6 11/42/6 10/13/6
f 11/43/1 6/1/1 5/4/1 10/44/1
f 4/40/5 14/29/5 2/45/5 3/46/5
f 5/21/4 3/47/4 2/32/4 1/22/4
f 6/48/2 13/25/2 15/9/2 7/12/2
f 34/27/3 33/49/3 16/10/3 15/9/3
f 18/5/7 46/50/7 43/51/7 17/37/7
f 14/52/3 27/53/3 46/54/3 18/46/3
f 28/33/4 2/32/4 17/55/4 43/26/4
f 26/1/8 25/4/8 21/3/8 22/2/8
f 29/5/2 30/8/2 35/7/2 38/6/2
f 41/9/3 31/12/3 32/11/3 42/10/3
f 29/13/3 38/18/3 37/17/3 26/16/3 39/15/3 24/14/3
f 35/19/4 30/24/4 23/23/4 19/22/4 25/21/4 36/20/4
f 39/25/2 41/9/2 34/27/2 24/26/2
f 27/28/5 33/31/5 42/30/5 40/29/5
f 19/22/4 23/23/4 28/33/4 20/32/4
f 22/2/8 32/35/8 31/34/8 26/1/8
f 20/36/8 44/39/8 45/38/8 40/37/8
f 40/29/5 42/30/5 32/41/5 22/40/5
f 35/7/9 36/13/9 37/42/9 38/6/9
f 37/43/8 36/44/8 25/4/8 26/1/8
f 22/40/5 21/46/5 20/45/5 40/29/5
f 25/21/4 19/22/4 20/32/4 21/47/4
f 26/48/2 31/12/2 41/9/2 39/25/2
f 34/27/3 41/9/3 42/10/3 33/49/3
f 45/5/7 44/37/7 43/51/7 46/50/7
f 40/52/3 45/46/3 46/54/3 27/53/3
f 28/33/4 43/26/4 44/55/4 20/32/4
