# Blender v2.75 (sub 0) OBJ File: 'Asset_Master_Hangar_Kit.blend'
# www.blender.org
mtllib struc_asset_big_pillar_middle_B_low.mtl
o Cube.013_Cube.157
v -1.500000 2.000000 -0.500000
v -1.500000 3.000000 -0.500000
v -1.500000 2.900000 -0.500000
v -1.500000 2.090000 -0.500000
v -1.405041 2.090000 -0.594959
v -1.405041 2.900000 -0.594959
v -1.363843 2.131197 -0.594959
v -1.041197 2.131197 -0.594959
v -1.041197 2.858803 -0.594959
v -1.363843 2.858803 -0.594959
v -1.405041 2.131197 -0.958803
v -1.405041 2.131197 -0.636157
v -1.405041 2.858803 -0.636157
v -1.405041 2.858803 -0.958803
v -1.004748 2.131197 -0.631409
v -1.004748 2.858803 -0.631409
v -1.368591 2.858803 -0.995253
v -1.368591 2.131197 -0.995253
v -1.327393 2.131197 -0.631409
v -1.327393 2.858803 -0.631409
v -1.368591 2.131197 -0.672607
v -1.368591 2.858803 -0.672607
v -0.500000 2.000000 -0.500000
v -1.000000 2.000000 -0.500000
v -0.500000 3.000000 -0.500000
v -1.000000 3.000000 -0.500000
v -0.500000 2.900000 -0.500000
v -1.000000 2.900000 -0.500000
v -0.500000 2.090000 -0.500000
v -1.000000 2.090000 -0.500000
v -0.594959 2.090000 -0.594959
v -0.594959 2.900000 -0.594959
v -1.000000 2.090000 -0.594959
v -1.000000 2.900000 -0.594959
v -0.636157 2.131197 -0.594959
v -0.958803 2.131197 -0.594959
v -0.958803 2.858803 -0.594959
v -0.636157 2.858803 -0.594959
v -0.594959 2.131197 -0.958803
v -0.594959 2.131197 -0.636157
v -0.594959 2.858803 -0.636157
v -0.594959 2.858803 -0.958803
v -0.995253 2.131197 -0.631409
v -0.995253 2.858803 -0.631409
v -0.631409 2.858803 -0.995253
v -0.631409 2.131197 -0.995253
v -0.672607 2.131197 -0.631409
v -0.672607 2.858803 -0.631409
v -0.631409 2.131197 -0.672607
v -0.631409 2.858803 -0.672607
v -1.500000 2.000000 -1.500000
v -1.500000 2.000000 -1.000000
v -1.500000 3.000000 -1.500000
v -1.500000 3.000000 -1.000000
v -1.500000 2.900000 -1.000000
v -1.500000 2.900000 -1.500000
v -1.500000 2.090000 -1.000000
v -1.500000 2.090000 -1.500000
v -1.405041 2.090000 -1.405041
v -1.405041 2.900000 -1.405041
v -1.405041 2.900000 -1.000000
v -1.405041 2.090000 -1.000000
v -1.363843 2.131197 -1.405041
v -1.041197 2.131197 -1.405041
v -1.041197 2.858803 -1.405041
v -1.363843 2.858803 -1.405041
v -1.405041 2.131197 -1.041197
v -1.405041 2.131197 -1.363843
v -1.405041 2.858803 -1.363843
v -1.405041 2.858803 -1.041197
v -1.004748 2.131197 -1.368591
v -1.004748 2.858803 -1.368591
v -1.368591 2.858803 -1.004747
v -1.368591 2.131197 -1.004747
v -1.327393 2.131197 -1.368591
v -1.327393 2.858803 -1.368591
v -1.368591 2.131197 -1.327393
v -1.368591 2.858803 -1.327393
v -0.500000 2.000000 -1.500000
v -1.000000 2.000000 -1.500000
v -0.500000 2.000000 -1.000000
v -1.000000 2.000000 -1.000000
v -0.500000 3.000000 -1.500000
v -1.000000 3.000000 -1.500000
v -0.500000 3.000000 -1.000000
v -1.000000 3.000000 -1.000000
v -0.500000 2.900000 -1.000000
v -0.500000 2.900000 -1.500000
v -1.000000 2.900000 -1.500000
v -0.500000 2.090000 -1.000000
v -0.500000 2.090000 -1.500000
v -1.000000 2.090000 -1.500000
v -0.594959 2.090000 -1.405041
v -0.594959 2.900000 -1.405041
v -1.000000 2.090000 -1.405041
v -1.000000 2.900000 -1.405041
v -0.594959 2.900000 -1.000000
v -0.594959 2.090000 -1.000000
v -0.636157 2.131197 -1.405041
v -0.958803 2.131197 -1.405041
v -0.958803 2.858803 -1.405041
v -0.636157 2.858803 -1.405041
v -0.594959 2.131197 -1.041197
v -0.594959 2.131197 -1.363843
v -0.594959 2.858803 -1.363843
v -0.594959 2.858803 -1.041197
v -0.995253 2.131197 -1.368591
v -0.995253 2.858803 -1.368591
v -0.631409 2.858803 -1.004747
v -0.631409 2.131197 -1.004747
v -0.672607 2.131197 -1.368591
v -0.672607 2.858803 -1.368591
v -0.631409 2.131197 -1.327393
v -0.631409 2.858803 -1.327393
vt 0.817490 0.424505
vt 0.817490 0.685913
vt 0.556082 0.685913
vt 0.556082 0.424505
vt 0.817490 0.738829
vt 0.556082 0.738829
vt 0.556082 0.686547
vt 0.817490 0.686547
vt 0.294040 0.736194
vt 0.555448 0.736194
vt 0.555448 0.788475
vt 0.294040 0.788475
vt 0.555448 0.424505
vt 0.555448 0.685914
vt 0.294040 0.685914
vt 0.294040 0.424505
vt 0.343686 0.686547
vt 0.555448 0.686547
vt 0.556082 0.789109
vt 0.817490 0.789109
vt 0.817490 0.838755
vt 0.605728 0.838755
vt 0.555448 0.886443
vt 0.294040 0.886443
vt 0.294040 0.839389
vt 0.555448 0.839389
vt 0.294040 0.887077
vt 0.555448 0.887077
vt 0.555448 0.934130
vt 0.294040 0.934130
vt 0.027267 0.619275
vt 0.027267 0.999683
vt 0.000317 0.999683
vt 0.000317 0.619275
vt 0.027267 0.000317
vt 0.146544 0.119593
vt 0.119594 0.119593
vt 0.000318 0.000317
vt 0.555448 0.838756
vt 0.294040 0.838756
vt 0.343686 0.789109
vt 0.555448 0.789109
vt 0.817490 0.788475
vt 0.605729 0.788475
vt 0.294186 0.000317
vt 0.505948 0.000390
vt 0.484402 0.021921
vt 0.315717 0.021863
vt 0.505802 0.423871
vt 0.484271 0.402325
vt 0.294040 0.423798
vt 0.315586 0.402267
vt 0.506582 0.000317
vt 0.718344 0.000317
vt 0.696805 0.021856
vt 0.528121 0.021855
vt 0.718344 0.423798
vt 0.696805 0.402260
vt 0.506582 0.423798
vt 0.528121 0.402260
vt 0.818124 0.424505
vt 0.986809 0.424505
vt 0.986809 0.804909
vt 0.818124 0.804909
vt 0.718978 0.000317
vt 0.887663 0.000317
vt 0.887663 0.380721
vt 0.718978 0.380721
vt 0.146545 0.499997
vt 0.119595 0.499997
vt 0.293406 0.619275
vt 0.293406 0.999683
vt 0.266455 0.999683
vt 0.266456 0.619275
vt 0.174129 0.119593
vt 0.174129 0.499997
vt 0.147179 0.499997
vt 0.147179 0.119593
vt 0.293406 0.000317
vt 0.266456 0.000317
vn 0.000000 -1.000000 0.000000
vn -1.000000 0.000000 0.000000
vn 0.000000 0.000000 1.000000
vn 0.000000 1.000000 0.000000
vn -0.707100 0.000000 -0.707100
vn 0.707100 0.000000 0.707100
vn 1.000000 0.000000 0.000000
vn 0.707100 0.000000 -0.707100
vn -0.707100 0.000000 0.707100
vn 0.000000 0.000000 -1.000000
usemtl None
s off
f 82/1/1 24/2/1 1/3/1 52/4/1
f 55/5/2 3/6/2 2/7/2 54/8/2
f 3/9/3 28/10/3 26/11/3 2/12/3
f 26/13/4 86/14/4 54/15/4 2/16/4
f 28/10/1 3/9/1 6/17/1 34/18/1
f 4/19/4 30/20/4 33/21/4 5/22/4
f 52/23/2 1/24/2 4/25/2 57/26/2
f 1/27/3 24/28/3 30/29/3 4/30/3
f 8/31/5 9/32/5 16/33/5 15/34/5
f 9/35/1 10/36/1 20/37/1 16/38/1
f 57/39/4 4/40/4 5/41/4 62/42/4
f 3/6/1 55/5/1 61/43/1 6/44/1
f 5/45/3 33/46/3 8/47/3 7/48/3
f 33/46/3 34/49/3 9/50/3 8/47/3
f 34/49/3 6/51/3 10/52/3 9/50/3
f 6/51/3 5/45/3 7/48/3 10/52/3
f 62/53/2 5/54/2 12/55/2 11/56/2
f 5/54/2 6/57/2 13/58/2 12/55/2
f 6/57/2 61/59/2 14/60/2 13/58/2
f 61/59/2 62/53/2 11/56/2 14/60/2
f 19/61/3 15/62/3 16/63/3 20/64/3
f 18/65/2 21/66/2 22/67/2 17/68/2
f 7/69/4 8/31/4 15/34/4 19/70/4
f 12/71/5 13/72/5 22/73/5 21/74/5
f 14/75/6 11/76/6 18/77/6 17/78/6
f 10/36/6 7/69/6 19/70/6 20/37/6
f 13/79/1 14/75/1 17/78/1 22/80/1
f 11/76/4 12/71/4 21/74/4 18/77/4
f 82/1/1 81/4/1 23/3/1 24/2/1
f 87/5/7 85/8/7 25/7/7 27/6/7
f 27/9/3 25/12/3 26/11/3 28/10/3
f 26/13/4 25/16/4 85/15/4 86/14/4
f 28/10/1 34/18/1 32/17/1 27/9/1
f 29/19/4 31/22/4 33/21/4 30/20/4
f 81/23/7 90/26/7 29/25/7 23/24/7
f 23/27/3 29/30/3 30/29/3 24/28/3
f 36/31/8 43/34/8 44/33/8 37/32/8
f 37/35/1 44/38/1 48/37/1 38/36/1
f 90/39/4 98/42/4 31/41/4 29/40/4
f 27/6/1 32/44/1 97/43/1 87/5/1
f 31/45/3 35/48/3 36/47/3 33/46/3
f 33/46/3 36/47/3 37/50/3 34/49/3
f 34/49/3 37/50/3 38/52/3 32/51/3
f 32/51/3 38/52/3 35/48/3 31/45/3
f 98/53/7 39/56/7 40/55/7 31/54/7
f 31/54/7 40/55/7 41/58/7 32/57/7
f 32/57/7 41/58/7 42/60/7 97/59/7
f 97/59/7 42/60/7 39/56/7 98/53/7
f 47/61/3 48/64/3 44/63/3 43/62/3
f 46/65/7 45/68/7 50/67/7 49/66/7
f 35/69/4 47/70/4 43/34/4 36/31/4
f 40/71/8 49/74/8 50/73/8 41/72/8
f 42/75/9 45/78/9 46/77/9 39/76/9
f 38/36/9 48/37/9 47/70/9 35/69/9
f 41/79/1 50/80/1 45/78/1 42/75/1
f 39/76/4 46/77/4 49/74/4 40/71/4
f 82/1/1 52/4/1 51/3/1 80/2/1
f 55/5/2 54/8/2 53/7/2 56/6/2
f 56/9/10 53/12/10 84/11/10 89/10/10
f 84/13/4 53/16/4 54/15/4 86/14/4
f 89/10/1 96/18/1 60/17/1 56/9/1
f 58/19/4 59/22/4 95/21/4 92/20/4
f 52/23/2 57/26/2 58/25/2 51/24/2
f 51/27/10 58/30/10 92/29/10 80/28/10
f 64/31/9 71/34/9 72/33/9 65/32/9
f 65/35/1 72/38/1 76/37/1 66/36/1
f 57/39/4 62/42/4 59/41/4 58/40/4
f 56/6/1 60/44/1 61/43/1 55/5/1
f 59/45/10 63/48/10 64/47/10 95/46/10
f 95/46/10 64/47/10 65/50/10 96/49/10
f 96/49/10 65/50/10 66/52/10 60/51/10
f 60/51/10 66/52/10 63/48/10 59/45/10
f 62/53/2 67/56/2 68/55/2 59/54/2
f 59/54/2 68/55/2 69/58/2 60/57/2
f 60/57/2 69/58/2 70/60/2 61/59/2
f 61/59/2 70/60/2 67/56/2 62/53/2
f 75/61/10 76/64/10 72/63/10 71/62/10
f 74/65/2 73/68/2 78/67/2 77/66/2
f 63/69/4 75/70/4 71/34/4 64/31/4
f 68/71/9 77/74/9 78/73/9 69/72/9
f 70/75/8 73/78/8 74/77/8 67/76/8
f 66/36/8 76/37/8 75/70/8 63/69/8
f 69/79/1 78/80/1 73/78/1 70/75/1
f 67/76/4 74/77/4 77/74/4 68/71/4
f 82/1/1 80/2/1 79/3/1 81/4/1
f 87/5/7 88/6/7 83/7/7 85/8/7
f 88/9/10 89/10/10 84/11/10 83/12/10
f 84/13/4 86/14/4 85/15/4 83/16/4
f 89/10/1 88/9/1 94/17/1 96/18/1
f 91/19/4 92/20/4 95/21/4 93/22/4
f 81/23/7 79/24/7 91/25/7 90/26/7
f 79/27/10 80/28/10 92/29/10 91/30/10
f 100/31/6 101/32/6 108/33/6 107/34/6
f 101/35/1 102/36/1 112/37/1 108/38/1
f 90/39/4 91/40/4 93/41/4 98/42/4
f 88/6/1 87/5/1 97/43/1 94/44/1
f 93/45/10 95/46/10 100/47/10 99/48/10
f 95/46/10 96/49/10 101/50/10 100/47/10
f 96/49/10 94/51/10 102/52/10 101/50/10
f 94/51/10 93/45/10 99/48/10 102/52/10
f 98/53/7 93/54/7 104/55/7 103/56/7
f 93/54/7 94/57/7 105/58/7 104/55/7
f 94/57/7 97/59/7 106/60/7 105/58/7
f 97/59/7 98/53/7 103/56/7 106/60/7
f 111/61/10 107/62/10 108/63/10 112/64/10
f 110/65/7 113/66/7 114/67/7 109/68/7
f 99/69/4 100/31/4 107/34/4 111/70/4
f 104/71/6 105/72/6 114/73/6 113/74/6
f 106/75/5 103/76/5 110/77/5 109/78/5
f 102/36/5 99/69/5 111/70/5 112/37/5
f 105/79/1 106/75/1 109/78/1 114/80/1
f 103/76/4 104/71/4 113/74/4 110/77/4
