# Blender v2.75 (sub 0) OBJ File: 'Asset_Master_Hangar_Kit.blend'
# www.blender.org
mtllib asset_warning_stand_low.mtl
o Cube.039_Cube.188
v 1.144660 0.244012 1.612321
v 1.144660 0.355988 1.612321
v 1.144660 0.244012 1.587680
v 1.144660 0.355988 1.587680
v 1.100121 0.231852 1.587680
v 1.100121 0.368148 1.587680
v 1.100121 0.368148 1.612321
v 1.100121 0.231852 1.612321
v 1.132500 0.397661 1.612321
v 1.132500 0.397661 1.587680
v 1.100121 0.397661 1.612321
v 1.100121 0.397661 1.587680
v 1.132500 0.231852 1.618735
v 1.132500 0.368148 1.618735
v 1.132500 0.368148 1.581265
v 1.132500 0.231852 1.581265
v 1.100121 0.231852 1.618735
v 1.100121 0.368148 1.618735
v 1.100121 0.368148 1.581265
v 1.100121 0.231852 1.581265
v 1.100121 0.397661 1.618735
v 1.132500 0.397661 1.618735
v 1.132500 0.397661 1.581265
v 1.100121 0.397661 1.581265
v 1.132500 0.004478 1.587680
v 1.132500 0.004478 1.612321
v 1.100121 0.004478 1.612321
v 1.100121 0.004478 1.587680
v 1.132500 0.004478 1.618735
v 1.100121 0.004478 1.618735
v 1.100121 0.004478 1.581265
v 1.132500 0.004478 1.581265
v 1.132500 0.023345 1.581265
v 1.132500 0.023345 1.587680
v 1.132500 0.023345 1.612321
v 1.100121 0.023345 1.587680
v 1.100121 0.023345 1.612321
v 1.132500 0.023345 1.618735
v 1.100121 0.023345 1.618735
v 1.100121 0.023345 1.581265
v 1.132500 0.004429 1.645726
v 1.100121 0.004429 1.645726
v 1.100121 0.004429 1.554274
v 1.132500 0.004429 1.554274
v 1.132500 0.013080 1.645726
v 1.100121 0.013080 1.645726
v 1.100121 0.013080 1.554274
v 1.132500 0.013080 1.554274
v 1.132500 0.231852 1.612321
v 1.132500 0.368148 1.612321
v 1.132500 0.368148 1.587680
v 1.132500 0.231852 1.587680
v 1.144660 0.244012 1.608282
v 1.144660 0.355988 1.608282
v 1.144660 0.355988 1.591718
v 1.144660 0.244012 1.591718
v 1.495340 0.244012 1.612321
v 1.495340 0.355988 1.612321
v 1.495340 0.244012 1.587680
v 1.495340 0.355988 1.587680
v 1.539879 0.231852 1.587680
v 1.539879 0.368148 1.587680
v 1.539879 0.368148 1.612321
v 1.539879 0.231852 1.612321
v 1.320000 0.368148 1.587680
v 1.320000 0.231852 1.587680
v 1.320000 0.368148 1.612321
v 1.320000 0.231852 1.612321
v 1.507500 0.397661 1.612321
v 1.507500 0.397661 1.587680
v 1.539879 0.397661 1.612321
v 1.539879 0.397661 1.587680
v 1.507500 0.231852 1.618735
v 1.507500 0.368148 1.618735
v 1.507500 0.368148 1.581265
v 1.507500 0.231852 1.581265
v 1.539879 0.231852 1.618735
v 1.539879 0.368148 1.618735
v 1.539879 0.368148 1.581265
v 1.539879 0.231852 1.581265
v 1.539879 0.397661 1.618735
v 1.507500 0.397661 1.618735
v 1.507500 0.397661 1.581265
v 1.539879 0.397661 1.581265
v 1.507500 0.004478 1.587680
v 1.507500 0.004478 1.612321
v 1.539879 0.004478 1.612321
v 1.539879 0.004478 1.587680
v 1.507500 0.004478 1.618735
v 1.539879 0.004478 1.618735
v 1.539879 0.004478 1.581265
v 1.507500 0.004478 1.581265
v 1.507500 0.023345 1.581265
v 1.507500 0.023345 1.587680
v 1.507500 0.023345 1.612321
v 1.539879 0.023345 1.587680
v 1.539879 0.023345 1.612321
v 1.507500 0.023345 1.618735
v 1.539879 0.023345 1.618735
v 1.539879 0.023345 1.581265
v 1.507500 0.004429 1.645726
v 1.539879 0.004429 1.645726
v 1.539879 0.004429 1.554274
v 1.507500 0.004429 1.554274
v 1.507500 0.013080 1.645726
v 1.539879 0.013080 1.645726
v 1.539879 0.013080 1.554274
v 1.507500 0.013080 1.554274
v 1.507500 0.231852 1.612321
v 1.507500 0.368148 1.612321
v 1.507500 0.368148 1.587680
v 1.507500 0.231852 1.587680
v 1.320000 0.355988 1.608282
v 1.320000 0.244012 1.587680
v 1.320000 0.355988 1.612321
v 1.320000 0.355988 1.587680
v 1.320000 0.244012 1.612321
v 1.320000 0.244012 1.608282
v 1.320000 0.355988 1.591718
v 1.320000 0.244012 1.591718
v 1.495340 0.244012 1.608282
v 1.495340 0.355988 1.608282
v 1.495340 0.355988 1.591718
v 1.495340 0.244012 1.591718
vt 0.930000 0.562852
vt 0.930000 0.506368
vt 0.972559 0.506368
vt 0.972559 0.562852
vt 0.629351 0.000000
vt 0.684934 0.000000
vt 0.684934 0.312421
vt 0.629351 0.312421
vt 0.930000 0.772482
vt 0.930000 0.715999
vt 0.972559 0.715999
vt 0.972559 0.772482
vt 0.597289 0.831716
vt 0.597289 0.429795
vt 0.606399 0.429795
vt 0.606399 0.831716
vt 0.066574 0.902903
vt 0.133148 0.902903
vt 0.133148 0.917606
vt 0.066574 0.917606
vt 0.930000 0.000000
vt 0.985583 0.000000
vt 0.985583 0.429795
vt 0.930000 0.429795
vt 0.133148 0.846420
vt 0.066574 0.846420
vt 0.560749 0.859590
vt 0.505166 0.859590
vt 0.505166 0.429795
vt 0.560749 0.429795
vt 0.687920 0.861556
vt 0.687920 0.805073
vt 0.760957 0.805073
vt 0.760957 0.861556
vt 1.000000 0.429795
vt 1.000000 0.686469
vt 0.990890 0.686469
vt 0.990890 0.429795
vt 0.713872 0.477949
vt 0.713872 0.790370
vt 0.699403 0.790370
vt 0.699403 0.477949
vt 0.000000 0.902903
vt 0.000000 0.846420
vt 0.000000 0.831716
vt 0.066574 0.831716
vt 0.856962 0.312421
vt 0.856962 0.000000
vt 0.930000 0.312421
vt 0.783925 0.312421
vt 0.783925 0.000000
vt 0.199722 0.905937
vt 0.199722 0.831716
vt 0.266295 0.831716
vt 0.266295 0.905937
vt 0.133148 0.905937
vt 0.133148 0.831716
vt 0.614882 0.312421
vt 0.614882 0.000000
vt 0.760957 0.876260
vt 0.687920 0.876260
vt 0.930000 0.787185
vt 0.972559 0.787185
vt 0.687920 0.790370
vt 0.760957 0.790370
vt 0.699403 0.000000
vt 0.699403 0.312421
vt 0.769455 0.790370
vt 0.769455 0.477949
vt 0.783924 0.477949
vt 0.783924 0.790370
vt 0.000000 0.917606
vt 0.687920 0.866943
vt 0.687920 0.923427
vt 0.614882 0.923427
vt 0.614882 0.866943
vt 0.687920 0.938130
vt 0.614882 0.938130
vt 0.614882 0.852240
vt 0.687920 0.852240
vt 0.930000 0.701295
vt 0.972559 0.701295
vt 0.687920 1.000000
vt 0.614882 1.000000
vt 0.930000 0.491665
vt 0.972559 0.491665
vt 0.930000 0.577555
vt 0.972559 0.577555
vt 0.953155 0.429795
vt 0.972669 0.429795
vt 0.856962 0.790370
vt 0.629351 0.790370
vt 0.614882 0.790370
vt 0.684934 0.790370
vt 0.930000 0.790370
vt 0.713872 0.000000
vt 0.769455 0.000000
vt 0.876476 0.790370
vt 0.876476 0.864590
vt 0.856962 0.864590
vt 0.783924 0.864590
vt 0.764410 0.864590
vt 0.764410 0.790370
vt 0.388063 0.831716
vt 0.388063 0.905937
vt 0.327179 0.905937
vt 0.327179 0.831716
vt 0.953155 0.639425
vt 0.972669 0.639425
vt 0.972669 0.849055
vt 0.953155 0.849055
vt 0.334870 0.401921
vt 0.587453 0.401921
vt 0.614882 0.429795
vt 0.307441 0.429795
vt 0.027429 0.401922
vt 0.280012 0.401922
vt 0.000000 0.429795
vt 0.280012 0.000000
vt 0.307441 0.000000
vt 0.588178 0.457668
vt 0.588178 0.859590
vt 0.027429 0.000000
vt 0.000000 0.000000
vt 0.334870 0.000000
vt 0.252583 0.831716
vt 0.252583 0.429795
vt 0.505166 0.831716
vt 0.990890 0.831716
vt 0.981779 0.831716
vt 0.981779 0.429795
vt 0.994693 0.000000
vt 0.994693 0.256674
vt 0.985583 0.256674
vt 0.588178 0.831716
vt 0.588178 0.429795
vt 0.972669 0.831716
vn -1.000000 0.000000 0.000000
vn 1.000000 0.000000 0.000000
vn 0.000000 -1.000000 0.000000
vn 0.000000 1.000000 0.000000
vn 0.000000 0.000000 1.000000
vn 0.000000 0.000000 -1.000000
vn 0.000000 -1.000000 -0.001800
vn 0.000000 0.934700 -0.355500
vn 0.000000 0.934700 0.355500
vn 0.000000 -1.000000 0.001800
usemtl None
s off
f 37/1/1 36/2/1 28/3/1 27/4/1
f 7/5/1 6/6/1 5/7/1 8/8/1
f 34/9/2 35/10/2 26/11/2 25/12/2
f 4/13/3 116/14/3 119/15/3 55/16/3
f 10/17/2 51/18/2 15/19/2 23/20/2
f 67/21/4 65/22/4 51/23/4 50/24/4
f 50/25/2 51/18/2 10/17/2 9/26/2
f 49/27/3 52/28/3 66/29/3 68/30/3
f 9/31/4 10/32/4 12/33/4 11/34/4
f 3/35/2 4/36/2 55/37/2 56/38/2
f 49/39/2 50/40/2 14/41/2 13/42/2
f 6/26/1 7/17/1 11/43/1 12/44/1
f 6/26/1 12/44/1 24/45/1 19/46/1
f 13/47/5 14/48/5 18/21/5 17/49/5
f 15/48/6 16/47/6 20/50/6 19/51/6
f 18/52/5 14/53/5 22/54/5 21/55/5
f 15/56/6 19/57/6 24/53/6 23/52/6
f 7/5/1 8/8/1 17/58/1 18/59/1
f 9/31/4 11/34/4 21/60/4 22/61/4
f 33/62/2 34/9/2 25/12/2 32/63/2
f 50/25/2 9/26/2 22/46/2 14/57/2
f 12/33/4 10/32/4 23/64/4 24/65/4
f 5/7/1 6/6/1 19/66/1 20/67/1
f 51/68/2 52/69/2 16/70/2 15/71/2
f 11/43/1 7/17/1 18/20/1 21/72/1
f 25/73/3 26/74/3 27/75/3 28/76/3
f 27/75/3 26/74/3 29/77/3 30/78/3
f 25/73/3 28/76/3 31/79/3 32/80/3
f 35/10/2 38/81/2 29/82/2 26/11/2
f 30/78/7 29/77/7 41/83/7 42/84/7
f 36/2/1 40/85/1 31/86/1 28/3/1
f 39/87/1 37/1/1 27/4/1 30/88/1
f 31/86/1 40/85/1 47/89/1 43/90/1
f 20/50/6 16/47/6 33/91/6 40/71/6
f 17/58/1 8/8/1 37/92/1 39/93/1
f 5/7/1 20/67/1 40/41/1 36/94/1
f 13/47/5 17/49/5 39/95/5 38/91/5
f 49/39/2 13/42/2 38/66/2 35/96/2
f 16/70/2 52/69/2 34/97/2 33/51/2
f 52/69/2 49/39/2 35/96/2 34/97/2
f 8/8/1 5/7/1 36/94/1 37/92/1
f 45/98/5 46/99/5 42/100/5 41/91/5
f 47/71/6 48/101/6 44/102/6 43/103/6
f 40/104/8 33/105/8 48/106/8 47/107/8
f 29/82/2 38/81/2 45/108/2 41/109/2
f 38/107/9 39/106/9 46/55/9 45/54/9
f 33/62/2 32/63/2 44/110/2 48/111/2
f 32/80/10 31/79/10 43/93/10 44/64/10
f 39/87/1 30/88/1 42/109/1 46/108/1
f 1/112/5 2/113/5 50/114/5 49/115/5
f 4/116/6 3/117/6 52/115/6 51/118/6
f 3/117/6 114/119/6 66/120/6 52/115/6
f 2/121/5 115/122/5 67/27/5 50/30/5
f 116/123/6 4/116/6 51/118/6 65/124/6
f 117/125/5 1/112/5 49/115/5 68/120/5
f 55/126/6 119/127/6 120/29/6 56/128/6
f 113/127/5 54/126/5 53/45/5 118/118/5
f 114/38/4 3/129/4 56/130/4 120/131/4
f 2/132/2 1/133/2 53/134/2 54/22/2
f 1/135/4 117/136/4 118/14/4 53/13/4
f 115/131/3 2/130/3 54/137/3 113/90/3
f 97/1/2 87/4/2 88/3/2 96/2/2
f 63/5/2 64/8/2 61/7/2 62/6/2
f 94/9/1 85/12/1 86/11/1 95/10/1
f 60/13/3 123/16/3 119/15/3 116/14/3
f 70/17/1 83/20/1 75/19/1 111/18/1
f 67/21/4 110/24/4 111/23/4 65/22/4
f 110/25/1 69/26/1 70/17/1 111/18/1
f 109/27/3 68/30/3 66/29/3 112/28/3
f 69/31/4 71/34/4 72/33/4 70/32/4
f 59/35/1 124/38/1 123/37/1 60/36/1
f 109/39/1 73/42/1 74/41/1 110/40/1
f 62/26/2 72/44/2 71/43/2 63/17/2
f 62/26/2 79/46/2 84/45/2 72/44/2
f 73/47/5 77/49/5 78/21/5 74/48/5
f 75/48/6 79/51/6 80/50/6 76/47/6
f 78/52/5 81/55/5 82/54/5 74/53/5
f 75/56/6 83/52/6 84/53/6 79/57/6
f 63/5/2 78/59/2 77/58/2 64/8/2
f 69/31/4 82/61/4 81/60/4 71/34/4
f 93/62/1 92/63/1 85/12/1 94/9/1
f 110/25/1 74/57/1 82/46/1 69/26/1
f 72/33/4 84/65/4 83/64/4 70/32/4
f 61/7/2 80/67/2 79/66/2 62/6/2
f 111/68/1 75/71/1 76/70/1 112/69/1
f 71/43/2 81/72/2 78/20/2 63/17/2
f 85/73/3 88/76/3 87/75/3 86/74/3
f 87/75/3 90/78/3 89/77/3 86/74/3
f 85/73/3 92/80/3 91/79/3 88/76/3
f 95/10/1 86/11/1 89/82/1 98/81/1
f 90/78/7 102/84/7 101/83/7 89/77/7
f 96/2/2 88/3/2 91/86/2 100/85/2
f 99/87/2 90/88/2 87/4/2 97/1/2
f 91/86/2 103/90/2 107/89/2 100/85/2
f 80/50/6 100/71/6 93/91/6 76/47/6
f 77/58/2 99/93/2 97/92/2 64/8/2
f 61/7/2 96/94/2 100/41/2 80/67/2
f 73/47/5 98/91/5 99/95/5 77/49/5
f 109/39/1 95/96/1 98/66/1 73/42/1
f 76/70/1 93/51/1 94/97/1 112/69/1
f 112/69/1 94/97/1 95/96/1 109/39/1
f 64/8/2 97/92/2 96/94/2 61/7/2
f 105/98/5 101/91/5 102/100/5 106/99/5
f 107/71/6 103/103/6 104/102/6 108/101/6
f 100/104/8 107/107/8 108/106/8 93/105/8
f 89/82/1 101/109/1 105/108/1 98/81/1
f 98/107/9 105/54/9 106/55/9 99/106/9
f 93/62/1 108/111/1 104/110/1 92/63/1
f 92/80/10 104/64/10 103/93/10 91/79/10
f 99/87/2 106/108/2 102/109/2 90/88/2
f 57/112/5 109/115/5 110/114/5 58/113/5
f 60/116/6 111/118/6 112/115/6 59/117/6
f 59/117/6 112/115/6 66/120/6 114/119/6
f 58/121/5 110/30/5 67/27/5 115/122/5
f 116/123/6 65/124/6 111/118/6 60/116/6
f 117/125/5 68/120/5 109/115/5 57/112/5
f 123/126/6 124/128/6 120/29/6 119/127/6
f 113/127/5 118/118/5 121/45/5 122/126/5
f 114/38/4 120/131/4 124/130/4 59/129/4
f 58/132/1 122/22/1 121/134/1 57/133/1
f 57/135/4 121/13/4 118/14/4 117/136/4
f 115/131/3 113/90/3 122/137/3 58/130/3
