# Blender v2.78 (sub 0) OBJ File: 'Asset_Master_Hangar_Kit.blend'
# www.blender.org
mtllib misc_warning_sign.mtl
o Cube.039_Cube.188
v -0.175340 -0.055988 0.012321
v -0.175340 0.055988 0.012321
v -0.175340 -0.055988 -0.012321
v -0.175340 0.055988 -0.012321
v -0.219879 -0.068148 -0.012321
v -0.219879 0.068148 -0.012321
v -0.219879 0.068148 0.012321
v -0.219879 -0.068148 0.012321
v -0.187500 0.097661 0.012321
v -0.187500 0.097661 -0.012321
v -0.219879 0.097661 0.012321
v -0.219879 0.097661 -0.012321
v -0.187500 -0.068148 0.018735
v -0.187500 0.068148 0.018735
v -0.187500 0.068148 -0.018735
v -0.187500 -0.068148 -0.018735
v -0.219879 -0.068148 0.018735
v -0.219879 0.068148 0.018735
v -0.219879 0.068148 -0.018735
v -0.219879 -0.068148 -0.018735
v -0.219879 0.097661 0.018735
v -0.187500 0.097661 0.018735
v -0.187500 0.097661 -0.018735
v -0.219879 0.097661 -0.018735
v -0.187500 -0.295522 -0.012321
v -0.187500 -0.295522 0.012321
v -0.219879 -0.295522 0.012321
v -0.219879 -0.295522 -0.012321
v -0.187500 -0.295522 0.018735
v -0.219879 -0.295522 0.018735
v -0.219879 -0.295522 -0.018735
v -0.187500 -0.295522 -0.018735
v -0.187500 -0.276655 -0.018735
v -0.187500 -0.276655 -0.012321
v -0.187500 -0.276655 0.012321
v -0.219879 -0.276655 -0.012321
v -0.219879 -0.276655 0.012321
v -0.187500 -0.276655 0.018735
v -0.219879 -0.276655 0.018735
v -0.219879 -0.276655 -0.018735
v -0.187500 -0.295571 0.045726
v -0.219879 -0.295571 0.045726
v -0.219879 -0.295571 -0.045726
v -0.187500 -0.295571 -0.045726
v -0.187500 -0.286920 0.045726
v -0.219879 -0.286920 0.045726
v -0.219879 -0.286920 -0.045726
v -0.187500 -0.286920 -0.045726
v -0.187500 -0.068148 0.012321
v -0.187500 0.068148 0.012321
v -0.187500 0.068148 -0.012321
v -0.187500 -0.068148 -0.012321
v -0.175340 -0.055988 0.008282
v -0.175340 0.055988 0.008282
v -0.175340 0.055988 -0.008282
v -0.175340 -0.055988 -0.008282
v 0.175340 -0.055988 0.012321
v 0.175340 0.055988 0.012321
v 0.175340 -0.055988 -0.012321
v 0.175340 0.055988 -0.012321
v 0.219879 -0.068148 -0.012321
v 0.219879 0.068148 -0.012321
v 0.219879 0.068148 0.012321
v 0.219879 -0.068148 0.012321
v 0.000000 0.068148 -0.012321
v 0.000000 -0.068148 -0.012321
v 0.000000 0.068148 0.012321
v 0.000000 -0.068148 0.012321
v 0.187500 0.097661 0.012321
v 0.187500 0.097661 -0.012321
v 0.219879 0.097661 0.012321
v 0.219879 0.097661 -0.012321
v 0.187500 -0.068148 0.018735
v 0.187500 0.068148 0.018735
v 0.187500 0.068148 -0.018735
v 0.187500 -0.068148 -0.018735
v 0.219879 -0.068148 0.018735
v 0.219879 0.068148 0.018735
v 0.219879 0.068148 -0.018735
v 0.219879 -0.068148 -0.018735
v 0.219879 0.097661 0.018735
v 0.187500 0.097661 0.018735
v 0.187500 0.097661 -0.018735
v 0.219879 0.097661 -0.018735
v 0.187500 -0.295522 -0.012321
v 0.187500 -0.295522 0.012321
v 0.219879 -0.295522 0.012321
v 0.219879 -0.295522 -0.012321
v 0.187500 -0.295522 0.018735
v 0.219879 -0.295522 0.018735
v 0.219879 -0.295522 -0.018735
v 0.187500 -0.295522 -0.018735
v 0.187500 -0.276655 -0.018735
v 0.187500 -0.276655 -0.012321
v 0.187500 -0.276655 0.012321
v 0.219879 -0.276655 -0.012321
v 0.219879 -0.276655 0.012321
v 0.187500 -0.276655 0.018735
v 0.219879 -0.276655 0.018735
v 0.219879 -0.276655 -0.018735
v 0.187500 -0.295571 0.045726
v 0.219879 -0.295571 0.045726
v 0.219879 -0.295571 -0.045726
v 0.187500 -0.295571 -0.045726
v 0.187500 -0.286920 0.045726
v 0.219879 -0.286920 0.045726
v 0.219879 -0.286920 -0.045726
v 0.187500 -0.286920 -0.045726
v 0.187500 -0.068148 0.012321
v 0.187500 0.068148 0.012321
v 0.187500 0.068148 -0.012321
v 0.187500 -0.068148 -0.012321
v 0.000000 0.055988 0.008282
v 0.000000 -0.055988 -0.012321
v 0.000000 0.055988 0.012321
v 0.000000 0.055988 -0.012321
v 0.000000 -0.055988 0.012321
v 0.000000 -0.055988 0.008282
v 0.000000 0.055988 -0.008282
v 0.000000 -0.055988 -0.008282
v 0.175340 -0.055988 0.008282
v 0.175340 0.055988 0.008282
v 0.175340 0.055988 -0.008282
v 0.175340 -0.055988 -0.008282
vt 0.9300 0.5629
vt 0.9300 0.5064
vt 0.9726 0.5064
vt 0.9726 0.5629
vt 0.6294 0.0000
vt 0.6849 0.0000
vt 0.6849 0.3124
vt 0.6294 0.3124
vt 0.9300 0.7725
vt 0.9300 0.7160
vt 0.9726 0.7160
vt 0.9726 0.7725
vt 0.5973 0.8317
vt 0.5973 0.4298
vt 0.6064 0.4298
vt 0.6064 0.8317
vt 0.0666 0.9029
vt 0.1331 0.9029
vt 0.1331 0.9176
vt 0.0666 0.9176
vt 0.9300 0.0000
vt 0.9856 0.0000
vt 0.9856 0.4298
vt 0.9300 0.4298
vt 0.1331 0.8464
vt 0.0666 0.8464
vt 0.5607 0.8596
vt 0.5052 0.8596
vt 0.5052 0.4298
vt 0.5607 0.4298
vt 0.6879 0.8616
vt 0.6879 0.8051
vt 0.7610 0.8051
vt 0.7610 0.8616
vt 1.0000 0.4298
vt 1.0000 0.6865
vt 0.9909 0.6865
vt 0.9909 0.4298
vt 0.7139 0.4779
vt 0.7139 0.7904
vt 0.6994 0.7904
vt 0.6994 0.4779
vt 0.0666 0.8464
vt 0.0666 0.9029
vt 0.0000 0.9029
vt 0.0000 0.8464
vt 0.0000 0.8317
vt 0.0666 0.8317
vt 0.8570 0.3124
vt 0.8570 0.0000
vt 0.9300 0.0000
vt 0.9300 0.3124
vt 0.8570 0.0000
vt 0.8570 0.3124
vt 0.7839 0.3124
vt 0.7839 0.0000
vt 0.1997 0.9059
vt 0.1997 0.8317
vt 0.2663 0.8317
vt 0.2663 0.9059
vt 0.1331 0.9059
vt 0.1331 0.8317
vt 0.1997 0.8317
vt 0.1997 0.9059
vt 0.6149 0.3124
vt 0.6149 0.0000
vt 0.7610 0.8763
vt 0.6879 0.8763
vt 0.9300 0.7872
vt 0.9726 0.7872
vt 0.0666 0.8317
vt 0.1331 0.8317
vt 0.6879 0.7904
vt 0.7610 0.7904
vt 0.6994 0.0000
vt 0.6994 0.3124
vt 0.7695 0.7904
vt 0.7695 0.4779
vt 0.7839 0.4779
vt 0.7839 0.7904
vt 0.0666 0.9176
vt 0.0000 0.9176
vt 0.6879 0.8669
vt 0.6879 0.9234
vt 0.6149 0.9234
vt 0.6149 0.8669
vt 0.6879 0.9381
vt 0.6149 0.9381
vt 0.6149 0.8522
vt 0.6879 0.8522
vt 0.9300 0.7013
vt 0.9726 0.7013
vt 0.6879 1.0000
vt 0.6149 1.0000
vt 0.9300 0.4917
vt 0.9726 0.4917
vt 0.9300 0.5776
vt 0.9726 0.5776
vt 0.9532 0.4298
vt 0.9727 0.4298
vt 0.8570 0.7904
vt 0.7839 0.7904
vt 0.6294 0.7904
vt 0.6149 0.7904
vt 0.6994 0.7904
vt 0.6849 0.7904
vt 0.9300 0.7904
vt 0.8570 0.7904
vt 0.6994 0.0000
vt 0.7139 0.0000
vt 0.7695 0.0000
vt 0.7839 0.0000
vt 0.8765 0.7904
vt 0.8765 0.8646
vt 0.8570 0.8646
vt 0.8570 0.7904
vt 0.7839 0.7904
vt 0.7839 0.8646
vt 0.7644 0.8646
vt 0.7644 0.7904
vt 0.3881 0.8317
vt 0.3881 0.9059
vt 0.3272 0.9059
vt 0.3272 0.8317
vt 0.9532 0.6394
vt 0.9727 0.6394
vt 0.3272 0.8317
vt 0.3272 0.9059
vt 0.2663 0.9059
vt 0.2663 0.8317
vt 0.9727 0.8491
vt 0.9532 0.8491
vt 0.6149 0.7904
vt 0.6879 0.7904
vt 0.9727 0.6394
vt 0.9532 0.6394
vt 0.3349 0.4019
vt 0.5875 0.4019
vt 0.6149 0.4298
vt 0.3074 0.4298
vt 0.0274 0.4019
vt 0.2800 0.4019
vt 0.3074 0.4298
vt 0.0000 0.4298
vt 0.2800 0.0000
vt 0.3074 0.0000
vt 0.5882 0.4577
vt 0.5882 0.8596
vt 0.5607 0.8596
vt 0.5607 0.4298
vt 0.0274 0.0000
vt 0.0000 0.0000
vt 0.3349 0.0000
vt 0.3074 0.0000
vt 0.2526 0.8317
vt 0.2526 0.4298
vt 0.5052 0.4298
vt 0.5052 0.8317
vt 0.2526 0.4298
vt 0.2526 0.8317
vt 0.0000 0.8317
vt 0.0000 0.4298
vt 0.9909 0.4298
vt 0.9909 0.8317
vt 0.9818 0.8317
vt 0.9818 0.4298
vt 0.9947 0.0000
vt 0.9947 0.2567
vt 0.9856 0.2567
vt 0.9856 0.0000
vt 0.5882 0.8317
vt 0.5882 0.4298
vt 0.5973 0.4298
vt 0.5973 0.8317
vt 0.9818 0.4298
vt 0.9818 0.8317
vt 0.9727 0.8317
vt 0.9727 0.4298
vt 0.9300 0.5629
vt 0.9726 0.5629
vt 0.9726 0.5064
vt 0.9300 0.5064
vt 0.6294 0.0000
vt 0.6294 0.3124
vt 0.6849 0.3124
vt 0.6849 0.0000
vt 0.9300 0.7725
vt 0.9726 0.7725
vt 0.9726 0.7160
vt 0.9300 0.7160
vt 0.5973 0.8317
vt 0.6064 0.8317
vt 0.0666 0.9029
vt 0.0666 0.9176
vt 0.1331 0.9176
vt 0.1331 0.9029
vt 0.9300 0.4298
vt 0.9856 0.4298
vt 0.1331 0.8464
vt 0.0666 0.8464
vt 0.5607 0.8596
vt 0.5052 0.8596
vt 0.6879 0.8616
vt 0.7610 0.8616
vt 0.7610 0.8051
vt 0.6879 0.8051
vt 1.0000 0.4298
vt 0.9909 0.4298
vt 0.9909 0.6865
vt 1.0000 0.6865
vt 0.7139 0.4779
vt 0.6994 0.4779
vt 0.6994 0.7904
vt 0.7139 0.7904
vt 0.0666 0.8464
vt 0.0000 0.8464
vt 0.0000 0.9029
vt 0.0666 0.9029
vt 0.0666 0.8317
vt 0.0000 0.8317
vt 0.8570 0.3124
vt 0.9300 0.3124
vt 0.9300 0.0000
vt 0.8570 0.0000
vt 0.8570 0.0000
vt 0.7839 0.0000
vt 0.7839 0.3124
vt 0.8570 0.3124
vt 0.1997 0.9059
vt 0.2663 0.9059
vt 0.2663 0.8317
vt 0.1997 0.8317
vt 0.1331 0.9059
vt 0.1997 0.9059
vt 0.1997 0.8317
vt 0.1331 0.8317
vt 0.6149 0.0000
vt 0.6149 0.3124
vt 0.6879 0.8763
vt 0.7610 0.8763
vt 0.9300 0.7872
vt 0.9726 0.7872
vt 0.1331 0.8317
vt 0.0666 0.8317
vt 0.7610 0.7904
vt 0.6879 0.7904
vt 0.6994 0.3124
vt 0.6994 0.0000
vt 0.7695 0.7904
vt 0.7839 0.7904
vt 0.7839 0.4779
vt 0.7695 0.4779
vt 0.0000 0.9176
vt 0.0666 0.9176
vt 0.6879 0.8669
vt 0.6149 0.8669
vt 0.6149 0.9234
vt 0.6879 0.9234
vt 0.6149 0.9381
vt 0.6879 0.9381
vt 0.6879 0.8522
vt 0.6149 0.8522
vt 0.9726 0.7013
vt 0.9300 0.7013
vt 0.6149 1.0000
vt 0.6879 1.0000
vt 0.9726 0.4917
vt 0.9300 0.4917
vt 0.9300 0.5776
vt 0.9726 0.5776
vt 0.9727 0.4298
vt 0.9532 0.4298
vt 0.7839 0.7904
vt 0.8570 0.7904
vt 0.6149 0.7904
vt 0.6294 0.7904
vt 0.6849 0.7904
vt 0.6994 0.7904
vt 0.8570 0.7904
vt 0.9300 0.7904
vt 0.7139 0.0000
vt 0.6994 0.0000
vt 0.7839 0.0000
vt 0.7695 0.0000
vt 0.8765 0.7904
vt 0.8570 0.7904
vt 0.8570 0.8646
vt 0.8765 0.8646
vt 0.7839 0.7904
vt 0.7644 0.7904
vt 0.7644 0.8646
vt 0.7839 0.8646
vt 0.3881 0.8317
vt 0.3272 0.8317
vt 0.3272 0.9059
vt 0.3881 0.9059
vt 0.9727 0.6394
vt 0.9532 0.6394
vt 0.3272 0.8317
vt 0.2663 0.8317
vt 0.2663 0.9059
vt 0.3272 0.9059
vt 0.9532 0.8491
vt 0.9727 0.8491
vt 0.6879 0.7904
vt 0.6149 0.7904
vt 0.9532 0.6394
vt 0.9727 0.6394
vt 0.3349 0.4019
vt 0.3074 0.4298
vt 0.6149 0.4298
vt 0.5875 0.4019
vt 0.0274 0.4019
vt 0.0000 0.4298
vt 0.3074 0.4298
vt 0.2800 0.4019
vt 0.5882 0.4577
vt 0.5607 0.4298
vt 0.2526 0.8317
vt 0.5052 0.8317
vt 0.0000 0.8317
vt 0.2526 0.8317
vt 0.9818 0.8317
vt 0.9909 0.8317
vt 0.9947 0.0000
vt 0.9856 0.0000
vt 0.9856 0.2567
vt 0.9947 0.2567
vt 0.5882 0.8317
vt 0.5973 0.8317
vt 0.9727 0.8317
vt 0.9818 0.8317
vn -1.0000 0.0000 0.0000
vn 1.0000 0.0000 0.0000
vn 0.0000 -1.0000 0.0000
vn 0.0000 1.0000 0.0000
vn 0.0000 0.0000 1.0000
vn 0.0000 0.0000 -1.0000
vn 0.0000 -1.0000 -0.0018
vn 0.0000 0.9347 -0.3555
vn 0.0000 0.9347 0.3555
vn 0.0000 -1.0000 0.0018
usemtl None
s off
f 37/1/1 36/2/1 28/3/1 27/4/1
f 7/5/1 6/6/1 5/7/1 8/8/1
f 34/9/2 35/10/2 26/11/2 25/12/2
f 4/13/3 116/14/3 119/15/3 55/16/3
f 10/17/2 51/18/2 15/19/2 23/20/2
f 67/21/4 65/22/4 51/23/4 50/24/4
f 50/25/2 51/18/2 10/17/2 9/26/2
f 49/27/3 52/28/3 66/29/3 68/30/3
f 9/31/4 10/32/4 12/33/4 11/34/4
f 3/35/2 4/36/2 55/37/2 56/38/2
f 49/39/2 50/40/2 14/41/2 13/42/2
f 6/43/1 7/44/1 11/45/1 12/46/1
f 6/43/1 12/46/1 24/47/1 19/48/1
f 13/49/5 14/50/5 18/51/5 17/52/5
f 15/53/6 16/54/6 20/55/6 19/56/6
f 18/57/5 14/58/5 22/59/5 21/60/5
f 15/61/6 19/62/6 24/63/6 23/64/6
f 7/5/1 8/8/1 17/65/1 18/66/1
f 9/31/4 11/34/4 21/67/4 22/68/4
f 33/69/2 34/9/2 25/12/2 32/70/2
f 50/25/2 9/26/2 22/71/2 14/72/2
f 12/33/4 10/32/4 23/73/4 24/74/4
f 5/7/1 6/6/1 19/75/1 20/76/1
f 51/77/2 52/78/2 16/79/2 15/80/2
f 11/45/1 7/44/1 18/81/1 21/82/1
f 25/83/3 26/84/3 27/85/3 28/86/3
f 27/85/3 26/84/3 29/87/3 30/88/3
f 25/83/3 28/86/3 31/89/3 32/90/3
f 35/10/2 38/91/2 29/92/2 26/11/2
f 30/88/7 29/87/7 41/93/7 42/94/7
f 36/2/1 40/95/1 31/96/1 28/3/1
f 39/97/1 37/1/1 27/4/1 30/98/1
f 31/96/1 40/95/1 47/99/1 43/100/1
f 20/55/6 16/54/6 33/101/6 40/102/6
f 17/65/1 8/8/1 37/103/1 39/104/1
f 5/7/1 20/76/1 40/105/1 36/106/1
f 13/49/5 17/52/5 39/107/5 38/108/5
f 49/39/2 13/42/2 38/109/2 35/110/2
f 16/79/2 52/78/2 34/111/2 33/112/2
f 52/78/2 49/39/2 35/110/2 34/111/2
f 8/8/1 5/7/1 36/106/1 37/103/1
f 45/113/5 46/114/5 42/115/5 41/116/5
f 47/117/6 48/118/6 44/119/6 43/120/6
f 40/121/8 33/122/8 48/123/8 47/124/8
f 29/92/2 38/91/2 45/125/2 41/126/2
f 38/127/9 39/128/9 46/129/9 45/130/9
f 33/69/2 32/70/2 44/131/2 48/132/2
f 32/90/10 31/89/10 43/133/10 44/134/10
f 39/97/1 30/98/1 42/135/1 46/136/1
f 1/137/5 2/138/5 50/139/5 49/140/5
f 4/141/6 3/142/6 52/143/6 51/144/6
f 3/142/6 114/145/6 66/146/6 52/143/6
f 2/147/5 115/148/5 67/149/5 50/150/5
f 116/151/6 4/141/6 51/144/6 65/152/6
f 117/153/5 1/137/5 49/140/5 68/154/5
f 55/155/6 119/156/6 120/157/6 56/158/6
f 113/159/5 54/160/5 53/161/5 118/162/5
f 114/163/4 3/164/4 56/165/4 120/166/4
f 2/167/2 1/168/2 53/169/2 54/170/2
f 1/171/4 117/172/4 118/173/4 53/174/4
f 115/175/3 2/176/3 54/177/3 113/178/3
f 97/179/2 87/180/2 88/181/2 96/182/2
f 63/183/2 64/184/2 61/185/2 62/186/2
f 94/187/1 85/188/1 86/189/1 95/190/1
f 60/191/3 123/192/3 119/15/3 116/14/3
f 70/193/1 83/194/1 75/195/1 111/196/1
f 67/21/4 110/197/4 111/198/4 65/22/4
f 110/199/1 69/200/1 70/193/1 111/196/1
f 109/201/3 68/30/3 66/29/3 112/202/3
f 69/203/4 71/204/4 72/205/4 70/206/4
f 59/207/1 124/208/1 123/209/1 60/210/1
f 109/211/1 73/212/1 74/213/1 110/214/1
f 62/215/2 72/216/2 71/217/2 63/218/2
f 62/215/2 79/219/2 84/220/2 72/216/2
f 73/221/5 77/222/5 78/223/5 74/224/5
f 75/225/6 79/226/6 80/227/6 76/228/6
f 78/229/5 81/230/5 82/231/5 74/232/5
f 75/233/6 83/234/6 84/235/6 79/236/6
f 63/183/2 78/237/2 77/238/2 64/184/2
f 69/203/4 82/239/4 81/240/4 71/204/4
f 93/241/1 92/242/1 85/188/1 94/187/1
f 110/199/1 74/243/1 82/244/1 69/200/1
f 72/205/4 84/245/4 83/246/4 70/206/4
f 61/185/2 80/247/2 79/248/2 62/186/2
f 111/249/1 75/250/1 76/251/1 112/252/1
f 71/217/2 81/253/2 78/254/2 63/218/2
f 85/255/3 88/256/3 87/257/3 86/258/3
f 87/257/3 90/259/3 89/260/3 86/258/3
f 85/255/3 92/261/3 91/262/3 88/256/3
f 95/190/1 86/189/1 89/263/1 98/264/1
f 90/259/7 102/265/7 101/266/7 89/260/7
f 96/182/2 88/181/2 91/267/2 100/268/2
f 99/269/2 90/270/2 87/180/2 97/179/2
f 91/267/2 103/271/2 107/272/2 100/268/2
f 80/227/6 100/273/6 93/274/6 76/228/6
f 77/238/2 99/275/2 97/276/2 64/184/2
f 61/185/2 96/277/2 100/278/2 80/247/2
f 73/221/5 98/279/5 99/280/5 77/222/5
f 109/211/1 95/281/1 98/282/1 73/212/1
f 76/251/1 93/283/1 94/284/1 112/252/1
f 112/252/1 94/284/1 95/281/1 109/211/1
f 64/184/2 97/276/2 96/277/2 61/185/2
f 105/285/5 101/286/5 102/287/5 106/288/5
f 107/289/6 103/290/6 104/291/6 108/292/6
f 100/293/8 107/294/8 108/295/8 93/296/8
f 89/263/1 101/297/1 105/298/1 98/264/1
f 98/299/9 105/300/9 106/301/9 99/302/9
f 93/241/1 108/303/1 104/304/1 92/242/1
f 92/261/10 104/305/10 103/306/10 91/262/10
f 99/269/2 106/307/2 102/308/2 90/270/2
f 57/309/5 109/310/5 110/311/5 58/312/5
f 60/313/6 111/314/6 112/315/6 59/316/6
f 59/316/6 112/315/6 66/146/6 114/145/6
f 58/317/5 110/318/5 67/149/5 115/148/5
f 116/151/6 65/152/6 111/314/6 60/313/6
f 117/153/5 68/154/5 109/310/5 57/309/5
f 123/319/6 124/320/6 120/157/6 119/156/6
f 113/159/5 118/162/5 121/321/5 122/322/5
f 114/163/4 120/166/4 124/323/4 59/324/4
f 58/325/1 122/326/1 121/327/1 57/328/1
f 57/329/4 121/330/4 118/173/4 117/172/4
f 115/175/3 113/178/3 122/331/3 58/332/3
