# Blender v2.78 (sub 0) OBJ File: 'CafeKit_Master.blend'
# www.blender.org
mtllib big_wall_A.mtl
o Plane_Plane.106
v -0.000001 0.000000 0.000000
v 4.009600 -0.005476 0.000000
v -0.000001 0.000000 -4.064807
v 4.009600 -0.005476 -4.064807
v 4.414459 0.544280 0.000000
v 4.414459 0.544280 -4.064807
v 3.258752 1.994065 0.000001
v 3.258752 1.994065 -4.064806
v -0.000001 9.965180 0.000001
v -0.000001 9.965180 -4.064806
v -0.000001 15.938386 0.000001
v -0.000001 15.938386 -4.064806
v 4.414459 20.087711 0.000001
v 4.414459 20.087711 -4.064806
v 6.001235 20.087711 0.000001
v 6.001235 20.087711 -4.064806
vt 1.0000 0.0000
vt 1.0000 0.3456
vt 0.6667 0.3456
vt 0.6667 0.0000
vt 1.0000 0.3805
vt 0.6667 0.3805
vt 0.0000 0.0000
vt 0.3333 0.0000
vt 0.3333 0.1518
vt 0.0000 0.1518
vt 0.3333 0.8937
vt 0.0000 0.8937
vt 0.6667 1.0000
vt 0.3333 1.0000
vt 0.3333 0.5171
vt 0.6667 0.5171
vt 0.3333 0.1368
vt 0.6667 0.1368
vt 0.3333 0.0000
vt 0.6667 0.0000
vn 0.0014 1.0000 0.0000
vn -0.8052 0.5930 0.0000
vn -0.7820 -0.6233 0.0000
vn -0.9256 -0.3784 0.0000
vn -1.0000 0.0000 0.0000
vn -0.6849 0.7286 0.0000
vn 0.0000 1.0000 0.0000
usemtl None
s off
f 1/1/1 2/2/1 4/3/1 3/4/1
f 4/3/2 2/2/2 5/5/2 6/6/2
f 6/7/3 5/8/3 7/9/3 8/10/3
f 8/10/4 7/9/4 9/11/4 10/12/4
f 10/13/5 9/14/5 11/15/5 12/16/5
f 12/16/6 11/15/6 13/17/6 14/18/6
f 14/18/7 13/17/7 15/19/7 16/20/7
