# Blender v2.78 (sub 0) OBJ File: 'CafeKit_Master.blend'
# www.blender.org
mtllib small_wall_B.mtl
o struc_Wall_B_Plane.086
v -0.000001 3.000000 -2.000000
v -0.107263 -1.000000 -2.000000
v -0.107264 -0.677105 -2.000000
v -0.997787 1.706868 -2.000000
v -0.997787 2.642695 -2.000000
v -0.698451 3.001149 -2.000000
v -0.022955 -0.622260 -2.000000
v -0.589518 3.000970 -2.000000
v -0.551890 2.909471 -2.000000
v -0.217532 2.908921 -2.000000
v -0.060383 3.165494 -2.000000
v -0.120941 3.165594 -2.000000
v -0.997787 2.468884 -1.826189
v -0.997787 1.880679 -1.826189
v -0.693950 2.148886 -1.317376
v -0.785817 1.905194 -1.317376
v -0.000001 3.000000 2.000000
v -0.107263 -1.000000 2.000000
v -0.000000 3.000000 0.000000
v -0.107263 -1.000000 0.000000
v -0.107264 -0.677105 2.000000
v -0.107263 -0.677105 0.000000
v -0.997787 1.706868 0.000000
v -0.997787 1.706868 2.000000
v -0.997787 2.642695 0.000000
v -0.997787 2.642695 2.000000
v -0.698451 3.001149 0.000000
v -0.698451 3.001149 2.000000
v -0.022955 -0.622260 2.000000
v -0.022955 -0.622260 0.000000
v -0.589518 3.000970 0.000000
v -0.589518 3.000970 2.000000
v -0.551889 2.909471 0.000000
v -0.551890 2.909471 2.000000
v -0.217532 2.908921 2.000000
v -0.217532 2.908921 0.000000
v -0.060383 3.165494 0.000000
v -0.060383 3.165494 2.000000
v -0.120941 3.165594 2.000000
v -0.120941 3.165594 0.000000
v -0.997787 2.468884 1.826189
v -0.997787 1.880679 1.826189
v -0.997787 2.468884 0.000000
v -0.997787 1.880679 0.000000
v -0.693950 2.148886 1.317376
v -0.785817 1.905194 1.317376
v -0.785817 1.905194 0.000000
v -0.693950 2.148886 0.000000
vt 0.7629 0.0000
vt 0.8161 0.0000
vt 0.8161 0.4354
vt 0.7629 0.4354
vt 0.9747 0.0000
vt 0.9899 0.0000
vt 0.9899 0.4354
vt 0.9747 0.4354
vt 0.8912 0.0000
vt 0.8912 0.3976
vt 0.8554 0.3976
vt 0.8554 0.1108
vt 0.5871 0.0000
vt 0.6450 0.0000
vt 0.6450 0.4354
vt 0.5871 0.4354
vt 0.5690 0.0000
vt 0.5690 0.4354
vt 0.0000 0.0000
vt 0.4146 0.0000
vt 0.4146 0.4354
vt 0.0000 0.4354
vt 0.9747 0.8708
vt 0.9581 0.8708
vt 0.9581 0.4354
vt 0.9747 0.4354
vt 0.7073 0.0000
vt 0.7629 0.0000
vt 0.7629 0.4354
vt 0.7073 0.4354
vt 0.8912 0.0000
vt 0.9208 0.0000
vt 0.9208 0.4354
vt 0.8912 0.4354
vt 0.9899 0.0000
vt 1.0000 0.0000
vt 1.0000 0.4354
vt 0.9899 0.4354
vt 0.8161 0.0000
vt 0.8554 0.0000
vt 0.8554 0.4354
vt 0.8161 0.4354
vt 0.5403 0.0378
vt 0.4433 0.0378
vt 0.4146 0.0000
vt 0.5690 0.0000
vt 0.5403 0.4354
vt 0.5690 0.4354
vt 0.9208 0.0000
vt 0.9581 0.0000
vt 0.9581 0.2868
vt 0.9208 0.2868
vt 0.4433 0.4354
vt 0.4146 0.4354
vt 0.0000 1.0000
vt 0.0000 0.8742
vt 0.0854 0.8708
vt 0.0854 0.9192
vt 0.7073 0.3976
vt 0.7073 0.7951
vt 0.6450 0.6844
vt 0.6450 0.3976
vt 0.7629 0.8708
vt 0.8161 0.8708
vt 0.9747 0.8708
vt 0.9899 0.8708
vt 0.8912 0.7951
vt 0.8554 0.6844
vt 0.5871 0.8708
vt 0.6450 0.8708
vt 0.5690 0.8708
vt 0.0000 0.8708
vt 0.4146 0.8708
vt 0.9747 0.0000
vt 0.9581 0.0000
vt 0.7073 0.8708
vt 0.7629 0.8708
vt 0.8912 0.8708
vt 0.9208 0.8708
vt 0.9899 0.8708
vt 1.0000 0.8708
vt 0.8161 0.8708
vt 0.8554 0.8708
vt 0.5403 0.8330
vt 0.5690 0.8708
vt 0.4146 0.8708
vt 0.4433 0.8330
vt 0.9208 0.5736
vt 0.9581 0.5736
vt 0.1708 1.0000
vt 0.0854 0.9192
vt 0.0854 0.8708
vt 0.1708 0.8742
vt 0.6450 0.1108
vt 0.7073 0.0000
vn -1.0000 -0.0000 0.0000
vn -0.5453 0.8382 0.0000
vn -0.1149 0.9934 -0.0000
vn -0.7676 0.6410 0.0000
vn 0.0016 1.0000 0.0000
vn -0.9225 -0.3861 0.0000
vn 0.9248 0.3803 -0.0000
vn 0.9394 0.3428 -0.0000
vn -0.9359 0.3522 0.0000
vn -0.9357 0.3527 0.0000
vn -0.8762 0.0968 0.4722
vn -0.7252 -0.6886 0.0000
vn -0.8762 0.0968 -0.4722
usemtl None
s off
f 3/1/1 2/2/1 20/3/1 22/4/1
f 7/5/2 3/6/2 22/7/2 30/8/2
f 14/9/3 44/10/3 47/11/3 16/12/3
f 6/13/4 5/14/4 25/15/4 27/16/4
f 8/17/5 6/13/5 27/16/5 31/18/5
f 4/19/6 7/20/6 30/21/6 23/22/6
f 9/23/7 8/24/7 31/25/7 33/26/7
f 10/27/5 9/28/5 33/29/5 36/30/5
f 1/31/8 11/32/8 37/33/8 19/34/8
f 11/35/5 12/36/5 40/37/5 37/38/5
f 12/39/9 10/40/9 36/41/9 40/42/9
f 14/43/1 13/44/1 5/45/1 4/46/1
f 44/47/1 14/43/1 4/46/1 23/48/1
f 15/49/10 16/50/10 47/51/10 48/52/10
f 13/44/1 43/53/1 25/54/1 5/45/1
f 13/55/11 14/56/11 16/57/11 15/58/11
f 43/59/12 13/60/12 15/61/12 48/62/12
f 21/63/1 22/4/1 20/3/1 18/64/1
f 29/65/2 30/8/2 22/7/2 21/66/2
f 42/67/3 46/68/3 47/11/3 44/10/3
f 28/69/4 27/16/4 25/15/4 26/70/4
f 32/71/5 31/18/5 27/16/5 28/69/5
f 24/72/6 23/22/6 30/21/6 29/73/6
f 34/74/7 33/26/7 31/25/7 32/75/7
f 35/76/5 36/30/5 33/29/5 34/77/5
f 17/78/8 19/34/8 37/33/8 38/79/8
f 38/80/5 37/38/5 40/37/5 39/81/5
f 39/82/9 40/42/9 36/41/9 35/83/9
f 42/84/1 24/85/1 26/86/1 41/87/1
f 44/47/1 23/48/1 24/85/1 42/84/1
f 45/88/10 48/52/10 47/51/10 46/89/10
f 41/87/1 26/86/1 25/54/1 43/53/1
f 41/90/13 45/91/13 46/92/13 42/93/13
f 43/59/12 48/62/12 45/94/12 41/95/12
