# Blender v2.75 (sub 0) OBJ File: 'Asset_Master_Hangar_Kit.blend'
# www.blender.org
mtllib asset_fuel_cell_B_low.mtl
o Cylinder.015
v 2.600000 0.277357 1.201433
v 2.649283 0.277357 1.214639
v 2.685361 0.277357 1.250717
v 2.698567 0.277357 1.300000
v 2.685361 0.277357 1.349283
v 2.649283 0.277357 1.385361
v 2.600000 0.277357 1.398567
v 2.550717 0.277357 1.385361
v 2.514639 0.277357 1.349283
v 2.501433 0.277357 1.300000
v 2.514639 0.277357 1.250717
v 2.550716 0.277357 1.214639
v 2.600000 0.231317 1.179353
v 2.660323 0.231317 1.195517
v 2.704483 0.231317 1.239676
v 2.720647 0.231317 1.300000
v 2.704483 0.231317 1.360323
v 2.660323 0.231317 1.404483
v 2.600000 0.231317 1.420647
v 2.539676 0.231317 1.404483
v 2.495517 0.231317 1.360323
v 2.479353 0.231317 1.300000
v 2.495517 0.231317 1.239677
v 2.539676 0.231317 1.195517
v 2.652616 0.180399 1.208867
v 2.549759 0.157276 1.195237
v 2.691133 0.180399 1.247384
v 2.495237 0.157276 1.350241
v 2.705231 0.180399 1.300000
v 2.504392 0.144607 1.344955
v 2.691133 0.180399 1.352615
v 2.644955 0.144607 1.395607
v 2.652616 0.180399 1.391133
v 2.695607 0.144607 1.255045
v 2.600000 0.180399 1.405231
v 2.704763 0.157276 1.249759
v 2.547384 0.180399 1.391133
v 2.608872 0.144607 1.405276
v 2.508867 0.180399 1.352616
v 2.608872 0.157276 1.415848
v 2.494769 0.180399 1.300000
v 2.555045 0.144607 1.204392
v 2.508867 0.180399 1.247384
v 2.650241 0.157276 1.404763
v 2.547384 0.180399 1.208867
v 2.715848 0.157276 1.291128
v 2.705276 0.144607 1.291128
v 2.600000 0.180399 1.194769
v 2.660323 0.261585 1.195517
v 2.600000 0.261585 1.179353
v 2.704483 0.261585 1.239676
v 2.720647 0.261585 1.300000
v 2.704483 0.261585 1.360323
v 2.660323 0.261585 1.404483
v 2.600000 0.261585 1.420647
v 2.539676 0.261585 1.404483
v 2.495517 0.261585 1.360323
v 2.479353 0.261585 1.300000
v 2.495517 0.261585 1.239677
v 2.539676 0.261585 1.195517
v 2.652616 0.170982 1.208867
v 2.691133 0.170982 1.247384
v 2.705231 0.170982 1.300000
v 2.691133 0.170982 1.352615
v 2.652616 0.170982 1.391133
v 2.600000 0.170982 1.405231
v 2.547384 0.170982 1.391133
v 2.508867 0.170982 1.352616
v 2.494769 0.170982 1.300000
v 2.508867 0.170982 1.247384
v 2.547384 0.170982 1.208867
v 2.600000 0.170982 1.194769
v 2.642051 0.170982 1.227165
v 2.672834 0.170982 1.257949
v 2.684102 0.170982 1.300000
v 2.672834 0.170982 1.342051
v 2.642051 0.170982 1.372834
v 2.600000 0.170982 1.384102
v 2.557949 0.170982 1.372834
v 2.527165 0.170982 1.342051
v 2.515898 0.170982 1.300000
v 2.527165 0.170982 1.257949
v 2.557949 0.170982 1.227166
v 2.600000 0.170982 1.215898
v 2.591128 0.157276 1.184152
v 2.591128 0.144607 1.194724
v 2.494724 0.144607 1.308872
v 2.484152 0.157276 1.308872
v 2.600000 0.004518 1.201433
v 2.649283 0.004518 1.214639
v 2.685361 0.004518 1.250717
v 2.698567 0.004518 1.300000
v 2.685361 0.004518 1.349283
v 2.649283 0.004518 1.385361
v 2.600000 0.004518 1.398567
v 2.550717 0.004518 1.385361
v 2.514639 0.004518 1.349283
v 2.501433 0.004518 1.300000
v 2.514639 0.004518 1.250717
v 2.550716 0.004518 1.214639
v 2.600000 0.050558 1.179353
v 2.660323 0.050558 1.195517
v 2.704483 0.050558 1.239676
v 2.720647 0.050558 1.300000
v 2.704483 0.050558 1.360323
v 2.660323 0.050558 1.404483
v 2.600000 0.050558 1.420647
v 2.539676 0.050558 1.404483
v 2.495517 0.050558 1.360323
v 2.479353 0.050558 1.300000
v 2.495517 0.050558 1.239677
v 2.539676 0.050558 1.195517
v 2.652616 0.101477 1.208867
v 2.549759 0.124599 1.195237
v 2.691133 0.101477 1.247384
v 2.495237 0.124599 1.350241
v 2.705231 0.101477 1.300000
v 2.504392 0.137269 1.344955
v 2.691133 0.101477 1.352615
v 2.644955 0.137269 1.395607
v 2.652616 0.101477 1.391133
v 2.695607 0.137269 1.255045
v 2.600000 0.101477 1.405231
v 2.704763 0.124599 1.249759
v 2.547384 0.101477 1.391133
v 2.608872 0.137269 1.405276
v 2.508867 0.101477 1.352616
v 2.608872 0.124599 1.415848
v 2.494769 0.101477 1.300000
v 2.555045 0.137269 1.204392
v 2.508867 0.101477 1.247384
v 2.650241 0.124599 1.404763
v 2.547384 0.101477 1.208867
v 2.715848 0.124599 1.291128
v 2.705276 0.137269 1.291128
v 2.600000 0.101477 1.194769
v 2.660323 0.020291 1.195517
v 2.600000 0.020291 1.179353
v 2.704483 0.020291 1.239676
v 2.720647 0.020291 1.300000
v 2.704483 0.020291 1.360323
v 2.660323 0.020291 1.404483
v 2.600000 0.020291 1.420647
v 2.539676 0.020291 1.404483
v 2.495517 0.020291 1.360323
v 2.479353 0.020291 1.300000
v 2.495517 0.020291 1.239677
v 2.539676 0.020291 1.195517
v 2.652616 0.110893 1.208867
v 2.691133 0.110893 1.247384
v 2.705231 0.110893 1.300000
v 2.691133 0.110893 1.352615
v 2.652616 0.110893 1.391133
v 2.600000 0.110893 1.405231
v 2.547384 0.110893 1.391133
v 2.508867 0.110893 1.352616
v 2.494769 0.110893 1.300000
v 2.508867 0.110893 1.247384
v 2.547384 0.110893 1.208867
v 2.600000 0.110893 1.194769
v 2.642051 0.110893 1.227165
v 2.642051 0.140938 1.227165
v 2.672834 0.110893 1.257949
v 2.672834 0.140938 1.257949
v 2.684102 0.110893 1.300000
v 2.684102 0.140938 1.300000
v 2.672834 0.110893 1.342051
v 2.672834 0.140938 1.342051
v 2.642051 0.110893 1.372834
v 2.642051 0.140938 1.372834
v 2.600000 0.110893 1.384102
v 2.600000 0.140938 1.384102
v 2.557949 0.110893 1.372834
v 2.557949 0.140938 1.372834
v 2.527165 0.110893 1.342051
v 2.527165 0.140938 1.342051
v 2.515898 0.110893 1.300000
v 2.515898 0.140938 1.300000
v 2.527165 0.110893 1.257949
v 2.527165 0.140938 1.257949
v 2.557949 0.110893 1.227166
v 2.557949 0.140938 1.227166
v 2.600000 0.140938 1.215898
v 2.600000 0.110893 1.215898
v 2.591128 0.124599 1.184152
v 2.591128 0.137269 1.194724
v 2.494724 0.137269 1.308872
v 2.484152 0.124599 1.308872
vt 0.488294 0.118044
vt 0.421436 0.118044
vt 0.425755 0.000000
vt 0.492613 0.000000
vt 0.776152 0.261982
vt 0.710268 0.263983
vt 0.697767 0.136381
vt 0.763651 0.134380
vt 0.697767 0.002001
vt 0.763651 0.000000
vt 0.699333 0.716986
vt 0.766228 0.719097
vt 0.766228 0.827680
vt 0.699333 0.825568
vt 0.314785 0.676488
vt 0.247866 0.677655
vt 0.244709 0.542468
vt 0.311628 0.541301
vt 0.244709 0.416765
vt 0.311628 0.415598
vt 0.699333 0.827680
vt 0.766228 0.829791
vt 0.766228 0.938373
vt 0.699333 0.936262
vt 0.627692 0.001167
vt 0.694611 0.000000
vt 0.697767 0.135187
vt 0.630848 0.136354
vt 0.697767 0.260890
vt 0.630848 0.262057
vt 0.694611 0.343427
vt 0.627692 0.344593
vt 0.056462 0.055680
vt 0.154256 0.000000
vt 0.267180 0.000000
vt 0.364974 0.055680
vt 0.421436 0.152120
vt 0.421436 0.263479
vt 0.364974 0.359919
vt 0.267180 0.415598
vt 0.154256 0.415598
vt 0.056462 0.359919
vt 0.000000 0.263479
vt 0.000000 0.152120
vt 0.488294 0.254349
vt 0.421436 0.254349
vt 0.492613 0.372393
vt 0.425755 0.372393
vt 0.995855 0.714652
vt 0.995855 0.849875
vt 0.953605 0.845104
vt 0.953605 0.727159
vt 0.382894 0.436081
vt 0.382894 0.522286
vt 0.522447 0.750634
vt 0.522447 0.859216
vt 0.479874 0.870609
vt 0.479874 0.775901
vt 0.995855 0.985098
vt 0.953605 0.980327
vt 0.953605 0.862382
vt 0.404731 0.867637
vt 0.404731 0.985757
vt 0.361573 0.963486
vt 0.361573 0.860458
vt 0.927865 0.118889
vt 0.927865 0.000000
vt 0.986331 0.018678
vt 0.986331 0.100210
vt 1.000000 0.586402
vt 1.000000 0.714597
vt 0.953605 0.714652
vt 0.953605 0.602837
vt 0.388480 0.851811
vt 0.388479 0.715506
vt 0.421436 0.724214
vt 0.421436 0.843103
vt 0.927865 0.279102
vt 0.957784 0.236098
vt 0.957784 0.307601
vt 0.937266 0.337093
vt 0.559582 0.241574
vt 0.559582 0.155369
vt 0.511956 0.877937
vt 0.511956 0.983810
vt 0.464594 0.962953
vt 0.464594 0.870609
vt 0.421436 0.995907
vt 0.421436 0.877787
vt 0.464594 0.973636
vt 0.559582 0.697203
vt 0.538783 0.697203
vt 0.535015 0.594242
vt 0.555815 0.594242
vt 0.535015 0.475353
vt 0.555815 0.475353
vt 0.418683 0.487589
vt 0.397864 0.487952
vt 0.400617 0.415961
vt 0.421436 0.415598
vt 0.418683 0.597230
vt 0.397864 0.597593
vt 0.421436 0.715143
vt 0.400617 0.715506
vt 0.243912 0.770555
vt 0.223101 0.769898
vt 0.223101 0.675190
vt 0.243912 0.675847
vt 0.555836 0.806836
vt 0.535015 0.806954
vt 0.536341 0.697321
vt 0.557163 0.697203
vt 0.557163 0.924773
vt 0.536342 0.924891
vt 0.223101 0.770555
vt 0.243912 0.771212
vt 0.243912 0.865920
vt 0.223101 0.865263
vt 0.217515 0.792599
vt 0.197012 0.792271
vt 0.202598 0.675190
vt 0.223101 0.675519
vt 0.223101 0.904278
vt 0.202598 0.903950
vt 0.538783 0.372393
vt 0.559582 0.372393
vt 0.606786 0.586469
vt 0.663248 0.682909
vt 0.628692 0.716986
vt 0.559582 0.598942
vt 0.525101 0.406470
vt 0.468639 0.502910
vt 0.421436 0.490437
vt 0.490546 0.372393
vt 0.468639 0.614269
vt 0.421436 0.626742
vt 0.525101 0.710709
vt 0.490546 0.744786
vt 0.719709 0.586469
vt 0.766913 0.598942
vt 0.697803 0.716986
vt 0.719709 0.475110
vt 0.766913 0.462637
vt 0.663248 0.378670
vt 0.697803 0.344593
vt 0.000000 0.753914
vt 0.056462 0.657474
vt 0.103665 0.669947
vt 0.034555 0.787991
vt 0.056462 0.546115
vt 0.103665 0.533642
vt 0.000000 0.449675
vt 0.034555 0.415598
vt 0.606786 0.475110
vt 0.559582 0.462637
vt 0.628692 0.344593
vt 0.860259 0.808251
vt 0.799980 0.911212
vt 0.766913 0.878603
vt 0.815089 0.796315
vt 0.920538 0.911211
vt 0.905429 0.796315
vt 0.953605 0.878603
vt 0.103665 0.778151
vt 0.163945 0.675190
vt 0.197011 0.707799
vt 0.148836 0.790087
vt 0.103665 0.897039
vt 0.148836 0.885104
vt 0.163945 1.000000
vt 0.197012 0.967391
vt 0.799980 0.586402
vt 0.860259 0.689362
vt 0.815089 0.701298
vt 0.766913 0.619011
vt 0.834519 0.102961
vt 0.894798 0.000000
vt 0.927865 0.032609
vt 0.879689 0.114896
vt 0.834519 0.221849
vt 0.879689 0.209913
vt 0.920538 0.586402
vt 0.953605 0.619011
vt 0.905429 0.701298
vt 0.894798 0.324810
vt 0.927865 0.292201
vt 0.241698 0.497886
vt 0.103665 0.497886
vt 0.106676 0.415598
vt 0.244709 0.415598
vt 0.386729 0.860458
vt 0.250642 0.860458
vt 0.244709 0.771286
vt 0.380796 0.771286
vt 0.247633 0.677655
vt 0.383720 0.677655
vt 0.076716 0.787991
vt 0.076716 0.924257
vt 0.000000 0.926679
vt 0.000000 0.790412
vt 0.698273 0.898860
vt 0.560093 0.898861
vt 0.559582 0.804599
vt 0.697763 0.804599
vt 0.561153 0.716986
vt 0.907272 0.483281
vt 0.907272 0.347015
vt 0.983988 0.344593
vt 0.983988 0.480860
vt 0.907272 0.583993
vt 0.769113 0.586402
vt 0.766913 0.492164
vt 0.905072 0.489755
vt 0.766913 0.404537
vt 0.905072 0.402129
vt 0.769113 0.347002
vt 0.907272 0.344593
vt 0.241698 0.592903
vt 0.103665 0.592903
vt 0.244709 0.675190
vt 0.106676 0.675190
vt 0.676105 0.901474
vt 0.676105 0.987679
vt 0.647062 0.974051
vt 0.647062 0.898861
vt 0.618019 0.985065
vt 0.618019 0.898861
vt 0.647062 0.912489
vt 0.647062 0.987679
vt 0.999009 0.483281
vt 0.999009 0.575437
vt 0.967344 0.566716
vt 0.967344 0.486336
vt 0.618019 0.992336
vt 0.588621 0.986364
vt 0.588621 0.904833
vt 0.421436 0.762113
vt 0.450632 0.744786
vt 0.076716 0.833445
vt 0.102626 0.787991
vt 0.102626 0.859979
vt 0.084857 0.891150
vt 0.076716 0.936604
vt 0.102626 0.891150
vt 0.102626 0.963138
vt 0.084857 0.994310
vt 0.303141 0.860458
vt 0.303141 0.970100
vt 0.244709 0.951916
vt 0.244709 0.876726
vt 0.588621 0.997190
vt 0.559582 0.957429
vt 0.568707 0.898861
vt 0.588621 0.926128
vt 0.361573 0.878642
vt 0.361573 0.953832
vt 0.937425 0.585535
vt 0.907272 0.542770
vt 0.916747 0.483281
vt 0.937425 0.512609
vt 0.559582 0.139458
vt 0.559582 0.232934
vt 0.957784 0.280009
vt 0.986683 0.236098
vt 0.986683 0.309218
vt 0.966865 0.339332
vt 0.834519 0.019829
vt 0.834519 0.111985
vt 0.967344 0.584275
vt 0.937425 0.541272
vt 0.946826 0.483281
vt 0.967344 0.512772
vt 0.986097 0.118889
vt 0.986097 0.236098
vt 0.927865 0.218583
vt 0.927865 0.138202
vn 0.258800 0.000000 -0.965900
vn 0.707100 0.000000 -0.707100
vn 0.965900 0.000000 -0.258800
vn 0.965900 0.000000 0.258800
vn 0.707100 0.000000 0.707100
vn 0.258800 0.000000 0.965900
vn -0.258800 0.000000 0.965900
vn -0.707100 0.000000 0.707100
vn -0.965900 0.000000 0.258800
vn -0.965900 0.000000 -0.258800
vn 0.000000 1.000000 0.000000
vn -0.258800 0.000000 -0.965900
vn -0.707100 0.000000 -0.707100
vn 0.678700 -0.280700 0.678700
vn 0.258700 -0.031600 0.965400
vn -0.248400 -0.280700 0.927100
vn -0.678700 -0.280700 0.678700
vn 0.248400 -0.280700 -0.927100
vn -0.258300 -0.065200 -0.963900
vn 0.678700 -0.280700 -0.678700
vn -0.927100 -0.280700 -0.248400
vn -0.105700 -0.163000 -0.980900
vn -0.965400 -0.031600 0.258700
vn 0.927100 -0.280700 0.248400
vn -0.678700 -0.280700 -0.678700
vn 0.153900 0.804000 -0.574300
vn 0.420400 0.804000 -0.420400
vn 0.574300 0.804000 -0.153900
vn 0.574300 0.804000 0.153900
vn 0.420400 0.804000 0.420400
vn 0.153900 0.804000 0.574300
vn -0.153900 0.804000 0.574300
vn -0.420400 0.804000 0.420400
vn -0.574300 0.804000 0.153900
vn -0.574300 0.804000 -0.153900
vn -0.420400 0.804000 -0.420400
vn -0.153900 0.804000 -0.574300
vn 0.000000 -1.000000 -0.000000
vn 0.201500 -0.627600 0.752000
vn -0.752100 -0.627500 0.201500
vn 0.752100 -0.627500 -0.201500
vn -0.201500 -0.627600 -0.752000
vn -0.902400 -0.163000 0.398900
vn 0.105700 -0.163000 0.980900
vn -0.980900 -0.163000 0.105700
vn 0.258300 -0.065200 0.963900
vn 0.398900 -0.163000 0.902400
vn -0.963900 -0.065200 0.258300
vn 0.902400 -0.163000 -0.399000
vn -0.258700 -0.031600 -0.965400
vn 0.980900 -0.163000 -0.105700
vn 0.965400 -0.031600 -0.258700
vn -0.399000 -0.163000 -0.902400
vn 0.963900 -0.065200 -0.258300
vn 0.678700 0.280700 0.678700
vn 0.258700 0.031600 0.965400
vn -0.248400 0.280700 0.927100
vn -0.678700 0.280700 0.678700
vn 0.248400 0.280700 -0.927100
vn -0.258300 0.065200 -0.963900
vn 0.678700 0.280700 -0.678700
vn -0.927100 0.280700 -0.248400
vn -0.105700 0.163000 -0.980900
vn -0.965400 0.031600 0.258700
vn 0.927100 0.280700 0.248400
vn -0.678700 0.280700 -0.678700
vn 0.153900 -0.804000 -0.574300
vn 0.420400 -0.804000 -0.420400
vn 0.574300 -0.804000 -0.153900
vn 0.574300 -0.804000 0.153900
vn 0.420400 -0.804000 0.420400
vn 0.153900 -0.804000 0.574300
vn -0.153900 -0.804000 0.574300
vn -0.420400 -0.804000 0.420400
vn -0.574300 -0.804000 0.153900
vn -0.574300 -0.804000 -0.153900
vn -0.420400 -0.804000 -0.420400
vn -0.153900 -0.804000 -0.574300
vn 0.201500 0.627600 0.752000
vn -0.752100 0.627500 0.201500
vn 0.752100 0.627500 -0.201500
vn -0.201500 0.627600 -0.752000
vn -0.902400 0.163000 0.399000
vn 0.105700 0.163000 0.980900
vn -0.980900 0.163000 0.105700
vn 0.258300 0.065200 0.963900
vn 0.398900 0.163000 0.902400
vn -0.963900 0.065200 0.258300
vn 0.902400 0.163000 -0.399000
vn -0.258700 0.031600 -0.965400
vn 0.980900 0.163000 -0.105700
vn 0.965400 0.031600 -0.258700
vn -0.399000 0.163100 -0.902400
vn 0.963900 0.065200 -0.258300
usemtl None
s off
f 13/1/1 50/2/1 49/3/1 14/4/1
f 14/5/2 49/6/2 51/7/2 15/8/2
f 15/8/3 51/7/3 52/9/3 16/10/3
f 16/11/4 52/12/4 53/13/4 17/14/4
f 17/15/5 53/16/5 54/17/5 18/18/5
f 18/18/6 54/17/6 55/19/6 19/20/6
f 19/21/7 55/22/7 56/23/7 20/24/7
f 20/25/8 56/26/8 57/27/8 21/28/8
f 21/28/9 57/27/9 58/29/9 22/30/9
f 22/30/10 58/29/10 59/31/10 23/32/10
f 2/33/11 1/34/11 12/35/11 11/36/11 10/37/11 9/38/11 8/39/11 7/40/11 6/41/11 5/42/11 4/43/11 3/44/11
f 24/45/12 60/46/12 50/2/12 13/1/12
f 23/47/13 59/48/13 60/46/13 24/45/13
f 17/49/14 18/50/14 33/51/14 31/52/14
f 18/18/15 19/20/15 40/53/15 44/54/15
f 19/55/16 20/56/16 37/57/16 35/58/16
f 20/50/17 21/59/17 39/60/17 37/61/17
f 13/62/18 14/63/18 25/64/18 48/65/18
f 35/66/19 33/67/19 32/68/19 38/69/19
f 14/70/20 15/71/20 27/72/20 25/73/20
f 22/74/21 23/75/21 43/76/21 41/77/21
f 27/78/22 15/79/22 36/80/22 34/81/22
f 21/28/23 22/30/23 88/82/23 28/83/23
f 16/84/24 17/85/24 31/86/24 29/87/24
f 23/88/25 24/89/25 45/87/25 43/90/25
f 70/91/13 43/92/13 45/93/13 71/94/13
f 71/94/12 45/93/12 48/95/12 72/96/12
f 69/97/10 41/98/10 43/99/10 70/100/10
f 68/101/9 39/102/9 41/98/9 69/97/9
f 67/103/8 37/104/8 39/102/8 68/101/8
f 66/105/7 35/106/7 37/107/7 67/108/7
f 65/109/6 33/110/6 35/111/6 66/112/6
f 64/113/5 31/114/5 33/110/5 65/109/5
f 63/115/4 29/116/4 31/117/4 64/118/4
f 62/119/3 27/120/3 29/121/3 63/122/3
f 61/123/2 25/124/2 27/120/2 62/119/2
f 72/96/1 48/95/1 25/125/1 61/126/1
f 1/127/26 2/128/26 49/129/26 50/130/26
f 2/131/27 3/132/27 51/133/27 49/134/27
f 3/132/28 4/135/28 52/136/28 51/133/28
f 4/135/29 5/137/29 53/138/29 52/136/29
f 5/128/30 6/139/30 54/140/30 53/141/30
f 6/139/31 7/142/31 55/143/31 54/140/31
f 7/142/32 8/144/32 56/145/32 55/143/32
f 8/146/33 9/147/33 57/148/33 56/149/33
f 9/147/34 10/150/34 58/151/34 57/148/34
f 10/150/35 11/152/35 59/153/35 58/151/35
f 11/144/36 12/154/36 60/155/36 59/156/36
f 12/154/37 1/127/37 50/130/37 60/155/37
f 72/157/38 61/158/38 73/159/38 84/160/38
f 67/161/38 68/157/38 80/162/38 79/163/38
f 66/164/38 67/165/38 79/166/38 78/167/38
f 65/168/38 66/164/38 78/167/38 77/169/38
f 64/170/38 65/168/38 77/169/38 76/171/38
f 70/172/38 71/173/38 83/174/38 82/175/38
f 63/176/38 64/177/38 76/178/38 75/179/38
f 71/173/38 72/157/38 84/160/38 83/174/38
f 62/180/38 63/176/38 75/179/38 74/181/38
f 69/173/38 70/182/38 82/183/38 81/184/38
f 61/185/38 62/180/38 74/181/38 73/186/38
f 68/157/38 69/173/38 81/184/38 80/162/38
f 183/187/1 84/188/1 73/189/1 162/190/1
f 162/191/2 73/192/2 74/193/2 164/194/2
f 164/194/3 74/193/3 75/195/3 166/196/3
f 166/197/4 75/198/4 76/199/4 168/200/4
f 168/201/5 76/202/5 77/203/5 170/204/5
f 170/204/6 77/203/6 78/205/6 172/11/6
f 172/206/7 78/207/7 79/208/7 174/209/7
f 174/210/8 79/211/8 80/212/8 176/213/8
f 176/213/9 80/212/9 81/214/9 178/215/9
f 178/215/10 81/214/10 82/216/10 180/217/10
f 182/218/12 83/219/12 84/188/12 183/187/12
f 180/220/13 82/221/13 83/219/13 182/218/13
f 44/222/39 40/223/39 38/224/39 32/225/39
f 28/226/40 88/227/40 87/228/40 30/229/40
f 36/230/41 46/231/41 47/232/41 34/233/41
f 26/227/42 85/234/42 86/235/42 42/236/42
f 19/55/43 35/58/43 38/237/43 40/238/43
f 39/239/44 21/240/44 28/241/44 30/242/44
f 45/243/45 24/244/45 26/245/45 42/246/45
f 48/247/46 45/248/46 42/249/46 86/250/46
f 16/251/47 29/252/47 47/253/47 46/254/47
f 29/248/48 27/247/48 34/255/48 47/256/48
f 13/257/49 48/258/49 86/259/49 85/260/49
f 24/45/50 13/1/50 85/261/50 26/262/50
f 33/263/51 18/264/51 44/265/51 32/266/51
f 15/8/52 16/10/52 46/267/52 36/268/52
f 22/269/53 41/270/53 87/271/53 88/272/53
f 41/273/54 39/274/54 30/275/54 87/276/54
f 101/1/1 102/4/1 137/3/1 138/2/1
f 102/5/2 103/8/2 139/7/2 137/6/2
f 103/8/3 104/10/3 140/9/3 139/7/3
f 104/11/4 105/14/4 141/13/4 140/12/4
f 105/15/5 106/18/5 142/17/5 141/16/5
f 106/18/6 107/20/6 143/19/6 142/17/6
f 107/21/7 108/24/7 144/23/7 143/22/7
f 108/25/8 109/28/8 145/27/8 144/26/8
f 109/28/9 110/30/9 146/29/9 145/27/9
f 110/30/10 111/32/10 147/31/10 146/29/10
f 90/33/38 91/44/38 92/43/38 93/42/38 94/41/38 95/40/38 96/39/38 97/38/38 98/37/38 99/36/38 100/35/38 89/34/38
f 112/45/12 101/1/12 138/2/12 148/46/12
f 111/47/13 112/45/13 148/46/13 147/48/13
f 105/49/55 119/52/55 121/51/55 106/50/55
f 106/18/56 132/54/56 128/53/56 107/20/56
f 107/55/57 123/58/57 125/57/57 108/56/57
f 108/50/58 125/61/58 127/60/58 109/59/58
f 101/62/59 136/65/59 113/64/59 102/63/59
f 123/66/60 126/69/60 120/68/60 121/67/60
f 102/70/61 113/73/61 115/72/61 103/71/61
f 110/74/62 129/77/62 131/76/62 111/75/62
f 115/78/63 122/81/63 124/80/63 103/79/63
f 109/28/64 116/83/64 188/82/64 110/30/64
f 104/84/65 117/87/65 119/86/65 105/85/65
f 111/88/66 131/90/66 133/87/66 112/89/66
f 158/91/13 159/94/13 133/93/13 131/92/13
f 159/94/12 160/96/12 136/95/12 133/93/12
f 157/97/10 158/100/10 131/99/10 129/98/10
f 156/101/9 157/97/9 129/98/9 127/102/9
f 155/103/8 156/101/8 127/102/8 125/104/8
f 154/105/7 155/108/7 125/107/7 123/106/7
f 153/109/6 154/112/6 123/111/6 121/110/6
f 152/113/5 153/109/5 121/110/5 119/114/5
f 151/115/4 152/118/4 119/117/4 117/116/4
f 150/119/3 151/122/3 117/121/3 115/120/3
f 149/123/2 150/119/2 115/120/2 113/124/2
f 160/96/1 149/126/1 113/125/1 136/95/1
f 89/127/67 138/130/67 137/129/67 90/128/67
f 90/131/68 137/134/68 139/133/68 91/132/68
f 91/132/69 139/133/69 140/136/69 92/135/69
f 92/135/70 140/136/70 141/138/70 93/137/70
f 93/128/71 141/141/71 142/140/71 94/139/71
f 94/139/72 142/140/72 143/143/72 95/142/72
f 95/142/73 143/143/73 144/145/73 96/144/73
f 96/146/74 144/149/74 145/148/74 97/147/74
f 97/147/75 145/148/75 146/151/75 98/150/75
f 98/150/76 146/151/76 147/153/76 99/152/76
f 99/144/77 147/156/77 148/155/77 100/154/77
f 100/154/78 148/155/78 138/130/78 89/127/78
f 160/157/11 184/160/11 161/159/11 149/158/11
f 155/161/11 173/163/11 175/162/11 156/157/11
f 154/164/11 171/167/11 173/166/11 155/165/11
f 153/168/11 169/169/11 171/167/11 154/164/11
f 152/170/11 167/171/11 169/169/11 153/168/11
f 158/172/11 179/175/11 181/174/11 159/173/11
f 151/176/11 165/179/11 167/178/11 152/177/11
f 159/173/11 181/174/11 184/160/11 160/157/11
f 150/180/11 163/181/11 165/179/11 151/176/11
f 157/173/11 177/184/11 179/183/11 158/182/11
f 149/185/11 161/186/11 163/181/11 150/180/11
f 156/157/11 175/162/11 177/184/11 157/173/11
f 183/187/1 162/190/1 161/189/1 184/188/1
f 162/191/2 164/194/2 163/193/2 161/192/2
f 164/194/3 166/196/3 165/195/3 163/193/3
f 166/197/4 168/200/4 167/199/4 165/198/4
f 168/201/5 170/204/5 169/203/5 167/202/5
f 170/204/6 172/11/6 171/205/6 169/203/6
f 172/206/7 174/209/7 173/208/7 171/207/7
f 174/210/8 176/213/8 175/212/8 173/211/8
f 176/213/9 178/215/9 177/214/9 175/212/9
f 178/215/10 180/217/10 179/216/10 177/214/10
f 182/218/12 183/187/12 184/188/12 181/219/12
f 180/220/13 182/218/13 181/219/13 179/221/13
f 132/222/79 120/225/79 126/224/79 128/223/79
f 116/226/80 118/229/80 187/228/80 188/227/80
f 124/230/81 122/233/81 135/232/81 134/231/81
f 114/227/82 130/236/82 186/235/82 185/234/82
f 107/55/83 128/238/83 126/237/83 123/58/83
f 127/239/84 118/242/84 116/241/84 109/240/84
f 133/243/85 130/246/85 114/245/85 112/244/85
f 136/247/86 186/250/86 130/249/86 133/248/86
f 104/251/87 134/254/87 135/253/87 117/252/87
f 117/248/88 135/256/88 122/255/88 115/247/88
f 101/257/89 185/260/89 186/259/89 136/258/89
f 112/45/90 114/262/90 185/261/90 101/1/90
f 121/263/91 120/266/91 132/265/91 106/264/91
f 103/8/92 124/268/92 134/267/92 104/10/92
f 110/269/93 188/272/93 187/271/93 129/270/93
f 129/273/94 187/276/94 118/275/94 127/274/94
