# Blender v2.75 (sub 0) OBJ File: 'Asset_Master_Hangar_Kit.blend'
# www.blender.org
mtllib asset_heater_B_low.mtl
o Cube.035_Cube.184
v 1.875000 0.025534 0.094466
v 1.875000 0.025534 -0.094466
v 1.875000 0.214466 -0.094466
v 1.875000 0.027613 0.094466
v 1.875000 0.214466 -0.092387
v 1.875000 0.245000 -0.125000
v 1.875000 -0.005000 -0.125000
v 1.875000 -0.005000 0.125000
v 1.889617 0.234664 -0.069404
v 1.889617 0.050596 0.114664
v 1.898669 0.214466 -0.094466
v 1.898669 0.025534 -0.094466
v 1.898669 0.025534 0.094466
v 1.898669 0.214466 -0.092387
v 1.898669 0.027613 0.094466
v 1.875000 0.245000 -0.079740
v 1.875000 0.040260 0.125000
v 1.904441 0.225896 -0.028735
v 1.904441 0.091265 0.105896
v 2.125000 0.025534 0.094466
v 2.125000 0.025534 -0.094466
v 2.125000 0.214466 -0.094466
v 2.000000 0.245000 -0.125000
v 2.000000 -0.005000 -0.125000
v 2.000000 -0.005000 0.125000
v 2.125000 0.027613 0.094466
v 2.125000 0.214466 -0.092387
v 2.000000 0.245000 -0.079740
v 2.000000 0.040260 0.125000
v 2.125000 0.245000 -0.125000
v 2.125000 -0.005000 -0.125000
v 2.125000 -0.005000 0.125000
v 2.110383 0.234664 -0.069404
v 2.110383 0.050596 0.114664
v 2.101331 0.214466 -0.094466
v 2.101331 0.025534 -0.094466
v 2.101331 0.025534 0.094466
v 2.101331 0.214466 -0.092387
v 2.101331 0.027613 0.094466
v 2.000000 0.050596 0.114664
v 2.000000 0.234664 -0.069404
v 2.125000 0.245000 -0.079740
v 2.125000 0.040260 0.125000
v 2.000000 0.091265 0.105896
v 2.000000 0.225896 -0.028735
v 2.095559 0.225896 -0.028735
v 2.095559 0.091265 0.105896
vt 0.461948 0.765316
vt 0.545371 0.765316
vt 0.545371 1.000000
vt 0.461948 1.000000
vt 0.923896 0.558052
vt 0.923896 0.207240
vt 0.967631 0.207240
vt 0.967631 0.558052
vt 0.923896 0.469368
vt 0.923896 0.938735
vt 0.692922 0.938735
vt 0.692922 0.469368
vt 0.692922 0.000000
vt 0.923896 0.000000
vt 0.349107 0.958094
vt 0.349107 0.469368
vt 0.390789 0.534998
vt 0.390789 0.892463
vt 0.461948 0.410572
vt 0.692922 0.410572
vt 0.692922 0.495335
vt 0.461948 0.495335
vt 0.405528 0.057327
vt 0.056420 0.057327
vt 0.000000 0.000000
vt 0.461948 0.000000
vt 0.405528 0.412041
vt 0.461948 0.469368
vt 0.056420 0.061229
vt 0.401687 0.412041
vt 0.378317 0.469368
vt 0.000000 0.084975
vt 0.345266 0.824082
vt 0.000000 0.473271
vt 0.000000 0.469368
vt 0.349107 0.824082
vt 0.682257 0.495335
vt 0.682257 0.849164
vt 0.638522 0.849164
vt 0.638522 0.495335
vt 0.438365 0.513805
vt 0.434524 0.513805
vt 0.434524 0.469368
vt 0.438365 0.469368
vt 0.434524 0.823197
vt 0.390789 0.823197
vt 0.390789 0.469368
vt 0.442206 0.469368
vt 0.442206 0.513805
vt 0.638522 0.765316
vt 0.665912 0.020727
vt 0.461948 0.020727
vt 0.665912 0.389845
vt 0.461948 0.389845
vt 1.000000 0.000000
vt 1.000000 0.207240
vt 0.923896 0.027830
vt 0.545371 0.972556
vt 0.621475 0.793146
vt 0.621475 0.972556
vn 0.000000 1.000000 0.000000
vn 0.000000 -0.707100 -0.707100
vn 0.000000 -1.000000 0.000000
vn 0.000000 0.000000 -1.000000
vn -0.835700 0.388300 0.388300
vn 0.000000 0.000000 1.000000
vn -1.000000 0.000000 0.000000
vn 0.000000 0.707100 0.707100
vn 0.000000 0.210700 0.977500
vn 0.000000 0.977500 0.210700
vn 0.835700 0.388300 0.388300
vn 1.000000 0.000000 0.000000
usemtl None
s off
f 28/1/1 23/2/1 6/3/1 16/4/1
f 4/5/2 5/6/2 14/7/2 15/8/2
f 8/9/3 7/10/3 24/11/3 25/12/3
f 6/13/4 23/14/4 24/9/4 7/12/4
f 9/15/5 10/16/5 19/17/5 18/18/5
f 29/19/6 17/20/6 8/21/6 25/22/6
f 2/23/7 3/24/7 6/25/7 7/26/7
f 1/27/7 2/23/7 7/26/7 8/28/7
f 5/29/7 4/30/7 17/31/7 16/32/7
f 4/30/7 1/27/7 8/28/7 17/31/7
f 3/24/7 5/29/7 16/32/7 6/25/7
f 15/33/7 14/34/7 11/35/7 12/16/7 13/36/7
f 3/37/6 2/38/6 12/39/6 11/40/6
f 1/41/4 4/42/4 15/43/4 13/44/4
f 2/43/1 1/45/1 13/46/1 12/47/1
f 5/44/3 3/48/3 11/49/3 14/41/3
f 45/22/8 18/40/8 19/50/8 44/1/8
f 9/51/8 41/52/8 28/26/8 16/13/8
f 10/53/8 9/51/8 16/13/8 17/20/8
f 40/54/8 10/53/8 17/20/8 29/19/8
f 10/55/9 40/56/9 44/6/9 19/57/9
f 41/58/10 9/2/10 18/59/10 45/60/10
f 28/1/1 42/4/1 30/3/1 23/2/1
f 26/5/2 39/8/2 38/7/2 27/6/2
f 32/9/3 25/12/3 24/11/3 31/10/3
f 30/13/4 31/12/4 24/9/4 23/14/4
f 33/15/11 46/18/11 47/17/11 34/16/11
f 29/19/6 25/22/6 32/21/6 43/20/6
f 21/23/12 31/26/12 30/25/12 22/24/12
f 20/27/12 32/28/12 31/26/12 21/23/12
f 27/29/12 42/32/12 43/31/12 26/30/12
f 26/30/12 43/31/12 32/28/12 20/27/12
f 22/24/12 30/25/12 42/32/12 27/29/12
f 39/33/12 37/36/12 36/16/12 35/35/12 38/34/12
f 22/37/6 35/40/6 36/39/6 21/38/6
f 20/41/4 37/44/4 39/43/4 26/42/4
f 21/43/1 36/47/1 37/46/1 20/45/1
f 27/44/3 38/41/3 35/49/3 22/48/3
f 45/22/8 44/1/8 47/50/8 46/40/8
f 33/51/8 42/13/8 28/26/8 41/52/8
f 34/53/8 43/20/8 42/13/8 33/51/8
f 40/54/8 29/19/8 43/20/8 34/53/8
f 34/55/9 47/57/9 44/6/9 40/56/9
f 41/58/10 45/60/10 46/59/10 33/2/10
