# Blender v2.78 (sub 0) OBJ File: 'Asset_Master_Hangar_Kit.blend'
# www.blender.org
mtllib wall_pillar_sall_A.mtl
o struc_asset_pillar_A_Plane
v 0.000000 0.000000 0.000000
v 0.000000 0.000000 -0.836377
v 0.000000 2.230948 -0.746642
v 0.000000 1.280287 -0.836377
v 0.000000 0.723402 -0.836377
v 0.000000 1.392859 -0.294110
v 0.000000 1.392859 -0.746642
v 0.000000 0.705819 -0.221296
v 0.000000 0.705819 -0.836377
v 0.000000 0.297040 -0.221296
v 0.000000 0.297040 -0.836377
v 0.000000 1.303125 -0.221296
v 0.000000 1.303125 -0.836377
v 0.000000 2.320683 -0.836377
v 0.062408 1.392859 -0.294110
v 0.062408 1.392859 -0.746642
v 0.062408 2.230948 -0.746642
v 0.000000 2.230948 -0.407441
v 0.000000 1.947430 -0.177385
v 0.000000 2.192964 -0.270570
v 0.000000 2.089189 -0.186364
v 0.000000 2.320683 -0.296853
v 0.000000 2.037164 -0.066797
v 0.000000 2.282699 -0.159982
v 0.000000 2.178924 -0.075776
v 0.062408 1.947430 -0.177385
v 0.062408 2.230948 -0.407441
v 0.062408 2.089189 -0.186364
v 0.062408 2.192964 -0.270570
v 0.091813 0.689976 -0.221296
v 0.075970 0.705819 -0.836377
v 0.075970 1.241038 -0.348037
v 0.075970 0.000000 -0.836377
v 0.075970 2.320683 -0.836377
v 0.075970 1.303125 -0.836377
v 0.075970 1.303125 -0.221296
v 0.075970 0.762651 -0.348037
v 0.075970 0.723402 -0.836377
v 0.075970 0.000000 0.000000
v 0.075970 1.280287 -0.836377
v 0.075970 2.320683 -0.296853
v 0.075970 0.297040 -0.836377
v 0.091813 0.312883 -0.221296
v 0.075970 2.282699 -0.159982
v 0.075970 2.178924 -0.075776
v 0.075970 2.037164 -0.066797
v 0.080453 1.335951 -0.162320
v 0.080453 1.983349 -0.026057
v 0.000000 1.244648 -0.392950
v 0.044914 1.241038 -0.348037
v 0.000000 1.260796 -0.307703
v 0.044914 0.762651 -0.348037
v 0.000000 0.759041 -0.392950
v 0.000000 0.744215 -0.306923
v 0.075970 0.705819 -0.221296
v 0.075970 0.297040 -0.221296
v 0.091813 0.689976 -0.243116
v 0.091813 0.312883 -0.243116
v 0.075970 0.000000 0.105601
v 0.075970 0.297040 -0.115695
v 0.151940 1.241038 -0.348037
v 0.303879 0.000000 0.000000
v 0.151940 2.320683 -0.836377
v 0.303879 0.000000 -0.836377
v 0.303879 2.230948 -0.746642
v 0.303879 1.280287 -0.836377
v 0.303879 0.723402 -0.836377
v 0.303879 1.392859 -0.294110
v 0.303879 1.392859 -0.746642
v 0.303879 0.705819 -0.221296
v 0.303879 0.705819 -0.836377
v 0.303879 0.297040 -0.221296
v 0.303879 0.297040 -0.836377
v 0.303879 1.303125 -0.221296
v 0.151940 0.000000 0.000000
v 0.303879 1.303125 -0.836377
v 0.303879 2.320683 -0.836377
v 0.241472 1.392859 -0.294110
v 0.151940 0.000000 -0.836377
v 0.241472 1.392859 -0.746642
v 0.241472 2.230948 -0.746642
v 0.303879 2.230948 -0.407441
v 0.303879 1.947430 -0.177385
v 0.303879 2.192964 -0.270570
v 0.303879 2.089189 -0.186364
v 0.303879 2.320683 -0.296853
v 0.303879 2.037164 -0.066797
v 0.303879 2.282699 -0.159982
v 0.303879 2.178924 -0.075776
v 0.241472 1.947430 -0.177385
v 0.241472 2.230948 -0.407441
v 0.241472 2.089189 -0.186364
v 0.241472 2.192964 -0.270570
v 0.151940 1.280287 -0.836377
v 0.151940 0.723402 -0.836377
v 0.151940 0.762651 -0.348037
v 0.151940 1.303125 -0.221296
v 0.151940 1.303125 -0.836377
v 0.151940 0.705819 -0.836377
v 0.151940 0.705819 -0.221296
v 0.151940 0.297040 -0.836377
v 0.151940 0.297040 -0.221296
v 0.151940 2.320683 -0.296853
v 0.151940 2.282699 -0.159982
v 0.151940 2.178924 -0.075776
v 0.151940 2.037164 -0.066797
v 0.212066 0.689976 -0.221296
v 0.227909 0.705819 -0.836377
v 0.227909 1.241038 -0.348037
v 0.227909 0.000000 -0.836377
v 0.227909 2.320683 -0.836377
v 0.227909 1.303125 -0.836377
v 0.227909 1.303125 -0.221296
v 0.227909 0.762651 -0.348037
v 0.227909 0.723402 -0.836377
v 0.227909 0.000000 0.000000
v 0.227909 1.280287 -0.836377
v 0.227909 2.320683 -0.296853
v 0.227909 0.297040 -0.836377
v 0.212066 0.312883 -0.221296
v 0.227909 2.282699 -0.159982
v 0.227909 2.178924 -0.075776
v 0.227909 2.037164 -0.066797
v 0.223426 1.335951 -0.162320
v 0.151940 1.335951 -0.162320
v 0.223426 1.983349 -0.026057
v 0.151940 1.983349 -0.026057
v 0.303879 1.244648 -0.392950
v 0.258966 1.241038 -0.348037
v 0.303879 1.260796 -0.307703
v 0.258966 0.762651 -0.348037
v 0.303879 0.759041 -0.392950
v 0.303879 0.744215 -0.306923
v 0.227909 0.705819 -0.221296
v 0.227909 0.297040 -0.221296
v 0.151940 0.689976 -0.221296
v 0.151940 0.689976 -0.243116
v 0.151940 0.312883 -0.221296
v 0.151940 0.312883 -0.243116
v 0.212066 0.689976 -0.243116
v 0.212066 0.312883 -0.243116
v 0.227909 0.000000 0.105601
v 0.151940 0.000000 0.105601
v 0.227909 0.297040 -0.115695
v 0.151940 0.297040 -0.115695
vt 0.7886 0.3833
vt 0.7886 0.4177
vt 0.5447 0.4177
vt 0.5447 0.3833
vt 0.9424 0.9325
vt 0.9424 0.5536
vt 0.9706 0.5536
vt 0.9706 0.9325
vt 0.5924 0.3138
vt 0.5924 0.2795
vt 0.9706 0.2795
vt 0.9706 0.3138
vt 0.6791 0.4981
vt 0.7134 0.4981
vt 0.7134 0.9582
vt 0.6791 0.9582
vt 0.2360 0.8780
vt 0.2017 0.8780
vt 0.2017 0.5388
vt 0.2360 0.5388
vt 0.1737 0.9588
vt 0.1394 0.9588
vt 0.1394 0.7914
vt 0.1737 0.7914
vt 0.3286 0.8661
vt 0.3286 0.8801
vt 0.3082 0.9004
vt 0.2658 0.9004
vt 0.2658 0.8661
vt 0.8647 0.4877
vt 0.8990 0.4877
vt 0.8990 0.7395
vt 0.8647 0.7395
vt 0.4663 0.0004
vt 0.5048 0.0077
vt 0.5439 0.0268
vt 0.2658 0.0268
vt 0.2658 0.0165
vt 0.7486 0.4957
vt 0.7142 0.4957
vt 0.7142 0.4877
vt 0.7486 0.4877
vt 0.2009 0.5549
vt 0.2009 0.7745
vt 0.0004 0.7906
vt 0.0004 0.5388
vt 0.1725 0.2419
vt 0.0004 0.0520
vt 0.0083 0.0004
vt 0.2361 0.2517
vt 0.6791 0.4877
vt 0.7134 0.4877
vt 0.7894 0.3847
vt 0.7894 0.3503
vt 0.8329 0.3503
vt 0.8532 0.3706
vt 0.8532 0.3847
vt 0.7486 0.6805
vt 0.7142 0.6805
vt 0.3658 0.6966
vt 0.3658 0.5118
vt 0.6440 0.5118
vt 0.6440 0.6966
vt 0.4045 0.4944
vt 0.4434 0.4877
vt 0.6440 0.5038
vt 0.2658 0.8310
vt 0.6440 0.8310
vt 0.7486 0.8148
vt 0.7142 0.8148
vt 0.1042 0.9762
vt 0.0699 0.9762
vt 0.0699 0.7914
vt 0.1042 0.7914
vt 0.9996 0.7246
vt 0.9996 0.8780
vt 0.9714 0.8780
vt 0.9714 0.7246
vt 0.3063 0.0674
vt 0.3063 0.4464
vt 0.2658 0.4870
vt 0.9996 0.2795
vt 0.9996 0.5357
vt 0.9714 0.5357
vt 0.9714 0.2795
vt 0.5110 0.0674
vt 0.0149 0.4825
vt 0.1474 0.4051
vt 0.2110 0.4149
vt 0.0004 0.5380
vt 0.5868 0.0004
vt 0.8431 0.0004
vt 0.9050 0.0176
vt 0.9430 0.0645
vt 0.9471 0.1286
vt 0.9155 0.2787
vt 0.5447 0.2006
vt 0.9424 0.3489
vt 0.9706 0.3489
vt 0.0347 0.9802
vt 0.0004 0.9802
vt 0.0004 0.9160
vt 0.0347 0.9160
vt 0.0004 0.8556
vt 0.0347 0.8556
vt 0.0004 0.7914
vt 0.0347 0.7914
vt 0.1921 0.3590
vt 0.2558 0.3688
vt 0.2013 0.2993
vt 0.2650 0.3091
vt 0.9996 0.6000
vt 0.9714 0.6000
vt 0.9996 0.6604
vt 0.9714 0.6604
vt 0.0691 0.8556
vt 0.0691 0.7914
vt 0.0691 0.9160
vt 0.0691 0.9802
vt 0.9093 0.8466
vt 0.9093 0.6761
vt 0.9192 0.6761
vt 0.9192 0.8466
vt 0.7829 0.8148
vt 0.7829 0.6805
vt 0.3286 0.8317
vt 0.2658 0.8317
vt 0.7829 0.4957
vt 0.6447 0.4877
vt 0.6447 0.4981
vt 0.9075 0.9583
vt 0.8731 0.9583
vt 0.8731 0.7420
vt 0.9075 0.7420
vt 0.7829 0.4877
vt 0.8303 0.4877
vt 0.8303 0.7395
vt 0.7894 0.4190
vt 0.8532 0.4190
vt 0.5924 0.3482
vt 0.5447 0.3482
vt 0.5447 0.3138
vt 0.7837 0.8514
vt 0.7837 0.5122
vt 0.8068 0.5322
vt 0.8068 0.8313
vt 0.6447 0.9582
vt 0.9706 0.3482
vt 0.7886 0.3489
vt 0.5447 0.3489
vt 0.8079 0.8758
vt 0.8296 0.8543
vt 0.9416 0.3489
vt 0.9416 0.6481
vt 0.9093 0.6481
vt 0.9093 0.3489
vt 0.8079 0.4877
vt 0.8296 0.5092
vt 0.8721 0.3489
vt 0.3476 0.9017
vt 0.8591 0.7420
vt 0.8591 0.9583
vt 0.8303 0.9599
vt 0.8303 0.7403
vt 0.1114 0.9690
vt 0.1386 0.9690
vt 0.1386 0.9762
vt 0.1386 0.7985
vt 0.1114 0.7985
vt 0.1386 0.7914
vt 0.2640 0.7093
vt 0.2368 0.7093
vt 0.2368 0.5388
vt 0.2640 0.5388
vt 0.9093 0.6489
vt 0.9192 0.6489
vt 0.9093 0.8738
vt 0.9192 0.8738
vt 0.9822 0.1679
vt 0.9479 0.1679
vt 0.9479 0.0004
vt 0.9822 0.0004
vt 0.7407 0.4567
vt 0.5732 0.4567
vt 0.5447 0.4184
vt 0.7122 0.4184
vt 0.9822 0.2156
vt 0.9479 0.2156
vt 0.7886 0.3833
vt 0.5447 0.3833
vt 0.5447 0.4177
vt 0.7886 0.4177
vt 0.9424 0.9325
vt 0.9706 0.9325
vt 0.9706 0.5536
vt 0.9424 0.5536
vt 0.5924 0.3138
vt 0.9706 0.3138
vt 0.9706 0.2795
vt 0.5924 0.2795
vt 0.6791 0.4981
vt 0.6791 0.9582
vt 0.7134 0.9582
vt 0.7134 0.4981
vt 0.2360 0.8780
vt 0.2360 0.5388
vt 0.2017 0.5388
vt 0.2017 0.8780
vt 0.1737 0.9588
vt 0.1737 0.7914
vt 0.1394 0.7914
vt 0.1394 0.9588
vt 0.3286 0.8661
vt 0.2658 0.8661
vt 0.2658 0.9004
vt 0.3082 0.9004
vt 0.3286 0.8801
vt 0.8647 0.4877
vt 0.8647 0.7395
vt 0.8990 0.7395
vt 0.8990 0.4877
vt 0.4663 0.0004
vt 0.2658 0.0165
vt 0.2658 0.0268
vt 0.5439 0.0268
vt 0.5048 0.0077
vt 0.7486 0.4957
vt 0.7486 0.4877
vt 0.7142 0.4877
vt 0.7142 0.4957
vt 0.2009 0.5549
vt 0.0004 0.5388
vt 0.0004 0.7906
vt 0.2009 0.7745
vt 0.1725 0.2419
vt 0.2361 0.2517
vt 0.0083 0.0004
vt 0.0004 0.0520
vt 0.6791 0.4877
vt 0.7134 0.4877
vt 0.7894 0.3847
vt 0.8532 0.3847
vt 0.8532 0.3706
vt 0.8329 0.3503
vt 0.7894 0.3503
vt 0.7486 0.6805
vt 0.7142 0.6805
vt 0.3658 0.6966
vt 0.6440 0.6966
vt 0.6440 0.5118
vt 0.3658 0.5118
vt 0.6440 0.5038
vt 0.4434 0.4877
vt 0.4045 0.4944
vt 0.2658 0.8310
vt 0.6440 0.8310
vt 0.7486 0.8148
vt 0.7142 0.8148
vt 0.1042 0.9762
vt 0.1042 0.7914
vt 0.0699 0.7914
vt 0.0699 0.9762
vt 0.9996 0.7246
vt 0.9714 0.7246
vt 0.9714 0.8780
vt 0.9996 0.8780
vt 0.3063 0.0674
vt 0.2658 0.4870
vt 0.3063 0.4464
vt 0.9996 0.2795
vt 0.9714 0.2795
vt 0.9714 0.5357
vt 0.9996 0.5357
vt 0.5110 0.0674
vt 0.0149 0.4825
vt 0.0004 0.5380
vt 0.2110 0.4149
vt 0.1474 0.4051
vt 0.5868 0.0004
vt 0.5447 0.2006
vt 0.9155 0.2787
vt 0.9471 0.1286
vt 0.9430 0.0645
vt 0.9050 0.0176
vt 0.8431 0.0004
vt 0.9706 0.3489
vt 0.9424 0.3489
vt 0.0347 0.9802
vt 0.0347 0.9160
vt 0.0004 0.9160
vt 0.0004 0.9802
vt 0.0347 0.8556
vt 0.0004 0.8556
vt 0.0347 0.7914
vt 0.0004 0.7914
vt 0.2558 0.3688
vt 0.1921 0.3590
vt 0.2650 0.3091
vt 0.2013 0.2993
vt 0.9714 0.6000
vt 0.9996 0.6000
vt 0.9714 0.6604
vt 0.9996 0.6604
vt 0.9093 0.8466
vt 0.9192 0.8466
vt 0.9192 0.6761
vt 0.9093 0.6761
vt 0.8731 0.7420
vt 0.8731 0.9583
vt 0.5447 0.3138
vt 0.7837 0.8514
vt 0.8068 0.8313
vt 0.8068 0.5322
vt 0.7837 0.5122
vt 0.9093 0.3489
vt 0.9093 0.6481
vt 0.8721 0.3489
vt 0.3476 0.9017
vt 0.8591 0.7420
vt 0.8303 0.7403
vt 0.8303 0.9599
vt 0.8591 0.9583
vt 0.1114 0.9690
vt 0.1114 0.7985
vt 0.2368 0.5388
vt 0.2368 0.7093
vt 0.9479 0.0004
vt 0.9479 0.1679
vt 0.7407 0.4567
vt 0.7122 0.4184
vt 0.5447 0.4184
vt 0.5732 0.4567
vt 0.9479 0.2156
vn 0.0000 1.0000 0.0000
vn 0.0000 0.0000 1.0000
vn 0.0000 -1.0000 0.0000
vn 0.0000 0.0000 -1.0000
vn 0.0000 -0.2060 0.9786
vn 0.0000 0.5974 0.8019
vn 0.0000 0.9125 0.4092
vn -1.0000 0.0000 0.0000
vn 0.0000 -0.8980 0.4399
vn 0.0000 0.2060 -0.9786
vn 0.0000 0.9636 0.2674
vn 0.0000 0.6301 0.7765
vn 0.0000 0.0632 0.9980
vn 0.0000 -0.0632 -0.9980
vn 0.0000 -0.6301 -0.7765
vn 0.0000 -0.9636 -0.2674
vn 1.0000 0.0000 0.0000
vn -0.9962 -0.0181 0.0858
vn 0.0000 0.6036 0.7973
vn 0.0000 -0.8738 0.4863
vn -0.2562 -0.9497 0.1799
vn -0.2417 0.9563 0.1648
vn -0.7071 0.0000 0.7071
vn 0.9962 -0.0181 0.0858
vn 0.2562 -0.9497 0.1799
vn 0.2417 0.9563 0.1648
vn 0.7071 0.0000 0.7071
usemtl None
s off
f 34/1/1 14/2/1 22/3/1 41/4/1
f 3/5/2 7/6/2 16/7/2 17/8/2
f 39/9/3 1/10/3 2/11/3 33/12/3
f 35/13/4 13/14/4 14/15/4 34/16/4
f 46/17/5 23/18/5 12/19/5 36/20/5
f 56/21/6 10/22/6 1/23/6 39/24/6
f 37/25/7 52/26/7 54/27/7 8/28/7 55/29/7
f 38/30/4 5/31/4 4/32/4 40/33/4
f 49/34/8 51/35/8 12/36/8 13/37/8 4/38/8
f 31/39/4 9/40/4 5/41/4 38/42/4
f 53/43/8 49/44/8 4/45/8 5/46/8
f 19/47/8 6/48/8 12/49/8 23/50/8
f 40/51/4 4/52/4 13/14/4 35/13/4
f 36/53/9 12/54/9 51/55/9 50/56/9 32/57/9
f 42/58/4 11/59/4 9/40/4 31/39/4
f 10/60/8 8/61/8 9/62/8 11/63/8
f 8/61/8 54/64/8 53/65/8 5/66/8 9/62/8
f 1/67/8 10/60/8 11/63/8 2/68/8
f 33/69/4 2/70/4 11/59/4 42/58/4
f 55/71/2 8/72/2 10/73/2 56/74/2
f 18/75/3 3/76/3 17/77/3 27/78/3
f 7/79/8 3/80/8 14/81/8 13/37/8
f 6/82/10 19/83/10 26/84/10 15/85/10
f 6/86/8 7/79/8 13/37/8 12/36/8
f 3/87/8 18/88/8 22/89/8 14/90/8
f 15/91/8 26/92/8 28/93/8 29/94/8 27/95/8 17/96/8 16/97/8
f 7/6/1 6/98/1 15/99/1 16/7/1
f 41/100/11 22/101/11 24/102/11 44/103/11
f 44/103/12 24/102/12 25/104/12 45/105/12
f 45/105/13 25/104/13 23/106/13 46/107/13
f 22/89/8 18/88/8 20/108/8 24/109/8
f 24/109/8 20/108/8 21/110/8 25/111/8
f 25/111/8 21/110/8 19/47/8 23/50/8
f 26/84/14 19/83/14 21/112/14 28/113/14
f 28/113/15 21/112/15 20/114/15 29/115/15
f 29/115/16 20/114/16 18/75/16 27/78/16
f 105/116/13 45/105/13 46/107/13 106/117/13
f 104/118/12 44/103/12 45/105/12 105/116/12
f 103/119/11 41/100/11 44/103/11 104/118/11
f 30/120/17 43/121/17 58/122/17 57/123/17
f 79/124/4 33/69/4 42/58/4 101/125/4
f 96/126/7 37/25/7 55/29/7 100/127/7
f 101/125/4 42/58/4 31/39/4 99/128/4
f 94/129/4 40/51/4 35/13/4 98/130/4
f 61/131/2 32/132/2 37/133/2 96/134/2
f 99/128/4 31/39/4 38/42/4 95/135/4
f 95/136/4 38/30/4 40/33/4 94/137/4
f 97/138/9 36/53/9 32/57/9 61/139/9
f 39/9/3 75/140/3 143/141/3 59/142/3
f 46/143/18 36/144/18 47/145/18 48/146/18
f 98/130/4 35/13/4 34/16/4 63/147/4
f 75/140/3 39/9/3 33/12/3 79/148/3
f 63/149/1 34/1/1 41/4/1 103/150/1
f 106/151/19 46/143/19 48/146/19 127/152/19
f 125/153/5 127/154/5 48/155/5 47/156/5
f 36/144/20 97/157/20 125/158/20 47/145/20
f 49/159/21 50/56/21 51/55/21
f 52/26/22 53/160/22 54/27/22
f 52/161/23 50/162/23 49/163/23 53/164/23
f 32/132/2 50/162/2 52/161/2 37/133/2
f 30/165/2 136/166/2 100/167/2 55/71/2
f 138/168/2 43/169/2 56/74/2 102/170/2
f 137/171/2 57/172/2 58/173/2 139/174/2
f 43/169/2 30/165/2 55/71/2 56/74/2
f 43/121/1 138/175/1 139/176/1 58/122/1
f 136/177/3 30/120/3 57/123/3 137/178/3
f 145/179/6 60/180/6 59/181/6 143/182/6
f 56/183/8 39/184/8 59/185/8 60/186/8
f 102/187/1 56/188/1 60/180/1 145/179/1
f 111/189/1 118/190/1 86/191/1 77/192/1
f 65/193/2 81/194/2 80/195/2 69/196/2
f 116/197/3 110/198/3 64/199/3 62/200/3
f 112/201/4 111/202/4 77/203/4 76/204/4
f 123/205/5 113/206/5 74/207/5 87/208/5
f 135/209/6 116/210/6 62/211/6 72/212/6
f 114/213/7 134/214/7 70/215/7 133/216/7 131/217/7
f 115/218/4 117/219/4 66/220/4 67/221/4
f 128/222/17 66/223/17 76/224/17 74/225/17 130/226/17
f 108/227/4 115/228/4 67/229/4 71/230/4
f 132/231/17 67/232/17 66/233/17 128/234/17
f 83/235/17 87/236/17 74/237/17 68/238/17
f 117/239/4 112/201/4 76/204/4 66/240/4
f 113/241/9 109/242/9 129/243/9 130/244/9 74/245/9
f 119/246/4 108/227/4 71/230/4 73/247/4
f 72/248/17 73/249/17 71/250/17 70/251/17
f 70/251/17 71/250/17 67/252/17 132/253/17 133/254/17
f 62/255/17 64/256/17 73/249/17 72/248/17
f 110/257/4 119/246/4 73/247/4 64/258/4
f 134/259/2 135/260/2 72/261/2 70/262/2
f 82/263/3 91/264/3 81/265/3 65/266/3
f 69/267/17 76/224/17 77/268/17 65/269/17
f 68/270/10 78/271/10 90/272/10 83/273/10
f 68/274/17 74/225/17 76/224/17 69/267/17
f 65/275/17 77/276/17 86/277/17 82/278/17
f 78/279/17 80/280/17 81/281/17 91/282/17 93/283/17 92/284/17 90/285/17
f 69/196/1 80/195/1 78/286/1 68/287/1
f 118/288/11 121/289/11 88/290/11 86/291/11
f 121/289/12 122/292/12 89/293/12 88/290/12
f 122/292/13 123/294/13 87/295/13 89/293/13
f 86/277/17 88/296/17 84/297/17 82/278/17
f 88/296/17 89/298/17 85/299/17 84/297/17
f 89/298/17 87/236/17 83/235/17 85/299/17
f 90/272/14 92/300/14 85/301/14 83/273/14
f 92/300/15 93/302/15 84/303/15 85/301/15
f 93/302/16 91/264/16 82/263/16 84/303/16
f 105/116/13 106/117/13 123/294/13 122/292/13
f 104/118/12 105/116/12 122/292/12 121/289/12
f 103/119/11 104/118/11 121/289/11 118/288/11
f 107/304/8 140/305/8 141/306/8 120/307/8
f 79/124/4 101/125/4 119/246/4 110/257/4
f 96/126/7 100/127/7 134/214/7 114/213/7
f 101/125/4 99/128/4 108/227/4 119/246/4
f 94/129/4 98/130/4 112/201/4 117/239/4
f 61/131/2 96/134/2 114/308/2 109/309/2
f 99/128/4 95/135/4 115/228/4 108/227/4
f 95/136/4 94/137/4 117/219/4 115/218/4
f 97/138/9 61/139/9 109/242/9 113/241/9
f 116/197/3 142/310/3 143/141/3 75/140/3
f 123/311/24 126/312/24 124/313/24 113/314/24
f 98/130/4 63/147/4 111/202/4 112/201/4
f 75/140/3 79/148/3 110/198/3 116/197/3
f 63/149/1 103/150/1 118/190/1 111/189/1
f 106/151/19 127/152/19 126/312/19 123/311/19
f 125/153/5 124/315/5 126/316/5 127/154/5
f 113/314/20 124/313/20 125/158/20 97/157/20
f 128/317/25 130/244/25 129/243/25
f 131/217/26 133/216/26 132/318/26
f 131/319/27 132/320/27 128/321/27 129/322/27
f 109/309/2 114/308/2 131/319/2 129/322/2
f 107/323/2 134/259/2 100/167/2 136/166/2
f 138/168/2 102/170/2 135/260/2 120/324/2
f 137/171/2 139/174/2 141/325/2 140/326/2
f 120/324/2 135/260/2 134/259/2 107/323/2
f 120/307/1 141/306/1 139/176/1 138/175/1
f 136/177/3 137/178/3 140/305/3 107/304/3
f 145/179/6 143/182/6 142/327/6 144/328/6
f 135/329/17 144/330/17 142/331/17 116/332/17
f 102/187/1 145/179/1 144/328/1 135/333/1
