# Blender v2.78 (sub 0) OBJ File: 'Asset_Master_Hangar_Kit.blend'
# www.blender.org
mtllib SmallHallB.mtl
o struc_small_door_hallway_B_Cube.111
v -1.400000 -1.412224 0.000000
v -1.000000 -1.697853 0.000000
v -1.420000 -1.412224 0.000000
v -1.419999 0.000000 0.000000
v -1.000000 -1.745536 0.000000
v -1.000000 -1.745536 1.000000
v -1.419999 0.000000 1.000000
v -1.420000 -1.412224 1.000000
v -1.000000 -1.697853 1.000000
v -1.400000 -1.412224 1.000000
v -1.420000 -1.358689 0.616820
v -1.420000 -1.358689 0.390557
v -1.000000 -1.745536 0.670355
v -1.000000 -1.745536 0.337022
v -1.400000 -1.412224 0.337022
v -1.400000 -1.412224 0.670355
v -1.000000 -1.697853 0.670355
v -1.000000 -1.697853 0.337022
v -1.419999 -0.053535 0.390557
v -1.419999 -0.053535 0.616820
v -1.420000 -1.412224 0.670355
v -1.420000 -1.412224 0.337022
v -1.419999 0.000000 0.337022
v -1.419999 0.000000 0.670355
v -1.459563 -1.358689 0.616820
v -1.459563 -1.358689 0.390557
v -1.459563 -0.053535 0.390557
v -1.459563 -0.053535 0.616820
v 0.000000 0.000000 0.000000
v 1.400000 -1.412224 0.000000
v 1.000000 -1.697853 0.000000
v 1.420000 -1.412224 0.000000
v 1.419999 0.000000 0.000000
v 1.000000 -1.745536 0.000000
v 1.000000 -1.745536 1.000000
v 1.419999 0.000000 1.000000
v 1.420000 -1.412224 1.000000
v 1.000000 -1.697853 1.000000
v 1.400000 -1.412224 1.000000
v 0.000000 0.000000 1.000000
v 1.420000 -1.358689 0.616820
v 1.420000 -1.358689 0.390557
v 1.000000 -1.745536 0.670355
v 1.000000 -1.745536 0.337022
v 1.400000 -1.412224 0.337022
v 1.400000 -1.412224 0.670355
v 1.000000 -1.697853 0.670355
v 1.000000 -1.697853 0.337022
v 1.419999 -0.053535 0.390557
v 1.419999 -0.053535 0.616820
v 0.000000 0.000000 0.670355
v 0.000000 0.000000 0.337022
v 1.420000 -1.412224 0.670355
v 1.420000 -1.412224 0.337022
v 1.419999 0.000000 0.337022
v 1.419999 0.000000 0.670355
v 1.459563 -1.358689 0.616820
v 1.459563 -1.358689 0.390557
v 1.459563 -0.053535 0.390557
v 1.459563 -0.053535 0.616820
vt 0.1085 0.8596
vt 0.1085 0.8662
vt 0.0003 0.8662
vt 0.0003 0.8596
vt 0.4665 0.1085
vt 0.0003 0.1085
vt 0.0003 0.0003
vt 0.4665 0.0003
vt 0.6671 0.4463
vt 0.6671 0.0179
vt 0.6847 0.0003
vt 0.6847 0.4639
vt 0.7959 0.2204
vt 0.9573 0.2204
vt 0.9573 0.3286
vt 0.7959 0.3286
vt 0.1085 0.8200
vt 0.1085 0.8356
vt 0.0003 0.8356
vt 0.0003 0.8200
vt 0.3286 0.8200
vt 0.3286 0.8356
vt 0.2179 0.8356
vt 0.2179 0.8200
vt 0.9867 0.4034
vt 0.9997 0.4034
vt 0.9997 0.8319
vt 0.9867 0.8319
vt 0.7959 0.0003
vt 0.9573 0.0003
vt 0.9573 0.1109
vt 0.7959 0.1109
vt 0.5753 0.0003
vt 0.5753 0.4639
vt 0.4670 0.4639
vt 0.4670 0.0003
vt 0.4665 0.3286
vt 0.0003 0.3286
vt 0.0003 0.2179
vt 0.4665 0.2179
vt 0.3286 0.8596
vt 0.3286 0.8662
vt 0.2179 0.8662
vt 0.2179 0.8596
vt 0.9724 0.7576
vt 0.9724 0.8319
vt 0.9594 0.8319
vt 0.9594 0.7576
vt 0.5928 0.0179
vt 0.5928 0.4463
vt 0.8702 0.3292
vt 0.8702 0.7576
vt 0.7959 0.7576
vt 0.7959 0.3292
vt 0.9726 0.3292
vt 0.9596 0.3292
vt 0.9867 0.3292
vt 0.9997 0.3292
vt 0.7953 0.0003
vt 0.7953 0.4639
vt 0.1085 0.8590
vt 0.0003 0.8590
vt 0.0003 0.8525
vt 0.1085 0.8525
vt 0.0003 0.4374
vt 0.0003 0.3292
vt 0.4665 0.3292
vt 0.4665 0.4374
vt 0.5953 0.9105
vt 0.5777 0.9281
vt 0.5777 0.4645
vt 0.5953 0.4821
vt 0.1085 0.8194
vt 0.0003 0.8194
vt 0.0003 0.6580
vt 0.1085 0.6580
vt 0.1085 0.8519
vt 0.0003 0.8519
vt 0.0003 0.8362
vt 0.1085 0.8362
vt 0.3286 0.8519
vt 0.2179 0.8519
vt 0.2179 0.8362
vt 0.3286 0.8362
vt 0.9861 0.4034
vt 0.9861 0.8319
vt 0.9731 0.8319
vt 0.9731 0.4034
vt 0.3286 0.8194
vt 0.2179 0.8194
vt 0.2179 0.6580
vt 0.3286 0.6580
vt 0.6871 0.4645
vt 0.7953 0.4645
vt 0.7953 0.9281
vt 0.6871 0.9281
vt 0.0003 0.6574
vt 0.0003 0.5468
vt 0.4665 0.5468
vt 0.4665 0.6574
vt 0.3286 0.8590
vt 0.2179 0.8590
vt 0.2179 0.8525
vt 0.3286 0.8525
vt 0.9457 0.7576
vt 0.9587 0.7576
vt 0.9586 0.8319
vt 0.9456 0.8319
vt 0.6695 0.4821
vt 0.6695 0.9105
vt 0.8708 0.3292
vt 0.9451 0.3292
vt 0.9451 0.7576
vt 0.8708 0.7576
vt 0.9458 0.3292
vt 0.9588 0.3292
vt 0.9731 0.3292
vt 0.9861 0.3292
vt 0.4670 0.9281
vt 0.4670 0.4645
vn 0.0000 1.0000 0.0000
vn 1.0000 -0.0000 0.0000
vn 0.5811 0.8138 0.0000
vn 0.0000 0.0000 -1.0000
vn 0.0000 -1.0000 0.0000
vn 0.0000 0.0000 1.0000
vn -1.0000 -0.0000 0.0000
vn -0.5811 0.8138 0.0000
usemtl Material
s off
f 16/1/1 21/2/1 8/3/1 10/4/1
f 51/5/1 24/6/1 7/7/1 40/8/1
f 19/9/2 12/10/2 22/11/2 23/12/2
f 17/13/3 16/14/3 10/15/3 9/16/3
f 13/17/2 17/18/2 9/19/2 6/20/2
f 5/21/2 2/22/2 18/23/2 14/24/2
f 14/24/2 18/23/2 17/18/2 13/17/2
f 11/25/4 25/26/4 28/27/4 20/28/4
f 2/29/3 1/30/3 15/31/3 18/32/3
f 18/32/3 15/31/3 16/14/3 17/13/3
f 21/33/2 24/34/2 7/35/2 8/36/2
f 29/37/1 4/38/1 23/39/1 52/40/1
f 52/40/1 23/39/1 24/6/1 51/5/1
f 1/41/1 3/42/1 22/43/1 15/44/1
f 15/44/1 22/43/1 21/2/1 16/1/1
f 19/45/5 20/46/5 28/47/5 27/48/5
f 12/10/2 11/49/2 21/33/2 22/11/2
f 20/50/2 19/9/2 23/12/2 24/34/2
f 11/49/2 20/50/2 24/34/2 21/33/2
f 26/51/2 27/52/2 28/53/2 25/54/2
f 12/55/6 19/45/6 27/48/6 26/56/6
f 11/25/1 12/57/1 26/58/1 25/26/1
f 23/12/2 22/11/2 3/59/2 4/60/2
f 46/61/1 39/62/1 37/63/1 53/64/1
f 51/65/1 40/66/1 36/67/1 56/68/1
f 49/69/7 55/70/7 54/71/7 42/72/7
f 47/73/8 38/74/8 39/75/8 46/76/8
f 43/77/7 35/78/7 38/79/7 47/80/7
f 34/81/7 44/82/7 48/83/7 31/84/7
f 44/82/7 43/77/7 47/80/7 48/83/7
f 41/85/4 50/86/4 60/87/4 57/88/4
f 31/89/8 48/90/8 45/91/8 30/92/8
f 48/90/8 47/73/8 46/76/8 45/91/8
f 53/93/7 37/94/7 36/95/7 56/96/7
f 29/97/1 52/98/1 55/99/1 33/100/1
f 52/98/1 51/65/1 56/68/1 55/99/1
f 30/101/1 45/102/1 54/103/1 32/104/1
f 45/102/1 46/61/1 53/64/1 54/103/1
f 49/105/5 59/106/5 60/107/5 50/108/5
f 42/72/7 54/71/7 53/93/7 41/109/7
f 50/110/7 56/96/7 55/70/7 49/69/7
f 41/109/7 53/93/7 56/96/7 50/110/7
f 58/111/7 57/112/7 60/113/7 59/114/7
f 42/115/6 58/116/6 59/106/6 49/105/6
f 41/85/1 57/88/1 58/117/1 42/118/1
f 55/70/7 33/119/7 32/120/7 54/71/7
