# Blender v2.78 (sub 0) OBJ File: 'Asset_Master_Hangar_Kit.blend'
# www.blender.org
mtllib wall_light_A.mtl
o Plane_Plane.143
v -0.105740 -0.004395 0.127469
v -0.123388 -0.019621 0.129368
v -0.112295 -0.010216 0.244932
v -0.112295 -0.010216 0.145500
v -0.112295 0.000000 0.244932
v -0.112295 0.000000 0.145500
v -0.123388 0.000000 0.261064
v -0.123388 0.000000 0.129368
v -0.120350 -0.015204 0.129368
v -0.123388 -0.019621 0.261064
v -0.179432 0.000000 0.129368
v -0.175015 -0.015204 0.129368
v -0.163300 -0.010216 0.244932
v -0.163300 -0.010216 0.145500
v -0.179432 0.000000 0.261064
v -0.175015 -0.004418 0.129368
v -0.179432 -0.019621 0.261064
v -0.163300 0.000000 0.145500
v -0.179432 -0.019621 0.129368
v -0.163300 0.000000 0.244932
v -0.179432 -0.019621 -0.065848
v -0.163300 0.000000 -0.049716
v -0.175015 -0.004418 -0.065848
v -0.163300 -0.010216 -0.049716
v -0.175015 -0.015204 -0.065848
v -0.179432 0.000000 -0.065848
v -0.123388 -0.019621 0.065848
v -0.120350 -0.015204 -0.065848
v -0.123388 0.000000 -0.065848
v -0.105740 -0.004273 0.067747
v -0.112295 0.000000 -0.049716
v -0.112295 0.000000 0.049716
v -0.112295 -0.010216 -0.049716
v -0.112295 -0.010216 0.049716
v -0.123388 -0.019621 -0.065848
v -0.120350 -0.004418 -0.065848
v -0.120350 -0.015371 0.065848
v -0.005773 -0.015371 0.065848
v -0.123388 0.000000 0.065848
v -0.020384 -0.004395 0.127469
v -0.020384 -0.004273 0.067747
v -0.005387 -0.010216 0.145500
v -0.005387 0.000000 0.145500
v -0.005919 0.000000 0.129368
v -0.005387 -0.010216 0.244932
v -0.005387 0.000000 0.244932
v -0.005919 0.000000 0.261064
v -0.005919 -0.019621 0.261064
v -0.005748 -0.019621 0.129368
v -0.005606 -0.015204 0.129368
v -0.005773 -0.004418 0.129368
v -0.120350 -0.004418 0.129368
v -0.120350 -0.004250 0.065848
v -0.005773 -0.004250 0.065848
v -0.020384 -0.008138 0.127461
v -0.105740 -0.008138 0.127461
v -0.105740 -0.008016 0.067740
v -0.020384 -0.008016 0.067740
v -0.119784 0.000000 0.049716
v -0.163300 0.000000 0.006199
v -0.135916 -0.019621 0.065848
v -0.179432 -0.019621 0.022331
v -0.135916 0.000000 0.065848
v -0.179432 0.000000 0.022331
v -0.163300 -0.010216 0.006199
v -0.119784 -0.010216 0.049716
v 0.105740 -0.004395 0.127469
v 0.123388 -0.019621 0.129368
v 0.112295 -0.010216 0.244932
v 0.112295 -0.010216 0.145500
v 0.112295 0.000000 0.244932
v 0.112295 0.000000 0.145500
v 0.123388 0.000000 0.261064
v 0.123388 0.000000 0.129368
v 0.120350 -0.015204 0.129368
v 0.123388 -0.019621 0.261064
v 0.000000 -0.004418 0.129368
v 0.179432 0.000000 0.129368
v 0.175015 -0.015204 0.129368
v 0.000000 -0.015204 0.129368
v 0.163300 -0.010216 0.244932
v 0.163300 -0.010216 0.145500
v 0.000000 -0.010216 0.145500
v 0.000000 0.000000 0.244932
v 0.000000 0.000000 0.145500
v 0.000000 -0.010216 0.244932
v 0.179432 0.000000 0.261064
v 0.175015 -0.004418 0.129368
v 0.000000 -0.019621 0.129368
v 0.000000 -0.019621 0.261064
v 0.000000 0.000000 0.129368
v 0.000000 0.000000 0.261064
v 0.179432 -0.019621 0.261064
v 0.163300 0.000000 0.145500
v 0.179432 -0.019621 0.129368
v 0.163300 0.000000 0.244932
v 0.179432 -0.019621 -0.065848
v 0.163300 0.000000 -0.049716
v 0.000000 0.000000 0.065848
v 0.000000 0.000000 -0.065848
v 0.000000 -0.019621 0.065848
v 0.000000 -0.019621 -0.065848
v 0.175015 -0.004418 -0.065848
v 0.000000 -0.010216 0.049716
v 0.000000 0.000000 -0.049716
v 0.000000 0.000000 0.049716
v 0.000000 -0.010216 -0.049716
v 0.163300 -0.010216 -0.049716
v 0.000000 -0.015204 -0.065848
v 0.175015 -0.015204 -0.065848
v 0.179432 0.000000 -0.065848
v 0.000000 -0.004418 -0.065848
v 0.123388 -0.019621 0.065848
v 0.120350 -0.015204 -0.065848
v 0.123388 0.000000 -0.065848
v 0.105740 -0.004273 0.067747
v 0.112295 0.000000 -0.049716
v 0.112295 0.000000 0.049716
v 0.112295 -0.010216 -0.049716
v 0.112295 -0.010216 0.049716
v 0.123388 -0.019621 -0.065848
v 0.120350 -0.004418 -0.065848
v 0.120350 -0.015371 0.065848
v 0.005773 -0.015371 0.065848
v 0.123388 0.000000 0.065848
v 0.020384 -0.004395 0.127469
v 0.020384 -0.004273 0.067747
v 0.005387 -0.010216 0.145500
v 0.005387 0.000000 0.145500
v 0.005919 0.000000 0.129368
v 0.005387 -0.010216 0.244932
v 0.005387 0.000000 0.244932
v 0.005919 0.000000 0.261064
v 0.005919 -0.019621 0.261064
v 0.005748 -0.019621 0.129368
v 0.005606 -0.015204 0.129368
v 0.005773 -0.004418 0.129368
v 0.120350 -0.004418 0.129368
v 0.120350 -0.004250 0.065848
v 0.005773 -0.004250 0.065848
v 0.020384 -0.008138 0.127461
v 0.105740 -0.008138 0.127461
v 0.105740 -0.008016 0.067740
v 0.020384 -0.008016 0.067740
v 0.119784 0.000000 0.049716
v 0.163300 0.000000 0.006199
v 0.135916 -0.019621 0.065848
v 0.179432 -0.019621 0.022331
v 0.135916 0.000000 0.065848
v 0.179432 0.000000 0.022331
v 0.163300 -0.010216 0.006199
v 0.119784 -0.010216 0.049716
vt 0.7395 0.2477
vt 0.7395 0.5666
vt 0.6895 0.5666
vt 0.6895 0.2477
vt 0.9479 0.2463
vt 0.9479 0.5365
vt 0.9218 0.5365
vt 0.9218 0.2463
vt 0.6007 0.7067
vt 0.6007 0.5583
vt 0.6282 0.5583
vt 0.6282 0.7067
vt 0.7806 0.2755
vt 0.7806 0.4139
vt 0.7395 0.3838
vt 0.7395 0.2317
vt 0.8218 0.2463
vt 0.8218 0.5365
vt 0.7806 0.5666
vt 0.7806 0.2477
vt 0.5894 0.0000
vt 0.5894 0.1384
vt 0.3358 0.1384
vt 0.3358 0.0000
vt 0.9739 0.6749
vt 0.9739 0.5365
vt 1.0000 0.5365
vt 1.0000 0.6749
vt 0.6394 0.5666
vt 0.6394 0.7187
vt 0.6007 0.2473
vt 0.5894 0.5666
vt 0.5894 0.2477
vt 0.5894 0.7187
vt 0.6282 0.2469
vt 0.6282 0.2317
vt 0.6394 0.2317
vt 0.6394 0.2473
vt 0.7395 0.9885
vt 0.7395 0.7187
vt 0.7655 0.7187
vt 0.7655 0.9885
vt 0.9739 0.2463
vt 0.9739 0.2317
vt 1.0000 0.2317
vt 1.0000 0.2463
vt 0.5894 0.4286
vt 0.5894 0.4432
vt 0.3358 0.4432
vt 0.3358 0.4286
vt 0.8218 0.6749
vt 0.7806 0.7187
vt 0.7806 0.7041
vt 0.7806 0.7187
vt 0.7395 0.7187
vt 0.7395 0.7026
vt 0.8718 0.9028
vt 0.8718 0.6329
vt 0.9129 0.5891
vt 0.9129 0.9465
vt 0.8718 0.5891
vt 0.8718 0.2317
vt 0.9218 0.2317
vt 0.9218 0.5891
vt 0.9479 0.6749
vt 0.9218 0.6749
vt 0.7395 0.7187
vt 0.6895 0.7187
vt 0.4784 0.4432
vt 0.5894 0.5613
vt 0.5894 0.5817
vt 0.3358 0.5817
vt 0.3358 0.4432
vt 0.9739 0.5365
vt 0.9739 0.6749
vt 0.9479 0.6749
vt 0.9479 0.5365
vt 0.6507 0.5583
vt 0.6507 0.2317
vt 0.6782 0.2317
vt 0.6782 0.5583
vt 0.8718 0.5666
vt 0.8718 0.6006
vt 0.8218 0.6006
vt 0.8218 0.5666
vt 0.2947 0.1822
vt 0.2947 0.1619
vt 0.3358 0.1181
vt 0.3358 0.1521
vt 0.0411 0.1822
vt 0.0411 0.4870
vt 0.0000 0.4870
vt 0.0000 0.1521
vt 0.6395 0.9886
vt 0.6394 0.8368
vt 0.6655 0.8368
vt 0.6656 0.9886
vt 0.5894 0.8864
vt 0.3358 0.8864
vt 0.9218 0.9797
vt 0.9218 0.6749
vt 0.9479 0.6749
vt 0.9479 0.9797
vt 0.9218 1.0000
vt 0.9479 1.0000
vt 0.6895 0.2317
vt 0.6895 0.5666
vt 0.6507 0.7067
vt 0.6394 0.7187
vt 0.6394 0.5666
vt 0.6782 0.7067
vt 0.6895 0.7187
vt 0.6394 0.2317
vt 0.8218 0.8399
vt 0.8218 0.6006
vt 0.8718 0.6006
vt 0.8718 0.8399
vt 0.2947 0.4870
vt 0.3358 0.4870
vt 0.0411 0.0438
vt 0.0000 0.0000
vt 0.9739 0.2317
vt 0.9479 0.2317
vt 0.8326 0.2473
vt 0.8326 0.5583
vt 0.8218 0.2317
vt 0.8610 0.5583
vt 0.8610 0.2473
vt 0.8718 0.2317
vt 0.6007 0.2317
vt 0.5894 0.2317
vt 0.8218 0.2317
vt 0.7806 0.2317
vt 0.9479 0.2317
vt 0.9218 0.2317
vt 0.7395 0.2317
vt 0.6895 0.2317
vt 0.8175 0.1621
vt 0.8175 0.0000
vt 0.8270 0.0000
vt 0.8270 0.1621
vt 0.7696 0.1724
vt 0.7421 0.1724
vt 0.7417 0.0000
vt 0.7700 0.0000
vt 0.0000 0.7984
vt 0.0000 0.4870
vt 0.1620 0.4870
vt 0.1620 0.7980
vt 0.7984 0.1724
vt 0.7700 0.1724
vt 0.7705 0.0000
vt 0.7980 0.0000
vt 0.3191 0.7583
vt 0.3191 0.5267
vt 0.3240 0.4870
vt 0.3240 0.7980
vt 0.1668 0.5267
vt 0.1668 0.7583
vt 0.1620 0.7980
vt 0.1620 0.4870
vt 0.7417 0.2317
vt 0.5894 0.2317
vt 0.5894 0.0000
vt 0.7417 0.0000
vt 0.3335 0.4870
vt 0.3335 0.7187
vt 0.3240 0.7187
vt 0.3240 0.4870
vt 0.8175 0.0000
vt 0.8175 0.1621
vt 0.8079 0.1621
vt 0.8079 0.0000
vt 0.7984 0.2317
vt 0.7984 0.0000
vt 0.8079 0.2317
vt 0.8718 0.9580
vt 0.8218 0.9580
vt 0.1837 0.0438
vt 0.2249 0.0000
vt 0.6395 0.7187
vt 0.6656 0.7187
vt 0.7395 0.2477
vt 0.6895 0.2477
vt 0.6895 0.5666
vt 0.7395 0.5666
vt 0.9479 0.2463
vt 0.9218 0.2463
vt 0.9218 0.5365
vt 0.9479 0.5365
vt 0.6007 0.7067
vt 0.6282 0.7067
vt 0.6282 0.5583
vt 0.6007 0.5583
vt 0.7806 0.2755
vt 0.7395 0.2317
vt 0.7395 0.3838
vt 0.7806 0.4139
vt 0.8218 0.2463
vt 0.7806 0.2477
vt 0.7806 0.5666
vt 0.8218 0.5365
vt 0.5894 0.0000
vt 0.3358 0.0000
vt 0.3358 0.1384
vt 0.5894 0.1384
vt 0.9739 0.6749
vt 1.0000 0.6749
vt 1.0000 0.5365
vt 0.9739 0.5365
vt 0.6394 0.7187
vt 0.6394 0.5666
vt 0.6007 0.2473
vt 0.5894 0.2477
vt 0.5894 0.5666
vt 0.5894 0.7187
vt 0.6282 0.2469
vt 0.6394 0.2473
vt 0.7395 0.9885
vt 0.7655 0.9885
vt 0.7655 0.7187
vt 0.7395 0.7187
vt 0.9739 0.2463
vt 1.0000 0.2463
vt 0.5894 0.4286
vt 0.3358 0.4286
vt 0.7806 0.7187
vt 0.8218 0.6749
vt 0.7806 0.7041
vt 0.7395 0.7026
vt 0.8718 0.9028
vt 0.9129 0.9465
vt 0.9129 0.5891
vt 0.8718 0.6329
vt 0.8718 0.5891
vt 0.9218 0.5891
vt 0.9218 0.2317
vt 0.8718 0.2317
vt 0.9218 0.6749
vt 0.9479 0.6749
vt 0.6895 0.7187
vt 0.7395 0.7187
vt 0.4784 0.4432
vt 0.3358 0.4432
vt 0.3358 0.5817
vt 0.5894 0.5817
vt 0.5894 0.5613
vt 0.9739 0.5365
vt 0.9479 0.5365
vt 0.9479 0.6749
vt 0.9739 0.6749
vt 0.6507 0.5583
vt 0.6782 0.5583
vt 0.8718 0.5666
vt 0.8218 0.5666
vt 0.8218 0.6006
vt 0.8718 0.6006
vt 0.2947 0.1822
vt 0.3358 0.1521
vt 0.3358 0.1181
vt 0.2947 0.1619
vt 0.0411 0.1822
vt 0.0000 0.1521
vt 0.6395 0.9886
vt 0.6656 0.9886
vt 0.6655 0.8368
vt 0.6394 0.8368
vt 0.9218 0.9797
vt 0.9479 0.9797
vt 0.9218 1.0000
vt 0.9479 1.0000
vt 0.6895 0.5666
vt 0.6394 0.5666
vt 0.6394 0.7187
vt 0.6507 0.7067
vt 0.6895 0.7187
vt 0.6782 0.7067
vt 0.8218 0.8399
vt 0.8718 0.8399
vt 0.8718 0.6006
vt 0.8218 0.6006
vt 0.0411 0.0438
vt 0.0000 0.0000
vt 0.8326 0.2473
vt 0.8326 0.5583
vt 0.8610 0.5583
vt 0.8610 0.2473
vt 0.8175 0.1621
vt 0.8270 0.1621
vt 0.8270 0.0000
vt 0.8175 0.0000
vt 0.7696 0.1724
vt 0.7700 0.0000
vt 0.7417 0.0000
vt 0.7421 0.1724
vt 0.0000 0.7984
vt 0.1620 0.7980
vt 0.1620 0.4870
vt 0.0000 0.4870
vt 0.7984 0.1724
vt 0.7980 0.0000
vt 0.7705 0.0000
vt 0.7700 0.1724
vt 0.3191 0.7583
vt 0.3240 0.7980
vt 0.3240 0.4870
vt 0.3191 0.5267
vt 0.1668 0.5267
vt 0.1620 0.4870
vt 0.1620 0.7980
vt 0.1668 0.7583
vt 0.7417 0.2317
vt 0.7417 0.0000
vt 0.5894 0.0000
vt 0.5894 0.2317
vt 0.3335 0.4870
vt 0.3240 0.4870
vt 0.3240 0.7187
vt 0.3335 0.7187
vt 0.8175 0.0000
vt 0.8079 0.0000
vt 0.8079 0.1621
vt 0.8175 0.1621
vt 0.7984 0.2317
vt 0.8079 0.2317
vt 0.7984 0.0000
vt 0.8218 0.9580
vt 0.8718 0.9580
vt 0.2249 0.0000
vt 0.1837 0.0438
vt 0.6656 0.7187
vt 0.6395 0.7187
vn 0.0000 0.0000 1.0000
vn 0.0000 0.0000 -1.0000
vn 0.0000 1.0000 0.0000
vn 1.0000 0.0000 0.0000
vn -1.0000 0.0000 0.0000
vn 0.0000 -1.0000 0.0026
vn 1.0000 0.0076 -0.0013
vn 0.0000 0.9999 0.0121
vn 0.0000 1.0000 0.0023
vn 0.0000 1.0000 0.0020
vn 0.0000 -0.0020 1.0000
vn 0.0000 0.0020 -1.0000
vn -0.7071 0.0000 0.7071
vn 0.7071 0.0000 -0.7071
vn -1.0000 0.0076 -0.0013
vn 0.7071 0.0000 0.7071
vn -0.7071 0.0000 -0.7071
usemtl None
s off
f 47/1/1 7/2/1 10/3/1 48/4/1
f 43/5/1 6/6/1 4/7/1 42/8/1
f 16/9/2 52/10/2 9/11/2 12/12/2
f 18/13/3 6/14/3 8/15/3 11/16/3
f 46/17/3 5/18/3 7/19/3 47/20/3
f 13/21/3 3/22/3 4/23/3 14/24/3
f 20/25/2 5/26/2 3/27/2 13/28/2
f 12/12/2 9/11/2 2/29/2 19/30/2
f 51/31/2 52/10/2 8/32/2 44/33/2
f 16/9/2 12/12/2 19/30/2 11/34/2
f 52/10/2 16/9/2 11/34/2 8/32/2
f 50/35/2 80/36/2 89/37/2 49/38/2
f 18/39/4 20/40/4 13/41/4 14/42/4
f 46/43/2 84/44/2 86/45/2 45/46/2
f 45/47/3 86/48/3 83/49/3 42/50/3
f 5/18/3 20/51/3 15/52/3 7/19/3
f 43/53/3 85/54/3 91/55/3 44/56/3
f 20/57/3 18/58/3 11/59/3 15/60/3
f 15/61/5 11/62/5 19/63/5 17/64/5
f 3/22/3 45/47/3 42/50/3 4/23/3
f 6/6/1 18/65/1 14/66/1 4/7/1
f 7/2/1 15/67/1 17/68/1 10/3/1
f 65/69/3 66/70/3 34/71/3 33/72/3 24/73/3
f 31/74/1 22/75/1 24/76/1 33/77/1
f 36/78/2 112/79/2 109/80/2 28/81/2
f 39/82/1 63/83/1 61/84/1 27/85/1
f 32/86/3 59/87/3 63/88/3 39/89/3
f 31/90/3 105/91/3 100/92/3 29/93/3
f 22/94/4 60/95/4 65/96/4 24/97/4
f 34/71/3 104/98/3 107/99/3 33/72/3
f 32/100/2 106/101/2 104/102/2 34/103/2
f 59/104/2 32/100/2 34/103/2 66/105/2
f 28/81/2 109/80/2 102/106/2 35/107/2
f 36/78/2 23/108/2 26/109/2 29/110/2
f 23/108/2 25/111/2 21/112/2 26/109/2
f 112/79/2 36/78/2 29/110/2 100/113/2
f 25/111/2 28/81/2 35/107/2 21/112/2
f 64/114/5 26/115/5 21/116/5 62/117/5
f 106/118/3 32/86/3 39/89/3 99/119/3
f 22/120/3 31/90/3 29/93/3 26/121/3
f 23/108/2 36/78/2 28/81/2 25/111/2
f 105/122/1 31/74/1 33/77/1 107/123/1
f 6/14/3 43/53/3 44/56/3 8/15/3
f 38/124/1 37/125/1 27/85/1 101/126/1
f 53/127/1 54/128/1 99/129/1 39/82/1
f 54/128/1 38/124/1 101/126/1 99/129/1
f 37/125/1 53/127/1 39/82/1 27/85/1
f 5/26/2 46/43/2 45/46/2 3/27/2
f 77/130/2 51/31/2 44/33/2 91/131/2
f 84/132/3 46/17/3 47/20/3 92/133/3
f 85/134/1 43/5/1 42/8/1 83/135/1
f 92/136/1 47/1/1 48/4/1 90/137/1
f 9/11/2 50/35/2 49/38/2 2/29/2
f 51/31/2 77/130/2 80/36/2 50/35/2
f 30/138/4 1/139/4 56/140/4 57/141/4
f 9/142/5 52/143/5 53/144/5 37/145/5
f 50/146/6 9/147/6 37/148/6 38/149/6
f 38/150/7 54/151/7 51/152/7 50/153/7
f 40/154/8 1/155/8 52/156/8 51/157/8
f 30/158/8 41/159/8 54/160/8 53/161/8
f 41/159/9 40/154/9 51/157/9 54/160/9
f 1/155/9 30/158/9 53/161/9 52/156/9
f 55/162/10 58/163/10 57/164/10 56/165/10
f 41/166/11 30/167/11 57/168/11 58/169/11
f 40/170/5 41/171/5 58/172/5 55/173/5
f 1/174/12 40/175/12 55/173/12 56/176/12
f 64/114/13 62/117/13 61/177/13 63/178/13
f 63/88/3 59/87/3 60/179/3 64/180/3
f 65/96/14 60/95/14 59/181/14 66/182/14
f 60/179/3 22/120/3 26/121/3 64/180/3
f 133/183/1 134/184/1 76/185/1 73/186/1
f 129/187/1 128/188/1 70/189/1 72/190/1
f 88/191/2 79/192/2 75/193/2 138/194/2
f 94/195/3 78/196/3 74/197/3 72/198/3
f 132/199/3 133/200/3 73/201/3 71/202/3
f 81/203/3 82/204/3 70/205/3 69/206/3
f 96/207/2 81/208/2 69/209/2 71/210/2
f 79/192/2 95/211/2 68/212/2 75/193/2
f 137/213/2 130/214/2 74/215/2 138/194/2
f 88/191/2 78/216/2 95/211/2 79/192/2
f 138/194/2 74/215/2 78/216/2 88/191/2
f 136/217/2 135/218/2 89/37/2 80/36/2
f 94/219/5 82/220/5 81/221/5 96/222/5
f 132/223/2 131/224/2 86/45/2 84/44/2
f 131/225/3 128/226/3 83/49/3 86/48/3
f 71/202/3 73/201/3 87/227/3 96/228/3
f 129/229/3 130/230/3 91/55/3 85/54/3
f 96/231/3 87/232/3 78/233/3 94/234/3
f 87/235/4 93/236/4 95/237/4 78/238/4
f 69/206/3 70/205/3 128/226/3 131/225/3
f 72/190/1 70/189/1 82/239/1 94/240/1
f 73/186/1 76/185/1 93/241/1 87/242/1
f 151/243/3 108/244/3 119/245/3 120/246/3 152/247/3
f 117/248/1 119/249/1 108/250/1 98/251/1
f 122/252/2 114/253/2 109/80/2 112/79/2
f 125/254/1 113/255/1 147/256/1 149/257/1
f 118/258/3 125/259/3 149/260/3 145/261/3
f 117/262/3 115/263/3 100/92/3 105/91/3
f 98/264/5 108/265/5 151/266/5 146/267/5
f 120/246/3 119/245/3 107/99/3 104/98/3
f 118/268/2 120/269/2 104/102/2 106/101/2
f 145/270/2 152/271/2 120/269/2 118/268/2
f 114/253/2 121/272/2 102/106/2 109/80/2
f 122/252/2 115/273/2 111/274/2 103/275/2
f 103/275/2 111/274/2 97/276/2 110/277/2
f 112/79/2 100/113/2 115/273/2 122/252/2
f 110/277/2 97/276/2 121/272/2 114/253/2
f 150/278/4 148/279/4 97/280/4 111/281/4
f 106/118/3 99/119/3 125/259/3 118/258/3
f 98/282/3 111/283/3 115/263/3 117/262/3
f 103/275/2 110/277/2 114/253/2 122/252/2
f 105/122/1 107/123/1 119/249/1 117/248/1
f 72/198/3 74/197/3 130/230/3 129/229/3
f 124/284/1 101/126/1 113/255/1 123/285/1
f 139/286/1 125/254/1 99/129/1 140/287/1
f 140/287/1 99/129/1 101/126/1 124/284/1
f 123/285/1 113/255/1 125/254/1 139/286/1
f 71/210/2 69/209/2 131/224/2 132/223/2
f 77/130/2 91/131/2 130/214/2 137/213/2
f 84/132/3 92/133/3 133/200/3 132/199/3
f 85/134/1 83/135/1 128/188/1 129/187/1
f 92/136/1 90/137/1 134/184/1 133/183/1
f 75/193/2 68/212/2 135/218/2 136/217/2
f 137/213/2 136/217/2 80/36/2 77/130/2
f 116/288/5 143/289/5 142/290/5 67/291/5
f 75/292/4 123/293/4 139/294/4 138/295/4
f 136/296/6 124/297/6 123/298/6 75/299/6
f 124/300/15 136/301/15 137/302/15 140/303/15
f 126/304/8 137/305/8 138/306/8 67/307/8
f 116/308/8 139/309/8 140/310/8 127/311/8
f 127/311/9 140/310/9 137/305/9 126/304/9
f 67/307/9 138/306/9 139/309/9 116/308/9
f 141/312/10 142/313/10 143/314/10 144/315/10
f 127/316/11 144/317/11 143/318/11 116/319/11
f 126/320/4 141/321/4 144/322/4 127/323/4
f 67/324/12 142/325/12 141/321/12 126/326/12
f 150/278/16 149/327/16 147/328/16 148/279/16
f 149/260/3 150/329/3 146/330/3 145/261/3
f 151/266/17 152/331/17 145/332/17 146/267/17
f 146/330/3 150/329/3 111/283/3 98/282/3
