# Blender v2.75 (sub 0) OBJ File: 'Asset_Master_Hangar_Kit.blend'
# www.blender.org
mtllib asset_box_B_low.mtl
o Cube.017_Cube.163
v 2.350000 -0.000000 -0.050000
v 2.350000 0.500000 -0.050000
v 2.350000 0.465722 -0.084278
v 2.350000 0.034278 -0.084278
v 2.384278 0.465722 -0.050000
v 2.384278 0.034278 -0.050000
v 2.384278 0.500000 -0.084278
v 2.384278 -0.000000 -0.084278
v 2.379186 0.442340 -0.107660
v 2.379186 0.057660 -0.107660
v 2.422441 0.427559 -0.079186
v 2.436940 0.072441 -0.064687
v 2.399782 0.470814 -0.099782
v 2.384278 0.029186 -0.084278
v 2.561837 0.427559 -0.079186
v 2.547338 0.072441 -0.064687
v 2.384278 0.465722 -0.079186
v 2.384278 0.034278 -0.079186
v 2.561837 0.427559 -0.065908
v 2.547338 0.072441 -0.032677
v 2.422441 0.427559 -0.065908
v 2.436940 0.072441 -0.032677
v 2.422441 0.072441 -0.079186
v 2.561837 0.072441 -0.079186
v 2.422441 0.072441 -0.018178
v 2.561837 0.072441 -0.018178
v 2.436940 0.092891 -0.064687
v 2.547338 0.092891 -0.064687
v 2.436940 0.092891 -0.032677
v 2.547338 0.092891 -0.032677
v 2.384278 0.470814 -0.084278
v 2.445270 0.530906 -0.145269
v 2.417147 0.530906 -0.117147
v 2.571877 0.530906 -0.145269
v 2.571877 0.530906 -0.271877
v 2.445270 0.530906 -0.271877
v 2.560433 0.552347 -0.260432
v 2.571877 0.540902 -0.271877
v 2.445270 0.540902 -0.271877
v 2.456714 0.552347 -0.260432
v 2.560433 0.552347 -0.156714
v 2.571877 0.540902 -0.145269
v 2.456714 0.552347 -0.156714
v 2.445270 0.540902 -0.145269
v 2.379186 0.034278 -0.084278
v 2.379186 0.465722 -0.084278
v 2.407647 0.442340 -0.276617
v 2.379186 0.057660 -0.276617
v 2.379186 0.442340 -0.276617
v 2.407647 0.057660 -0.276617
v 2.407647 0.057660 -0.107660
v 2.407647 0.442340 -0.107660
v 2.850000 -0.000000 -0.050000
v 2.850000 0.500000 -0.050000
v 2.600000 0.500000 -0.050000
v 2.600000 -0.000000 -0.050000
v 2.850000 0.465722 -0.084278
v 2.850000 0.034278 -0.084278
v 2.600000 0.465722 -0.050000
v 2.815722 0.465722 -0.050000
v 2.815722 0.034278 -0.050000
v 2.600000 0.034278 -0.050000
v 2.600000 0.500000 -0.084278
v 2.815722 0.500000 -0.084278
v 2.815722 -0.000000 -0.084278
v 2.600000 -0.000000 -0.084278
v 2.600000 0.470814 -0.084278
v 2.600000 0.029186 -0.084278
v 2.600000 0.465722 -0.079186
v 2.600000 0.034278 -0.079186
v 2.820814 0.442340 -0.107660
v 2.820814 0.057660 -0.107660
v 2.777559 0.427559 -0.079186
v 2.763060 0.072441 -0.064687
v 2.800218 0.470814 -0.099782
v 2.815722 0.029186 -0.084278
v 2.638164 0.427559 -0.079186
v 2.652663 0.072441 -0.064687
v 2.815722 0.465722 -0.079186
v 2.815722 0.034278 -0.079186
v 2.638164 0.427559 -0.065908
v 2.652663 0.072441 -0.032677
v 2.777559 0.427559 -0.065908
v 2.763060 0.072441 -0.032677
v 2.777559 0.072441 -0.079186
v 2.638164 0.072441 -0.079186
v 2.777559 0.072441 -0.018178
v 2.638164 0.072441 -0.018178
v 2.763060 0.092891 -0.064687
v 2.652663 0.092891 -0.064687
v 2.763060 0.092891 -0.032677
v 2.652663 0.092891 -0.032677
v 2.600000 0.470814 -0.099782
v 2.815722 0.470814 -0.084278
v 2.600000 0.530906 -0.117147
v 2.754731 0.530906 -0.145269
v 2.782854 0.530906 -0.117147
v 2.628123 0.530906 -0.145269
v 2.628123 0.530906 -0.271877
v 2.754731 0.530906 -0.271877
v 2.639568 0.552347 -0.260432
v 2.628123 0.540902 -0.271877
v 2.754731 0.540902 -0.271877
v 2.743286 0.552347 -0.260432
v 2.639568 0.552347 -0.156714
v 2.628123 0.540902 -0.145269
v 2.743286 0.552347 -0.156714
v 2.754731 0.540902 -0.145269
v 2.820814 0.034278 -0.084278
v 2.820814 0.465722 -0.084278
v 2.792354 0.442340 -0.276617
v 2.820814 0.057660 -0.276617
v 2.820814 0.442340 -0.276617
v 2.792354 0.057660 -0.276617
v 2.792354 0.057660 -0.107660
v 2.792354 0.442340 -0.107660
v 2.350000 -0.000000 -0.550000
v 2.350000 0.500000 -0.550000
v 2.350000 0.465722 -0.515722
v 2.350000 0.034278 -0.515722
v 2.384278 0.465722 -0.550000
v 2.384278 0.034278 -0.550000
v 2.384278 0.500000 -0.515722
v 2.384278 -0.000000 -0.515722
v 2.379186 0.442340 -0.492340
v 2.379186 0.057660 -0.492340
v 2.422441 0.427559 -0.520814
v 2.436940 0.072441 -0.535313
v 2.399782 0.470814 -0.500218
v 2.384278 0.029186 -0.515722
v 2.561837 0.427559 -0.520814
v 2.547338 0.072441 -0.535313
v 2.384278 0.465722 -0.520814
v 2.384278 0.034278 -0.520814
v 2.561837 0.427559 -0.534092
v 2.547338 0.072441 -0.567323
v 2.422441 0.427559 -0.534092
v 2.436940 0.072441 -0.567323
v 2.422441 0.072441 -0.520814
v 2.561837 0.072441 -0.520814
v 2.422441 0.072441 -0.581822
v 2.561837 0.072441 -0.581822
v 2.436940 0.092891 -0.535313
v 2.547338 0.092891 -0.535313
v 2.436940 0.092891 -0.567323
v 2.547338 0.092891 -0.567323
v 2.350000 0.500000 -0.300000
v 2.350000 -0.000000 -0.300000
v 2.350000 0.465722 -0.300000
v 2.350000 0.034278 -0.300000
v 2.384278 0.500000 -0.300000
v 2.384278 -0.000000 -0.300000
v 2.379186 0.465722 -0.300000
v 2.379186 0.034278 -0.300000
v 2.384278 0.470814 -0.300000
v 2.384278 0.029186 -0.300000
v 2.384278 0.470814 -0.515722
v 2.399782 0.470814 -0.300000
v 2.417147 0.530906 -0.300000
v 2.445270 0.530906 -0.454731
v 2.417147 0.530906 -0.482853
v 2.571877 0.530906 -0.454731
v 2.571877 0.530906 -0.328123
v 2.445270 0.530906 -0.328123
v 2.560433 0.552347 -0.339568
v 2.571877 0.540902 -0.328123
v 2.445270 0.540902 -0.328123
v 2.456714 0.552347 -0.339568
v 2.560433 0.552347 -0.443286
v 2.571877 0.540902 -0.454731
v 2.456714 0.552347 -0.443286
v 2.445270 0.540902 -0.454731
v 2.379186 0.034278 -0.515722
v 2.379186 0.465722 -0.515722
v 2.407647 0.442340 -0.323383
v 2.379186 0.057660 -0.323383
v 2.379186 0.442340 -0.323383
v 2.407647 0.057660 -0.323383
v 2.407647 0.057660 -0.492340
v 2.407647 0.442340 -0.492340
v 2.850000 -0.000000 -0.550000
v 2.850000 0.500000 -0.550000
v 2.600000 0.500000 -0.550000
v 2.600000 -0.000000 -0.550000
v 2.850000 0.465722 -0.515722
v 2.850000 0.034278 -0.515722
v 2.600000 0.465722 -0.550000
v 2.815722 0.465722 -0.550000
v 2.815722 0.034278 -0.550000
v 2.600000 0.034278 -0.550000
v 2.600000 0.500000 -0.515722
v 2.815722 0.500000 -0.515722
v 2.815722 -0.000000 -0.515722
v 2.600000 -0.000000 -0.515722
v 2.600000 0.470814 -0.515722
v 2.600000 0.029186 -0.515722
v 2.600000 0.465722 -0.520814
v 2.600000 0.034278 -0.520814
v 2.820814 0.442340 -0.492340
v 2.820814 0.057660 -0.492340
v 2.777559 0.427559 -0.520814
v 2.763060 0.072441 -0.535313
v 2.800218 0.470814 -0.500218
v 2.815722 0.029186 -0.515722
v 2.638164 0.427559 -0.520814
v 2.652663 0.072441 -0.535313
v 2.815722 0.465722 -0.520814
v 2.815722 0.034278 -0.520814
v 2.638164 0.427559 -0.534092
v 2.652663 0.072441 -0.567323
v 2.777559 0.427559 -0.534092
v 2.763060 0.072441 -0.567323
v 2.777559 0.072441 -0.520814
v 2.638164 0.072441 -0.520814
v 2.777559 0.072441 -0.581822
v 2.638164 0.072441 -0.581822
v 2.763060 0.092891 -0.535313
v 2.652663 0.092891 -0.535313
v 2.763060 0.092891 -0.567323
v 2.652663 0.092891 -0.567323
v 2.850000 0.500000 -0.300000
v 2.850000 -0.000000 -0.300000
v 2.850000 0.465722 -0.300000
v 2.850000 0.034278 -0.300000
v 2.815722 0.500000 -0.300000
v 2.815722 -0.000000 -0.300000
v 2.600000 0.029186 -0.300000
v 2.600000 0.530906 -0.300000
v 2.820814 0.465722 -0.300000
v 2.820814 0.034278 -0.300000
v 2.815722 0.470814 -0.300000
v 2.815722 0.029186 -0.300000
v 2.600000 0.470814 -0.500218
v 2.815722 0.470814 -0.515722
v 2.600000 0.530906 -0.482853
v 2.800218 0.470814 -0.300000
v 2.782854 0.530906 -0.300000
v 2.754731 0.530906 -0.454731
v 2.782854 0.530906 -0.482853
v 2.628123 0.530906 -0.454731
v 2.628123 0.530906 -0.328123
v 2.754731 0.530906 -0.328123
v 2.639568 0.552347 -0.339568
v 2.628123 0.540902 -0.328123
v 2.754731 0.540902 -0.328123
v 2.743286 0.552347 -0.339568
v 2.639568 0.552347 -0.443286
v 2.628123 0.540902 -0.454731
v 2.743286 0.552347 -0.443286
v 2.754731 0.540902 -0.454731
v 2.820814 0.034278 -0.515722
v 2.820814 0.465722 -0.515722
v 2.792354 0.442340 -0.323383
v 2.820814 0.057660 -0.323383
v 2.820814 0.442340 -0.323383
v 2.792354 0.057660 -0.323383
v 2.792354 0.057660 -0.492340
v 2.792354 0.442340 -0.492340
vt 0.924315 0.465665
vt 0.924315 0.821676
vt 0.900232 0.821676
vt 0.900232 0.465665
vt 0.924952 0.999682
vt 0.924952 0.821672
vt 0.949035 0.821672
vt 0.949035 0.999682
vt 0.207247 0.000318
vt 0.413540 0.000318
vt 0.385255 0.028603
vt 0.207247 0.028603
vt 0.413540 0.412900
vt 0.385256 0.384615
vt 0.206611 0.412900
vt 0.000318 0.412900
vt 0.028603 0.384615
vt 0.206611 0.384615
vt 0.000318 0.000318
vt 0.028603 0.028603
vt 0.206609 0.000318
vt 0.206609 0.028603
vt 0.799111 0.679724
vt 0.592820 0.679724
vt 0.621105 0.651439
vt 0.799111 0.651439
vt 0.592820 0.680360
vt 0.799111 0.680431
vt 0.799102 0.708716
vt 0.621095 0.708654
vt 0.690172 0.114945
vt 0.724902 0.000318
vt 0.746135 0.006751
vt 0.711405 0.121378
vt 0.004350 0.607261
vt 0.212407 0.619660
vt 0.185888 0.648372
vt 0.002537 0.630180
vt 0.592820 0.795573
vt 0.770827 0.795573
vt 0.770827 0.819656
vt 0.592820 0.819656
vt 0.924952 0.465662
vt 0.949035 0.465662
vt 0.924952 0.287656
vt 0.949034 0.287656
vt 0.166080 0.670273
vt 0.000318 0.649670
vt 0.924315 0.287656
vt 0.900232 0.287656
vt 0.592175 0.798541
vt 0.414168 0.798480
vt 0.414176 0.774397
vt 0.592183 0.774458
vt 0.739336 0.612179
vt 0.739336 0.319147
vt 0.770827 0.287656
vt 0.770827 0.643670
vt 0.624311 0.612179
vt 0.592820 0.643670
vt 0.624311 0.319147
vt 0.592820 0.287656
vt 0.593184 0.277560
vt 0.506327 0.272020
vt 0.474682 0.000318
vt 0.622189 0.000318
vt 0.683857 0.017927
vt 0.600365 0.287020
vt 0.498784 0.282939
vt 0.414177 0.016791
vt 0.727371 0.331111
vt 0.636275 0.331111
vt 0.636275 0.357525
vt 0.727371 0.357525
vt 0.739335 0.369489
vt 0.624311 0.369489
vt 0.763329 0.187480
vt 0.735183 0.192382
vt 0.701545 0.143365
vt 0.684494 0.147003
vt 0.731014 0.208125
vt 0.763329 0.208125
vt 0.220471 0.834099
vt 0.189788 0.839139
vt 0.340643 0.606625
vt 0.000318 0.606625
vt 0.029101 0.577322
vt 0.308194 0.581903
vt 0.243701 0.830189
vt 0.426970 0.722146
vt 0.592183 0.722146
vt 0.592183 0.773761
vt 0.441299 0.773761
vt 0.000318 0.839139
vt 0.207249 0.412900
vt 0.207249 0.384616
vt 0.924315 0.999682
vt 0.900232 0.999682
vt 0.592184 0.695922
vt 0.426971 0.695922
vt 0.441299 0.644307
vt 0.592184 0.644308
vt 0.414177 0.709352
vt 0.592183 0.709352
vt 0.592184 0.708716
vt 0.414177 0.708716
vt 0.867012 0.528779
vt 0.776629 0.583807
vt 0.771463 0.575073
vt 0.859826 0.523214
vt 0.267544 0.630467
vt 0.267544 0.734939
vt 0.244338 0.758145
vt 0.244338 0.607261
vt 0.372016 0.734939
vt 0.372016 0.630467
vt 0.395222 0.607261
vt 0.395222 0.758146
vt 0.867912 0.348039
vt 0.899595 0.439075
vt 0.890909 0.439537
vt 0.861549 0.353381
vt 0.776231 0.287656
vt 0.771463 0.294895
vt 0.849691 0.514343
vt 0.876528 0.438920
vt 0.849327 0.362555
vt 0.772176 0.315530
vt 0.773064 0.558269
vt 0.678405 0.709352
vt 0.678405 0.794937
vt 0.592820 0.794937
vt 0.592820 0.709352
vt 0.572889 0.624377
vt 0.572888 0.306951
vt 0.592183 0.287656
vt 0.592183 0.643671
vt 0.433471 0.306951
vt 0.414177 0.287656
vt 0.433471 0.624377
vt 0.414177 0.643671
vt 0.320942 0.442839
vt 0.041849 0.438258
vt 0.349726 0.413537
vt 0.009401 0.413537
vn 0.000000 0.000000 -1.000000
vn 0.000000 -1.000000 0.000000
vn -1.000000 0.000000 0.000000
vn 0.000000 0.000000 1.000000
vn 0.000000 1.000000 0.000000
vn 1.000000 0.000000 0.000000
vn 0.000000 0.133200 0.991100
vn 0.000000 0.277600 0.960700
vn -0.960700 0.277600 0.000000
vn 0.000000 0.707100 -0.707100
vn 0.707100 0.707100 0.000000
vn 0.000000 0.707100 0.707100
vn -0.707100 0.707100 0.000000
vn 0.960700 0.277600 0.000000
vn 0.000000 0.133200 -0.991100
vn 0.000000 0.277600 -0.960700
usemtl None
s off
f 4/1/1 3/2/1 46/3/1 45/4/1
f 59/5/2 5/6/2 17/7/2 69/8/2
f 148/9/3 1/10/3 4/11/3 150/12/3
f 1/10/3 2/13/3 3/14/3 4/11/3
f 55/15/4 2/16/4 5/17/4 59/18/4
f 2/16/4 1/19/4 6/20/4 5/17/4
f 1/19/4 56/21/4 62/22/4 6/20/4
f 147/23/5 2/24/5 7/25/5 151/26/5
f 2/27/5 55/28/5 63/29/5 7/30/5
f 12/31/4 16/32/4 28/33/4 27/34/4
f 56/35/2 1/36/2 8/37/2 66/38/2
f 7/39/1 63/40/1 67/41/1 31/42/1
f 5/6/6 6/43/6 18/44/6 17/7/6
f 6/43/5 62/45/5 70/46/5 18/44/5
f 66/38/1 8/37/1 14/47/1 68/48/1
f 150/49/5 4/1/5 45/4/5 154/50/5
f 151/51/6 7/52/6 31/53/6 155/54/6
f 15/55/4 24/56/4 70/57/4 69/58/4
f 11/59/4 15/55/4 69/58/4 17/60/4
f 23/61/4 11/59/4 17/60/4 18/62/4
f 24/56/4 23/61/4 18/62/4 70/57/4
f 19/63/7 21/64/7 25/65/7 26/66/7
f 24/67/6 15/68/6 19/63/6 26/66/6
f 15/68/5 11/69/5 21/64/5 19/63/5
f 11/69/3 23/70/3 25/65/3 21/64/3
f 16/71/2 12/72/2 23/61/2 24/56/2
f 22/73/2 20/74/2 26/75/2 25/76/2
f 20/74/2 16/71/2 24/56/2 26/75/2
f 12/72/2 22/73/2 25/76/2 23/61/2
f 27/34/2 28/77/2 30/78/2 29/79/2
f 22/80/6 12/31/6 27/34/6 29/79/6
f 20/81/1 22/80/1 29/79/1 30/78/1
f 16/82/3 20/81/3 30/78/3 28/77/3
f 8/37/6 152/83/6 156/84/6 14/47/6
f 49/85/4 48/86/4 50/87/4 47/88/4
f 1/36/2 148/89/2 152/83/2 8/37/2
f 13/90/8 93/91/8 95/92/8 33/93/8
f 14/47/2 156/84/2 227/94/2 68/48/2
f 2/13/3 147/95/3 149/96/3 3/14/3
f 3/2/2 149/97/2 153/98/2 46/3/2
f 158/99/9 13/100/9 33/101/9 159/102/9
f 93/91/5 13/90/5 31/103/5 67/104/5
f 13/100/5 158/99/5 155/105/5 31/106/5
f 36/107/3 32/108/3 44/109/3 39/110/3
f 34/111/5 32/112/5 33/113/5 95/114/5
f 36/115/5 35/116/5 228/117/5 159/118/5
f 35/116/5 34/111/5 95/114/5 228/117/5
f 32/112/5 36/115/5 159/118/5 33/113/5
f 34/119/6 35/120/6 38/121/6 42/122/6
f 35/120/1 36/107/1 39/110/1 38/121/1
f 32/123/4 34/119/4 42/122/4 44/124/4
f 38/121/10 39/110/10 40/125/10 37/126/10
f 37/126/11 41/127/11 42/122/11 38/121/11
f 41/127/12 43/128/12 44/124/12 42/122/12
f 43/129/13 40/125/13 39/110/13 44/109/13
f 41/130/5 37/131/5 40/132/5 43/133/5
f 9/134/3 10/135/3 45/136/3 46/137/3
f 10/135/3 48/138/3 154/139/3 45/136/3
f 49/140/3 9/134/3 46/137/3 153/141/3
f 48/138/3 49/140/3 153/141/3 154/139/3
f 52/142/3 47/88/3 50/87/3 51/143/3
f 9/144/2 49/85/2 47/88/2 52/142/2
f 10/145/1 9/144/1 52/142/1 51/143/1
f 48/86/5 10/145/5 51/143/5 50/87/5
f 58/1/1 109/4/1 110/3/1 57/2/1
f 59/5/2 69/8/2 79/7/2 60/6/2
f 222/9/6 224/12/6 58/11/6 53/10/6
f 53/10/6 58/11/6 57/14/6 54/13/6
f 55/15/4 59/18/4 60/17/4 54/16/4
f 54/16/4 60/17/4 61/20/4 53/19/4
f 53/19/4 61/20/4 62/22/4 56/21/4
f 221/23/5 225/26/5 64/25/5 54/24/5
f 54/27/5 64/30/5 63/29/5 55/28/5
f 74/31/4 89/34/4 90/33/4 78/32/4
f 56/35/2 66/38/2 65/37/2 53/36/2
f 64/39/1 94/42/1 67/41/1 63/40/1
f 60/6/3 79/7/3 80/44/3 61/43/3
f 61/43/5 80/44/5 70/46/5 62/45/5
f 66/38/1 68/48/1 76/47/1 65/37/1
f 224/49/5 230/50/5 109/4/5 58/1/5
f 225/51/3 231/54/3 94/53/3 64/52/3
f 77/55/4 69/58/4 70/57/4 86/56/4
f 73/59/4 79/60/4 69/58/4 77/55/4
f 85/61/4 80/62/4 79/60/4 73/59/4
f 86/56/4 70/57/4 80/62/4 85/61/4
f 81/63/7 88/66/7 87/65/7 83/64/7
f 86/67/3 88/66/3 81/63/3 77/68/3
f 77/68/5 81/63/5 83/64/5 73/69/5
f 73/69/6 83/64/6 87/65/6 85/70/6
f 78/71/2 86/56/2 85/61/2 74/72/2
f 84/73/2 87/76/2 88/75/2 82/74/2
f 82/74/2 88/75/2 86/56/2 78/71/2
f 74/72/2 85/61/2 87/76/2 84/73/2
f 89/34/2 91/79/2 92/78/2 90/77/2
f 84/80/3 91/79/3 89/34/3 74/31/3
f 82/81/1 92/78/1 91/79/1 84/80/1
f 78/82/6 90/77/6 92/78/6 82/81/6
f 65/37/3 76/47/3 232/84/3 226/83/3
f 113/85/4 111/88/4 114/87/4 112/86/4
f 53/36/2 65/37/2 226/83/2 222/89/2
f 75/90/8 97/93/8 95/92/8 93/91/8
f 76/47/2 68/48/2 227/94/2 232/84/2
f 54/13/6 57/14/6 223/96/6 221/95/6
f 57/2/2 110/3/2 229/98/2 223/97/2
f 236/99/14 237/102/14 97/101/14 75/100/14
f 93/91/5 67/104/5 94/103/5 75/90/5
f 75/100/5 94/106/5 231/105/5 236/99/5
f 100/107/6 103/110/6 108/109/6 96/108/6
f 98/111/5 95/114/5 97/113/5 96/112/5
f 100/115/5 237/118/5 228/117/5 99/116/5
f 99/116/5 228/117/5 95/114/5 98/111/5
f 96/112/5 97/113/5 237/118/5 100/115/5
f 98/119/3 106/122/3 102/121/3 99/120/3
f 99/120/1 102/121/1 103/110/1 100/107/1
f 96/123/4 108/124/4 106/122/4 98/119/4
f 102/121/10 101/126/10 104/125/10 103/110/10
f 101/126/13 102/121/13 106/122/13 105/127/13
f 105/127/12 106/122/12 108/124/12 107/128/12
f 107/129/11 108/109/11 103/110/11 104/125/11
f 105/130/5 107/133/5 104/132/5 101/131/5
f 71/134/6 110/137/6 109/136/6 72/135/6
f 72/135/6 109/136/6 230/139/6 112/138/6
f 113/140/6 229/141/6 110/137/6 71/134/6
f 112/138/6 230/139/6 229/141/6 113/140/6
f 116/142/6 115/143/6 114/87/6 111/88/6
f 71/144/2 116/142/2 111/88/2 113/85/2
f 72/145/1 115/143/1 116/142/1 71/144/1
f 112/86/5 114/87/5 115/143/5 72/145/5
f 120/1/4 173/4/4 174/3/4 119/2/4
f 187/5/2 197/8/2 133/7/2 121/6/2
f 148/9/3 150/12/3 120/11/3 117/10/3
f 117/10/3 120/11/3 119/14/3 118/13/3
f 183/15/1 187/18/1 121/17/1 118/16/1
f 118/16/1 121/17/1 122/20/1 117/19/1
f 117/19/1 122/20/1 190/22/1 184/21/1
f 147/23/5 151/26/5 123/25/5 118/24/5
f 118/27/5 123/30/5 191/29/5 183/28/5
f 128/31/1 143/34/1 144/33/1 132/32/1
f 184/35/2 194/38/2 124/37/2 117/36/2
f 123/39/4 157/42/4 195/41/4 191/40/4
f 121/6/6 133/7/6 134/44/6 122/43/6
f 122/43/5 134/44/5 198/46/5 190/45/5
f 194/38/4 196/48/4 130/47/4 124/37/4
f 150/49/5 154/50/5 173/4/5 120/1/5
f 151/51/6 155/54/6 157/53/6 123/52/6
f 131/55/1 197/58/1 198/57/1 140/56/1
f 127/59/1 133/60/1 197/58/1 131/55/1
f 139/61/1 134/62/1 133/60/1 127/59/1
f 140/56/1 198/57/1 134/62/1 139/61/1
f 135/63/15 142/66/15 141/65/15 137/64/15
f 140/67/6 142/66/6 135/63/6 131/68/6
f 131/68/5 135/63/5 137/64/5 127/69/5
f 127/69/3 137/64/3 141/65/3 139/70/3
f 132/71/2 140/56/2 139/61/2 128/72/2
f 138/73/2 141/76/2 142/75/2 136/74/2
f 136/74/2 142/75/2 140/56/2 132/71/2
f 128/72/2 139/61/2 141/76/2 138/73/2
f 143/34/2 145/79/2 146/78/2 144/77/2
f 138/80/6 145/79/6 143/34/6 128/31/6
f 136/81/4 146/78/4 145/79/4 138/80/4
f 132/82/3 144/77/3 146/78/3 136/81/3
f 124/37/6 130/47/6 156/84/6 152/83/6
f 177/85/1 175/88/1 178/87/1 176/86/1
f 117/36/2 124/37/2 152/83/2 148/89/2
f 129/90/16 161/93/16 235/92/16 233/91/16
f 130/47/2 196/48/2 227/94/2 156/84/2
f 118/13/3 119/14/3 149/96/3 147/95/3
f 119/2/2 174/3/2 153/98/2 149/97/2
f 158/99/9 159/102/9 161/101/9 129/100/9
f 233/91/5 195/104/5 157/103/5 129/90/5
f 129/100/5 157/106/5 155/105/5 158/99/5
f 164/107/3 167/110/3 172/109/3 160/108/3
f 162/111/5 235/114/5 161/113/5 160/112/5
f 164/115/5 159/118/5 228/117/5 163/116/5
f 163/116/5 228/117/5 235/114/5 162/111/5
f 160/112/5 161/113/5 159/118/5 164/115/5
f 162/119/6 170/122/6 166/121/6 163/120/6
f 163/120/4 166/121/4 167/110/4 164/107/4
f 160/123/1 172/124/1 170/122/1 162/119/1
f 166/121/12 165/126/12 168/125/12 167/110/12
f 165/126/11 166/121/11 170/122/11 169/127/11
f 169/127/10 170/122/10 172/124/10 171/128/10
f 171/129/13 172/109/13 167/110/13 168/125/13
f 169/130/5 171/133/5 168/132/5 165/131/5
f 125/134/3 174/137/3 173/136/3 126/135/3
f 126/135/3 173/136/3 154/139/3 176/138/3
f 177/140/3 153/141/3 174/137/3 125/134/3
f 176/138/3 154/139/3 153/141/3 177/140/3
f 180/142/3 179/143/3 178/87/3 175/88/3
f 125/144/2 180/142/2 175/88/2 177/85/2
f 126/145/4 179/143/4 180/142/4 125/144/4
f 176/86/5 178/87/5 179/143/5 126/145/5
f 186/1/4 185/2/4 252/3/4 251/4/4
f 187/5/2 188/6/2 207/7/2 197/8/2
f 222/9/6 181/10/6 186/11/6 224/12/6
f 181/10/6 182/13/6 185/14/6 186/11/6
f 183/15/1 182/16/1 188/17/1 187/18/1
f 182/16/1 181/19/1 189/20/1 188/17/1
f 181/19/1 184/21/1 190/22/1 189/20/1
f 221/23/5 182/24/5 192/25/5 225/26/5
f 182/27/5 183/28/5 191/29/5 192/30/5
f 202/31/1 206/32/1 218/33/1 217/34/1
f 184/35/2 181/36/2 193/37/2 194/38/2
f 192/39/4 191/40/4 195/41/4 234/42/4
f 188/6/3 189/43/3 208/44/3 207/7/3
f 189/43/5 190/45/5 198/46/5 208/44/5
f 194/38/4 193/37/4 204/47/4 196/48/4
f 224/49/5 186/1/5 251/4/5 230/50/5
f 225/51/3 192/52/3 234/53/3 231/54/3
f 205/55/1 214/56/1 198/57/1 197/58/1
f 201/59/1 205/55/1 197/58/1 207/60/1
f 213/61/1 201/59/1 207/60/1 208/62/1
f 214/56/1 213/61/1 208/62/1 198/57/1
f 209/63/15 211/64/15 215/65/15 216/66/15
f 214/67/3 205/68/3 209/63/3 216/66/3
f 205/68/5 201/69/5 211/64/5 209/63/5
f 201/69/6 213/70/6 215/65/6 211/64/6
f 206/71/2 202/72/2 213/61/2 214/56/2
f 212/73/2 210/74/2 216/75/2 215/76/2
f 210/74/2 206/71/2 214/56/2 216/75/2
f 202/72/2 212/73/2 215/76/2 213/61/2
f 217/34/2 218/77/2 220/78/2 219/79/2
f 212/80/3 202/31/3 217/34/3 219/79/3
f 210/81/4 212/80/4 219/79/4 220/78/4
f 206/82/6 210/81/6 220/78/6 218/77/6
f 193/37/3 226/83/3 232/84/3 204/47/3
f 255/85/1 254/86/1 256/87/1 253/88/1
f 181/36/2 222/89/2 226/83/2 193/37/2
f 203/90/16 233/91/16 235/92/16 239/93/16
f 204/47/2 232/84/2 227/94/2 196/48/2
f 182/13/6 221/95/6 223/96/6 185/14/6
f 185/2/2 223/97/2 229/98/2 252/3/2
f 236/99/14 203/100/14 239/101/14 237/102/14
f 233/91/5 203/90/5 234/103/5 195/104/5
f 203/100/5 236/99/5 231/105/5 234/106/5
f 242/107/6 238/108/6 250/109/6 245/110/6
f 240/111/5 238/112/5 239/113/5 235/114/5
f 242/115/5 241/116/5 228/117/5 237/118/5
f 241/116/5 240/111/5 235/114/5 228/117/5
f 238/112/5 242/115/5 237/118/5 239/113/5
f 240/119/3 241/120/3 244/121/3 248/122/3
f 241/120/4 242/107/4 245/110/4 244/121/4
f 238/123/1 240/119/1 248/122/1 250/124/1
f 244/121/12 245/110/12 246/125/12 243/126/12
f 243/126/13 247/127/13 248/122/13 244/121/13
f 247/127/10 249/128/10 250/124/10 248/122/10
f 249/129/11 246/125/11 245/110/11 250/109/11
f 247/130/5 243/131/5 246/132/5 249/133/5
f 199/134/6 200/135/6 251/136/6 252/137/6
f 200/135/6 254/138/6 230/139/6 251/136/6
f 255/140/6 199/134/6 252/137/6 229/141/6
f 254/138/6 255/140/6 229/141/6 230/139/6
f 258/142/6 253/88/6 256/87/6 257/143/6
f 199/144/2 255/85/2 253/88/2 258/142/2
f 200/145/4 199/144/4 258/142/4 257/143/4
f 254/86/5 200/145/5 257/143/5 256/87/5
