# Blender v2.78 (sub 0) OBJ File: 'Asset_Master_Hangar_Kit.blend'
# www.blender.org
mtllib wall_pipe_B.mtl
o Circle.002
v 0.126855 0.000000 0.219719
v 0.000000 0.000000 0.253710
v 0.219719 0.000000 0.126855
v 0.253710 0.000000 -0.000000
v 0.219719 0.000000 -0.126855
v 0.103080 0.000000 -0.209871
v -0.000000 0.000000 -0.237491
v -0.103080 0.000000 -0.209871
v -0.219719 0.000000 -0.126855
v -0.253710 0.000000 -0.000000
v -0.219719 0.000000 0.126855
v -0.126855 0.000000 0.219719
v -0.050742 0.000000 0.087888
v -0.087888 0.000000 0.050742
v -0.101484 0.000000 -0.000000
v -0.087888 0.000000 -0.050742
v -0.043185 0.000000 -0.106131
v -0.000000 0.000000 -0.117702
v 0.043185 0.000000 -0.106131
v 0.087888 0.000000 -0.050742
v 0.101484 0.000000 -0.000000
v 0.087888 0.000000 0.050742
v 0.000000 0.000000 0.101484
v 0.050742 0.000000 0.087888
v -0.050742 0.041716 0.087888
v -0.087888 0.041716 0.050742
v -0.101484 0.041716 -0.000000
v -0.087888 0.041716 -0.050742
v -0.050742 0.041716 -0.087888
v -0.000000 0.041716 -0.101484
v 0.050742 0.041716 -0.087888
v 0.087888 0.041716 -0.050742
v 0.101484 0.041716 -0.000000
v 0.087888 0.041716 0.050742
v 0.000000 0.041716 0.101484
v 0.050742 0.041716 0.087888
v 0.126855 -0.014551 0.219719
v 0.000000 -0.014551 0.253710
v 0.219719 -0.014551 0.126855
v 0.253710 -0.014551 -0.000000
v 0.219719 -0.014551 -0.126855
v 0.126855 -0.014551 -0.219719
v -0.000000 -0.014551 -0.253710
v -0.126855 -0.014551 -0.219719
v -0.219719 -0.014551 -0.126855
v -0.253710 -0.014551 -0.000000
v -0.219719 -0.014551 0.126855
v -0.126855 -0.014551 0.219719
v -0.050742 0.058873 0.096185
v -0.087888 0.073088 0.061867
v -0.101484 0.092506 0.014987
v -0.087888 0.111924 -0.031892
v -0.050742 0.126139 -0.066210
v 0.000000 0.131342 -0.078772
v 0.050742 0.126139 -0.066210
v 0.087888 0.111924 -0.031892
v 0.101484 0.092506 0.014987
v 0.087888 0.073088 0.061867
v 0.000000 0.053670 0.108746
v 0.050742 0.058873 0.096185
v -0.050742 0.071549 0.110416
v -0.087888 0.097815 0.084150
v -0.101484 0.133695 0.048270
v -0.087888 0.169575 0.012390
v -0.050742 0.195841 -0.013876
v 0.000000 0.205455 -0.023490
v 0.050742 0.195841 -0.013876
v 0.087888 0.169575 0.012390
v 0.101484 0.133695 0.048270
v 0.087888 0.097815 0.084150
v 0.000000 0.061935 0.120030
v 0.050742 0.071549 0.110416
v -0.050742 0.077814 0.128415
v -0.087888 0.112133 0.114200
v -0.101484 0.159012 0.094782
v -0.087888 0.205891 0.075364
v -0.050742 0.240210 0.061149
v 0.000000 0.252771 0.055946
v 0.050742 0.240210 0.061149
v 0.087888 0.205891 0.075364
v 0.101484 0.159012 0.094782
v 0.087888 0.112132 0.114200
v 0.000000 0.065253 0.133618
v 0.050742 0.077814 0.128415
v -0.050742 0.076715 0.147441
v -0.087888 0.113860 0.147441
v -0.101484 0.164602 0.147441
v -0.087888 0.215344 0.147441
v -0.050742 0.252490 0.147441
v 0.000000 0.266086 0.147441
v 0.050742 0.252490 0.147441
v 0.087888 0.215344 0.147441
v 0.101484 0.164602 0.147441
v 0.087888 0.113860 0.147441
v 0.000000 0.063118 0.147441
v 0.050742 0.076715 0.147441
v -0.033805 0.106051 0.147441
v -0.058551 0.130798 0.147441
v -0.067609 0.164602 0.147441
v -0.058551 0.198407 0.147441
v -0.033805 0.223154 0.147441
v 0.000000 0.232211 0.147441
v 0.033805 0.223154 0.147441
v 0.058551 0.198407 0.147441
v 0.067609 0.164602 0.147441
v 0.058551 0.130798 0.147441
v 0.000000 0.096993 0.147441
v 0.033805 0.106051 0.147441
v -0.040648 0.106051 0.138458
v -0.065395 0.130798 0.138458
v -0.074453 0.164602 0.138458
v -0.065395 0.198407 0.138458
v -0.040648 0.223154 0.138458
v -0.006843 0.232211 0.138458
v 0.026961 0.223154 0.138458
v 0.051708 0.198407 0.138458
v 0.060766 0.164602 0.138458
v 0.051708 0.130798 0.138458
v -0.006843 0.096993 0.138458
v 0.026961 0.106051 0.138458
v -0.010516 0.158241 0.138458
v -0.013205 0.160929 0.138458
v -0.014189 0.164602 0.138458
v -0.013205 0.168275 0.138458
v -0.010516 0.170964 0.138458
v -0.006843 0.171948 0.138458
v -0.003171 0.170964 0.138458
v -0.000482 0.168275 0.138458
v 0.000502 0.164602 0.138458
v -0.000482 0.160929 0.138458
v -0.006843 0.157257 0.138458
v -0.003171 0.158241 0.138458
v -0.126855 0.000000 -0.219719
v -0.000000 0.000000 -0.253710
v 0.126855 0.000000 -0.219719
v 0.050742 0.000000 -0.087888
v -0.050742 0.000000 -0.087888
v -0.000000 0.000000 -0.101484
v -0.000000 0.020184 -0.124438
v -0.000000 0.020184 -0.226998
v -0.088254 0.020184 -0.203350
v 0.088254 0.020184 -0.203350
v 0.036974 0.020184 -0.114531
v -0.036974 0.020184 -0.114531
vt 0.2422 0.7626
vt 0.2422 0.8829
vt 0.2140 0.8640
vt 0.2140 0.7610
vt 0.2278 0.3183
vt 0.4211 0.2672
vt 0.4556 0.3263
vt 0.3141 0.4661
vt 0.4556 0.3184
vt 0.6489 0.2672
vt 0.6835 0.3263
vt 0.5420 0.4661
vt 0.0863 0.0000
vt 0.2278 0.1398
vt 0.1933 0.1989
vt 0.0000 0.1478
vt 0.7698 0.0000
vt 0.9113 0.1398
vt 0.8767 0.1989
vt 0.6835 0.1477
vt 0.2278 0.1477
vt 0.4211 0.1989
vt 0.8324 0.7604
vt 0.8324 0.8954
vt 0.8043 0.8849
vt 0.8043 0.7694
vt 0.1933 0.2672
vt 0.0000 0.3184
vt 0.2278 0.3263
vt 0.0863 0.4661
vt 0.3141 0.0000
vt 0.4556 0.1398
vt 0.8767 0.2672
vt 0.6835 0.3183
vt 0.4556 0.1478
vt 0.6489 0.1989
vt 0.6662 0.4661
vt 0.7063 0.4787
vt 0.6976 0.5319
vt 0.6576 0.5193
vt 0.9979 0.8945
vt 0.9324 0.8945
vt 0.9323 0.8403
vt 0.9978 0.8403
vt 0.9323 0.9266
vt 0.8667 0.9388
vt 0.8585 0.8856
vt 0.9240 0.8735
vt 0.6549 0.9414
vt 0.5950 0.9399
vt 0.5926 0.8861
vt 0.6525 0.8877
vt 0.6407 0.7138
vt 0.6377 0.7684
vt 0.5838 0.7610
vt 0.5868 0.7063
vt 0.3887 0.8270
vt 0.3880 0.7760
vt 0.4429 0.7756
vt 0.4435 0.8266
vt 0.9556 0.6040
vt 0.8894 0.6124
vt 0.8806 0.5594
vt 0.9468 0.5509
vt 0.6493 0.6466
vt 0.5953 0.6391
vt 0.7685 0.4917
vt 0.7599 0.5449
vt 0.6576 0.6295
vt 0.5980 0.6362
vt 0.5956 0.5824
vt 0.6552 0.5757
vt 0.5290 0.6391
vt 0.5266 0.5854
vt 0.3893 0.8939
vt 0.4441 0.8934
vt 0.9556 0.6332
vt 0.9558 0.4661
vt 0.9750 0.4661
vt 0.9747 0.6333
vt 0.4842 0.9249
vt 0.4842 0.7769
vt 0.5031 0.7756
vt 0.5031 0.9236
vt 0.9303 0.1711
vt 0.9359 0.3193
vt 0.9169 0.3186
vt 0.9113 0.1705
vt 0.9359 0.0006
vt 0.9169 0.0000
vt 0.9359 0.1693
vt 0.9413 0.0000
vt 0.9603 0.0009
vt 0.9549 0.1701
vt 0.9558 0.7608
vt 0.9750 0.7609
vt 0.3691 0.9514
vt 0.3627 0.7944
vt 0.3816 0.7927
vt 0.3880 0.9498
vt 0.9245 0.7936
vt 0.9245 0.6317
vt 0.9436 0.6317
vt 0.9436 0.7936
vt 0.3582 0.6891
vt 0.3582 0.8541
vt 0.3392 0.8547
vt 0.3392 0.6898
vt 0.9413 0.3060
vt 0.9603 0.3068
vt 0.2611 0.7617
vt 0.2611 0.9265
vt 0.2422 0.9258
vt 0.2422 0.7610
vt 0.3691 0.6908
vt 0.3880 0.6891
vt 0.5599 0.7684
vt 0.5439 0.7148
vt 0.8903 0.4661
vt 0.9556 0.4831
vt 0.5266 0.6490
vt 0.7685 0.6130
vt 0.7072 0.6256
vt 0.8679 0.8180
vt 0.9323 0.8313
vt 0.5981 0.4700
vt 0.6576 0.4821
vt 0.5292 0.4661
vt 0.4661 0.8270
vt 0.4599 0.8939
vt 0.9328 0.8247
vt 0.9984 0.8180
vt 0.6678 0.6317
vt 0.5949 0.7738
vt 0.6549 0.7684
vt 0.4842 0.7761
vt 0.8104 0.5289
vt 0.7685 0.4748
vt 0.7976 0.4684
vt 0.8290 0.5258
vt 0.4175 0.5877
vt 0.3880 0.5400
vt 0.4025 0.5198
vt 0.4465 0.5553
vt 0.1481 0.7193
vt 0.0945 0.7600
vt 0.0560 0.6740
vt 0.1216 0.6560
vt 0.4514 0.6469
vt 0.5002 0.5978
vt 0.2243 0.4927
vt 0.2725 0.5323
vt 0.2462 0.5960
vt 0.1861 0.5793
vt 0.7384 0.7818
vt 0.6912 0.8270
vt 0.6613 0.7652
vt 0.7217 0.7420
vt 0.1058 0.7604
vt 0.1017 0.8202
vt 0.0010 0.8201
vt 0.0223 0.7600
vt 0.1069 0.8883
vt 0.0000 0.8883
vt 0.8226 0.5952
vt 0.8373 0.5934
vt 0.9323 0.9609
vt 0.9486 0.8987
vt 0.9631 0.8958
vt 0.9506 0.9565
vt 0.1950 0.4661
vt 0.1481 0.5694
vt 0.7163 0.9327
vt 0.6576 0.9459
vt 0.6577 0.8464
vt 0.7163 0.8270
vt 0.3880 0.6891
vt 0.3213 0.6768
vt 0.3213 0.5786
vt 0.3880 0.5852
vt 0.8370 0.4661
vt 0.8526 0.5252
vt 0.4082 0.4958
vt 0.4609 0.5147
vt 0.0537 0.5798
vt 0.1216 0.5874
vt 0.5266 0.5343
vt 0.2462 0.6646
vt 0.1838 0.6735
vt 0.6576 0.6966
vt 0.7217 0.6988
vt 0.0041 0.6852
vt 0.0000 0.5723
vt 0.2725 0.7015
vt 0.3392 0.6891
vt 0.3392 0.7931
vt 0.2725 0.7997
vt 0.8551 0.5934
vt 0.9809 0.8945
vt 0.9741 0.9542
vt 0.2725 0.6431
vt 0.2725 0.5607
vt 0.3213 0.4663
vt 0.3880 0.4661
vt 0.8806 0.4682
vt 0.8776 0.5271
vt 0.4041 0.4717
vt 0.4585 0.4719
vt 0.0878 0.4916
vt 0.1481 0.5237
vt 0.5266 0.4661
vt 0.2725 0.7278
vt 0.2177 0.7610
vt 0.6806 0.6317
vt 0.7384 0.6588
vt 0.0398 0.4661
vt 0.3392 0.9122
vt 0.2725 0.9119
vt 0.8733 0.5952
vt 0.9991 0.8950
vt 0.9991 0.9543
vt 0.2725 0.4669
vt 0.5266 0.8957
vt 0.5266 0.8275
vt 0.5696 0.8388
vt 0.5696 0.8843
vt 0.5611 0.9547
vt 0.5926 0.9236
vt 0.8043 0.8194
vt 0.8043 0.8876
vt 0.7614 0.8763
vt 0.7614 0.8309
vt 0.8585 0.7589
vt 0.8585 0.6907
vt 0.9015 0.7021
vt 0.9015 0.7476
vt 0.1826 0.9473
vt 0.1481 0.8882
vt 0.1910 0.8769
vt 0.2140 0.9163
vt 0.8930 0.8180
vt 0.9245 0.7869
vt 0.5611 0.7684
vt 0.5926 0.7995
vt 0.7698 0.9467
vt 0.7384 0.9157
vt 0.1481 0.8200
vt 0.1910 0.8315
vt 0.1826 0.7610
vt 0.2140 0.7922
vt 0.7698 0.7604
vt 0.7384 0.7915
vt 0.8930 0.6317
vt 0.9245 0.6629
vt 0.5201 0.7749
vt 0.5203 0.8141
vt 0.5084 0.8227
vt 0.5082 0.7834
vt 0.5203 0.7294
vt 0.5084 0.7379
vt 0.1466 0.8129
vt 0.1468 0.8450
vt 0.1351 0.8361
vt 0.1349 0.8039
vt 0.5200 0.8688
vt 0.5200 0.9047
vt 0.5082 0.9036
vt 0.5082 0.8677
vt 0.5099 0.7294
vt 0.5082 0.6844
vt 0.5210 0.6827
vt 0.5228 0.7276
vt 0.5200 0.8238
vt 0.5082 0.8227
vt 0.7281 0.8809
vt 0.7281 0.9230
vt 0.7163 0.9219
vt 0.7163 0.8798
vt 0.3392 0.8974
vt 0.3392 0.8551
vt 0.3522 0.8547
vt 0.3522 0.8971
vt 0.5099 0.6487
vt 0.5228 0.6469
vt 0.1349 0.8932
vt 0.1349 0.8538
vt 0.1467 0.8450
vt 0.1467 0.8845
vt 0.1468 0.7690
vt 0.1351 0.7600
vt 0.7163 0.8709
vt 0.7163 0.8270
vt 0.7281 0.8359
vt 0.7281 0.8798
vt 0.9556 0.3310
vt 1.0000 0.3193
vt 1.0000 0.3975
vt 0.9952 0.3988
vt 0.4324 0.9699
vt 0.3999 0.9378
vt 0.4684 0.8987
vt 0.4719 0.9022
vt 0.4768 0.9817
vt 0.4768 0.9034
vt 0.0444 0.9644
vt 0.0119 0.9322
vt 0.0804 0.8931
vt 0.0839 0.8966
vt 0.9232 0.3631
vt 0.9917 0.4023
vt 0.2725 1.0000
vt 0.2844 0.9561
vt 0.3529 0.9952
vt 0.3516 1.0000
vt 0.9113 0.4071
vt 0.9904 0.4071
vt 0.3880 0.8939
vt 0.4671 0.8939
vt 0.0000 0.8883
vt 0.0791 0.8883
vt 0.3168 0.9239
vt 0.3564 0.9917
vt 0.3612 0.9122
vt 0.3612 0.9905
vt 0.0887 0.9761
vt 0.0887 0.8978
vt 0.7685 0.6020
vt 0.7710 0.5977
vt 0.7753 0.5952
vt 0.7803 0.5952
vt 0.7847 0.5977
vt 0.7871 0.6020
vt 0.7871 0.6069
vt 0.7847 0.6112
vt 0.7803 0.6136
vt 0.7753 0.6137
vt 0.7710 0.6112
vt 0.7685 0.6069
vt 0.7147 0.3311
vt 0.7849 0.4512
vt 0.7698 0.4661
vt 0.5570 0.0149
vt 0.4869 0.1350
vt 0.5420 0.0000
vt 0.6390 0.1752
vt 0.8962 0.3412
vt 0.8668 0.2909
vt 0.9113 0.3263
vt 0.6684 0.1249
vt 0.6835 0.1398
vt 0.3880 0.7756
vt 0.4229 0.6469
vt 0.4732 0.6469
vt 0.5082 0.7756
vt 0.7384 0.7604
vt 0.7733 0.6317
vt 0.8236 0.6317
vt 0.8585 0.7604
vt 0.2405 0.8829
vt 0.2405 0.9380
vt 0.2140 0.9306
vt 0.2140 0.8835
vt 0.9113 0.4645
vt 0.9113 0.4076
vt 0.9378 0.4071
vt 0.9378 0.4558
vt 0.1349 0.7600
vt 0.1349 0.8986
vt 0.1069 0.8951
vt 0.1069 0.7764
vt 0.8572 0.7604
vt 0.8572 0.9049
vt 0.8324 0.8941
vt 0.8324 0.7704
vn -0.2313 0.4488 -0.8632
vn 0.0000 1.0000 0.0000
vn 0.7824 0.4287 0.4517
vn -0.7071 0.0000 -0.7071
vn -0.2588 0.0000 0.9659
vn 0.9659 0.0000 0.2588
vn -0.2588 0.0000 -0.9659
vn -0.7071 0.0000 0.7071
vn 0.7071 0.0000 0.7071
vn 0.9659 0.0000 -0.2588
vn -0.9659 0.0000 0.2588
vn -0.9659 0.0000 -0.2588
vn 0.7071 0.0000 -0.7071
vn 0.2588 0.0000 -0.9659
vn 0.2588 0.0000 0.9659
vn -0.6941 -0.2675 0.6684
vn 0.9645 0.0712 -0.2545
vn -0.9642 -0.0803 0.2526
vn -0.9645 0.0712 -0.2545
vn 0.9642 -0.0803 0.2526
vn 0.6996 0.1812 -0.6912
vn 0.2538 0.2390 -0.9372
vn 0.2439 -0.4571 0.8553
vn -0.2439 -0.4571 0.8553
vn -0.6996 0.1812 -0.6912
vn -0.2538 0.2390 -0.9372
vn 0.6941 -0.2675 0.6684
vn 0.6941 -0.5029 0.5151
vn -0.6941 -0.5029 0.5151
vn 0.9645 0.1631 -0.2079
vn -0.9642 -0.1708 0.2027
vn -0.9645 0.1631 -0.2079
vn 0.9642 -0.1708 0.2027
vn 0.6996 0.4319 -0.5693
vn 0.2538 0.5795 -0.7744
vn 0.2439 -0.7496 0.6153
vn -0.2439 -0.7496 0.6153
vn -0.6996 0.4319 -0.5693
vn -0.2538 0.5795 -0.7744
vn -0.2538 0.8318 -0.4937
vn 0.6941 -0.6617 0.2835
vn -0.6941 -0.6617 0.2835
vn 0.9645 0.2303 -0.1296
vn -0.9642 -0.2354 0.1219
vn -0.9645 0.2303 -0.1296
vn 0.9642 -0.2354 0.1219
vn 0.6996 0.6169 -0.3607
vn 0.2538 0.8318 -0.4937
vn 0.2439 -0.9280 0.2815
vn -0.2439 -0.9280 0.2815
vn -0.6996 0.6169 -0.3607
vn -0.2538 0.9574 -0.1378
vn 0.6941 -0.7198 0.0087
vn -0.6941 -0.7198 0.0087
vn 0.9645 0.2624 -0.0316
vn -0.9642 -0.2641 0.0225
vn -0.9645 0.2624 -0.0316
vn 0.9642 -0.2641 0.0225
vn 0.6996 0.7079 -0.0971
vn 0.2538 0.9574 -0.1378
vn 0.2439 -0.9651 -0.0950
vn -0.2439 -0.9651 -0.0950
vn -0.6996 0.7079 -0.0971
vn 0.0000 -0.0000 1.0000
vn 0.6225 -0.6225 -0.4742
vn 0.2539 -0.9477 -0.1934
vn -0.6225 0.6225 0.4742
vn 0.6225 0.6225 -0.4742
vn -0.7780 -0.2085 0.5927
vn 0.7780 0.2085 -0.5927
vn 0.7780 -0.2085 -0.5927
vn -0.7780 0.2085 0.5927
vn -0.6225 -0.6225 0.4742
vn -0.2539 -0.9477 0.1934
vn -0.2539 0.9477 0.1934
vn 0.2539 0.9477 -0.1934
vn -0.2463 0.3068 0.9193
vn 0.2463 0.3068 0.9193
vn 0.2313 0.4488 -0.8632
vn -0.7824 0.4287 0.4517
usemtl None
s off
f 7/1/1 8/2/1 141/3/1 140/4/1
f 1/5/2 24/6/2 23/7/2 2/8/2
f 5/9/2 20/10/2 21/11/2 4/12/2
f 2/13/2 23/14/2 13/15/2 12/16/2
f 10/17/2 15/18/2 16/19/2 9/20/2
f 3/21/2 22/22/2 24/6/2 1/5/2
f 19/23/3 6/24/3 142/25/3 143/26/3
f 12/16/2 13/15/2 14/27/2 11/28/2
f 11/28/2 14/27/2 15/29/2 10/30/2
f 4/31/2 21/32/2 22/22/2 3/21/2
f 9/20/2 16/19/2 137/33/2 133/34/2
f 135/35/2 136/36/2 20/10/2 5/9/2
f 137/37/4 16/38/4 28/39/4 29/40/4
f 13/41/5 23/42/5 35/43/5 25/44/5
f 22/45/6 21/46/6 33/47/6 34/48/6
f 138/49/7 137/50/7 29/51/7 30/52/7
f 14/53/8 13/54/8 25/55/8 26/56/8
f 24/57/9 22/58/9 34/59/9 36/60/9
f 21/61/10 20/62/10 32/63/10 33/64/10
f 15/65/11 14/53/11 26/56/11 27/66/11
f 16/38/12 15/67/12 27/68/12 28/39/12
f 20/69/13 136/70/13 31/71/13 32/72/13
f 136/70/14 138/73/14 30/74/14 31/71/14
f 23/75/15 24/57/15 36/60/15 35/76/15
f 1/77/15 2/78/15 38/79/15 37/80/15
f 133/81/7 134/82/7 43/83/7 44/84/7
f 135/85/13 5/86/13 41/87/13 42/88/13
f 134/89/14 135/85/14 42/88/14 43/90/14
f 11/91/11 10/92/11 46/93/11 47/94/11
f 3/95/9 1/77/9 37/80/9 39/96/9
f 10/97/12 9/98/12 45/99/12 46/100/12
f 2/101/5 12/102/5 48/103/5 38/104/5
f 5/105/10 4/106/10 40/107/10 41/108/10
f 12/109/8 11/91/8 47/94/8 48/110/8
f 4/111/6 3/112/6 39/113/6 40/114/6
f 9/98/4 133/115/4 44/116/4 45/99/4
f 26/56/16 25/55/16 49/117/16 50/118/16
f 33/64/17 32/63/17 56/119/17 57/120/17
f 27/66/18 26/56/18 50/118/18 51/121/18
f 28/39/19 27/68/19 51/122/19 52/123/19
f 34/48/20 33/47/20 57/124/20 58/125/20
f 32/72/21 31/71/21 55/126/21 56/127/21
f 31/71/22 30/74/22 54/128/22 55/126/22
f 35/76/23 36/60/23 60/129/23 59/130/23
f 25/44/24 35/43/24 59/131/24 49/132/24
f 29/40/25 28/39/25 52/123/25 53/133/25
f 30/52/26 29/51/26 53/134/26 54/135/26
f 36/60/27 34/59/27 58/136/27 60/129/27
f 60/137/28 58/138/28 70/139/28 72/140/28
f 50/141/29 49/142/29 61/143/29 62/144/29
f 57/145/30 56/146/30 68/147/30 69/148/30
f 51/149/31 50/141/31 62/144/31 63/150/31
f 52/151/32 51/152/32 63/153/32 64/154/32
f 58/155/33 57/156/33 69/157/33 70/158/33
f 56/159/34 55/160/34 67/161/34 68/162/34
f 55/160/35 54/163/35 66/164/35 67/161/35
f 59/165/36 60/137/36 72/140/36 71/166/36
f 49/167/37 59/168/37 71/169/37 61/170/37
f 53/171/38 52/151/38 64/154/38 65/172/38
f 54/173/39 53/174/39 65/175/39 66/176/39
f 66/177/40 65/178/40 77/179/40 78/180/40
f 72/140/41 70/139/41 82/181/41 84/182/41
f 62/144/42 61/143/42 73/183/42 74/184/42
f 69/148/43 68/147/43 80/185/43 81/186/43
f 63/150/44 62/144/44 74/184/44 75/187/44
f 64/154/45 63/153/45 75/188/45 76/189/45
f 70/158/46 69/157/46 81/190/46 82/191/46
f 68/147/47 67/192/47 79/193/47 80/185/47
f 67/194/48 66/195/48 78/196/48 79/197/48
f 71/166/49 72/140/49 84/182/49 83/198/49
f 61/170/50 71/169/50 83/199/50 73/200/50
f 65/178/51 64/201/51 76/202/51 77/179/51
f 78/180/52 77/179/52 89/203/52 90/204/52
f 84/182/53 82/181/53 94/205/53 96/206/53
f 74/184/54 73/183/54 85/207/54 86/208/54
f 81/186/55 80/185/55 92/209/55 93/210/55
f 75/187/56 74/184/56 86/208/56 87/211/56
f 76/189/57 75/188/57 87/212/57 88/213/57
f 82/191/58 81/190/58 93/214/58 94/215/58
f 80/185/59 79/193/59 91/216/59 92/209/59
f 79/197/60 78/196/60 90/217/60 91/218/60
f 83/198/61 84/182/61 96/206/61 95/219/61
f 73/200/62 83/199/62 95/220/62 85/221/62
f 77/179/63 76/202/63 88/222/63 89/203/63
f 89/223/64 88/224/64 100/225/64 101/226/64
f 90/227/64 89/223/64 101/226/64 102/228/64
f 96/229/64 94/230/64 106/231/64 108/232/64
f 86/233/64 85/234/64 97/235/64 98/236/64
f 93/237/64 92/238/64 104/239/64 105/240/64
f 87/241/64 86/233/64 98/236/64 99/242/64
f 88/224/64 87/243/64 99/244/64 100/225/64
f 94/230/64 93/245/64 105/246/64 106/231/64
f 92/238/64 91/247/64 103/248/64 104/239/64
f 91/247/64 90/249/64 102/250/64 103/248/64
f 95/251/64 96/229/64 108/232/64 107/252/64
f 85/234/64 95/253/64 107/254/64 97/235/64
f 101/255/65 100/256/65 112/257/65 113/258/65
f 102/259/66 101/255/66 113/258/66 114/260/66
f 108/261/67 106/262/67 118/263/67 120/264/67
f 98/265/68 97/266/68 109/267/68 110/268/68
f 105/269/69 104/270/69 116/271/69 117/272/69
f 99/273/70 98/265/70 110/268/70 111/274/70
f 100/275/71 99/276/71 111/277/71 112/278/71
f 106/279/72 105/280/72 117/281/72 118/282/72
f 104/270/73 103/283/73 115/284/73 116/271/73
f 103/285/74 102/286/74 114/287/74 115/288/74
f 107/289/75 108/261/75 120/264/75 119/290/75
f 97/291/76 107/292/76 119/293/76 109/294/76
f 109/295/64 119/296/64 131/297/64 121/298/64
f 113/299/64 112/300/64 124/301/64 125/302/64
f 114/303/64 113/299/64 125/302/64 126/304/64
f 120/305/64 118/306/64 130/307/64 132/308/64
f 110/309/64 109/295/64 121/298/64 122/310/64
f 117/311/64 116/312/64 128/313/64 129/314/64
f 111/315/64 110/309/64 122/310/64 123/316/64
f 112/300/64 111/317/64 123/318/64 124/301/64
f 118/306/64 117/319/64 129/320/64 130/307/64
f 116/312/64 115/321/64 127/322/64 128/313/64
f 115/321/64 114/323/64 126/324/64 127/322/64
f 119/325/64 120/305/64 132/308/64 131/326/64
f 123/327/64 122/328/64 121/329/64 131/330/64 132/331/64 130/332/64 129/333/64 128/334/64 127/335/64 126/336/64 125/337/64 124/338/64
f 8/339/2 7/340/2 134/341/2 133/34/2
f 7/342/2 6/343/2 135/35/2 134/344/2
f 6/343/2 19/345/2 136/36/2 135/35/2
f 18/346/2 17/347/2 137/33/2 138/348/2
f 17/347/2 8/339/2 133/34/2 137/33/2
f 19/345/2 18/349/2 138/350/2 136/36/2
f 140/351/2 139/352/2 143/353/2 142/354/2
f 141/355/2 144/356/2 139/357/2 140/358/2
f 18/359/77 19/360/77 143/361/77 139/362/77
f 17/363/78 18/364/78 139/365/78 144/366/78
f 6/367/79 7/368/79 140/369/79 142/370/79
f 8/371/80 17/372/80 144/373/80 141/374/80
