# Blender v2.78 (sub 0) OBJ File: 'CafeKit_Master.blend'
# www.blender.org
mtllib floor_well.mtl
o struc_Well_low_Circle
v 0.195091 -0.655695 0.980785
v 0.382684 -0.655695 0.923879
v 0.555571 -0.655695 0.831469
v 0.831470 -0.655695 0.555570
v 0.923880 -0.400000 0.382683
v 0.831470 -0.400000 0.555570
v 0.195091 0.000000 0.980785
v 0.382684 0.000000 0.923879
v 0.555571 0.000000 0.831469
v 0.707107 0.000000 0.707106
v 0.831470 0.000000 0.555570
v 0.923880 0.000000 0.382683
v 0.980785 0.000000 0.195089
v 0.843127 -0.655695 0.301930
v 0.626354 -0.655695 0.626354
v 0.474818 -0.655695 0.750717
v 0.301931 -0.655695 0.843127
v 0.114338 -0.655695 0.900032
v 0.900033 -0.655695 0.114337
v 0.750717 -0.655695 0.474817
v 0.843127 -0.400000 0.301930
v 0.900033 -0.400000 0.114337
v 0.626354 -0.400000 0.626354
v 0.750717 -0.400000 0.474817
v 0.707107 -0.400000 0.707106
v 0.555571 -0.400000 0.831469
v 0.382684 -0.400000 0.923879
v 0.195091 -0.400000 0.980785
v 0.980785 -0.400000 0.195089
v 0.195091 -1.000000 0.980785
v 0.382684 -1.000000 0.923879
v 0.555571 -1.000000 0.831469
v 0.707107 -1.000000 0.707106
v 0.831470 -1.000000 0.555570
v 0.923880 -1.000000 0.382683
v 0.980785 -1.000000 0.195089
v 0.301931 -0.400000 0.843127
v 0.474818 -0.400000 0.750717
v 0.114338 -0.400000 0.900032
v 0.707107 -0.655695 0.707106
v 0.923880 -0.655695 0.382683
v 0.980785 -0.655695 0.195089
v 1.000000 0.000000 1.000000
v 0.000000 -0.655695 1.000000
v -0.195091 -0.655695 0.980785
v -0.382684 -0.655695 0.923879
v -0.555571 -0.655695 0.831469
v -0.831470 -0.655695 0.555570
v -0.923880 -0.400000 0.382683
v -0.831470 -0.400000 0.555570
v 0.000000 0.000000 1.000000
v -0.195091 0.000000 0.980785
v -0.382684 0.000000 0.923879
v -0.555571 0.000000 0.831469
v -0.707107 0.000000 0.707106
v -0.831470 0.000000 0.555570
v -0.923880 0.000000 0.382683
v -0.980785 0.000000 0.195089
v -0.843127 -0.655695 0.301930
v -0.626354 -0.655695 0.626354
v -0.474818 -0.655695 0.750717
v -0.301931 -0.655695 0.843127
v 0.000000 -0.655695 0.919247
v -0.114338 -0.655695 0.900032
v -0.900033 -0.655695 0.114337
v -0.750717 -0.655695 0.474817
v -0.843127 -0.400000 0.301930
v -0.900033 -0.400000 0.114337
v -0.626354 -0.400000 0.626354
v -0.750717 -0.400000 0.474817
v -0.707107 -0.400000 0.707106
v -0.555571 -0.400000 0.831469
v -0.382684 -0.400000 0.923879
v -0.195091 -0.400000 0.980785
v 0.000000 -0.400000 1.000000
v -0.980785 -0.400000 0.195089
v 0.000000 -1.000000 1.000000
v -0.195091 -1.000000 0.980785
v -0.382684 -1.000000 0.923879
v -0.555571 -1.000000 0.831469
v -0.707107 -1.000000 0.707106
v -0.831470 -1.000000 0.555570
v -0.923880 -1.000000 0.382683
v -0.980785 -1.000000 0.195089
v -0.301931 -0.400000 0.843127
v -0.474818 -0.400000 0.750717
v 0.000000 -0.400000 0.919247
v -0.114338 -0.400000 0.900032
v -0.707107 -0.655695 0.707106
v -0.923880 -0.655695 0.382683
v -0.980785 -0.655695 0.195089
v -1.000000 0.000000 1.000000
v 1.000000 -0.655695 0.000000
v 0.195091 -0.655695 -0.980785
v 0.382684 -0.655695 -0.923879
v 0.555571 -0.655695 -0.831469
v 0.831470 -0.655695 -0.555570
v 0.923880 -0.400000 -0.382683
v 0.831470 -0.400000 -0.555570
v 0.195091 0.000000 -0.980785
v 0.382684 0.000000 -0.923879
v 0.555571 0.000000 -0.831469
v 0.707107 0.000000 -0.707106
v 0.831470 0.000000 -0.555570
v 0.923880 0.000000 -0.382683
v 0.980785 0.000000 -0.195089
v 1.000000 0.000000 0.000000
v 0.843127 -0.655695 -0.301930
v 0.919247 -0.400000 0.000000
v 0.626354 -0.655695 -0.626354
v 0.474818 -0.655695 -0.750717
v 0.301931 -0.655695 -0.843127
v 0.114338 -0.655695 -0.900032
v 0.900033 -0.655695 -0.114337
v 0.919247 -0.655695 0.000000
v 0.750717 -0.655695 -0.474817
v 0.843127 -0.400000 -0.301930
v 0.900033 -0.400000 -0.114337
v 0.626354 -0.400000 -0.626354
v 0.750717 -0.400000 -0.474817
v 0.707107 -0.400000 -0.707106
v 0.555571 -0.400000 -0.831469
v 0.382684 -0.400000 -0.923879
v 0.195091 -0.400000 -0.980785
v 1.000000 -0.400000 0.000000
v 0.980785 -0.400000 -0.195089
v 0.195091 -1.000000 -0.980785
v 0.382684 -1.000000 -0.923879
v 0.555571 -1.000000 -0.831469
v 0.707107 -1.000000 -0.707106
v 0.831470 -1.000000 -0.555570
v 0.923880 -1.000000 -0.382683
v 0.980785 -1.000000 -0.195089
v 1.000000 -1.000000 0.000000
v 0.301931 -0.400000 -0.843127
v 0.474818 -0.400000 -0.750717
v 0.114338 -0.400000 -0.900032
v 0.707107 -0.655695 -0.707106
v 0.923880 -0.655695 -0.382683
v 0.980785 -0.655695 -0.195089
v 1.000000 0.000000 -1.000000
v -1.000000 -0.655695 0.000000
v 0.000000 -0.655695 -1.000000
v -0.195091 -0.655695 -0.980785
v -0.382684 -0.655695 -0.923879
v -0.555571 -0.655695 -0.831469
v -0.831470 -0.655695 -0.555570
v -0.923880 -0.400000 -0.382683
v -0.831470 -0.400000 -0.555570
v 0.000000 0.000000 -1.000000
v -0.195091 0.000000 -0.980785
v -0.382684 0.000000 -0.923879
v -0.555571 0.000000 -0.831469
v -0.707107 0.000000 -0.707106
v -0.831470 0.000000 -0.555570
v -0.923880 0.000000 -0.382683
v -0.980785 0.000000 -0.195089
v -1.000000 0.000000 0.000000
v -0.843127 -0.655695 -0.301930
v -0.919247 -0.400000 0.000000
v -0.626354 -0.655695 -0.626354
v -0.474818 -0.655695 -0.750717
v -0.301931 -0.655695 -0.843127
v 0.000000 -0.655695 -0.919247
v -0.114338 -0.655695 -0.900032
v -0.900033 -0.655695 -0.114337
v -0.919247 -0.655695 0.000000
v -0.750717 -0.655695 -0.474817
v -0.843127 -0.400000 -0.301930
v -0.900033 -0.400000 -0.114337
v -0.626354 -0.400000 -0.626354
v -0.750717 -0.400000 -0.474817
v -0.707107 -0.400000 -0.707106
v -0.555571 -0.400000 -0.831469
v -0.382684 -0.400000 -0.923879
v -0.195091 -0.400000 -0.980785
v 0.000000 -0.400000 -1.000000
v -1.000000 -0.400000 0.000000
v -0.980785 -0.400000 -0.195089
v 0.000000 -1.000000 0.000000
v 0.000000 -1.000000 -1.000000
v -0.195091 -1.000000 -0.980785
v -0.382684 -1.000000 -0.923879
v -0.555571 -1.000000 -0.831469
v -0.707107 -1.000000 -0.707106
v -0.831470 -1.000000 -0.555570
v -0.923880 -1.000000 -0.382683
v -0.980785 -1.000000 -0.195089
v -1.000000 -1.000000 0.000000
v -0.301931 -0.400000 -0.843127
v -0.474818 -0.400000 -0.750717
v 0.000000 -0.400000 -0.919247
v -0.114338 -0.400000 -0.900032
v -0.707107 -0.655695 -0.707106
v -0.923880 -0.655695 -0.382683
v -0.980785 -0.655695 -0.195089
v -1.000000 0.000000 -1.000000
vt 0.8516 0.1737
vt 0.9295 0.1737
vt 0.9295 0.2170
vt 0.8516 0.2170
vt 0.0905 0.8185
vt 0.1810 0.8185
vt 0.1810 0.8536
vt 0.0905 0.8536
vt 0.6297 0.5792
vt 0.6168 0.5358
vt 0.6427 0.5358
vt 0.6555 0.5792
vt 0.0905 0.7898
vt 0.1810 0.7898
vt 0.1772 0.7147
vt 0.1643 0.6713
vt 0.1902 0.6713
vt 0.2030 0.7147
vt 0.2715 0.8185
vt 0.1810 0.8185
vt 0.2715 0.7898
vt 0.1643 0.5811
vt 0.1772 0.5377
vt 0.2030 0.5377
vt 0.1902 0.5811
vt 0.2715 0.8536
vt 0.1810 0.8536
vt 0.6787 0.6543
vt 0.6506 0.6192
vt 0.6764 0.6192
vt 0.6917 0.6411
vt 0.6125 0.4907
vt 0.6383 0.4907
vt 0.2715 0.8936
vt 0.1810 0.8936
vt 0.9871 0.5813
vt 0.9292 0.5813
vt 0.9292 0.5463
vt 0.9871 0.5463
vt 0.2262 0.7898
vt 0.1981 0.7547
vt 0.2240 0.7547
vt 0.2392 0.7766
vt 0.4525 0.4626
vt 0.2262 0.4626
vt 0.2306 0.4175
vt 0.2435 0.3741
vt 0.2644 0.3341
vt 0.2925 0.2991
vt 0.3268 0.2703
vt 0.3659 0.2489
vt 0.4084 0.2358
vt 0.4525 0.2313
vt 0.9292 0.5175
vt 0.9871 0.5175
vt 0.1600 0.6262
vt 0.1858 0.6262
vt 0.4273 0.8332
vt 0.3494 0.8332
vt 0.3494 0.7898
vt 0.4273 0.7898
vt 0.7230 0.8630
vt 0.7809 0.8630
vt 0.7809 0.8917
vt 0.7230 0.8917
vt 0.6168 0.4456
vt 0.6427 0.4456
vt 0.4273 0.8732
vt 0.3494 0.8732
vt 0.7809 0.9268
vt 0.7230 0.9268
vt 0.9871 0.6213
vt 0.9292 0.6213
vt 0.4273 0.9082
vt 0.3494 0.9082
vt 0.7809 0.9668
vt 0.7230 0.9668
vt 0.4273 0.9370
vt 0.3494 0.9370
vt 0.7809 0.9919
vt 0.7230 0.9919
vt 0.8516 0.2921
vt 0.9295 0.2921
vt 0.9295 0.3208
vt 0.8516 0.3208
vt 0.9871 0.6464
vt 0.9292 0.6464
vt 0.8516 0.2570
vt 0.9295 0.2570
vt 0.0905 0.8936
vt 0.1810 0.8936
vt 0.1810 0.9370
vt 0.0905 0.9370
vt 0.2715 0.9370
vt 0.1810 0.9370
vt 0.1600 0.7898
vt 0.0000 0.6262
vt 0.1318 0.7547
vt 0.1109 0.7147
vt 0.0981 0.6713
vt 0.0937 0.6262
vt 0.0981 0.5811
vt 0.1109 0.5377
vt 0.1318 0.4977
vt 0.1600 0.4626
vt 0.6297 0.4022
vt 0.6555 0.4022
vt 0.6506 0.3622
vt 0.6787 0.3271
vt 0.6917 0.3403
vt 0.6764 0.3622
vt 0.1981 0.4977
vt 0.2240 0.4977
vt 0.2262 0.4626
vt 0.2392 0.4759
vt 0.7809 0.9814
vt 0.7809 0.9380
vt 0.8588 0.9380
vt 0.8588 0.9814
vt 0.4525 0.7879
vt 0.4525 0.7445
vt 0.5430 0.7445
vt 0.5430 0.7879
vt 0.7089 0.4022
vt 0.7347 0.4022
vt 0.7219 0.4456
vt 0.6960 0.4456
vt 0.4525 0.8279
vt 0.5430 0.8279
vt 0.2564 0.5377
vt 0.2822 0.5377
vt 0.2694 0.5811
vt 0.2435 0.5811
vt 0.4525 0.8630
vt 0.5430 0.8630
vt 0.2435 0.6713
vt 0.2694 0.6713
vt 0.2822 0.7147
vt 0.2564 0.7147
vt 0.4525 0.8980
vt 0.5430 0.8980
vt 0.7579 0.3271
vt 0.7709 0.3403
vt 0.7556 0.3622
vt 0.7298 0.3622
vt 0.7175 0.4907
vt 0.6917 0.4907
vt 0.4525 0.9380
vt 0.5430 0.9380
vt 0.9421 0.0350
vt 0.9421 0.0000
vt 1.0000 0.0000
vt 1.0000 0.0350
vt 0.3054 0.4626
vt 0.3184 0.4759
vt 0.3031 0.4977
vt 0.2773 0.4977
vt 0.2262 0.0000
vt 0.2262 0.2313
vt 0.1821 0.2269
vt 0.1397 0.2137
vt 0.1006 0.1923
vt 0.0663 0.1636
vt 0.0381 0.1285
vt 0.0172 0.0885
vt 0.0043 0.0451
vt 0.0000 0.0000
vt 0.5430 0.8447
vt 0.5430 0.8096
vt 0.6008 0.8096
vt 0.6008 0.8447
vt 0.2650 0.6262
vt 0.2392 0.6262
vt 0.7809 0.8179
vt 0.7809 0.8630
vt 0.7030 0.8630
vt 0.7030 0.8179
vt 0.5430 0.7696
vt 0.6008 0.7696
vt 0.7219 0.5358
vt 0.6960 0.5358
vt 0.7809 0.7727
vt 0.7030 0.7727
vt 0.5430 0.7262
vt 0.6008 0.7262
vt 0.9421 0.0750
vt 1.0000 0.0750
vt 0.7809 0.7293
vt 0.7030 0.7293
vt 0.5430 0.6811
vt 0.6008 0.6811
vt 0.7809 0.6893
vt 0.7030 0.6893
vt 0.5430 0.6543
vt 0.6008 0.6543
vt 0.7809 0.6543
vt 0.7030 0.6543
vt 0.9421 0.1001
vt 1.0000 0.1001
vt 0.7809 0.8980
vt 0.7809 0.8630
vt 0.8588 0.8630
vt 0.8588 0.8980
vt 0.4525 0.6994
vt 0.4525 0.6543
vt 0.5430 0.6543
vt 0.5430 0.6994
vt 0.4525 0.9814
vt 0.5430 0.9814
vt 0.6125 0.0000
vt 0.5843 0.0351
vt 0.4525 0.1636
vt 0.5634 0.0750
vt 0.5506 0.1184
vt 0.5462 0.1636
vt 0.5506 0.2087
vt 0.5634 0.2521
vt 0.5843 0.2921
vt 0.6125 0.3271
vt 0.7347 0.5792
vt 0.7089 0.5792
vt 0.7298 0.6192
vt 0.7556 0.6192
vt 0.7709 0.6411
vt 0.7579 0.6543
vt 0.3031 0.7547
vt 0.2773 0.7547
vt 0.3184 0.7766
vt 0.3054 0.7898
vt 0.7809 0.8630
vt 0.7809 0.8179
vt 0.8588 0.8179
vt 0.8588 0.8630
vt 0.8588 0.9520
vt 0.8588 0.9143
vt 0.9493 0.9143
vt 0.9493 0.9520
vt 0.8673 0.4022
vt 0.8931 0.4022
vt 0.8802 0.4456
vt 0.8544 0.4456
vt 0.7030 0.8279
vt 0.7030 0.8630
vt 0.6125 0.8630
vt 0.6125 0.8279
vt 0.7897 0.0750
vt 0.8155 0.0750
vt 0.8026 0.1184
vt 0.7768 0.1184
vt 0.7030 0.7879
vt 0.6125 0.7879
vt 0.7768 0.2087
vt 0.8026 0.2087
vt 0.8155 0.2521
vt 0.7897 0.2521
vt 0.7030 0.7445
vt 0.6125 0.7445
vt 0.9163 0.3271
vt 0.9292 0.3403
vt 0.9140 0.3622
vt 0.8882 0.3622
vt 0.8759 0.4907
vt 0.8500 0.4907
vt 0.7030 0.6994
vt 0.6125 0.6994
vt 0.9292 0.4456
vt 0.9292 0.4022
vt 0.9871 0.4022
vt 0.9871 0.4456
vt 0.8387 0.0000
vt 0.8516 0.0132
vt 0.8364 0.0351
vt 0.8106 0.0351
vt 0.2262 0.4626
vt 0.0000 0.4626
vt 0.0043 0.4175
vt 0.0172 0.3741
vt 0.0381 0.3341
vt 0.0663 0.2991
vt 0.1006 0.2703
vt 0.1397 0.2489
vt 0.1821 0.2358
vt 0.2262 0.2313
vt 0.9292 0.3622
vt 0.9871 0.3622
vt 0.7983 0.1636
vt 0.7725 0.1636
vt 0.6904 0.9426
vt 0.6904 0.9871
vt 0.6125 0.9871
vt 0.6125 0.9426
vt 0.9292 0.3271
vt 0.9871 0.3271
vt 0.8802 0.5358
vt 0.8544 0.5358
vt 0.6904 0.9007
vt 0.6125 0.9007
vt 0.9945 0.6543
vt 0.9945 0.6920
vt 0.9367 0.6920
vt 0.9367 0.6543
vt 0.9292 0.4907
vt 0.9871 0.4907
vt 0.6904 0.8630
vt 0.6125 0.8630
vt 0.9945 0.7339
vt 0.9367 0.7339
vt 0.7809 0.6893
vt 0.7809 0.6543
vt 0.8588 0.6543
vt 0.8588 0.6893
vt 0.9945 0.7598
vt 0.9367 0.7598
vt 0.7809 0.7293
vt 0.8588 0.7293
vt 0.9292 0.5175
vt 0.9871 0.5175
vt 0.7809 0.7727
vt 0.8588 0.7727
vt 0.8588 0.8724
vt 0.8588 0.8279
vt 0.9493 0.8279
vt 0.9493 0.8724
vt 0.7030 0.6543
vt 0.6125 0.6543
vt 0.6125 0.3271
vt 0.5843 0.3622
vt 0.4525 0.4907
vt 0.5634 0.4022
vt 0.5506 0.4456
vt 0.5462 0.4907
vt 0.5506 0.5358
vt 0.5634 0.5792
vt 0.5843 0.6192
vt 0.6125 0.6543
vt 0.8931 0.5792
vt 0.8673 0.5792
vt 0.8882 0.6192
vt 0.9140 0.6192
vt 0.9292 0.6411
vt 0.9163 0.6543
vt 0.8364 0.2921
vt 0.8106 0.2921
vt 0.8516 0.3139
vt 0.8387 0.3271
vt 0.9367 0.8279
vt 0.8588 0.8279
vt 0.8588 0.7828
vt 0.9367 0.7828
vt 0.0000 0.8275
vt 0.0905 0.8275
vt 0.0905 0.8694
vt 0.0000 0.8694
vt 0.3356 0.7147
vt 0.3227 0.6713
vt 0.3485 0.6713
vt 0.3614 0.7147
vt 0.0000 0.7898
vt 0.0905 0.7898
vt 0.7881 0.5792
vt 0.7752 0.5358
vt 0.8010 0.5358
vt 0.8139 0.5792
vt 0.8516 0.1337
vt 0.9421 0.1337
vt 0.9421 0.1737
vt 0.8516 0.1737
vt 0.7752 0.4456
vt 0.7881 0.4022
vt 0.8139 0.4022
vt 0.8010 0.4456
vt 0.8516 0.0903
vt 0.9421 0.0903
vt 0.3846 0.7898
vt 0.3565 0.7547
vt 0.3823 0.7547
vt 0.3975 0.7766
vt 0.3184 0.6262
vt 0.3442 0.6262
vt 0.8516 0.0451
vt 0.9421 0.0451
vt 0.5430 0.9166
vt 0.6008 0.9166
vt 0.6008 0.9600
vt 0.5430 0.9600
vt 0.8371 0.6543
vt 0.8090 0.6192
vt 0.8348 0.6192
vt 0.8500 0.6411
vt 0.4525 0.0000
vt 0.4525 0.2313
vt 0.4084 0.2269
vt 0.3659 0.2137
vt 0.3268 0.1923
vt 0.2925 0.1636
vt 0.2644 0.1285
vt 0.2435 0.0885
vt 0.2306 0.0451
vt 0.2262 0.0000
vt 0.6008 1.0000
vt 0.5430 1.0000
vt 0.7709 0.4907
vt 0.7967 0.4907
vt 0.2715 0.9139
vt 0.3494 0.9139
vt 0.3494 0.9592
vt 0.2715 0.9592
vt 0.9295 0.1737
vt 0.9874 0.1737
vt 0.9874 0.2114
vt 0.9295 0.2114
vt 0.3227 0.5811
vt 0.3485 0.5811
vt 0.2715 0.8694
vt 0.3494 0.8694
vt 0.9874 0.2533
vt 0.9295 0.2533
vt 0.5430 0.8715
vt 0.6008 0.8715
vt 0.2715 0.8275
vt 0.3494 0.8275
vt 0.9874 0.2977
vt 0.9295 0.2977
vt 0.2715 0.7898
vt 0.3494 0.7898
vt 0.9874 0.3245
vt 0.9295 0.3245
vt 0.9367 0.6943
vt 0.8588 0.6943
vt 0.8588 0.6543
vt 0.9367 0.6543
vt 0.5430 0.8447
vt 0.6008 0.8447
vt 0.9367 0.7377
vt 0.8588 0.7377
vt 0.0000 0.9139
vt 0.0905 0.9139
vt 0.0905 0.9592
vt 0.0000 0.9592
vt 0.8516 0.0000
vt 0.9421 0.0000
vt 0.7725 0.3271
vt 0.6125 0.1636
vt 0.7443 0.2921
vt 0.7234 0.2521
vt 0.7105 0.2087
vt 0.7062 0.1636
vt 0.7105 0.1184
vt 0.7234 0.0750
vt 0.7443 0.0351
vt 0.7725 0.0000
vt 0.3356 0.5377
vt 0.3614 0.5377
vt 0.3565 0.4977
vt 0.3846 0.4626
vt 0.3975 0.4759
vt 0.3823 0.4977
vt 0.8090 0.3622
vt 0.8348 0.3622
vt 0.8371 0.3271
vt 0.8500 0.3403
vn -0.9952 0.0000 -0.0980
vn -0.4714 0.0000 -0.8819
vn 0.0000 -1.0000 0.0000
vn -0.6344 0.0000 -0.7730
vn 0.0000 1.0000 0.0000
vn -0.7730 0.0000 -0.6344
vn -0.8819 0.0000 -0.4714
vn -0.9569 0.0000 -0.2903
vn -0.0980 0.0000 -0.9952
vn -0.2903 0.0000 -0.9569
vn -0.1657 0.0000 -0.9862
vn -0.9862 0.0000 -0.1657
vn 0.9952 0.0000 -0.0980
vn 0.4714 0.0000 -0.8819
vn 0.6344 0.0000 -0.7730
vn 0.7730 0.0000 -0.6344
vn 0.8819 0.0000 -0.4714
vn 0.9569 0.0000 -0.2903
vn 0.0980 0.0000 -0.9952
vn 0.2903 0.0000 -0.9569
vn 0.1657 0.0000 -0.9862
vn 0.9862 0.0000 -0.1657
vn -0.9952 0.0000 0.0980
vn -0.4714 0.0000 0.8819
vn -0.6344 0.0000 0.7730
vn -0.7730 0.0000 0.6344
vn -0.8819 0.0000 0.4714
vn -0.9569 0.0000 0.2903
vn -0.0980 0.0000 0.9952
vn -0.2903 0.0000 0.9569
vn -0.1657 0.0000 0.9862
vn -0.9862 0.0000 0.1657
vn 0.9952 0.0000 0.0980
vn 0.4714 0.0000 0.8819
vn 0.6344 0.0000 0.7730
vn 0.7730 0.0000 0.6344
vn 0.8819 0.0000 0.4714
vn 0.9569 0.0000 0.2903
vn 0.0980 0.0000 0.9952
vn 0.2903 0.0000 0.9569
vn 0.1657 0.0000 0.9862
vn 0.9862 0.0000 0.1657
usemtl None
s off
f 93/1/1 134/2/1 36/3/1 42/4/1
f 9/5/2 26/6/2 27/7/2 8/8/2
f 41/9/3 4/10/3 20/11/3 14/12/3
f 10/13/4 25/14/4 26/6/4 9/5/4
f 27/15/5 26/16/5 38/17/5 37/18/5
f 11/19/6 6/20/6 25/14/6 10/21/6
f 6/22/5 5/23/5 21/24/5 24/25/5
f 12/26/7 5/27/7 6/20/7 11/19/7
f 93/28/3 42/29/3 19/30/3 115/31/3
f 4/10/3 40/32/3 15/33/3 20/11/3
f 13/34/8 29/35/8 5/27/8 12/26/8
f 21/36/7 14/37/7 20/38/7 24/39/7
f 75/40/5 28/41/5 39/42/5 87/43/5
f 180/44/5 77/45/5 30/46/5 31/47/5 32/48/5 33/49/5 34/50/5 35/51/5 36/52/5 134/53/5
f 24/39/6 20/38/6 15/54/6 23/55/6
f 26/16/5 25/56/5 23/57/5 38/17/5
f 1/58/9 30/59/9 77/60/9 44/61/9
f 23/62/4 15/63/4 16/64/4 38/65/4
f 40/32/3 3/66/3 16/67/3 15/33/3
f 2/68/10 31/69/10 30/59/10 1/58/10
f 38/65/2 16/64/2 17/70/2 37/71/2
f 22/72/8 19/73/8 14/37/8 21/36/8
f 3/74/2 32/75/2 31/69/2 2/68/2
f 37/71/10 17/70/10 18/76/10 39/77/10
f 40/78/4 33/79/4 32/75/4 3/74/4
f 39/77/11 18/76/11 63/80/11 87/81/11
f 4/82/6 34/83/6 33/84/6 40/85/6
f 109/86/12 115/87/12 19/73/12 22/72/12
f 41/88/7 35/89/7 34/83/7 4/82/7
f 7/90/9 28/91/9 75/92/9 51/93/9
f 42/4/8 36/3/8 35/89/8 41/88/8
f 8/8/10 27/7/10 28/91/10 7/90/10
f 107/94/1 125/95/1 29/35/1 13/34/1
f 51/96/5 43/97/5 7/98/5
f 7/98/5 43/97/5 8/99/5
f 8/99/5 43/97/5 9/100/5
f 9/100/5 43/97/5 10/101/5
f 10/101/5 43/97/5 11/102/5
f 11/102/5 43/97/5 12/103/5
f 12/103/5 43/97/5 13/104/5
f 13/104/5 43/97/5 107/105/5
f 3/66/3 2/106/3 17/107/3 16/67/3
f 25/56/5 6/22/5 24/25/5 23/57/5
f 42/29/3 41/9/3 14/12/3 19/30/3
f 1/108/3 44/109/3 63/110/3 18/111/3
f 5/23/5 29/112/5 22/113/5 21/24/5
f 29/112/5 125/114/5 109/115/5 22/113/5
f 2/106/3 1/108/3 18/111/3 17/107/3
f 28/41/5 27/15/5 37/18/5 39/42/5
f 142/116/13 91/117/13 84/118/13 189/119/13
f 54/120/14 53/121/14 73/122/14 72/123/14
f 90/124/3 59/125/3 66/126/3 48/127/3
f 55/128/15 54/120/15 72/123/15 71/129/15
f 73/130/5 85/131/5 86/132/5 72/133/5
f 56/134/16 55/128/16 71/129/16 50/135/16
f 50/136/5 70/137/5 67/138/5 49/139/5
f 57/140/17 56/134/17 50/135/17 49/141/17
f 142/142/3 167/143/3 65/144/3 91/145/3
f 48/127/3 66/126/3 60/146/3 89/147/3
f 58/148/18 57/140/18 49/141/18 76/149/18
f 67/150/17 70/151/17 66/152/17 59/153/17
f 75/154/5 87/155/5 88/156/5 74/157/5
f 180/158/5 189/159/5 84/160/5 83/161/5 82/162/5 81/163/5 80/164/5 79/165/5 78/166/5 77/167/5
f 70/168/16 69/169/16 60/170/16 66/171/16
f 72/133/5 86/132/5 69/172/5 71/173/5
f 45/174/19 44/175/19 77/176/19 78/177/19
f 69/169/15 86/178/15 61/179/15 60/170/15
f 89/147/3 60/146/3 61/180/3 47/181/3
f 46/182/20 45/174/20 78/177/20 79/183/20
f 86/178/14 85/184/14 62/185/14 61/179/14
f 68/186/18 67/150/18 59/153/18 65/187/18
f 47/188/14 46/182/14 79/183/14 80/189/14
f 85/184/20 88/190/20 64/191/20 62/185/20
f 89/192/15 47/188/15 80/189/15 81/193/15
f 88/190/21 87/194/21 63/195/21 64/191/21
f 48/196/16 89/192/16 81/193/16 82/197/16
f 160/198/22 68/186/22 65/187/22 167/199/22
f 90/200/17 48/201/17 82/202/17 83/203/17
f 52/204/19 51/205/19 75/206/19 74/207/19
f 91/117/18 90/200/18 83/203/18 84/118/18
f 53/121/20 52/204/20 74/207/20 73/122/20
f 158/208/13 58/148/13 76/149/13 178/209/13
f 51/210/5 52/211/5 92/212/5
f 52/211/5 53/213/5 92/212/5
f 53/213/5 54/214/5 92/212/5
f 54/214/5 55/215/5 92/212/5
f 55/215/5 56/216/5 92/212/5
f 56/216/5 57/217/5 92/212/5
f 57/217/5 58/218/5 92/212/5
f 58/218/5 158/219/5 92/212/5
f 47/181/3 61/180/3 62/220/3 46/221/3
f 71/173/5 69/172/5 70/137/5 50/136/5
f 91/145/3 65/144/3 59/125/3 90/124/3
f 45/222/3 64/223/3 63/224/3 44/225/3
f 49/139/5 67/138/5 68/226/5 76/227/5
f 76/227/5 68/226/5 160/228/5 178/229/5
f 46/221/3 62/220/3 64/223/3 45/222/3
f 74/157/5 88/156/5 85/131/5 73/130/5
f 93/230/23 140/231/23 133/232/23 134/233/23
f 102/234/24 101/235/24 123/236/24 122/237/24
f 139/238/3 108/239/3 116/240/3 97/241/3
f 103/242/25 102/243/25 122/244/25 121/245/25
f 123/246/5 135/247/5 136/248/5 122/249/5
f 104/250/26 103/242/26 121/245/26 99/251/26
f 99/252/5 120/253/5 117/254/5 98/255/5
f 105/256/27 104/250/27 99/251/27 98/257/27
f 93/258/3 115/259/3 114/260/3 140/261/3
f 97/241/3 116/240/3 110/262/3 138/263/3
f 106/264/28 105/256/28 98/257/28 126/265/28
f 117/266/27 120/267/27 116/268/27 108/269/27
f 177/270/5 192/271/5 137/272/5 124/273/5
f 180/274/5 134/275/5 133/276/5 132/277/5 131/278/5 130/279/5 129/280/5 128/281/5 127/282/5 181/283/5
f 120/267/26 119/284/26 110/285/26 116/268/26
f 122/249/5 136/248/5 119/286/5 121/287/5
f 94/288/29 143/289/29 181/290/29 127/291/29
f 119/284/25 136/292/25 111/293/25 110/285/25
f 138/263/3 110/262/3 111/294/3 96/295/3
f 95/296/30 94/288/30 127/291/30 128/297/30
f 136/298/24 135/299/24 112/300/24 111/301/24
f 118/302/28 117/266/28 108/269/28 114/303/28
f 96/304/24 95/296/24 128/297/24 129/305/24
f 135/299/30 137/306/30 113/307/30 112/300/30
f 138/308/25 96/309/25 129/310/25 130/311/25
f 137/306/31 192/312/31 164/313/31 113/307/31
f 97/314/26 138/308/26 130/311/26 131/315/26
f 109/316/32 118/302/32 114/303/32 115/317/32
f 139/318/27 97/314/27 131/315/27 132/319/27
f 100/320/29 150/321/29 177/322/29 124/323/29
f 140/231/28 139/318/28 132/319/28 133/232/28
f 101/235/30 100/320/30 124/323/30 123/236/30
f 107/324/23 106/264/23 126/265/23 125/325/23
f 150/326/5 100/327/5 141/328/5
f 100/327/5 101/329/5 141/328/5
f 101/329/5 102/330/5 141/328/5
f 102/330/5 103/331/5 141/328/5
f 103/331/5 104/332/5 141/328/5
f 104/332/5 105/333/5 141/328/5
f 105/333/5 106/334/5 141/328/5
f 106/334/5 107/335/5 141/328/5
f 96/295/3 111/294/3 112/336/3 95/337/3
f 121/287/5 119/286/5 120/253/5 99/252/5
f 140/261/3 114/260/3 108/239/3 139/238/3
f 94/338/3 113/339/3 164/340/3 143/341/3
f 98/255/5 117/254/5 118/342/5 126/343/5
f 126/343/5 118/342/5 109/344/5 125/345/5
f 95/337/3 112/336/3 113/339/3 94/338/3
f 124/273/5 137/272/5 135/247/5 123/246/5
f 142/346/33 189/347/33 188/348/33 196/349/33
f 153/350/34 174/351/34 175/352/34 152/353/34
f 195/354/3 147/355/3 168/356/3 159/357/3
f 154/358/35 173/359/35 174/351/35 153/350/35
f 175/360/5 174/361/5 191/362/5 190/363/5
f 155/364/36 149/365/36 173/366/36 154/367/36
f 149/368/5 148/369/5 169/370/5 172/371/5
f 156/372/37 148/373/37 149/365/37 155/364/37
f 142/374/3 196/375/3 166/376/3 167/377/3
f 147/355/3 194/378/3 161/379/3 168/356/3
f 157/380/38 179/381/38 148/373/38 156/372/38
f 169/382/37 159/383/37 168/384/37 172/385/37
f 177/386/5 176/387/5 193/388/5 192/389/5
f 180/390/5 181/391/5 182/392/5 183/393/5 184/394/5 185/395/5 186/396/5 187/397/5 188/398/5 189/399/5
f 172/385/36 168/384/36 161/400/36 171/401/36
f 174/361/5 173/402/5 171/403/5 191/362/5
f 144/404/39 182/405/39 181/406/39 143/407/39
f 171/408/35 161/409/35 162/410/35 191/411/35
f 194/378/3 146/412/3 162/413/3 161/379/3
f 145/414/40 183/415/40 182/405/40 144/404/40
f 191/411/34 162/410/34 163/416/34 190/417/34
f 170/418/38 166/419/38 159/383/38 169/382/38
f 146/420/34 184/421/34 183/415/34 145/414/34
f 190/417/40 163/416/40 165/422/40 193/423/40
f 194/424/35 185/425/35 184/421/35 146/420/35
f 193/423/41 165/422/41 164/426/41 192/427/41
f 147/428/36 186/429/36 185/430/36 194/431/36
f 160/432/42 167/433/42 166/419/42 170/418/42
f 195/434/37 187/435/37 186/429/37 147/428/37
f 151/436/39 176/437/39 177/438/39 150/439/39
f 196/349/38 188/348/38 187/435/38 195/434/38
f 152/353/40 175/352/40 176/437/40 151/436/40
f 158/440/33 178/441/33 179/381/33 157/380/33
f 150/442/5 197/443/5 151/444/5
f 151/444/5 197/443/5 152/445/5
f 152/445/5 197/443/5 153/446/5
f 153/446/5 197/443/5 154/447/5
f 154/447/5 197/443/5 155/448/5
f 155/448/5 197/443/5 156/449/5
f 156/449/5 197/443/5 157/450/5
f 157/450/5 197/443/5 158/451/5
f 146/412/3 145/452/3 163/453/3 162/413/3
f 173/402/5 149/368/5 172/371/5 171/403/5
f 196/375/3 195/354/3 159/357/3 166/376/3
f 144/454/3 143/455/3 164/456/3 165/457/3
f 148/369/5 179/458/5 170/459/5 169/370/5
f 179/458/5 178/460/5 160/461/5 170/459/5
f 145/452/3 144/454/3 165/457/3 163/453/3
f 176/387/5 175/360/5 190/363/5 193/388/5
