# Blender v2.75 (sub 0) OBJ File: 'CafeKit_Master.blend'
# www.blender.org
mtllib asset_statue_low.mtl
o Cube.022
v 4.813413 0.521754 0.353267
v 4.675957 0.389560 0.482671
v 4.517329 0.389560 0.324043
v 4.646733 0.521754 0.186587
v 4.882763 0.710739 -0.039093
v 4.960907 0.710739 -0.117237
v 4.882763 0.710739 0.039093
v 4.960907 0.710739 0.117237
v 4.110622 -1.000000 1.000000
v 4.000000 -1.000000 0.889378
v 4.277065 0.100000 0.833557
v 4.166443 0.100000 0.722935
v 4.000000 -1.000000 -0.889378
v 4.110622 -1.000000 -1.000000
v 4.166443 0.100000 -0.722935
v 4.277065 0.100000 -0.833557
v 4.110622 0.100000 1.000000
v 4.000000 0.100000 0.889378
v 4.000000 0.100000 -0.889378
v 4.110622 0.100000 -1.000000
v 4.702790 0.468495 -0.186587
v 4.813413 0.468495 -0.297210
v 4.813413 0.468495 0.297210
v 4.702790 0.468495 0.186587
v 4.565334 0.328943 0.324043
v 4.675957 0.328943 0.434666
v 4.675957 0.328943 -0.434666
v 4.565334 0.328943 -0.324043
v 4.488003 0.195454 -0.622619
v 4.377381 0.195454 -0.511997
v 4.377381 0.195454 0.511997
v 4.488003 0.195454 0.622619
v 4.944659 0.618150 -0.165963
v 4.834037 0.618150 -0.055341
v 4.834037 0.618150 0.055341
v 4.944659 0.618150 0.165963
v 4.517329 0.389560 -0.324043
v 4.646733 0.521754 -0.186587
v 4.813413 0.521754 -0.353267
v 4.675957 0.389560 -0.482671
v 4.488003 0.264101 -0.658207
v 4.341793 0.264101 -0.511997
v 4.488003 0.264101 0.658207
v 4.341793 0.264101 0.511997
v 4.134564 0.170446 0.722935
v 4.277065 0.170446 0.865436
v 4.134564 0.170446 -0.722935
v 4.277065 0.170446 -0.865436
v 4.944659 0.669133 0.224098
v 4.775902 0.669133 0.055341
v 4.944659 0.669133 -0.224098
v 4.775902 0.669133 -0.055341
v 4.110622 -0.450000 1.000000
v 4.000000 -0.450000 0.889378
v 4.110622 -0.450000 -1.000000
v 4.000000 -0.450000 -0.889378
v 3.949170 -1.000000 0.910432
v 4.089568 -1.000000 1.050830
v 3.949170 -0.450000 0.910432
v 4.089568 -0.450000 -1.050830
v 4.089568 -1.000000 -1.050830
v 3.949170 -1.000000 -0.910432
v 4.089568 -0.450000 1.050830
v 3.949170 -0.450000 -0.910432
v 5.186587 0.521754 0.353267
v 5.324043 0.389560 0.482671
v 5.482671 0.389560 0.324043
v 5.353267 0.521754 0.186587
v 5.000000 0.100000 -1.000000
v 5.000000 -1.000000 -1.000000
v 5.000000 0.100000 1.000000
v 5.000000 -1.000000 1.000000
v 5.000000 0.669133 -0.224098
v 5.000000 0.669133 0.224098
v 5.000000 0.100000 0.833557
v 5.000000 0.100000 -0.833557
v 5.117237 0.710739 -0.039093
v 5.039093 0.710739 -0.117237
v 5.000000 0.170446 -0.865436
v 5.000000 0.170446 0.865436
v 5.000000 0.262509 0.661124
v 5.000000 0.262509 -0.661124
v 5.000000 0.710739 -0.117237
v 5.117237 0.710739 0.039093
v 5.039093 0.710739 0.117237
v 5.000000 0.710739 0.117237
v 5.000000 0.387821 -0.484789
v 5.000000 0.521139 -0.353845
v 5.000000 0.618150 -0.165963
v 5.000000 0.618150 0.165963
v 5.000000 0.521139 0.353845
v 5.000000 0.387821 0.484789
v 5.889378 -1.000000 1.000000
v 6.000000 -1.000000 0.889378
v 5.722935 0.100000 0.833557
v 5.833557 0.100000 0.722935
v 6.000000 -1.000000 -0.889378
v 5.889378 -1.000000 -1.000000
v 5.833557 0.100000 -0.722935
v 5.722935 0.100000 -0.833557
v 5.889378 0.100000 1.000000
v 6.000000 0.100000 0.889378
v 6.000000 0.100000 -0.889378
v 5.889378 0.100000 -1.000000
v 5.297210 0.468495 -0.186587
v 5.186587 0.468495 -0.297210
v 5.186587 0.468495 0.297210
v 5.297210 0.468495 0.186587
v 5.434666 0.328943 0.324043
v 5.324043 0.328943 0.434666
v 5.324043 0.328943 -0.434666
v 5.434666 0.328943 -0.324043
v 5.511997 0.195454 -0.622619
v 5.622619 0.195454 -0.511997
v 5.622619 0.195454 0.511997
v 5.511997 0.195454 0.622619
v 5.055341 0.618150 -0.165963
v 5.165963 0.618150 -0.055341
v 5.165963 0.618150 0.055341
v 5.055341 0.618150 0.165963
v 5.482671 0.389560 -0.324043
v 5.353267 0.521754 -0.186587
v 5.186587 0.521754 -0.353267
v 5.324043 0.389560 -0.482671
v 5.511997 0.264101 -0.658207
v 5.658207 0.264101 -0.511997
v 5.511997 0.264101 0.658207
v 5.658207 0.264101 0.511997
v 5.865436 0.170446 0.722935
v 5.722935 0.170446 0.865436
v 5.865436 0.170446 -0.722935
v 5.722935 0.170446 -0.865436
v 5.055341 0.669133 0.224098
v 5.224098 0.669133 0.055341
v 5.055341 0.669133 -0.224098
v 5.224098 0.669133 -0.055341
v 5.000000 -0.450000 1.000000
v 5.000000 -0.450000 -1.000000
v 5.889378 -0.450000 1.000000
v 6.000000 -0.450000 0.889378
v 5.889378 -0.450000 -1.000000
v 6.000000 -0.450000 -0.889378
v 5.000000 -0.450000 1.055018
v 5.000000 -1.000000 1.055018
v 5.000000 -0.450000 -1.055018
v 5.000000 -1.000000 -1.055018
v 6.050830 -1.000000 0.910432
v 5.910432 -1.000000 1.050830
v 6.050830 -0.450000 0.910432
v 5.910432 -0.450000 -1.050830
v 5.910432 -1.000000 -1.050830
v 6.050830 -1.000000 -0.910432
v 5.910432 -0.450000 1.050830
v 6.050830 -0.450000 -0.910432
vt 0.047998 0.627618
vt 0.015111 0.593833
vt 0.015111 0.050588
vt 0.047998 0.016803
vt 0.312401 0.016803
vt 0.312401 0.627618
vt 0.802882 0.933992
vt 0.802882 0.492412
vt 0.852187 0.441579
vt 0.852187 0.984824
vt 0.000000 0.600263
vt 0.000000 0.044158
vt 0.688870 0.770293
vt 0.688870 0.990293
vt 0.639388 0.990293
vt 0.639388 0.719641
vt 0.179434 0.870029
vt 0.195783 0.871273
vt 0.195783 0.889076
vt 0.179434 0.887832
vt 0.912430 1.000000
vt 0.896432 0.930910
vt 0.918994 0.926398
vt 0.934726 0.994259
vt 0.163493 0.903832
vt 0.163493 0.870029
vt 0.179434 0.903832
vt 0.893457 0.860156
vt 0.916443 0.860140
vt 0.688870 0.859612
vt 0.691845 0.788802
vt 0.714410 0.793299
vt 0.711856 0.859614
vt 0.852187 0.880182
vt 0.855162 0.809429
vt 0.877724 0.813940
vt 0.875173 0.880198
vt 0.608461 0.855136
vt 0.608615 0.821307
vt 0.636341 0.835917
vt 0.636232 0.859814
vt 0.870843 1.000000
vt 0.859776 0.939883
vt 0.882535 0.936576
vt 0.893457 0.995765
vt 0.737743 0.779789
vt 0.748817 0.719641
vt 0.771428 0.723891
vt 0.760501 0.783110
vt 0.968586 0.991255
vt 0.968586 0.448010
vt 0.983644 0.441579
vt 0.983644 0.997685
vt 0.913720 0.270652
vt 0.913720 0.050651
vt 0.963202 0.000000
vt 0.963202 0.270652
vt 0.733124 0.910334
vt 0.730149 0.839524
vt 0.753135 0.839523
vt 0.755689 0.905837
vt 0.984009 0.000012
vt 0.984009 0.220802
vt 0.963202 0.220790
vt 0.901045 0.800456
vt 0.912113 0.740338
vt 0.934726 0.744574
vt 0.923805 0.803762
vt 0.277286 0.644421
vt 0.277286 0.864421
vt 0.216546 0.866796
vt 0.215679 0.711028
vt 0.310212 0.644421
vt 0.310212 0.812378
vt 0.277286 0.812853
vt 0.277286 0.644896
vt 1.000000 0.725049
vt 1.000000 0.995701
vt 0.983644 0.995701
vt 0.984889 0.718642
vt 0.562035 0.893238
vt 0.562035 0.821478
vt 0.608461 0.821307
vt 0.608461 0.893067
vt 0.312401 0.899491
vt 0.312401 0.827731
vt 0.358827 0.827901
vt 0.358827 0.899662
vt 0.852753 0.679623
vt 0.852187 0.617770
vt 0.898594 0.619118
vt 0.899160 0.680971
vt 0.899983 0.564148
vt 0.900548 0.502294
vt 0.946956 0.500947
vt 0.946390 0.562800
vt 0.946604 0.646300
vt 0.900196 0.647648
vt 0.898808 0.535617
vt 0.852400 0.534270
vt 0.853575 0.441579
vt 0.899983 0.442927
vt 0.901371 0.740338
vt 0.947779 0.738991
vt 0.899983 0.740338
vt 0.853575 0.738991
vt 0.947779 0.441579
vt 0.901371 0.442927
vt 0.041739 0.001279
vt 0.312401 0.000000
vt 0.799928 0.000000
vt 0.799928 0.441579
vt 0.736190 0.377157
vt 0.736190 0.064422
vt 0.913720 0.005607
vt 0.913720 0.225608
vt 0.852113 0.159000
vt 0.852980 0.003232
vt 0.884640 0.324575
vt 0.884640 0.423543
vt 0.844581 0.381834
vt 0.844463 0.324848
vt 0.844581 0.267317
vt 0.844463 0.324302
vt 0.799928 0.324005
vt 0.800018 0.307104
vt 0.562035 0.821307
vt 0.562035 0.935277
vt 0.517684 0.895194
vt 0.517684 0.861391
vt 0.681041 0.319755
vt 0.681041 0.121824
vt 0.799928 0.098567
vt 0.800558 0.000000
vt 0.639388 0.277775
vt 0.639388 0.163804
vt 0.800018 0.342047
vt 0.799928 0.325145
vt 0.164123 0.870029
vt 0.163493 0.771462
vt 0.884640 0.225608
vt 0.707850 0.719641
vt 0.730149 0.725368
vt 0.968586 0.441579
vt 0.968586 0.883159
vt 0.947779 0.883159
vt 0.871161 0.740338
vt 0.893457 0.746079
vt 0.696464 0.919347
vt 0.719222 0.916026
vt 0.792236 0.719641
vt 0.792236 0.940431
vt 0.771428 0.940443
vt 0.771428 0.719654
vt 0.749129 0.979495
vt 0.771428 0.973768
vt 0.212132 0.887832
vt 0.212132 0.870029
vt 0.707538 0.979495
vt 0.730149 0.975245
vt 0.370408 0.827731
vt 0.393556 0.851596
vt 0.393556 0.875475
vt 0.370408 0.899341
vt 0.358827 0.899341
vt 0.358827 0.827731
vt 0.608615 0.872037
vt 0.636341 0.871752
vt 0.393710 0.878460
vt 0.393556 0.844631
vt 0.421327 0.839954
vt 0.421436 0.863851
vt 0.393710 0.827731
vt 0.421436 0.828015
vt 0.449163 0.827731
vt 0.449163 0.861534
vt 0.421436 0.856571
vt 0.421436 0.832693
vt 0.475895 0.543245
vt 0.475895 0.000000
vt 0.639388 0.000000
vt 0.639388 0.543245
vt 0.277286 0.980811
vt 0.310212 0.813328
vt 0.310212 0.981286
vt 0.449163 0.881788
vt 0.449163 0.834094
vt 0.464247 0.827731
vt 0.464247 0.888262
vt 0.312401 0.556105
vt 0.475895 0.556108
vt 0.475895 0.827731
vt 0.163493 0.644421
vt 0.163493 0.916043
vt 0.000000 0.916046
vt 0.000000 0.644424
vt 0.639388 0.441579
vt 0.802882 0.441587
vt 0.802882 0.719641
vt 0.475895 0.821307
vt 0.475895 0.543253
vt 0.639388 0.821299
vt 0.941772 0.273622
vt 0.941772 0.441579
vt 0.899983 0.440977
vt 0.899983 0.273019
vt 0.475895 0.989868
vt 0.475895 0.821910
vt 0.517684 0.821307
vt 0.517684 0.989265
vt 0.983644 0.718564
vt 0.984860 0.447915
vt 1.000000 0.441579
vt 1.000000 0.718642
vt 0.421436 0.915702
vt 0.421436 0.868008
vt 0.436520 0.861534
vt 0.436520 0.922065
vt 0.312401 0.644421
vt 0.041739 0.643142
vn 0.000000 -1.000000 0.000000
vn 0.000000 1.000000 0.000000
vn 0.000000 0.751800 0.659400
vn 0.609000 0.295400 0.736100
vn 0.659400 0.751800 0.000000
vn 0.541300 0.350000 0.764500
vn -0.764500 0.350000 -0.541300
vn 0.541300 0.350000 -0.764500
vn -0.633400 0.444500 -0.633400
vn 0.373200 0.408800 -0.832800
vn -0.832800 0.408800 0.373200
vn -0.764500 0.350000 0.541300
vn 0.000000 -0.412300 -0.911100
vn -0.810400 0.395200 0.432500
vn 0.373200 0.408800 0.832800
vn 0.000200 0.911400 0.411400
vn -0.707100 0.000000 0.707100
vn -0.412400 0.812300 0.412400
vn -0.412400 0.812300 -0.412400
vn -0.317300 0.893600 -0.317300
vn -0.317300 0.893600 0.317300
vn -0.215500 0.952400 0.215500
vn -0.215500 0.952400 -0.215500
vn -0.443800 0.778500 0.443800
vn -0.443800 0.778500 -0.443800
vn -0.411800 0.911300 0.000000
vn 0.000200 0.911400 -0.411400
vn -0.000500 0.700300 -0.713900
vn -0.000100 0.659200 0.752000
vn -0.752000 0.659100 0.000000
vn -0.581500 0.813600 0.000000
vn -0.000200 0.814400 -0.580300
vn -0.714600 0.699500 0.000000
vn -0.000100 0.659200 -0.752000
vn -0.000200 0.814400 0.580300
vn -0.000500 0.700300 0.713900
vn 0.432500 0.395200 0.810400
vn -0.736100 0.295400 -0.609000
vn -0.911100 -0.412300 0.000000
vn 0.609000 0.295400 -0.736100
vn -0.810400 0.395200 -0.432500
vn 0.000000 -0.412300 0.911100
vn -0.736100 0.295400 0.609000
vn 0.000000 0.751800 -0.659400
vn -0.832800 0.408800 -0.373200
vn 0.432500 0.395200 -0.810400
vn 0.000000 0.465700 -0.884900
vn -0.633400 0.444500 0.633400
vn 0.000000 0.465700 0.884900
vn -0.884900 0.465700 0.000000
vn -1.000000 0.000000 0.000000
vn -0.707100 0.000000 -0.707100
vn 0.000000 0.000000 -1.000000
vn 0.000000 0.000000 1.000000
vn -0.004600 0.000000 1.000000
vn -0.004600 0.000000 -1.000000
vn -0.609000 0.295400 0.736100
vn -0.659400 0.751800 0.000000
vn -0.541300 0.350000 0.764500
vn 0.764500 0.350000 -0.541300
vn -0.541300 0.350000 -0.764500
vn 0.633400 0.444500 -0.633400
vn -0.373200 0.408800 -0.832800
vn 0.832800 0.408800 0.373200
vn 0.764500 0.350000 0.541300
vn 0.810400 0.395200 0.432500
vn -0.373200 0.408800 0.832800
vn -0.000200 0.911400 0.411400
vn 0.707100 0.000000 0.707100
vn 0.412400 0.812300 0.412400
vn 0.412400 0.812300 -0.412400
vn 0.317300 0.893600 -0.317300
vn 0.317300 0.893600 0.317300
vn 0.215500 0.952400 0.215500
vn 0.215500 0.952400 -0.215500
vn 0.443800 0.778500 0.443800
vn 0.443800 0.778500 -0.443800
vn 0.411800 0.911300 0.000000
vn -0.000200 0.911400 -0.411400
vn 0.000500 0.700300 -0.713900
vn 0.000100 0.659200 0.752000
vn 0.752000 0.659100 0.000000
vn 0.581500 0.813600 0.000000
vn 0.000200 0.814400 -0.580300
vn 0.714600 0.699500 0.000000
vn 0.000100 0.659200 -0.752000
vn 0.000200 0.814400 0.580300
vn 0.000500 0.700300 0.713900
vn -0.432500 0.395200 0.810400
vn 0.736100 0.295400 -0.609000
vn 0.911100 -0.412300 0.000000
vn -0.609000 0.295400 -0.736100
vn 0.810400 0.395200 -0.432500
vn 0.736100 0.295400 0.609000
vn 0.832800 0.408800 -0.373200
vn -0.432500 0.395200 -0.810400
vn 0.633400 0.444500 0.633400
vn 0.884900 0.465700 0.000000
vn 1.000000 0.000000 0.000000
vn 0.707100 0.000000 -0.707100
vn 0.004600 0.000000 1.000000
vn 0.004600 0.000000 -1.000000
usemtl None
s off
f 9/1/1 10/2/1 13/3/1 14/4/1 70/5/1 72/6/1
f 12/7/2 15/8/2 19/9/2 18/10/2
f 13/3/1 10/2/1 57/11/1 62/12/1
f 16/13/2 76/14/2 69/15/2 20/16/2
f 33/17/3 89/18/3 73/19/3 51/20/3
f 12/21/4 31/22/4 44/23/4 45/24/4
f 35/25/5 34/26/5 52/17/5 50/27/5
f 31/22/6 25/28/6 3/29/6 44/23/6
f 26/30/7 32/31/7 43/32/7 2/33/7
f 28/34/8 30/35/8 42/36/8 37/37/8
f 33/38/9 34/39/9 5/40/9 6/41/9
f 34/42/10 21/43/10 38/44/10 52/45/10
f 22/46/11 33/47/11 51/48/11 39/49/11
f 54/50/2 56/51/2 64/52/2 59/53/2
f 75/54/2 11/55/2 17/56/2 71/57/2
f 29/58/12 27/59/12 40/60/12 41/61/12
f 76/62/13 16/63/13 48/64/13 79/56/13
f 27/59/14 22/46/14 39/49/14 40/60/14
f 24/65/15 35/66/15 50/67/15 4/68/15
f 46/69/16 80/70/16 81/71/16 43/72/16
f 53/73/17 17/74/17 18/75/17 54/76/17
f 55/77/2 138/78/2 145/79/2 60/80/2
f 17/81/2 11/82/2 12/83/2 18/84/2
f 16/85/2 20/86/2 19/87/2 15/88/2
f 24/89/18 25/90/18 26/91/18 23/92/18
f 28/93/19 21/94/19 22/95/19 27/96/19
f 27/96/20 29/97/20 30/98/20 28/93/20
f 32/99/21 26/91/21 25/90/21 31/100/21
f 31/100/22 12/101/22 11/102/22 32/99/22
f 15/103/23 30/98/23 29/97/23 16/104/23
f 23/92/24 36/105/24 35/106/24 24/89/24
f 33/107/25 22/95/25 21/94/25 34/108/25
f 70/5/1 14/4/1 61/109/1 146/110/1
f 47/111/26 45/112/26 44/113/26 42/114/26
f 79/115/27 48/116/27 41/117/27 82/118/27
f 87/119/28 40/120/28 39/121/28 88/122/28
f 1/123/29 91/124/29 74/125/29 49/126/29
f 38/127/30 4/128/30 50/129/30 52/130/30
f 42/114/31 44/113/31 3/131/31 37/132/31
f 82/118/32 41/117/32 40/133/32 87/134/32
f 37/132/33 3/131/33 4/135/33 38/136/33
f 88/122/34 39/121/34 51/137/34 73/138/34
f 43/72/35 81/71/35 92/139/35 2/140/35
f 2/141/36 92/119/36 91/124/36 1/123/36
f 25/28/37 24/65/37 4/68/37 3/29/37
f 32/31/38 11/142/38 46/143/38 43/32/38
f 15/144/39 12/145/39 45/146/39 47/107/39
f 30/35/40 15/147/40 47/148/40 42/36/40
f 23/149/41 26/30/41 2/33/41 1/150/41
f 11/151/42 75/152/42 80/153/42 46/154/42
f 16/155/43 29/58/43 41/61/43 48/156/43
f 90/157/44 36/19/44 49/18/44 74/158/44
f 36/159/45 23/149/45 1/150/45 49/160/45
f 21/43/46 28/34/46 37/37/46 38/44/46
f 6/161/2 5/162/2 7/163/2 8/164/2 86/165/2 83/166/2
f 89/167/47 33/38/47 6/41/47 83/168/47
f 35/169/48 36/170/48 8/171/48 7/172/48
f 36/170/49 90/173/49 86/174/49 8/171/49
f 34/175/50 35/176/50 7/177/50 5/178/50
f 18/179/51 19/180/51 56/181/51 54/182/51
f 20/183/52 55/75/52 56/184/52 19/185/52
f 53/186/2 54/187/2 59/188/2 63/189/2
f 20/86/53 69/190/53 138/191/53 55/192/53
f 71/193/54 17/194/54 53/195/54 137/196/54
f 143/16/55 63/197/55 58/198/55 144/199/55
f 60/200/56 145/201/56 146/182/56 61/202/56
f 60/203/52 61/204/52 62/205/52 64/206/52
f 59/190/51 64/110/51 62/180/51 57/191/51
f 58/207/17 63/208/17 59/209/17 57/210/17
f 137/211/2 53/212/2 63/213/2 143/214/2
f 56/215/2 55/216/2 60/217/2 64/218/2
f 9/1/1 72/6/1 144/219/1 58/220/1
f 14/4/1 13/3/1 62/12/1 61/109/1
f 10/2/1 9/1/1 58/220/1 57/11/1
f 93/1/1 72/6/1 70/5/1 98/4/1 97/3/1 94/2/1
f 96/7/2 102/10/2 103/9/2 99/8/2
f 97/3/1 152/12/1 147/11/1 94/2/1
f 100/13/2 104/16/2 69/15/2 76/14/2
f 117/17/3 135/20/3 73/19/3 89/18/3
f 96/21/57 129/24/57 128/23/57 115/22/57
f 119/25/58 134/27/58 136/17/58 118/26/58
f 115/22/59 128/23/59 67/29/59 109/28/59
f 110/30/60 66/33/60 127/32/60 116/31/60
f 112/34/61 121/37/61 126/36/61 114/35/61
f 117/38/62 78/41/62 77/40/62 118/39/62
f 118/42/63 136/45/63 122/44/63 105/43/63
f 106/46/64 123/49/64 135/48/64 117/47/64
f 140/50/2 149/53/2 154/52/2 142/51/2
f 75/54/2 71/57/2 101/56/2 95/55/2
f 113/58/65 125/61/65 124/60/65 111/59/65
f 76/62/13 79/56/13 132/64/13 100/63/13
f 111/59/66 124/60/66 123/49/66 106/46/66
f 108/65/67 68/68/67 134/67/67 119/66/67
f 130/69/68 127/72/68 81/71/68 80/70/68
f 139/73/69 140/76/69 102/75/69 101/74/69
f 141/77/2 150/80/2 145/79/2 138/78/2
f 101/81/2 102/84/2 96/83/2 95/82/2
f 100/85/2 99/88/2 103/87/2 104/86/2
f 108/89/70 107/92/70 110/91/70 109/90/70
f 112/93/71 111/96/71 106/95/71 105/94/71
f 111/96/72 112/93/72 114/98/72 113/97/72
f 116/99/73 115/100/73 109/90/73 110/91/73
f 115/100/74 116/99/74 95/102/74 96/101/74
f 99/103/75 100/104/75 113/97/75 114/98/75
f 107/92/76 108/89/76 119/106/76 120/105/76
f 117/107/77 118/108/77 105/94/77 106/95/77
f 70/5/1 146/110/1 151/109/1 98/4/1
f 131/111/78 126/114/78 128/113/78 129/112/78
f 79/115/79 82/118/79 125/117/79 132/116/79
f 87/119/80 88/122/80 123/121/80 124/120/80
f 65/123/81 133/126/81 74/125/81 91/124/81
f 122/127/82 136/130/82 134/129/82 68/128/82
f 126/114/83 121/132/83 67/131/83 128/113/83
f 82/118/84 87/134/84 124/133/84 125/117/84
f 121/132/85 122/136/85 68/135/85 67/131/85
f 88/122/86 73/138/86 135/137/86 123/121/86
f 127/72/87 66/140/87 92/139/87 81/71/87
f 66/141/88 65/123/88 91/124/88 92/119/88
f 109/28/89 67/29/89 68/68/89 108/65/89
f 116/31/90 127/32/90 130/143/90 95/142/90
f 99/144/91 131/107/91 129/146/91 96/145/91
f 114/35/92 126/36/92 131/148/92 99/147/92
f 107/149/93 65/150/93 66/33/93 110/30/93
f 95/151/42 130/154/42 80/153/42 75/152/42
f 100/155/94 132/156/94 125/61/94 113/58/94
f 90/157/44 74/158/44 133/18/44 120/19/44
f 120/159/95 133/160/95 65/150/95 107/149/95
f 105/43/96 122/44/96 121/37/96 112/34/96
f 78/161/2 83/166/2 86/165/2 85/164/2 84/163/2 77/162/2
f 89/167/47 83/168/47 78/41/47 117/38/47
f 119/169/97 84/172/97 85/171/97 120/170/97
f 120/170/49 85/171/49 86/174/49 90/173/49
f 118/175/98 77/178/98 84/177/98 119/176/98
f 102/179/99 140/182/99 142/181/99 103/180/99
f 104/183/100 103/185/100 142/184/100 141/75/100
f 139/186/2 153/189/2 149/188/2 140/187/2
f 104/86/53 141/192/53 138/191/53 69/190/53
f 71/193/54 137/196/54 139/195/54 101/194/54
f 143/16/101 144/199/101 148/198/101 153/197/101
f 150/200/102 151/202/102 146/182/102 145/201/102
f 150/203/100 154/206/100 152/205/100 151/204/100
f 149/190/99 147/191/99 152/180/99 154/110/99
f 148/207/69 147/210/69 149/209/69 153/208/69
f 137/211/2 143/214/2 153/213/2 139/212/2
f 142/215/2 154/218/2 150/217/2 141/216/2
f 93/1/1 148/220/1 144/219/1 72/6/1
f 98/4/1 151/109/1 152/12/1 97/3/1
f 94/2/1 147/11/1 148/220/1 93/1/1
